<svg width="535" height="800" viewBox="0 0 535 800" fill="none" xmlns="http://www.w3.org/2000/svg">
<g clip-path="url(#clip0_0_720)">
<rect x="7" y="7" width="521" height="786" fill="#3D5D8C"/>
<path fill-rule="evenodd" clip-rule="evenodd" d="M33 550.848L142.14 581.506L33 614.615V618.145L557 618.145V548L33 548V550.848Z" fill="#050505"/>
<path fill-rule="evenodd" clip-rule="evenodd" d="M517 637.848L407.86 668.506L517 701.615V705.145L-7 705.145L-7 635L517 635V637.848Z" fill="#EADEC4"/>
<rect x="7" y="718" width="523" height="75" fill="#7A0005"/>
<path d="M368.693 290.142C369.068 291.396 370.049 290.058 370.796 289.513C373.919 287.237 378.215 285.859 381.821 284.487C389.709 281.488 398.309 279.29 406.661 278.068C408.14 277.851 416.494 276.357 417.113 278.955C417.45 280.367 414.145 282.913 413.204 283.814C410.095 286.794 406.107 289.075 402.792 291.87C398.846 295.198 395.528 300.031 391.125 302.739C390.719 302.989 394.406 303.418 394.859 303.492C398.333 304.06 401.749 305.238 405.131 306.142C409.611 307.339 413.503 309.097 417.667 310.986C419.714 311.915 423.032 312.581 424.236 314.538C425.349 316.347 423.68 316.778 421.74 317.357C418.101 318.445 414.523 319.996 410.955 321.309C404.957 323.516 398.242 325.679 391.847 326.198C391.535 326.224 388.402 325.849 390.172 326.79C392.779 328.176 395.646 329.038 398.214 330.54C401.743 332.603 404.644 335.505 408.026 337.77C411.009 339.768 412.736 341.607 414.754 344.464C415.107 344.963 416.902 347.477 416.257 348.026C415.726 348.477 412.908 347.223 412.218 347.068C407.917 346.102 403.119 346.674 398.753 345.964C394.31 345.243 389.695 345.973 385.176 345.304C382.883 344.965 380.734 344.962 378.454 344.829C377.019 344.745 375.591 343.862 374.129 344.299C373.15 344.591 368.367 345.069 367.839 344.537" stroke="#050505" stroke-width="7" stroke-linecap="round"/>
<path d="M178.869 291.079C178.476 292.313 177.559 290.993 176.848 290.455C173.881 288.207 169.755 286.839 166.297 285.48C158.733 282.508 150.46 280.323 142.403 279.099C140.976 278.882 132.924 277.391 132.261 279.947C131.9 281.337 135.038 283.851 135.927 284.741C138.864 287.682 142.67 289.938 145.811 292.698C149.551 295.984 152.645 300.75 156.842 303.427C157.229 303.674 153.649 304.087 153.208 304.159C149.831 304.71 146.494 305.862 143.197 306.743C138.831 307.911 135.019 309.632 130.941 311.483C128.937 312.392 125.708 313.039 124.494 314.963C123.372 316.741 124.978 317.17 126.842 317.745C130.339 318.825 133.765 320.361 137.187 321.662C142.941 323.85 149.389 325.996 155.569 326.522C155.871 326.548 158.913 326.187 157.176 327.109C154.618 328.467 151.821 329.309 149.298 330.781C145.831 332.804 142.951 335.654 139.62 337.876C136.684 339.836 134.967 341.642 132.942 344.45C132.589 344.941 130.789 347.411 131.4 347.953C131.903 348.399 134.663 347.171 135.334 347.02C139.523 346.079 144.154 346.654 148.399 345.966C152.718 345.266 157.168 345.997 161.561 345.35C163.789 345.021 165.87 345.024 168.081 344.898C169.473 344.819 170.877 343.953 172.282 344.387C173.222 344.677 177.842 345.159 178.366 344.637" stroke="#050505" stroke-width="7" stroke-linecap="round"/>
<path d="M232.268 251.913C214.147 251.82 199.968 258.176 189.732 270.981C179.497 283.616 174.335 298.562 174.246 315.817C174.158 333.072 179.166 348.155 189.27 361.064C199.375 373.804 213.489 380.22 231.61 380.313C246.218 380.388 258.26 376.135 267.734 367.556C277.394 358.978 283.831 347.845 287.045 334.158C293.011 360.749 306.719 374.1 328.168 374.21C338.154 374.261 346.676 371.09 353.736 364.698C360.98 358.306 366.011 350.973 368.827 342.698C371.829 334.255 373.352 325.634 373.397 316.838C373.442 308.041 372.007 299.49 369.091 291.186C366.36 282.713 361.406 275.244 354.227 268.778C347.234 262.314 338.744 259.056 328.759 259.005C307.309 258.895 293.465 272.104 287.227 298.633C283.968 284.913 277.646 273.715 268.26 265.039C258.873 256.363 246.876 251.988 232.268 251.913ZM328.353 338.177C318.738 338.127 310.24 336.477 302.86 333.224C295.666 329.804 292.088 324.203 292.128 316.421C292.169 308.47 295.803 302.906 303.031 299.729C310.259 296.551 318.774 294.988 328.574 295.038C338.005 295.086 346.04 296.735 352.68 299.983C359.506 303.232 362.898 308.833 362.857 316.784C362.817 324.735 359.367 330.3 352.509 333.479C345.836 336.659 337.784 338.225 328.353 338.177ZM231.803 342.757C216.823 343.019 205.278 340.676 197.167 335.728C188.869 331.118 184.742 324.499 184.786 315.871C184.83 307.413 189.024 300.752 197.371 295.888C205.53 291.363 217.099 289.223 232.076 289.468C265.172 290.146 281.677 299.112 281.588 316.367C281.5 333.622 264.905 342.419 231.803 342.757Z" fill="#EADEC4"/>
<path d="M313.907 317.693C313.878 313.44 315.045 310.042 317.409 307.498C319.772 304.822 323.071 303.468 327.304 303.437C331.274 303.407 334.524 304.712 337.056 307.351C339.588 309.991 340.869 313.371 340.897 317.491C340.925 321.612 339.758 325.01 337.395 327.686C334.898 330.231 331.599 331.518 327.498 331.549C323.396 331.579 320.146 330.341 317.747 327.833C315.215 325.194 313.935 321.814 313.907 317.693Z" fill="#050505"/>
<path d="M219.504 317.21C219.475 312.956 220.642 309.558 223.006 307.015C225.369 304.339 228.668 302.985 232.902 302.953C236.871 302.924 240.121 304.229 242.653 306.868C245.186 309.508 246.466 312.888 246.494 317.008C246.522 321.128 245.355 324.527 242.992 327.203C240.495 329.747 237.197 331.035 233.095 331.065C228.994 331.096 225.744 329.857 223.345 327.35C220.813 324.71 219.532 321.33 219.504 317.21Z" fill="#050505"/>
<path d="M313.167 395.579L283.912 396.819L283.213 429.363L289.283 429.494C291.502 428.295 298.374 424.49 309.9 418.077C322.621 410.972 330.512 406.877 333.572 405.792C329.728 408.01 327.764 411.082 327.68 415.01C327.59 419.176 329.492 422.931 333.385 426.273C337.363 429.569 342.851 431.292 349.849 431.442C354.908 431.551 359.186 430.685 362.684 428.843C366.267 427.004 368.802 424.83 370.29 422.322C371.778 419.815 372.552 417.172 372.611 414.394C372.71 409.796 370.94 405.829 367.3 402.493C363.744 399.158 358.173 397.409 350.584 397.246C344.261 397.11 336.831 399.394 328.294 404.098C327.699 404.325 326.548 404.899 324.841 405.82C324.073 406.235 321.384 407.711 316.774 410.247C314.726 411.353 312.337 412.619 309.607 414.046C306.961 415.475 305.297 416.373 304.614 416.742C301.969 418.17 299.538 419.412 297.322 420.466L297.616 406.816C297.648 405.284 297.715 404.135 297.816 403.371C298.001 402.608 298.398 401.826 299.005 401.024C299.697 400.225 300.722 399.648 302.079 399.294C303.521 398.941 305.466 398.696 307.915 398.557L313.109 398.309L313.167 395.579ZM362.597 409.363C366.116 410.493 367.849 412.279 367.796 414.722C367.744 417.165 365.935 418.875 362.372 419.852C358.808 420.83 354.665 421.292 349.942 421.238C344.545 421.17 340.215 420.478 336.954 419.162C333.86 417.898 332.338 416.116 332.387 413.817C332.44 411.374 334.247 409.688 337.81 408.759C341.374 407.781 345.517 407.343 350.238 407.445C354.96 407.546 359.08 408.186 362.597 409.363Z" fill="#050505"/>
<path d="M256.287 394.356L283.909 396.819L283.21 429.363L277.462 429.239C275.413 427.95 269.071 423.86 258.437 416.971C246.7 409.34 239.408 404.918 236.558 403.707C240.101 406.083 241.831 409.235 241.746 413.162C241.657 417.329 239.701 421.001 235.879 424.177C231.978 427.303 226.714 428.795 220.088 428.653C215.298 428.55 211.287 427.505 208.055 425.519C204.743 423.531 202.436 421.254 201.134 418.686C199.831 416.119 199.209 413.446 199.269 410.668C199.368 406.07 201.209 402.18 204.791 398.999C208.294 395.816 213.638 394.302 220.823 394.456C226.811 394.585 233.743 397.178 241.622 402.235C242.175 402.486 243.24 403.108 244.816 404.1C245.526 404.547 248.007 406.133 252.262 408.86C254.153 410.051 256.36 411.416 258.883 412.956C261.326 414.494 262.862 415.461 263.493 415.858C265.936 417.396 268.183 418.738 270.235 419.884L270.528 406.234C270.561 404.702 270.546 403.551 270.483 402.783C270.34 402.013 269.997 401.215 269.456 400.389C268.835 399.561 267.89 398.942 266.621 398.531C265.272 398.119 263.442 397.792 261.131 397.551L256.229 397.086L256.287 394.356ZM208.953 406.06C205.577 407.042 203.863 408.754 203.81 411.197C203.758 413.639 205.397 415.424 208.727 416.549C212.057 417.675 215.957 418.31 220.427 418.454C225.535 418.612 229.66 418.101 232.8 416.923C235.779 415.789 237.294 414.073 237.343 411.774C237.396 409.331 235.756 407.571 232.425 406.493C229.095 405.367 225.194 404.756 220.724 404.66C216.253 404.564 212.329 405.031 208.953 406.06Z" fill="#050505"/>
<path d="M283.968 412.901C275.639 412.858 267.248 414.697 258.794 418.416C250.341 422.001 242.877 427.943 236.403 436.242C230.035 444.406 226.823 453.998 226.766 465.018C226.711 475.902 229.824 485.527 236.108 493.891C242.391 502.12 249.741 508.138 258.156 511.944C266.677 515.75 275.102 517.675 283.431 517.717C291.761 517.76 300.099 515.989 308.447 512.403C316.901 508.684 324.312 502.742 330.68 494.577C337.048 486.278 340.261 476.619 340.317 465.599C340.36 457.268 338.554 449.666 334.899 442.794C331.35 435.787 326.687 430.187 320.909 425.991C315.237 421.796 309.191 418.607 302.771 416.424C296.351 414.107 290.084 412.932 283.968 412.901ZM334.308 465.569C334.262 474.438 330.7 480.332 323.621 483.252C316.54 486.441 303.195 487.986 283.584 487.885C264.185 487.786 250.909 486.038 243.757 482.642C236.393 479.379 232.733 473.514 232.776 465.048C232.82 456.448 236.488 450.554 243.779 447.366C251.071 444.178 264.416 442.634 283.816 442.733C303.215 442.833 316.492 444.513 323.644 447.775C330.797 451.037 334.352 456.968 334.308 465.569Z" fill="#7A0005"/>
<path d="M447.887 87.6258L485.884 66.199L477.248 23.44L509.368 52.9566L547.365 31.5298L529.219 71.1988L561.339 100.715L518.004 95.7156L499.858 135.385L491.222 92.6256L447.887 87.6258Z" fill="#7A0005"/>
<path d="M447.887 87.6258L485.884 66.199L477.248 23.44L509.368 52.9566L547.365 31.5298L529.219 71.1988L561.339 100.715L518.004 95.7156L499.858 135.385L491.222 92.6256L447.887 87.6258Z" fill="#7A0005"/>
<path d="M447.887 87.6258L485.884 66.199L477.248 23.44L509.368 52.9566L547.365 31.5298L529.219 71.1988L561.339 100.715L518.004 95.7156L499.858 135.385L491.222 92.6256L447.887 87.6258Z" fill="#7A0005"/>
<path d="M-19.8602 208.038L23.1063 215.575L43.5511 177.04L49.661 220.232L92.6275 227.769L53.4372 246.927L59.5471 290.119L29.2162 258.767L-9.97418 277.925L10.4707 239.391L-19.8602 208.038Z" fill="#7A0005"/>
<path d="M-19.8602 208.038L23.1063 215.575L43.5511 177.04L49.661 220.232L92.6275 227.769L53.4372 246.927L59.5471 290.119L29.2162 258.767L-9.97418 277.925L10.4707 239.391L-19.8602 208.038Z" fill="#7A0005"/>
<path d="M-19.8602 208.038L23.1063 215.575L43.5511 177.04L49.661 220.232L92.6275 227.769L53.4372 246.927L59.5471 290.119L29.2162 258.767L-9.97418 277.925L10.4707 239.391L-19.8602 208.038Z" fill="#7A0005"/>
<path d="M452.289 452.413L495.081 460.883L516.36 422.803L521.528 466.118L564.32 474.589L524.721 492.889L529.889 536.204L500.248 504.199L460.65 522.498L481.929 484.418L452.289 452.413Z" fill="#7A0005"/>
<path d="M452.289 452.413L495.081 460.883L516.36 422.803L521.528 466.118L564.32 474.589L524.721 492.889L529.889 536.204L500.248 504.199L460.65 522.498L481.929 484.418L452.289 452.413Z" fill="#7A0005"/>
<path d="M452.289 452.413L495.081 460.883L516.36 422.803L521.528 466.118L564.32 474.589L524.721 492.889L529.889 536.204L500.248 504.199L460.65 522.498L481.929 484.418L452.289 452.413Z" fill="#7A0005"/>
<path d="M445.228 288L487.188 276.069L488.807 232.477L513.12 268.695L555.079 256.764L528.146 291.08L552.459 327.298L511.501 312.288L484.568 346.603L486.187 303.01L445.228 288Z" fill="#7A0005"/>
<path d="M445.228 288L487.188 276.069L488.807 232.477L513.12 268.695L555.079 256.764L528.146 291.08L552.459 327.298L511.501 312.288L484.568 346.603L486.187 303.01L445.228 288Z" fill="#7A0005"/>
<path d="M445.228 288L487.188 276.069L488.807 232.477L513.12 268.695L555.079 256.764L528.146 291.08L552.459 327.298L511.501 312.288L484.568 346.603L486.187 303.01L445.228 288Z" fill="#7A0005"/>
<path d="M243.311 40.7708L281.867 20.3664L274.376 -22.608L305.696 7.75577L344.252 -12.6486L325.053 26.5216L356.373 56.8854L313.187 50.7302L293.988 89.9004L286.497 46.926L243.311 40.7708Z" fill="#7A0005"/>
<path d="M243.311 40.7708L281.867 20.3664L274.376 -22.608L305.696 7.75577L344.252 -12.6486L325.053 26.5216L356.373 56.8854L313.187 50.7302L293.988 89.9004L286.497 46.926L243.311 40.7708Z" fill="#7A0005"/>
<path d="M243.311 40.7708L281.867 20.3664L274.376 -22.608L305.696 7.75577L344.252 -12.6486L325.053 26.5216L356.373 56.8854L313.187 50.7302L293.988 89.9004L286.497 46.926L243.311 40.7708Z" fill="#7A0005"/>
<path d="M-25.0206 444.968L15.9998 430.127L14.5616 386.528L41.3518 420.955L82.3722 406.115L57.9091 442.232L84.6993 476.659L42.79 464.554L18.3269 500.671L16.8886 457.073L-25.0206 444.968Z" fill="#7A0005"/>
<path d="M-25.0206 444.968L15.9998 430.127L14.5616 386.528L41.3518 420.955L82.3722 406.115L57.9091 442.232L84.6993 476.659L42.79 464.554L18.3269 500.671L16.8886 457.073L-25.0206 444.968Z" fill="#7A0005"/>
<path d="M-25.0206 444.968L15.9998 430.127L14.5616 386.528L41.3518 420.955L82.3722 406.115L57.9091 442.232L84.6993 476.659L42.79 464.554L18.3269 500.671L16.8886 457.073L-25.0206 444.968Z" fill="#7A0005"/>
<path d="M22.2887 13.4128L65.0808 21.8834L86.3603 -16.1968L91.5278 27.1185L134.32 35.5891L94.7215 53.8888L99.889 97.2041L70.2483 65.1987L30.6499 83.4984L51.9294 45.4182L22.2887 13.4128Z" fill="#7A0005"/>
<path d="M22.2887 13.4128L65.0808 21.8834L86.3603 -16.1968L91.5278 27.1185L134.32 35.5891L94.7215 53.8888L99.889 97.2041L70.2483 65.1987L30.6499 83.4984L51.9294 45.4182L22.2887 13.4128Z" fill="#7A0005"/>
<path d="M22.2887 13.4128L65.0808 21.8834L86.3603 -16.1968L91.5278 27.1185L134.32 35.5891L94.7215 53.8888L99.889 97.2041L70.2483 65.1987L30.6499 83.4984L51.9294 45.4182L22.2887 13.4128Z" fill="#7A0005"/>
</g>
<rect x="3.5" y="3.5" width="528" height="793" stroke="#050505" stroke-width="7"/>
<defs>
<clipPath id="clip0_0_720">
<rect x="7" y="7" width="521" height="786" fill="white"/>
</clipPath>
</defs>
</svg>
