<svg width="535" height="800" viewBox="0 0 535 800" fill="none" xmlns="http://www.w3.org/2000/svg">
<g clip-path="url(#clip0_127_1593)">
<rect x="7" y="7" width="521" height="786" fill="#050505"/>
<path d="M512.379 18.0323L553.058 91.4288L635.433 75.4215L578.199 136.79L618.878 210.187L542.827 174.718L485.593 236.087L495.824 152.798L419.773 117.329L502.148 101.322L512.379 18.0323Z" fill="#7A0005"/>
<path d="M512.379 18.0323L553.058 91.4288L635.433 75.4215L578.199 136.79L618.878 210.187L542.827 174.718L485.593 236.087L495.824 152.798L419.773 117.329L502.148 101.322L512.379 18.0323Z" fill="#7A0005"/>
<path d="M512.379 18.0323L553.058 91.4288L635.433 75.4215L578.199 136.79L618.878 210.187L542.827 174.718L485.593 236.087L495.824 152.798L419.773 117.329L502.148 101.322L512.379 18.0323Z" fill="#EADEC4"/>
<path d="M506.734 449.491L542.888 505.531L607.357 488.464L565.232 540.165L601.386 596.205L539.198 572.119L497.073 623.82L500.763 557.232L438.575 533.146L503.044 516.079L506.734 449.491Z" fill="#7A0005"/>
<path d="M506.734 449.491L542.888 505.531L607.357 488.464L565.232 540.165L601.386 596.205L539.198 572.119L497.073 623.82L500.763 557.232L438.575 533.146L503.044 516.079L506.734 449.491Z" fill="#7A0005"/>
<path d="M506.734 449.491L542.888 505.531L607.357 488.464L565.232 540.165L601.386 596.205L539.198 572.119L497.073 623.82L500.763 557.232L438.575 533.146L503.044 516.079L506.734 449.491Z" fill="#EADEC4"/>
<path d="M30.7158 359.491L-5.438 415.531L-69.9072 398.464L-27.7823 450.165L-63.9361 506.205L-1.74763 482.119L40.3773 533.82L36.6869 467.232L98.8754 443.146L34.4062 426.079L30.7158 359.491Z" fill="#7A0005"/>
<path d="M30.7158 359.491L-5.438 415.531L-69.9072 398.464L-27.7823 450.165L-63.9361 506.205L-1.74763 482.119L40.3773 533.82L36.6869 467.232L98.8754 443.146L34.4062 426.079L30.7158 359.491Z" fill="#7A0005"/>
<path d="M30.7158 359.491L-5.438 415.531L-69.9072 398.464L-27.7823 450.165L-63.9361 506.205L-1.74763 482.119L40.3773 533.82L36.6869 467.232L98.8754 443.146L34.4062 426.079L30.7158 359.491Z" fill="#EADEC4"/>
<path d="M71.9771 -97.5595L81.1719 -14.1491L163.341 2.88137L86.8546 37.4013L96.0493 120.812L39.5832 58.7359L-36.9035 93.2558L4.68522 20.3708L-51.7809 -41.7051L30.3884 -24.6746L71.9771 -97.5595Z" fill="#7A0005"/>
<path d="M71.9771 -97.5595L81.1719 -14.1491L163.341 2.88137L86.8546 37.4013L96.0493 120.812L39.5832 58.7359L-36.9035 93.2558L4.68522 20.3708L-51.7809 -41.7051L30.3884 -24.6746L71.9771 -97.5595Z" fill="#7A0005"/>
<path d="M71.9771 -97.5595L81.1719 -14.1491L163.341 2.88137L86.8546 37.4013L96.0493 120.812L39.5832 58.7359L-36.9035 93.2558L4.68522 20.3708L-51.7809 -41.7051L30.3884 -24.6746L71.9771 -97.5595Z" fill="#EADEC4"/>
<path fill-rule="evenodd" clip-rule="evenodd" d="M449 553.848L339.86 584.506L449 617.615V621.145L-75 621.145L-75 551L449 551V553.848Z" fill="#7A0005"/>
<path fill-rule="evenodd" clip-rule="evenodd" d="M33 637.848L142.14 668.506L33 701.615V705.145L557 705.145V635L33 635V637.848Z" fill="#EADEC4"/>
<rect x="7" y="718" width="523" height="75" fill="#3D5D8C"/>
<path d="M405.629 328.037C405.629 329.709 407.32 328.43 408.434 328.037C413.088 326.393 418.852 326.277 423.769 325.917C434.523 325.13 445.855 325.585 456.527 327.144C458.417 327.42 469.19 328.647 468.998 332.054C468.894 333.906 463.916 335.813 462.435 336.573C457.539 339.083 451.822 340.417 446.742 342.626C440.693 345.257 434.863 349.96 428.483 351.665C427.894 351.822 432.251 353.695 432.779 353.952C436.823 355.918 440.575 358.61 444.385 360.954C449.431 364.058 453.552 367.634 457.959 371.471C460.125 373.356 463.944 375.385 464.702 378.221C465.403 380.843 463.201 380.76 460.615 380.76C455.762 380.76 450.814 381.35 445.966 381.653C437.815 382.161 428.804 382.352 420.785 380.648C420.393 380.565 416.695 378.961 418.518 380.76C421.203 383.41 424.397 385.514 426.991 388.292C430.556 392.109 433.047 396.722 436.359 400.733C439.28 404.27 440.721 407.153 442.147 411.389C442.396 412.13 443.674 415.864 442.684 416.299C441.869 416.658 438.877 414.091 438.089 413.649C433.177 410.893 427.094 409.838 422.009 407.372C416.834 404.864 410.917 404.07 405.629 401.598C402.946 400.344 400.316 399.555 397.574 398.557C395.847 397.93 394.423 396.326 392.472 396.326C391.167 396.326 381.452 392.844 381 392" stroke="#EADEC4" stroke-width="9" stroke-linecap="round"/>
<path d="M134.428 325.066C134.305 326.717 132.773 325.349 131.731 324.891C127.376 322.977 121.843 322.501 117.142 321.838C106.859 320.388 95.9292 320.127 85.553 320.996C83.7156 321.151 73.2668 321.686 73.2007 325.059C73.1647 326.893 77.8108 329.087 79.1795 329.93C83.7022 332.713 89.1014 334.387 93.8238 336.886C99.4463 339.86 104.706 344.866 110.716 346.948C111.27 347.14 106.943 348.715 106.417 348.935C102.383 350.622 98.578 353.043 94.7422 355.117C89.6619 357.863 85.436 361.134 80.9161 364.643C78.6954 366.367 74.8742 368.13 73.9363 370.881C73.0695 373.424 75.1928 373.48 77.6798 373.642C82.3461 373.946 87.0598 374.839 91.6996 375.441C99.4992 376.453 108.15 377.207 115.985 376.028C116.369 375.97 120.043 374.619 118.157 376.28C115.381 378.726 112.155 380.603 109.456 383.181C105.747 386.724 103.014 391.12 99.5336 394.87C96.4651 398.176 94.8676 400.931 93.1846 405.021C92.8906 405.736 91.3874 409.34 92.3071 409.832C93.0648 410.237 96.1298 407.892 96.9199 407.505C101.846 405.094 107.772 404.434 112.844 402.319C118.004 400.168 123.752 399.756 129.018 397.648C131.69 396.579 134.277 395.965 136.987 395.153C138.693 394.641 140.181 393.148 142.057 393.27C149.5 390 151.004 387.805 151.5 387" stroke="#EADEC4" stroke-width="9" stroke-linecap="round"/>
<path d="M261.812 354.275C259.763 371.222 251.961 385.149 238.407 396.054C225.009 406.812 209.169 412.191 190.886 412.191C170.869 412.191 155.738 405.633 145.494 392.517C135.406 379.549 131.86 361.57 134.855 338.58C138.322 311.317 146.36 290.022 158.97 274.695C171.579 259.369 191.438 250.747 218.547 248.832C228.95 248.242 236.752 247.947 241.953 247.947C248.888 247.505 253.774 246.621 256.611 245.295C259.29 244.116 260.866 242.2 261.339 239.547H271.505C270.087 250.305 267.25 258.705 262.994 264.748C258.896 270.642 251.882 274.548 241.953 276.464C236.909 277.495 226.98 278.527 212.164 279.558C199.87 280.443 190.019 281.843 182.611 283.758C175.204 285.527 168.978 288.622 163.934 293.043C158.891 297.464 155.108 302.916 152.586 309.401C150.222 315.738 148.252 324.285 146.676 335.043H149.513C154.083 323.254 161.334 314.264 171.263 308.074C181.193 301.885 193.014 298.79 206.726 298.79C224.221 298.79 238.328 304.022 249.045 314.485C259.763 324.948 264.019 338.212 261.812 354.275ZM177.174 353.612C175.282 370.559 175.598 382.717 178.12 390.086C180.484 397.749 185.133 401.581 192.068 401.581C199.318 401.581 204.914 398.044 208.854 390.97C212.794 384.044 215.71 372.254 217.602 355.601C219.493 339.096 219.257 327.232 216.892 320.011C214.528 312.938 209.879 309.401 202.944 309.401C195.693 309.401 190.098 312.79 186.158 319.569C182.06 326.496 179.065 337.843 177.174 353.612Z" fill="#3D5D8C"/>
<path d="M408.025 336.148C406.764 346.317 404.4 355.822 400.932 364.664C397.465 373.359 392.815 381.391 386.983 388.759C381.309 395.981 373.98 401.728 364.996 406.002C356.012 410.128 345.846 412.191 334.498 412.191C316.373 412.191 301.793 406.37 290.761 394.728C279.728 383.086 275.236 368.57 277.285 351.18C279.334 334.233 286.347 320.232 298.326 309.18C310.462 298.127 325.514 292.601 343.482 292.601C355.618 292.601 364.523 296.948 370.198 305.643C370.198 299.011 369.882 293.116 369.252 287.958C368.621 282.8 367.282 276.906 365.233 270.274C363.341 263.642 360.031 258.484 355.303 254.8C350.732 250.969 344.979 249.053 338.044 249.053C326.381 249.053 316.924 252.442 309.674 259.221L303.527 252.148C313.614 242.716 326.933 238 343.482 238C368.543 238 386.668 246.621 397.859 263.863C408.892 281.253 412.28 305.348 408.025 336.148ZM321.495 351.18C319.131 368.57 319.131 381.317 321.495 389.423C323.859 397.675 328.588 401.802 335.68 401.802C342.458 401.802 347.974 397.896 352.23 390.086C356.328 382.57 359.48 370.338 361.686 353.391C363.893 335.854 363.814 323.106 361.45 315.148C359.086 307.043 354.279 302.99 347.028 302.99C340.409 302.99 335.05 306.674 330.952 314.043C326.696 322.001 323.544 334.38 321.495 351.18Z" fill="#3D5D8C"/>
<path d="M389.979 478.914C391.519 478.914 305.985 441.158 306.991 443.079C307.879 445.113 285.74 475.749 285.74 478.914C285.74 486.372 284.29 492.417 281.388 497.05C278.487 501.683 275.053 504 271.086 504C267.119 504 263.685 501.683 260.784 497.05C257.883 492.417 256.433 486.372 256.433 478.914C256.433 475.749 234.445 445 235.333 443.079C236.28 441.045 164.428 478.913 166.026 478.913C167.447 478.913 264.189 469.026 265.136 470.608C265.965 472.19 266.379 474.28 266.379 476.88C266.379 479.705 265.876 481.965 264.87 483.66C263.863 485.242 262.62 486.033 261.14 486.033C260.547 486.033 259.837 485.863 259.008 485.524C261.317 491.4 265.343 494.338 271.086 494.338C277.185 494.338 281.329 491.344 283.52 485.355C282.573 485.807 281.655 486.033 280.767 486.033C277.451 486.033 275.793 482.982 275.793 476.88C275.793 474.167 276.237 472.077 277.125 470.608C277.954 469.026 388.499 478.914 389.979 478.914Z" fill="#3D5D8C"/>
<path d="M210.317 356.42C210.323 351.803 209.034 348.121 206.453 345.375C203.871 342.485 200.283 341.035 195.687 341.027C191.378 341.019 187.858 342.455 185.125 345.336C182.393 348.217 181.024 351.893 181.019 356.366C181.013 360.839 182.301 364.521 184.883 367.411C187.608 370.157 191.197 371.534 195.649 371.543C200.101 371.551 203.622 370.186 206.21 367.45C208.942 364.569 210.311 360.892 210.317 356.42Z" fill="#EADEC4"/>
<path d="M353.317 356.42C353.323 351.803 352.034 348.121 349.453 345.375C346.871 342.485 343.283 341.035 338.687 341.027C334.378 341.019 330.858 342.455 328.125 345.336C325.393 348.217 324.024 351.893 324.019 356.366C324.013 360.839 325.301 364.521 327.883 367.411C330.608 370.157 334.197 371.534 338.649 371.543C343.101 371.551 346.622 370.186 349.21 367.45C351.942 364.569 353.311 360.892 353.317 356.42Z" fill="#EADEC4"/>
</g>
<rect x="3.5" y="3.5" width="528" height="793" stroke="#3D5D8C" stroke-width="7"/>
<defs>
<clipPath id="clip0_127_1593">
<rect x="7" y="7" width="521" height="786" fill="white"/>
</clipPath>
</defs>
</svg>
