<svg width="683" height="619" viewBox="0 0 683 619" fill="none" xmlns="http://www.w3.org/2000/svg">
<path d="M356.418 68.3379L395.747 27.0552L356.418 5L321.582 27.0552L343.495 119.234M343.495 119.234L230 169H448L343.495 119.234Z" stroke="#050505" stroke-width="8"/>
<path d="M518.026 417.205C518.026 417.205 455.461 468.536 452.197 455.5C448.207 440.291 439.503 416.3 436.964 409.057C427.896 379.364 413.389 364.517 393.44 364.517H374.943V525.297H412.482V545.394H262.326V525.297H299.865V364.517H278.104C258.155 364.517 243.285 379.364 233.492 409.057C230.591 416.662 227.326 428.069 223.699 443.277C211.731 491.801 198.674 522.943 184.529 536.704C172.56 547.567 156.782 552.999 137.197 552.999C125.953 552.999 116.161 551.188 107.819 547.567C99.8394 544.308 93.4922 539.963 88.7772 534.531C84.4249 529.099 80.9793 522.038 78.4404 513.347C76.2642 504.656 74.8135 496.328 74.0881 488.361C73.3627 480.394 73 470.798 73 459.573H92.5855C92.5855 480.938 94.0363 497.052 96.9378 507.915C99.4767 518.055 104.01 523.124 110.539 523.124C114.891 523.124 118.518 520.589 121.42 515.52C124.321 510.45 129.218 496.69 136.109 474.238C144.088 445.631 150.073 426.439 154.062 416.662C161.679 399.28 175.461 385.339 195.409 374.837C205.927 369.405 222.793 362.706 246.005 354.74C236.212 352.567 227.689 345.687 220.435 334.099C213.544 323.236 206.834 300.603 200.306 266.202C193.052 232.525 180.176 200.478 180.176 200.478C180.176 200.478 205.021 200.659 209.01 211.885C213.363 223.11 216.264 231.982 217.715 238.5C219.166 245.018 221.161 254.614 223.699 267.288C229.503 299.155 236.031 319.795 243.285 329.21C249.813 338.988 258.518 343.876 269.399 343.876H299.865V190.701H262.326V170.603H412.482V190.701H374.943V343.876H401.601C412.845 343.876 422.093 338.988 429.347 329.21C436.601 319.433 443.674 298.068 450.565 265.116C456.731 232.163 463.259 209.893 470.15 198.305C482.119 174.768 500.435 162.999 525.098 162.999C542.145 162.999 555.383 167.706 564.813 177.121C574.244 186.174 578.959 199.21 578.959 216.23C578.959 247.372 565.176 262.943 537.611 262.943C525.28 262.943 515.487 259.503 508.233 252.623C500.254 246.105 496.264 237.595 496.264 227.093C496.264 206.453 506.782 193.236 527.819 187.442C526.731 187.08 525.461 186.536 524.01 185.812C522.922 185.45 521.29 185.269 519.114 185.269C508.596 185.269 500.073 190.339 493.544 200.478C487.016 209.893 480.124 231.62 472.87 265.659C465.617 300.784 458.725 323.598 452.197 334.099C444.943 345.687 435.876 352.567 424.995 354.74C449.295 363.068 466.342 369.768 476.135 374.837C497.171 385.701 518.026 417.205 518.026 417.205Z" fill="#050505"/>
<path d="M230 284L198.241 282.521C198.241 282.521 179.284 206.837 170.913 193.031C161.558 179.226 149.986 172.323 136.199 172.323C132.753 172.323 130.291 172.569 128.813 173.062C128.321 173.062 127.582 173.309 126.598 173.802C126.105 174.295 125.367 174.788 124.382 175.281C123.889 175.774 123.397 176.021 122.905 176.021C136.692 176.514 147.032 181.938 153.925 192.292C160.819 202.646 164.266 214.972 164.266 229.271C164.266 245.049 158.849 257.129 148.017 265.51C137.676 273.892 124.628 278.083 108.871 278.083C90.6529 278.083 76.6197 272.167 66.7718 260.333C56.924 248.5 52 233.215 52 214.479C52 193.278 58.6473 176.021 71.9419 162.708C85.7289 148.903 103.455 142 125.12 142C139.892 142 153.187 145.205 165.004 151.615C176.822 158.024 185.931 165.42 192.332 173.802C198.733 181.691 204.642 193.278 210.058 208.562C215.967 223.847 219.906 235.927 221.876 244.802C223.845 253.677 230 284 230 284Z" fill="#3D5D8C"/>
<path d="M122.233 101C159.241 101 188.954 113.853 211.373 139.558C233.791 165.264 245 195.81 245 231.196C245 266.583 233.613 297.129 210.839 322.835C188.42 348.54 158.885 361.393 122.233 361.393C84.5134 361.393 54.6224 348.874 32.5599 323.836C10.8533 298.798 0 268.085 0 231.697C0 195.309 10.8533 164.429 32.5599 139.057C54.6224 113.686 84.5134 101 122.233 101ZM122.233 116.023C109.423 116.023 98.2135 118.526 88.6057 123.534C78.9978 128.542 71.703 134.884 66.7211 142.563C61.7393 149.907 57.6471 159.088 54.4445 170.104C51.5977 181.121 49.8185 191.303 49.1068 200.65C48.3951 209.664 48.0392 220.013 48.0392 231.697C48.0392 243.381 48.3951 253.73 49.1068 262.744C49.8185 271.758 51.5977 281.773 54.4445 292.789C57.6471 303.806 61.7393 312.986 66.7211 320.331C72.0588 327.675 79.3537 333.851 88.6057 338.859C98.2135 343.866 109.423 346.37 122.233 346.37C172.052 346.37 196.961 307.979 196.961 231.196C196.961 154.414 172.052 116.023 122.233 116.023Z" fill="#7A0005"/>
<path d="M547.464 580.015C518.828 580.015 497.465 571.631 483.374 554.863C469.738 538.095 463.736 519.192 453.736 487.015C451.009 477.045 456.735 481.446 456.735 481.446L498 389C498 389 518.373 388.315 527.01 410.068C532.01 421.851 539.51 445.644 549.51 481.446C558.146 511.81 564.51 529.711 568.6 535.149C572.237 540.134 577.01 542.627 582.919 542.627C589.737 542.627 594.964 536.056 598.6 522.913C601.782 510.677 603.373 490.736 603.373 463.092H627.236C627.236 481.219 626.327 496.175 624.509 507.958C623.145 519.287 619.964 531.071 614.964 543.307C609.964 555.543 601.782 564.607 590.419 570.498C579.51 576.843 565.191 580.015 547.464 580.015Z" fill="#3D5D8C"/>
<path d="M560.233 358C597.241 358 626.954 370.853 649.373 396.558C671.791 422.264 683 452.81 683 488.196C683 523.583 671.613 554.129 648.839 579.835C626.42 605.54 596.885 618.393 560.233 618.393C522.513 618.393 492.622 605.874 470.56 580.836C448.853 555.798 438 525.085 438 488.697C438 452.309 448.853 421.429 470.56 396.057C492.622 370.686 522.513 358 560.233 358ZM560.233 373.023C547.423 373.023 536.214 375.526 526.606 380.534C516.998 385.542 509.703 391.884 504.721 399.563C499.739 406.907 495.647 416.088 492.444 427.104C489.598 438.121 487.818 448.303 487.107 457.65C486.395 466.664 486.039 477.013 486.039 488.697C486.039 500.381 486.395 510.73 487.107 519.744C487.818 528.758 489.598 538.773 492.444 549.789C495.647 560.806 499.739 569.986 504.721 577.331C510.059 584.675 517.354 590.851 526.606 595.859C536.214 600.866 547.423 603.37 560.233 603.37C610.052 603.37 634.961 564.979 634.961 488.196C634.961 411.414 610.052 373.023 560.233 373.023Z" fill="#7A0005"/>
</svg>
