<svg width="1153" height="837" viewBox="0 0 1153 837" fill="none" xmlns="http://www.w3.org/2000/svg">
<path d="M943.43 169.528C949.832 157.554 958.972 146.945 970.849 137.703C982.533 128.358 996.819 122.255 1013.71 119.394C1030.32 116.583 1046.52 119.399 1062.32 127.845C1077.93 136.187 1089.27 148.099 1096.35 163.579C1103.24 178.956 1106.14 194.15 1105.05 209.16C1103.88 224.321 1100.09 237.889 1093.69 249.863C1087.29 261.838 1078.29 272.422 1066.68 281.615C1054.81 290.858 1040.56 296.885 1023.95 299.697C1007.14 302.406 990.84 299.537 975.044 291.092C963.1 284.706 953.634 276.234 946.645 265.677C939.383 255.167 934.995 244.148 933.48 232.618C931.884 221.241 932.017 210.105 933.878 199.211C935.546 188.214 938.73 178.319 943.43 169.528ZM979.663 282.452C992.377 289.25 1003.57 288.703 1013.24 280.814C1023.29 273.13 1035.85 255.192 1050.93 226.999C1065.84 199.109 1073.64 178.723 1074.33 165.841C1075.38 152.759 1069.84 142.973 1057.7 136.485C1045.37 129.893 1034.1 130.591 1023.89 138.578C1013.67 146.564 1001.11 164.503 986.197 192.393C971.286 220.283 963.387 240.617 962.5 253.396C961.613 266.175 967.334 275.86 979.663 282.452Z" fill="#3D5D8C"/>
<path d="M896.322 240.806C891.271 228.202 889.027 214.381 889.589 199.342C889.949 184.384 894.465 169.52 903.136 154.75C911.669 140.221 924.249 129.624 940.876 122.961C957.3 116.379 973.717 115.355 990.125 119.889C1006.33 124.505 1019.83 132.057 1030.62 142.545C1041.48 153.193 1049.43 164.819 1054.48 177.423C1059.53 190.027 1061.85 203.728 1061.42 218.526C1060.86 233.565 1056.31 248.349 1047.78 262.878C1039.05 277.489 1026.36 288.126 1009.74 294.79C997.165 299.828 984.59 301.627 972.011 300.187C959.293 298.988 948.033 295.261 938.23 289.005C928.492 282.909 920.05 275.645 912.906 267.213C905.558 258.862 900.03 250.06 896.322 240.806ZM1006.09 285.696C1019.48 280.332 1026.26 271.412 1026.43 258.935C1027.02 246.295 1021.36 225.138 1009.47 195.463C997.703 166.107 987.113 147.02 977.696 138.202C968.353 128.985 957.295 126.935 944.521 132.055C931.543 137.255 924.827 146.335 924.372 159.294C923.918 172.253 929.573 193.41 941.337 222.766C953.102 252.122 963.591 271.25 972.805 280.148C982.019 289.047 993.115 290.896 1006.09 285.696Z" fill="#3D5D8C"/>
<path d="M925.658 24.2071C935.971 21.488 944.099 22.6363 950.042 27.6519C956.083 32.473 960.079 41.1248 962.028 53.6072L974.012 132.983L990.737 128.574L991.813 136.898C980.246 139.948 971.927 146.276 966.858 155.883C961.789 165.49 959.678 177.271 960.525 191.225L953.208 193.154L946.907 149.75L917.848 157.412L916.522 148.141L945.372 140.534L932.392 54.8382C931.481 47.9896 929.982 43.1524 927.895 40.3269C925.767 37.3435 922.961 36.3111 919.477 37.2297C915.156 38.3688 912.428 41.873 911.293 47.7423C910.199 53.7694 910.453 62.648 912.055 74.3781L904.32 76.4174C903.423 69.0586 902.929 62.9438 902.837 58.0733C902.787 53.3605 903.364 48.4824 904.568 43.4389C905.633 38.4322 907.916 34.3702 911.417 31.253C914.918 28.1358 919.665 25.7872 925.658 24.2071Z" fill="#3D5D8C"/>
<path d="M1090.21 32.3967C1080.82 28.6615 1072.98 28.9687 1066.7 33.3181C1060.34 37.4654 1055.42 45.6044 1051.91 57.7353L1030.02 134.918L1014.79 128.861L1012.67 136.973C1023.2 141.162 1030.22 148.259 1033.73 158.264C1037.24 168.269 1037.67 180.12 1035.01 193.817L1041.67 196.467L1053.41 154.237L1079.86 164.761L1082.34 155.738L1056.09 145.29L1079.76 61.9666C1081.54 55.2947 1083.6 50.6695 1085.94 48.0909C1088.35 45.3606 1091.14 44.6264 1094.32 45.8883C1098.25 47.453 1100.36 51.1917 1100.65 57.1045C1100.88 63.169 1099.46 71.9127 1096.39 83.3358L1103.43 86.1372C1105.25 78.9599 1106.53 72.9705 1107.27 68.169C1107.94 63.5192 1108.05 58.6423 1107.58 53.5382C1107.24 48.4846 1105.62 44.2402 1102.73 40.805C1099.84 37.3699 1095.66 34.5671 1090.21 32.3967Z" fill="#3D5D8C"/>
<path d="M1034.32 135.036C1048.76 134.88 1060.08 139.883 1068.29 150.043C1076.5 160.069 1080.68 171.958 1080.83 185.712C1080.98 199.465 1077.05 211.51 1069.06 221.845C1061.07 232.045 1049.86 237.223 1035.42 237.378C1023.79 237.503 1014.18 234.168 1006.59 227.372C998.859 220.578 993.682 211.733 991.06 200.838C986.428 222.06 975.569 232.763 958.483 232.948C950.529 233.033 943.726 230.544 938.074 225.481C932.275 220.419 928.235 214.596 925.954 208.013C923.525 201.296 922.273 194.432 922.197 187.42C922.121 180.409 923.226 173.587 925.512 166.954C927.649 160.189 931.562 154.213 937.251 149.027C942.793 143.843 949.54 141.208 957.494 141.122C974.579 140.938 985.667 151.405 990.755 172.522C993.289 161.572 998.274 152.618 1005.71 145.66C1013.15 138.702 1022.69 135.161 1034.32 135.036ZM958.174 204.227C965.833 204.144 972.594 202.79 978.458 200.165C984.173 197.406 986.998 192.926 986.931 186.723C986.863 180.386 983.942 175.967 978.171 173.467C972.399 170.967 965.61 169.759 957.803 169.843C950.291 169.924 943.898 171.274 938.623 173.893C933.201 176.514 930.524 180.993 930.593 187.33C930.661 193.667 933.434 198.088 938.911 200.591C944.241 203.096 950.662 204.308 958.174 204.227ZM1035.1 207.444C1047.04 207.585 1056.22 205.666 1062.66 201.685C1069.25 197.973 1072.51 192.679 1072.43 185.802C1072.36 179.06 1068.99 173.77 1062.32 169.931C1055.8 166.36 1046.57 164.706 1034.64 164.97C1008.28 165.658 995.178 172.879 995.326 186.633C995.474 200.386 1008.73 207.323 1035.1 207.444Z" fill="#050505"/>
<path d="M947.77 186C947.773 183.669 947.123 181.811 945.819 180.425C944.516 178.965 942.704 178.234 940.384 178.229C938.209 178.226 936.432 178.951 935.053 180.405C933.673 181.859 932.982 183.715 932.979 185.973C932.977 188.231 933.627 190.09 934.93 191.549C936.306 192.935 938.118 193.631 940.365 193.635C942.613 193.639 944.39 192.95 945.697 191.569C947.076 190.114 947.767 188.258 947.77 186Z" fill="#EADEC4"/>
<path d="M1016.52 186C1016.52 183.669 1015.87 181.811 1014.57 180.425C1013.26 178.965 1011.45 178.234 1009.13 178.229C1006.96 178.226 1005.18 178.951 1003.8 180.405C1002.42 181.859 1001.73 183.715 1001.73 185.973C1001.72 188.231 1002.37 190.09 1003.68 191.549C1005.05 192.935 1006.86 193.631 1009.11 193.635C1011.36 193.639 1013.14 192.95 1014.44 191.569C1015.82 190.114 1016.51 188.258 1016.52 186Z" fill="#EADEC4"/>
<path d="M1097.94 283.575C1099.27 283.575 1025.46 251.037 1026.33 252.692C1027.1 254.445 1007.99 280.849 1007.99 283.575C1007.99 290.003 1006.74 295.213 1004.24 299.206C1001.73 303.199 998.768 305.196 995.345 305.196C991.922 305.196 988.958 303.199 986.455 299.206C983.951 295.213 982.699 290.003 982.699 283.575C982.699 280.849 963.725 254.348 964.492 252.692C965.309 250.939 903.304 283.575 904.683 283.575C905.909 283.575 989.393 275.054 990.21 276.417C990.925 277.781 991.283 279.582 991.283 281.822C991.283 284.257 990.849 286.205 989.98 287.666C989.112 289.029 988.039 289.711 986.761 289.711C986.25 289.711 985.637 289.565 984.922 289.273C986.915 294.337 990.389 296.869 995.345 296.869C1000.61 296.869 1004.18 294.288 1006.07 289.126C1005.26 289.516 1004.46 289.711 1003.7 289.711C1000.84 289.711 999.407 287.081 999.407 281.822C999.407 279.485 999.79 277.683 1000.56 276.417C1001.27 275.054 1096.67 283.575 1097.94 283.575Z" fill="#050505"/>
<mask id="path-9-outside-1_0_654" maskUnits="userSpaceOnUse" x="0" y="308" width="1103" height="529" fill="black">
<rect fill="white" y="308" width="1103" height="529"/>
<path fill-rule="evenodd" clip-rule="evenodd" d="M770.471 330.941C743.508 330.941 718.166 336.467 696.136 346.173C668.387 324.422 630.304 311 588.282 311C542.22 311 500.89 327.127 472.716 352.675C455.573 347.418 436.949 344.537 417.48 344.537C384.391 344.537 353.745 352.859 328.663 367.017C303.581 352.859 272.934 344.537 239.846 344.537C154.947 344.537 86.1238 399.322 86.1238 466.903L86.1238 466.946C36.7445 487.304 3 528.351 3 575.672C3 630.345 48.0426 676.642 110.2 692.334C110.091 694.225 110.036 696.126 110.036 698.038C110.036 765.619 178.859 820.404 263.758 820.404C305.26 820.404 342.92 807.312 370.578 786.033C398.675 815.197 442.895 834 492.633 834C540.893 834 583.958 816.297 612.141 788.605C632.164 796.207 654.577 800.463 678.239 800.463C724.596 800.463 766.16 784.129 794.344 758.297C821.405 777.212 856.883 788.679 895.726 788.679C980.624 788.679 1049.45 733.894 1049.45 666.314C1049.45 656.341 1047.95 646.646 1045.12 637.365C1078.41 614.92 1099.55 581.399 1099.55 543.948C1099.55 476.367 1030.73 421.582 945.828 421.582C936.871 421.582 928.094 422.192 919.557 423.362C902.776 370.257 842.391 330.941 770.471 330.941ZM794.354 574.204L794.562 574.178L794.388 574.3L794.354 574.204Z"/>
</mask>
<path fill-rule="evenodd" clip-rule="evenodd" d="M770.471 330.941C743.508 330.941 718.166 336.467 696.136 346.173C668.387 324.422 630.304 311 588.282 311C542.22 311 500.89 327.127 472.716 352.675C455.573 347.418 436.949 344.537 417.48 344.537C384.391 344.537 353.745 352.859 328.663 367.017C303.581 352.859 272.934 344.537 239.846 344.537C154.947 344.537 86.1238 399.322 86.1238 466.903L86.1238 466.946C36.7445 487.304 3 528.351 3 575.672C3 630.345 48.0426 676.642 110.2 692.334C110.091 694.225 110.036 696.126 110.036 698.038C110.036 765.619 178.859 820.404 263.758 820.404C305.26 820.404 342.92 807.312 370.578 786.033C398.675 815.197 442.895 834 492.633 834C540.893 834 583.958 816.297 612.141 788.605C632.164 796.207 654.577 800.463 678.239 800.463C724.596 800.463 766.16 784.129 794.344 758.297C821.405 777.212 856.883 788.679 895.726 788.679C980.624 788.679 1049.45 733.894 1049.45 666.314C1049.45 656.341 1047.95 646.646 1045.12 637.365C1078.41 614.92 1099.55 581.399 1099.55 543.948C1099.55 476.367 1030.73 421.582 945.828 421.582C936.871 421.582 928.094 422.192 919.557 423.362C902.776 370.257 842.391 330.941 770.471 330.941ZM794.354 574.204L794.562 574.178L794.388 574.3L794.354 574.204Z" fill="#3D5D8C"/>
<path d="M696.136 346.173L694.285 348.535L695.7 349.644L697.346 348.919L696.136 346.173ZM472.716 352.675L471.837 355.543L473.467 356.043L474.731 354.897L472.716 352.675ZM328.663 367.017L327.188 369.629L328.663 370.461L330.137 369.629L328.663 367.017ZM86.1238 466.903H83.1238V466.904L86.1238 466.903ZM86.1238 466.946L87.2672 469.72L89.1241 468.954L89.1238 466.946L86.1238 466.946ZM110.2 692.334L113.195 692.507L113.337 690.032L110.934 689.426L110.2 692.334ZM370.578 786.033L372.738 783.952L370.876 782.019L368.748 783.655L370.578 786.033ZM612.141 788.605L613.206 785.8L611.409 785.118L610.038 786.465L612.141 788.605ZM794.344 758.297L796.063 755.838L794.091 754.46L792.317 756.085L794.344 758.297ZM1045.12 637.365L1043.44 634.878L1041.6 636.118L1042.25 638.24L1045.12 637.365ZM919.557 423.362L916.696 424.266L917.458 426.678L919.964 426.335L919.557 423.362ZM794.562 574.178L796.278 576.639L794.191 571.202L794.562 574.178ZM794.354 574.204L793.983 571.227L790.285 571.689L791.525 575.203L794.354 574.204ZM794.388 574.3L791.559 575.298L792.87 579.016L796.104 576.761L794.388 574.3ZM697.346 348.919C718.987 339.384 743.915 333.941 770.471 333.941V327.941C743.1 327.941 717.346 333.55 694.926 343.428L697.346 348.919ZM588.282 314C629.68 314 667.1 327.225 694.285 348.535L697.987 343.812C669.674 321.618 630.927 308 588.282 308V314ZM474.731 354.897C502.305 329.893 542.898 314 588.282 314V308C541.542 308 499.474 324.361 470.701 350.452L474.731 354.897ZM417.48 347.537C436.654 347.537 454.981 350.375 471.837 355.543L473.595 349.806C456.165 344.462 437.244 341.537 417.48 341.537V347.537ZM330.137 369.629C354.753 355.735 384.889 347.537 417.48 347.537V341.537C383.894 341.537 352.737 349.983 327.188 364.404L330.137 369.629ZM239.846 347.537C272.436 347.537 302.572 355.735 327.188 369.629L330.137 364.404C304.589 349.983 273.432 341.537 239.846 341.537V347.537ZM89.1238 466.903C89.1238 401.581 155.93 347.537 239.846 347.537V341.537C153.965 341.537 83.1238 397.063 83.1238 466.903H89.1238ZM89.1238 466.946L89.1238 466.902L83.1238 466.904L83.1238 466.947L89.1238 466.946ZM6 575.672C6 529.897 38.6705 489.755 87.2672 469.72L84.9803 464.173C34.8186 484.853 0 526.805 0 575.672H6ZM110.934 689.426C49.6437 673.952 6 628.543 6 575.672H0C0 632.146 46.4416 679.332 109.465 695.243L110.934 689.426ZM113.036 698.038C113.036 696.184 113.089 694.34 113.195 692.507L107.205 692.162C107.092 694.109 107.036 696.069 107.036 698.038H113.036ZM263.758 817.404C179.842 817.404 113.036 763.36 113.036 698.038H107.036C107.036 767.878 177.877 823.404 263.758 823.404V817.404ZM368.748 783.655C341.65 804.504 304.643 817.404 263.758 817.404V823.404C305.876 823.404 344.191 810.12 372.407 788.411L368.748 783.655ZM492.633 831C443.62 831 400.21 812.467 372.738 783.952L368.417 788.115C397.139 817.927 442.17 837 492.633 837V831ZM610.038 786.465C582.471 813.553 540.186 831 492.633 831V837C541.599 837 585.445 819.042 614.244 790.745L610.038 786.465ZM678.239 797.463C654.935 797.463 632.883 793.271 613.206 785.8L611.076 791.41C631.444 799.143 654.219 803.463 678.239 803.463V797.463ZM792.317 756.085C764.735 781.366 723.914 797.463 678.239 797.463V803.463C725.278 803.463 767.585 786.892 796.371 760.509L792.317 756.085ZM895.726 785.679C857.463 785.679 822.592 774.381 796.063 755.838L792.625 760.756C820.219 780.042 856.304 791.679 895.726 791.679V785.679ZM1046.45 666.314C1046.45 731.635 979.642 785.679 895.726 785.679V791.679C981.607 791.679 1052.45 736.154 1052.45 666.314H1046.45ZM1042.25 638.24C1045 647.244 1046.45 656.644 1046.45 666.314H1052.45C1052.45 656.037 1050.9 646.048 1047.99 636.491L1042.25 638.24ZM1096.55 543.948C1096.55 580.193 1076.1 612.862 1043.44 634.878L1046.8 639.853C1080.73 616.977 1102.55 582.604 1102.55 543.948H1096.55ZM945.828 424.582C1029.74 424.582 1096.55 478.626 1096.55 543.948H1102.55C1102.55 474.108 1031.71 418.582 945.828 418.582V424.582ZM919.964 426.335C928.366 425.183 937.008 424.582 945.828 424.582V418.582C936.735 418.582 927.821 419.201 919.149 420.39L919.964 426.335ZM770.471 333.941C841.451 333.941 900.411 372.728 916.696 424.266L922.417 422.458C905.142 367.786 843.331 327.941 770.471 327.941V333.941ZM794.191 571.202L793.983 571.227L794.725 577.181L794.933 577.155L794.191 571.202ZM796.104 576.761L796.278 576.639L792.846 571.718L792.672 571.839L796.104 576.761ZM791.525 575.203L791.559 575.298L797.217 573.302L797.183 573.206L791.525 575.203Z" fill="#EADEC4" mask="url(#path-9-outside-1_0_654)"/>
<mask id="path-11-outside-2_0_654" maskUnits="userSpaceOnUse" x="747" y="219" width="98" height="78" fill="black">
<rect fill="white" x="747" y="219" width="98" height="78"/>
<path fill-rule="evenodd" clip-rule="evenodd" d="M808.416 228.768C803.697 224.612 796.859 222 789.252 222C775.966 222 765.027 229.967 763.623 240.204C755.515 243.648 750 250.43 750 258.232C750 266.059 755.549 272.859 763.699 276.292C765.383 286.289 776.181 294 789.252 294C796.179 294 802.469 291.834 807.101 288.309C809.667 288.987 812.411 289.355 815.265 289.355C829.503 289.355 841.045 280.204 841.045 268.916C841.045 265.193 839.79 261.703 837.596 258.697C839.79 255.691 841.045 252.2 841.045 248.477C841.045 237.189 829.503 228.039 815.265 228.039C812.893 228.039 810.597 228.292 808.416 228.768Z"/>
</mask>
<path fill-rule="evenodd" clip-rule="evenodd" d="M808.416 228.768C803.697 224.612 796.859 222 789.252 222C775.966 222 765.027 229.967 763.623 240.204C755.515 243.648 750 250.43 750 258.232C750 266.059 755.549 272.859 763.699 276.292C765.383 286.289 776.181 294 789.252 294C796.179 294 802.469 291.834 807.101 288.309C809.667 288.987 812.411 289.355 815.265 289.355C829.503 289.355 841.045 280.204 841.045 268.916C841.045 265.193 839.79 261.703 837.596 258.697C839.79 255.691 841.045 252.2 841.045 248.477C841.045 237.189 829.503 228.039 815.265 228.039C812.893 228.039 810.597 228.292 808.416 228.768Z" fill="#3D5D8C"/>
<path d="M808.416 228.768L806.434 231.019L807.573 232.022L809.055 231.699L808.416 228.768ZM763.623 240.204L764.796 242.966L766.364 242.3L766.595 240.612L763.623 240.204ZM763.699 276.292L766.657 275.794L766.384 274.168L764.864 273.528L763.699 276.292ZM807.101 288.309L807.868 285.409L806.451 285.034L805.284 285.922L807.101 288.309ZM837.596 258.697L835.173 256.928L833.882 258.697L835.173 260.465L837.596 258.697ZM810.399 226.516C805.086 221.838 797.525 219 789.252 219V225C796.194 225 802.309 227.387 806.434 231.019L810.399 226.516ZM789.252 219C775.004 219 762.324 227.598 760.651 239.797L766.595 240.612C767.73 232.337 776.928 225 789.252 225V219ZM762.45 237.443C753.572 241.214 747 248.898 747 258.232H753C753 251.962 757.458 246.082 764.796 242.966L762.45 237.443ZM747 258.232C747 267.596 753.612 275.298 762.534 279.057L764.864 273.528C757.487 270.419 753 264.522 753 258.232H747ZM760.741 276.791C762.743 288.679 775.223 297 789.252 297V291C777.14 291 768.023 283.899 766.657 275.794L760.741 276.791ZM789.252 297C796.79 297 803.728 294.645 808.918 290.696L805.284 285.922C801.209 289.022 795.568 291 789.252 291V297ZM806.334 291.209C809.151 291.954 812.154 292.355 815.265 292.355V286.355C812.669 286.355 810.182 286.02 807.868 285.409L806.334 291.209ZM815.265 292.355C830.473 292.355 844.045 282.473 844.045 268.916H838.045C838.045 277.935 828.533 286.355 815.265 286.355V292.355ZM844.045 268.916C844.045 264.495 842.549 260.395 840.02 256.928L835.173 260.465C837.031 263.011 838.045 265.892 838.045 268.916H844.045ZM838.045 248.477C838.045 251.501 837.031 254.382 835.173 256.928L840.02 260.465C842.549 256.999 844.045 252.899 844.045 248.477H838.045ZM815.265 231.039C828.533 231.039 838.045 239.458 838.045 248.477H844.045C844.045 234.921 830.473 225.039 815.265 225.039V231.039ZM809.055 231.699C811.025 231.27 813.107 231.039 815.265 231.039V225.039C812.68 225.039 810.169 225.315 807.778 225.836L809.055 231.699Z" fill="#EADEC4" mask="url(#path-11-outside-2_0_654)"/>
</svg>
