<svg width="704" height="324" viewBox="0 0 704 324" fill="none" xmlns="http://www.w3.org/2000/svg">
<path d="M148.177 154.867C157.697 154.764 165.164 158.063 170.579 164.764C175.994 171.376 178.75 179.217 178.847 188.287C178.945 197.358 176.359 205.301 171.089 212.116C165.819 218.843 158.424 222.258 148.904 222.361C141.231 222.443 134.892 220.244 129.89 215.762C124.79 211.281 121.375 205.448 119.646 198.263C116.591 212.259 109.43 219.317 98.1621 219.439C92.9168 219.495 88.4303 217.854 84.7028 214.514C80.8781 211.176 78.2138 207.336 76.7098 202.994C75.1077 198.565 74.2818 194.038 74.232 189.414C74.1822 184.79 74.9109 180.291 76.4181 175.917C77.8273 171.455 80.4078 167.514 84.1597 164.094C87.8145 160.675 92.2645 158.937 97.5099 158.881C108.778 158.76 116.089 165.662 119.445 179.589C121.116 172.367 124.404 166.462 129.309 161.874C134.214 157.285 140.504 154.949 148.177 154.867ZM97.9581 200.498C103.009 200.443 107.468 199.55 111.336 197.819C115.105 196 116.967 193.045 116.923 188.954C116.878 184.775 114.952 181.861 111.146 180.212C107.339 178.563 102.862 177.766 97.7139 177.822C92.7599 177.875 88.5436 178.766 85.0649 180.493C81.4891 182.221 79.7237 185.175 79.7687 189.354C79.8137 193.534 81.6424 196.449 85.2546 198.1C88.7697 199.752 93.0042 200.551 97.9581 200.498ZM148.692 202.619C156.562 202.712 162.62 201.447 166.866 198.822C171.211 196.374 173.359 192.882 173.311 188.347C173.263 183.901 171.039 180.412 166.64 177.88C162.341 175.525 156.257 174.434 148.39 174.608C131.006 175.062 122.362 179.824 122.46 188.895C122.558 197.965 131.302 202.54 148.692 202.619Z" fill="#EADEC4"/>
<path d="M110.49 188.532C110.493 186.295 109.869 184.51 108.618 183.179C107.366 181.779 105.627 181.076 103.4 181.072C101.312 181.068 99.6054 181.764 98.2811 183.161C96.9569 184.557 96.2934 186.339 96.2908 188.506C96.2881 190.674 96.9123 192.458 98.1635 193.859C99.4844 195.19 101.224 195.858 103.381 195.862C105.539 195.866 107.245 195.204 108.5 193.878C109.824 192.482 110.488 190.7 110.49 188.532Z" fill="#050505"/>
<path d="M166.396 188.532C166.399 186.295 165.774 184.51 164.523 183.179C163.272 181.779 161.533 181.076 159.305 181.072C157.217 181.068 155.511 181.764 154.187 183.161C152.862 184.557 152.199 186.339 152.196 188.506C152.194 190.674 152.818 192.458 154.069 193.859C155.39 195.19 157.129 195.858 159.287 195.862C161.445 195.866 163.151 195.204 164.405 193.878C165.73 192.482 166.393 190.7 166.396 188.532Z" fill="#050505"/>
<path d="M106.291 230.374L121.685 230.94L122.15 248.058L118.956 248.145C117.786 247.521 114.159 245.54 108.077 242.201C101.363 238.5 97.1998 236.369 95.5868 235.808C97.6153 236.963 98.6577 238.574 98.7138 240.64C98.7733 242.831 97.784 244.812 95.7461 246.582C93.6631 248.328 90.781 249.25 87.1 249.35C84.4389 249.423 82.1856 248.98 80.3398 248.021C78.4498 247.064 77.1096 245.928 76.3194 244.613C75.5292 243.298 75.1143 241.911 75.0746 240.449C75.009 238.031 75.9286 235.938 77.8335 234.172C79.6941 232.407 82.6201 231.471 86.6116 231.362C89.9379 231.272 93.8535 232.452 98.3583 234.901C98.6721 235.018 99.2794 235.317 100.18 235.797C100.585 236.013 102.004 236.781 104.437 238.102C105.518 238.677 106.778 239.337 108.219 240.079C109.615 240.823 110.493 241.29 110.853 241.482C112.249 242.226 113.532 242.872 114.701 243.42L114.506 236.24C114.484 235.434 114.445 234.83 114.39 234.428C114.29 234.027 114.079 233.617 113.757 233.197C113.391 232.778 112.85 232.478 112.135 232.296C111.376 232.115 110.351 231.991 109.063 231.925L106.33 231.81L106.291 230.374ZM80.3279 237.773C78.4803 238.378 77.5739 239.323 77.6087 240.607C77.6436 241.892 78.5999 242.787 80.4777 243.29C82.3555 243.794 84.5365 244.025 87.0208 243.982C89.8599 243.931 92.1354 243.554 93.8473 242.852C95.4712 242.177 96.2667 241.235 96.2339 240.026C96.199 238.741 95.243 237.86 93.3659 237.381C91.4882 236.877 89.3075 236.659 86.8238 236.727C84.3402 236.794 82.1749 237.143 80.3279 237.773Z" fill="#EADEC4"/>
<path d="M136.21 229.562L121.686 230.94L122.151 248.059L125.175 247.977C126.249 247.292 129.573 245.122 135.147 241.466C141.298 237.416 145.122 235.069 146.617 234.423C144.76 235.684 143.86 237.347 143.916 239.413C143.975 241.605 145.015 243.53 147.035 245.19C149.097 246.823 151.87 247.592 155.356 247.498C157.875 247.429 159.982 246.868 161.677 245.813C163.413 244.758 164.62 243.553 165.298 242.198C165.975 240.843 166.294 239.436 166.255 237.974C166.189 235.556 165.209 233.515 163.315 231.852C161.463 230.188 158.647 229.407 154.868 229.51C151.718 229.595 148.079 230.98 143.949 233.664C143.658 233.798 143.1 234.128 142.274 234.654C141.902 234.891 140.601 235.734 138.371 237.181C137.38 237.813 136.223 238.537 134.9 239.355C133.62 240.171 132.814 240.685 132.484 240.895C131.203 241.712 130.025 242.424 128.949 243.034L128.754 235.854C128.732 235.047 128.736 234.442 128.767 234.038C128.841 233.633 129.018 233.212 129.301 232.775C129.625 232.338 130.12 232.009 130.787 231.79C131.495 231.569 132.457 231.391 133.672 231.258L136.249 230.998L136.21 229.562ZM161.147 235.579C162.926 236.086 163.832 236.981 163.867 238.266C163.902 239.551 163.045 240.494 161.297 241.097C159.548 241.699 157.498 242.044 155.147 242.133C152.46 242.231 150.289 241.975 148.634 241.365C147.063 240.777 146.261 239.879 146.228 238.669C146.193 237.384 147.05 236.454 148.8 235.877C150.548 235.274 152.599 234.941 154.95 234.878C157.302 234.814 159.367 235.048 161.147 235.579Z" fill="#EADEC4"/>
<path d="M121.378 239.533C125.751 239.485 130.163 240.427 134.613 242.358C139.062 244.219 142.998 247.321 146.422 251.666C149.79 255.941 151.505 260.976 151.568 266.771C151.629 272.494 150.023 277.565 146.749 281.982C143.474 286.329 139.633 289.515 135.225 291.541C130.763 293.568 126.345 294.605 121.972 294.652C117.598 294.7 113.215 293.793 108.821 291.932C104.371 290.001 100.462 286.898 97.0946 282.623C93.726 278.277 92.0105 273.207 91.9481 267.413C91.9009 263.031 92.8266 259.028 94.7253 255.403C96.5678 251.708 98.9996 248.749 102.021 246.526C104.986 244.303 108.152 242.608 111.516 241.441C114.88 240.203 118.167 239.567 121.378 239.533ZM95.1034 267.379C95.1536 272.043 97.0416 275.132 100.767 276.647C104.494 278.303 111.506 279.075 121.803 278.964C131.988 278.855 138.954 277.896 142.699 276.089C146.556 274.351 148.46 271.256 148.412 266.804C148.364 262.282 146.42 259.193 142.582 257.538C138.744 255.883 131.733 255.111 121.547 255.22C111.361 255.33 104.395 256.253 100.649 257.99C96.9033 259.726 95.0547 262.856 95.1034 267.379Z" fill="#EADEC4"/>
<path d="M2.59237 204.026C2.60295 186.859 7.08289 169.586 16.0322 152.207C24.6622 134.829 38.8776 119.517 58.6783 106.274C78.1596 93.2479 100.989 86.7428 127.166 86.759C153.024 86.7749 175.845 93.308 195.63 106.358C215.095 119.409 229.292 134.629 238.22 152.018C247.147 169.625 251.606 187.012 251.595 204.179C251.585 221.346 247.265 238.511 238.635 255.672C229.685 273.051 215.47 288.254 195.989 301.28C176.188 314.306 153.199 320.811 127.022 320.795C107.229 320.782 89.195 316.968 72.9187 309.353C56.3231 301.954 43.0808 292.276 33.1919 280.318C23.3029 268.578 15.8085 256.078 10.709 242.82C5.29014 229.561 2.58461 216.63 2.59237 204.026ZM127.03 308.408C148.099 308.421 162.15 301.15 169.182 286.595C176.853 272.041 180.7 244.554 180.725 204.136C180.75 164.152 176.776 136.769 168.805 121.988C161.152 106.772 147.27 99.1576 127.159 99.1452C106.727 99.1327 92.6766 106.621 85.0057 121.61C77.3348 136.599 73.4871 164.086 73.4624 204.07C73.4378 244.053 77.2518 271.436 84.9043 286.217C92.5568 300.999 106.599 308.396 127.03 308.408Z" fill="#EADEC4"/>
<path d="M148.177 154.867C157.697 154.764 165.164 158.063 170.579 164.764C175.994 171.376 178.75 179.217 178.847 188.287C178.945 197.358 176.359 205.301 171.089 212.116C165.819 218.843 158.424 222.258 148.904 222.361C141.231 222.443 134.892 220.244 129.89 215.762C124.79 211.281 121.375 205.448 119.646 198.263C116.591 212.259 109.43 219.317 98.1621 219.439C92.9168 219.495 88.4303 217.854 84.7028 214.514C80.8781 211.176 78.2138 207.336 76.7098 202.994C75.1077 198.565 74.2818 194.038 74.232 189.414C74.1822 184.79 74.9109 180.291 76.4181 175.917C77.8273 171.455 80.4078 167.514 84.1597 164.094C87.8145 160.675 92.2645 158.937 97.5099 158.881C108.778 158.76 116.089 165.662 119.445 179.589C121.116 172.367 124.404 166.462 129.309 161.874C134.214 157.285 140.504 154.949 148.177 154.867ZM97.9581 200.498C103.009 200.443 107.468 199.55 111.336 197.819C115.105 196 116.967 193.045 116.923 188.954C116.878 184.775 114.952 181.861 111.146 180.212C107.339 178.563 102.862 177.766 97.7139 177.822C92.7599 177.875 88.5436 178.766 85.0649 180.493C81.4891 182.221 79.7237 185.175 79.7687 189.354C79.8137 193.534 81.6424 196.449 85.2546 198.1C88.7697 199.752 93.0042 200.551 97.9581 200.498ZM148.692 202.619C156.562 202.712 162.62 201.447 166.866 198.822C171.211 196.374 173.359 192.882 173.311 188.347C173.263 183.901 171.039 180.412 166.64 177.88C162.341 175.525 156.257 174.434 148.39 174.608C131.006 175.062 122.362 179.824 122.46 188.895C122.558 197.965 131.302 202.54 148.692 202.619Z" fill="#3D5D8C"/>
<path d="M121.378 239.533C125.751 239.485 130.163 240.427 134.613 242.358C139.062 244.219 142.998 247.321 146.422 251.666C149.79 255.941 151.505 260.976 151.568 266.771C151.629 272.494 150.023 277.565 146.749 281.982C143.474 286.329 139.633 289.515 135.225 291.541C130.763 293.568 126.345 294.605 121.972 294.652C117.598 294.7 113.215 293.793 108.821 291.932C104.371 290.001 100.462 286.898 97.0946 282.623C93.726 278.277 92.0105 273.207 91.9481 267.413C91.9009 263.031 92.8266 259.028 94.7253 255.403C96.5678 251.708 98.9996 248.749 102.021 246.526C104.986 244.303 108.152 242.608 111.516 241.441C114.88 240.203 118.167 239.567 121.378 239.533ZM95.1034 267.379C95.1536 272.043 97.0416 275.132 100.767 276.647C104.494 278.303 111.506 279.075 121.803 278.964C131.988 278.855 138.954 277.896 142.699 276.089C146.556 274.351 148.46 271.256 148.412 266.804C148.364 262.282 146.42 259.193 142.582 257.538C138.744 255.883 131.733 255.111 121.547 255.22C111.361 255.33 104.395 256.253 100.649 257.99C96.9033 259.726 95.0547 262.856 95.1034 267.379Z" fill="#3D5D8C"/>
<path d="M136.21 229.562L121.686 230.94L122.151 248.059L125.175 247.977C126.249 247.292 129.573 245.122 135.147 241.466C141.298 237.416 145.122 235.069 146.617 234.423C144.76 235.684 143.86 237.347 143.916 239.413C143.975 241.605 145.015 243.53 147.035 245.19C149.097 246.823 151.87 247.592 155.356 247.498C157.875 247.429 159.982 246.868 161.677 245.813C163.413 244.758 164.62 243.553 165.298 242.198C165.975 240.843 166.294 239.436 166.255 237.974C166.189 235.556 165.209 233.515 163.315 231.852C161.463 230.188 158.647 229.407 154.868 229.51C151.718 229.595 148.079 230.98 143.949 233.664C143.658 233.798 143.1 234.128 142.274 234.654C141.902 234.891 140.601 235.734 138.371 237.181C137.38 237.813 136.223 238.537 134.9 239.355C133.62 240.171 132.814 240.685 132.484 240.895C131.203 241.712 130.025 242.424 128.949 243.034L128.754 235.854C128.732 235.047 128.736 234.442 128.767 234.038C128.841 233.633 129.018 233.212 129.301 232.775C129.625 232.338 130.12 232.009 130.787 231.79C131.495 231.569 132.457 231.391 133.672 231.258L136.249 230.998L136.21 229.562ZM161.147 235.579C162.926 236.086 163.832 236.981 163.867 238.266C163.902 239.551 163.045 240.494 161.297 241.097C159.548 241.699 157.498 242.044 155.147 242.133C152.46 242.231 150.289 241.975 148.634 241.365C147.063 240.777 146.261 239.879 146.228 238.669C146.193 237.384 147.05 236.454 148.8 235.877C150.548 235.274 152.599 234.941 154.95 234.878C157.302 234.814 159.367 235.048 161.147 235.579Z" fill="#3D5D8C"/>
<path d="M106.291 230.374L121.685 230.94L122.15 248.058L118.956 248.145C117.786 247.521 114.159 245.54 108.077 242.201C101.363 238.5 97.1998 236.369 95.5868 235.808C97.6153 236.963 98.6577 238.574 98.7138 240.64C98.7733 242.831 97.784 244.812 95.7461 246.582C93.6631 248.328 90.781 249.25 87.1 249.35C84.4389 249.423 82.1856 248.98 80.3398 248.021C78.4498 247.064 77.1096 245.928 76.3194 244.613C75.5292 243.298 75.1143 241.911 75.0746 240.449C75.009 238.031 75.9286 235.938 77.8335 234.172C79.6941 232.407 82.6201 231.471 86.6116 231.362C89.9379 231.272 93.8535 232.452 98.3583 234.901C98.6721 235.018 99.2794 235.317 100.18 235.797C100.585 236.013 102.004 236.781 104.437 238.102C105.518 238.677 106.778 239.337 108.219 240.079C109.615 240.823 110.493 241.29 110.853 241.482C112.249 242.226 113.532 242.872 114.701 243.42L114.506 236.24C114.484 235.434 114.445 234.83 114.39 234.428C114.29 234.027 114.079 233.617 113.757 233.197C113.391 232.778 112.85 232.478 112.135 232.296C111.376 232.115 110.351 231.991 109.063 231.925L106.33 231.81L106.291 230.374ZM80.3279 237.773C78.4803 238.378 77.5739 239.323 77.6087 240.607C77.6436 241.892 78.5999 242.787 80.4777 243.29C82.3555 243.794 84.5365 244.025 87.0208 243.982C89.8599 243.931 92.1354 243.554 93.8473 242.852C95.4712 242.177 96.2667 241.235 96.2339 240.026C96.199 238.741 95.243 237.86 93.3659 237.381C91.4882 236.877 89.3075 236.659 86.8238 236.727C84.3402 236.794 82.1749 237.143 80.3279 237.773Z" fill="#3D5D8C"/>
<mask id="path-12-outside-1_0_686" maskUnits="userSpaceOnUse" x="264" y="139.946" width="52" height="43" fill="black">
<rect fill="white" x="264" y="139.946" width="52" height="43"/>
<path fill-rule="evenodd" clip-rule="evenodd" d="M295.792 146.48C293.775 144.741 291.057 143.498 287.969 143.088C280.911 142.153 274.589 145.931 273.848 151.526C273.822 151.721 273.803 151.916 273.792 152.11C269.748 153.835 267 157.221 267 161.116C267 165.029 269.775 168.429 273.85 170.146C274.692 175.144 280.091 179 286.626 179C290.09 179 293.234 177.916 295.551 176.154C296.833 176.493 298.206 176.677 299.632 176.677C306.751 176.677 312.522 172.102 312.522 166.458C312.522 164.596 311.895 162.851 310.798 161.348C311.895 159.845 312.522 158.1 312.522 156.238C312.522 150.594 306.751 146.019 299.632 146.019C298.295 146.019 297.005 146.18 295.792 146.48Z"/>
</mask>
<path fill-rule="evenodd" clip-rule="evenodd" d="M295.792 146.48C293.775 144.741 291.057 143.498 287.969 143.088C280.911 142.153 274.589 145.931 273.848 151.526C273.822 151.721 273.803 151.916 273.792 152.11C269.748 153.835 267 157.221 267 161.116C267 165.029 269.775 168.429 273.85 170.146C274.692 175.144 280.091 179 286.626 179C290.09 179 293.234 177.916 295.551 176.154C296.833 176.493 298.206 176.677 299.632 176.677C306.751 176.677 312.522 172.102 312.522 166.458C312.522 164.596 311.895 162.851 310.798 161.348C311.895 159.845 312.522 158.1 312.522 156.238C312.522 150.594 306.751 146.019 299.632 146.019C298.295 146.019 297.005 146.18 295.792 146.48Z" fill="#3D5D8C"/>
<path d="M295.792 146.48L293.834 148.753L295.008 149.764L296.512 149.392L295.792 146.48ZM287.969 143.088L287.575 146.062L287.969 143.088ZM273.848 151.526L270.874 151.132L270.874 151.132L273.848 151.526ZM273.792 152.11L274.969 154.87L276.674 154.142L276.786 152.292L273.792 152.11ZM273.85 170.146L276.808 169.648L276.534 168.021L275.015 167.381L273.85 170.146ZM295.551 176.154L296.318 173.254L294.9 172.879L293.734 173.767L295.551 176.154ZM310.798 161.348L308.375 159.58L307.084 161.348L308.375 163.116L310.798 161.348ZM297.751 144.207C295.269 142.068 292 140.596 288.363 140.114L287.575 146.062C290.115 146.399 292.281 147.414 293.834 148.753L297.751 144.207ZM288.363 140.114C280.344 139.052 271.913 143.288 270.874 151.132L276.822 151.92C277.265 148.574 281.479 145.255 287.575 146.062L288.363 140.114ZM270.874 151.132C270.839 151.398 270.813 151.664 270.797 151.929L276.786 152.292C276.794 152.168 276.806 152.045 276.822 151.92L270.874 151.132ZM272.615 149.351C267.802 151.404 264 155.692 264 161.116H270C270 158.75 271.695 156.266 274.969 154.87L272.615 149.351ZM264 161.116C264 166.566 267.838 170.868 272.685 172.91L275.015 167.381C271.712 165.99 270 163.492 270 161.116H264ZM270.891 170.644C272.052 177.534 279.132 182 286.626 182V176C281.049 176 277.331 172.754 276.808 169.648L270.891 170.644ZM286.626 182C290.701 182 294.494 180.728 297.367 178.542L293.734 173.767C291.975 175.105 289.479 176 286.626 176V182ZM294.784 179.054C296.318 179.46 297.948 179.677 299.632 179.677V173.677C298.463 173.677 297.348 173.526 296.318 173.254L294.784 179.054ZM299.632 179.677C307.721 179.677 315.522 174.371 315.522 166.458H309.522C309.522 169.833 305.781 173.677 299.632 173.677V179.677ZM315.522 166.458C315.522 163.897 314.654 161.543 313.221 159.58L308.375 163.116C309.136 164.159 309.522 165.295 309.522 166.458H315.522ZM309.522 156.238C309.522 157.401 309.136 158.537 308.375 159.58L313.221 163.116C314.654 161.153 315.522 158.799 315.522 156.238H309.522ZM299.632 149.019C305.781 149.019 309.522 152.863 309.522 156.238H315.522C315.522 148.325 307.721 143.019 299.632 143.019V149.019ZM296.512 149.392C297.488 149.151 298.536 149.019 299.632 149.019V143.019C298.054 143.019 296.522 143.209 295.073 143.568L296.512 149.392Z" fill="#EADEC4" mask="url(#path-12-outside-1_0_686)"/>
<mask id="path-14-outside-2_0_686" maskUnits="userSpaceOnUse" x="310" y="0" width="395" height="192" fill="black">
<rect fill="white" x="310" width="395" height="192"/>
<path fill-rule="evenodd" clip-rule="evenodd" d="M584.558 10.0559C575.018 10.0559 566.052 12.011 558.257 15.4454C548.438 7.74898 534.963 3 520.094 3C503.796 3 489.172 8.70634 479.203 17.7461C473.137 15.8862 466.547 14.8667 459.657 14.8667C447.95 14.8667 437.106 17.8112 428.231 22.8208C419.356 17.8112 408.512 14.8667 396.804 14.8667C366.764 14.8667 342.411 34.2516 342.411 58.1642L342.411 58.1798C324.94 65.3833 313 79.9072 313 96.6508C313 115.996 328.938 132.377 350.931 137.93C350.892 138.599 350.873 139.272 350.873 139.948C350.873 163.861 375.225 183.246 405.265 183.246C419.95 183.246 433.276 178.613 443.063 171.084C453.004 181.403 468.651 188.057 486.251 188.057C503.327 188.057 518.565 181.793 528.537 171.994C535.622 174.684 543.553 176.19 551.926 176.19C568.328 176.19 583.035 170.411 593.007 161.271C602.582 167.963 615.135 172.021 628.879 172.021C658.919 172.021 683.271 152.636 683.271 128.723C683.271 125.194 682.741 121.764 681.74 118.481C693.521 110.538 701 98.6772 701 85.4256C701 61.513 676.648 42.1281 646.608 42.1281C643.438 42.1281 640.332 42.3439 637.311 42.7581C631.373 23.9675 610.007 10.0559 584.558 10.0559ZM593.011 96.1312L593.083 96.1222L593.022 96.1647L593.011 96.1312Z"/>
</mask>
<path fill-rule="evenodd" clip-rule="evenodd" d="M584.558 10.0559C575.018 10.0559 566.052 12.011 558.257 15.4454C548.438 7.74898 534.963 3 520.094 3C503.796 3 489.172 8.70634 479.203 17.7461C473.137 15.8862 466.547 14.8667 459.657 14.8667C447.95 14.8667 437.106 17.8112 428.231 22.8208C419.356 17.8112 408.512 14.8667 396.804 14.8667C366.764 14.8667 342.411 34.2516 342.411 58.1642L342.411 58.1798C324.94 65.3833 313 79.9072 313 96.6508C313 115.996 328.938 132.377 350.931 137.93C350.892 138.599 350.873 139.272 350.873 139.948C350.873 163.861 375.225 183.246 405.265 183.246C419.95 183.246 433.276 178.613 443.063 171.084C453.004 181.403 468.651 188.057 486.251 188.057C503.327 188.057 518.565 181.793 528.537 171.994C535.622 174.684 543.553 176.19 551.926 176.19C568.328 176.19 583.035 170.411 593.007 161.271C602.582 167.963 615.135 172.021 628.879 172.021C658.919 172.021 683.271 152.636 683.271 128.723C683.271 125.194 682.741 121.764 681.74 118.481C693.521 110.538 701 98.6772 701 85.4256C701 61.513 676.648 42.1281 646.608 42.1281C643.438 42.1281 640.332 42.3439 637.311 42.7581C631.373 23.9675 610.007 10.0559 584.558 10.0559ZM593.011 96.1312L593.083 96.1222L593.022 96.1647L593.011 96.1312Z" fill="#3D5D8C"/>
<path d="M558.257 15.4454L556.406 17.8065L557.821 18.9157L559.466 18.1908L558.257 15.4454ZM479.203 17.7461L478.323 20.6143L479.954 21.1144L481.218 19.9685L479.203 17.7461ZM428.231 22.8208L426.756 25.4333L428.231 26.2657L429.705 25.4333L428.231 22.8208ZM342.411 58.1642H339.411V58.1649L342.411 58.1642ZM342.411 58.1798L343.555 60.9533L345.412 60.1877L345.411 58.1791L342.411 58.1798ZM350.931 137.93L353.926 138.103L354.068 135.628L351.665 135.021L350.931 137.93ZM443.063 171.084L445.223 169.002L443.361 167.069L441.233 168.706L443.063 171.084ZM528.537 171.994L529.602 169.189L527.806 168.507L526.435 169.854L528.537 171.994ZM593.007 161.271L594.726 158.812L592.754 157.434L590.98 159.059L593.007 161.271ZM681.74 118.481L680.063 115.993L678.224 117.233L678.871 119.355L681.74 118.481ZM637.311 42.7581L634.45 43.662L635.212 46.0739L637.718 45.7303L637.311 42.7581ZM593.083 96.1222L594.799 98.5828L592.712 93.1452L593.083 96.1222ZM593.011 96.1312L592.639 93.1543L588.943 93.6153L590.181 97.1282L593.011 96.1312ZM593.022 96.1647L590.193 97.1616L591.504 100.881L594.738 98.6253L593.022 96.1647ZM559.466 18.1908C566.872 14.9279 575.426 13.0559 584.558 13.0559V7.05589C574.611 7.05589 565.231 9.09417 557.047 12.7001L559.466 18.1908ZM520.094 6C534.339 6 547.151 10.5522 556.406 17.8065L560.107 13.0843C549.725 4.94574 535.587 0 520.094 0V6ZM481.218 19.9685C490.587 11.4723 504.474 6 520.094 6V0C503.118 0 487.756 5.94035 477.187 15.5238L481.218 19.9685ZM459.657 17.8667C466.251 17.8667 472.545 18.8426 478.323 20.6143L480.082 14.8779C473.729 12.9299 466.842 11.8667 459.657 11.8667V17.8667ZM429.705 25.4333C438.114 20.6871 448.447 17.8667 459.657 17.8667V11.8667C447.452 11.8667 436.097 14.9354 426.756 20.2082L429.705 25.4333ZM396.804 17.8667C408.014 17.8667 418.347 20.6871 426.756 25.4333L429.705 20.2082C420.364 14.9354 409.009 11.8667 396.804 11.8667V17.8667ZM345.411 58.1642C345.411 36.5107 367.746 17.8667 396.804 17.8667V11.8667C365.781 11.8667 339.411 31.9926 339.411 58.1642H345.411ZM345.411 58.1791L345.411 58.1635L339.411 58.1649L339.411 58.1805L345.411 58.1791ZM316 96.6508C316 81.4531 326.866 67.8342 343.555 60.9533L341.268 55.4063C323.014 62.9324 310 78.3612 310 96.6508H316ZM351.665 135.021C330.539 129.688 316 114.194 316 96.6508H310C310 117.798 327.336 135.067 350.196 140.839L351.665 135.021ZM353.873 139.948C353.873 139.329 353.891 138.714 353.926 138.103L347.936 137.757C347.894 138.484 347.873 139.214 347.873 139.948H353.873ZM405.265 180.246C376.207 180.246 353.873 161.602 353.873 139.948H347.873C347.873 166.12 374.243 186.246 405.265 186.246V180.246ZM441.233 168.706C432.006 175.805 419.334 180.246 405.265 180.246V186.246C420.567 186.246 434.547 181.421 444.892 173.461L441.233 168.706ZM486.251 185.057C469.377 185.057 454.54 178.673 445.223 169.002L440.902 173.165C451.469 184.133 467.926 191.057 486.251 191.057V185.057ZM526.435 169.854C517.078 179.048 502.62 185.057 486.251 185.057V191.057C504.034 191.057 520.052 184.537 530.64 174.134L526.435 169.854ZM551.926 173.19C543.912 173.19 536.342 171.748 529.602 169.189L527.472 174.799C534.903 177.62 543.195 179.19 551.926 179.19V173.19ZM590.98 159.059C581.61 167.648 567.646 173.19 551.926 173.19V179.19C569.01 179.19 584.46 173.174 595.034 163.483L590.98 159.059ZM628.879 169.021C615.715 169.021 603.769 165.132 594.726 158.812L591.289 163.73C601.396 170.794 614.556 175.021 628.879 175.021V169.021ZM680.271 128.723C680.271 150.377 657.937 169.021 628.879 169.021V175.021C659.901 175.021 686.271 154.895 686.271 128.723H680.271ZM678.871 119.355C679.787 122.362 680.271 125.498 680.271 128.723H686.271C686.271 124.891 685.695 121.167 684.61 117.606L678.871 119.355ZM698 85.4256C698 97.4715 691.206 108.481 680.063 115.993L683.417 120.968C695.837 112.596 704 99.8829 704 85.4256H698ZM646.608 45.1281C675.665 45.1281 698 63.7721 698 85.4256H704C704 59.2539 677.63 39.1281 646.608 39.1281V45.1281ZM637.718 45.7303C640.604 45.3346 643.574 45.1281 646.608 45.1281V39.1281C643.302 39.1281 640.059 39.3532 636.903 39.7859L637.718 45.7303ZM584.558 13.0559C609.067 13.0559 629.008 26.4382 634.45 43.662L640.171 41.8542C633.739 21.4967 610.947 7.05589 584.558 7.05589V13.0559ZM592.712 93.1452L592.639 93.1543L593.382 99.1082L593.455 99.0991L592.712 93.1452ZM594.738 98.6253L594.799 98.5828L591.367 93.6615L591.306 93.704L594.738 98.6253ZM590.181 97.1282L590.193 97.1616L595.852 95.1677L595.84 95.1343L590.181 97.1282Z" fill="#EADEC4" mask="url(#path-14-outside-2_0_686)"/>
</svg>
