<svg width="262" height="321" viewBox="0 0 262 321" fill="none" xmlns="http://www.w3.org/2000/svg">
<path d="M60.081 43.1282C41.2094 48.6531 28.438 59.6605 21.7666 76.1504C15.0437 92.4641 14.3126 109.606 19.5735 127.575C24.8343 145.545 34.7203 159.674 49.2313 169.962C63.6908 180.075 80.3564 182.368 99.228 176.843C114.441 172.39 125.642 164.233 132.833 152.373C140.216 140.456 143.456 126.884 142.551 111.656C157.004 137.454 175.399 147.084 197.737 140.544C208.135 137.5 216.013 131.559 221.371 122.722C226.921 113.829 229.877 104.643 230.238 95.1652C230.74 85.4545 229.651 76.0187 226.969 66.8577C224.287 57.6967 220.141 49.251 214.533 41.5205C209.066 33.5576 201.597 27.3281 192.127 22.8322C182.849 18.28 173.011 17.526 162.613 20.5704C140.275 27.11 129.977 45.1397 131.72 74.6593C124.076 61.404 114.029 51.7216 101.577 45.612C89.126 39.5024 75.2939 38.6745 60.081 43.1282ZM186.751 103.019C176.737 105.951 167.389 106.871 158.707 105.778C150.165 104.454 144.708 99.7392 142.335 91.6353C139.911 83.3551 141.964 76.4421 148.494 70.8961C155.024 65.3501 163.393 61.0831 173.599 58.0952C183.42 55.22 192.286 54.4412 200.199 55.759C208.304 57.0203 213.568 61.791 215.992 70.0712C218.416 78.3513 216.556 85.208 210.411 90.6412C204.458 96.018 196.572 100.144 186.751 103.019ZM87.7779 137.733C72.2831 142.652 59.5513 143.797 49.5826 141.169C39.5245 138.949 33.1802 133.347 30.5498 124.362C27.971 115.553 30.2664 107.326 37.4363 99.68C44.5166 92.4428 55.8816 86.629 71.5311 82.2386C106.155 72.6757 126.098 76.8791 131.359 94.8487C136.62 112.818 122.093 127.113 87.7779 137.733Z" fill="#3D5D8C"/>
<path d="M165.375 86.202C164.025 81.7885 164.185 77.8928 165.854 74.515C167.481 70.9992 170.491 68.5682 174.883 67.222C179.001 65.9599 182.786 66.3084 186.238 68.2675C189.689 70.2267 192.069 73.3441 193.377 77.6197C194.684 81.8954 194.525 85.7911 192.898 89.3068C191.091 92.7267 188.06 95.0887 183.805 96.3929C179.55 97.6971 175.786 97.4175 172.514 95.5542C169.062 93.5951 166.682 90.4777 165.375 86.202Z" fill="#050505"/>
<path d="M67.064 114.984C65.7141 110.57 65.8738 106.675 67.5431 103.297C69.1702 99.7809 72.18 97.35 76.5724 96.0037C80.6904 94.7416 84.4752 95.0901 87.9269 97.0493C91.3786 99.0084 93.7583 102.126 95.0659 106.401C96.3736 110.677 96.2139 114.573 94.5868 118.089C92.7803 121.508 89.7494 123.87 85.4942 125.175C81.239 126.479 77.4753 126.199 74.203 124.336C70.7513 122.377 68.3717 119.259 67.064 114.984Z" fill="#050505"/>
<path d="M188.767 167.417L158.732 177.782L168.1 211.838L174.453 210.091C176.388 208.157 182.354 202.068 192.349 191.825C203.372 180.49 210.307 173.784 213.152 171.707C209.844 175.205 208.755 179.009 209.885 183.119C211.085 187.48 214.226 190.794 219.311 193.061C224.47 195.254 230.711 195.344 238.034 193.329C243.328 191.873 247.508 189.645 250.574 186.645C253.729 183.621 255.69 180.574 256.46 177.505C257.229 174.436 257.214 171.448 256.414 168.541C255.091 163.73 252.019 160.154 247.199 157.813C242.468 155.449 236.131 155.359 228.19 157.543C221.573 159.363 214.556 164.043 207.139 171.583C206.59 172.003 205.571 172.957 204.082 174.445C203.412 175.115 201.074 177.483 197.068 181.55C195.281 183.336 193.19 185.393 190.794 187.724C188.486 190.03 187.034 191.481 186.439 192.076C184.131 194.382 181.988 196.427 180.011 198.211L176.082 183.926C175.641 182.322 175.354 181.107 175.222 180.281C175.178 179.431 175.347 178.495 175.731 177.473C176.202 176.426 177.089 175.509 178.39 174.719C179.78 173.906 181.726 173.047 184.23 172.142L189.553 170.274L188.767 167.417ZM244.441 166.417C248.45 166.5 250.806 167.82 251.509 170.376C252.212 172.932 250.862 175.271 247.46 177.393C244.057 179.515 239.893 181.281 234.965 182.69C229.332 184.293 224.616 184.917 220.816 184.56C217.207 184.205 215.072 182.825 214.41 180.419C213.707 177.863 215.063 175.549 218.479 173.477C221.882 171.355 226.054 169.614 230.995 168.255C235.936 166.896 240.418 166.283 244.441 166.417Z" fill="#050505"/>
<path d="M129.243 183.79L158.729 177.782L168.097 211.839L162.082 213.494C159.551 212.788 151.689 210.503 138.494 206.639C123.923 202.344 114.968 200.009 111.63 199.634C116.051 201.005 118.827 203.746 119.957 207.856C121.157 212.216 120.262 216.641 117.273 221.129C114.187 225.59 109.176 228.775 102.242 230.682C97.2297 232.061 92.735 232.219 88.7583 231.156C84.698 230.117 81.5924 228.464 79.4415 226.198C77.2905 223.932 75.8153 221.346 75.0156 218.439C73.6921 213.628 74.3995 209.012 77.1379 204.593C79.7928 200.196 84.8796 196.964 92.3985 194.896C98.6642 193.172 106.677 193.718 116.438 196.532C117.092 196.622 118.392 196.938 120.338 197.481C121.214 197.725 124.287 198.605 129.557 200.121C131.893 200.772 134.611 201.507 137.712 202.325C140.729 203.167 142.627 203.696 143.406 203.913C146.423 204.754 149.176 205.453 151.665 206.008L147.736 191.724C147.295 190.12 146.922 188.928 146.618 188.149C146.23 187.393 145.627 186.67 144.808 185.979C143.905 185.31 142.73 184.96 141.283 184.926C139.753 184.916 137.748 185.144 135.271 185.61L130.029 186.647L129.243 183.79ZM83.6552 210.644C80.4497 212.712 79.1985 215.024 79.9017 217.58C80.6048 220.136 82.8624 221.483 86.6745 221.621C90.4866 221.758 94.7388 221.209 99.431 219.972C104.792 218.551 108.922 216.741 111.821 214.542C114.568 212.438 115.61 210.184 114.948 207.778C114.245 205.222 111.994 203.9 108.196 203.813C104.384 203.675 100.139 204.25 95.4604 205.537C90.782 206.824 86.8469 208.526 83.6552 210.644Z" fill="#050505"/>
<path d="M163.779 194.487C155.105 197.026 146.949 201.541 139.313 208.031C131.635 214.381 125.718 222.874 121.56 233.512C117.471 243.977 117.107 254.947 120.466 266.422C123.785 277.758 130.008 286.799 139.136 293.547C148.223 300.155 157.732 304.132 167.663 305.479C177.704 306.794 187.061 306.181 195.735 303.642C204.409 301.103 212.53 296.674 220.098 290.356C227.735 283.866 233.597 275.389 237.686 264.923C241.733 254.318 242.078 243.278 238.718 231.803C236.178 223.126 231.942 215.782 226.009 209.77C220.146 203.586 213.559 199.209 206.251 196.638C199.051 194.036 191.775 192.596 184.422 192.317C177.028 191.899 170.147 192.622 163.779 194.487ZM232.46 233.635C235.164 242.871 233.288 250.105 226.833 255.338C220.46 260.85 207.062 266.596 186.64 272.575C166.437 278.489 152.091 280.79 143.6 279.478C134.931 278.369 129.306 273.407 126.725 264.59C124.103 255.634 126.088 248.367 132.681 242.791C139.274 237.214 152.671 231.469 172.874 225.554C193.077 219.639 207.403 217.268 215.852 218.441C224.302 219.614 229.837 224.679 232.46 233.635Z" fill="#7A0005"/>
</svg>
