<svg width="262" height="321" viewBox="0 0 262 321" fill="none" xmlns="http://www.w3.org/2000/svg">
<path d="M201.378 43.1282C220.25 48.6531 233.021 59.6605 239.693 76.1504C246.415 92.4641 247.146 109.606 241.886 127.575C236.625 145.545 226.739 159.674 212.228 169.962C197.768 180.075 181.103 182.368 162.231 176.843C147.018 172.39 135.817 164.233 128.626 152.373C121.243 140.456 118.004 126.884 118.908 111.656C104.455 137.454 86.0603 147.084 63.7224 140.544C53.3238 137.5 45.4457 131.559 40.088 122.722C34.5378 113.829 31.5821 104.643 31.2209 95.1652C30.7186 85.4545 31.8085 76.0187 34.4905 66.8577C37.1725 57.6967 41.3177 49.251 46.9261 41.5205C52.3934 33.5576 59.8621 27.3281 69.3322 22.8322C78.6097 18.28 88.4477 17.526 98.8464 20.5704C121.184 27.11 131.482 45.1397 129.739 74.6593C137.383 61.404 147.43 51.7216 159.882 45.612C172.333 39.5024 186.165 38.6745 201.378 43.1282ZM74.7083 103.019C84.7218 105.951 94.0699 106.871 102.753 105.778C111.294 104.454 116.751 99.7392 119.124 91.6353C121.548 83.3551 119.495 76.4421 112.965 70.8961C106.435 65.3501 98.0665 61.0831 87.8605 58.0952C78.0395 55.22 69.1729 54.4412 61.2605 55.759C53.1555 57.0203 47.891 61.791 45.4669 70.0712C43.0428 78.3513 44.9032 85.208 51.0482 90.6412C57.0007 96.018 64.8874 100.144 74.7083 103.019ZM173.681 137.733C189.176 142.652 201.908 143.797 211.876 141.169C221.935 138.949 228.279 133.347 230.909 124.362C233.488 115.553 231.193 107.326 224.023 99.68C216.942 92.4428 205.578 86.629 189.928 82.2386C155.304 72.6757 135.361 76.8791 130.1 94.8487C124.839 112.818 139.366 127.113 173.681 137.733Z" fill="#3D5D8C"/>
<path d="M96.0844 86.202C97.4343 81.7885 97.2746 77.8928 95.6053 74.515C93.9782 70.9992 90.9684 68.5682 86.5759 67.222C82.458 65.9599 78.6732 66.3084 75.2215 68.2675C71.7698 70.2267 69.3901 73.3441 68.0824 77.6197C66.7748 81.8954 66.9345 85.7911 68.5615 89.3068C70.3681 92.7267 73.399 95.0887 77.6542 96.3929C81.9094 97.6971 85.6731 97.4175 88.9453 95.5542C92.397 93.5951 94.7767 90.4777 96.0844 86.202Z" fill="#050505"/>
<path d="M194.395 114.984C195.745 110.57 195.585 106.675 193.916 103.297C192.289 99.7809 189.279 97.35 184.887 96.0037C180.769 94.7416 176.984 95.0901 173.532 97.0493C170.081 99.0084 167.701 102.126 166.393 106.401C165.085 110.677 165.245 114.573 166.872 118.089C168.679 121.508 171.71 123.87 175.965 125.175C180.22 126.479 183.984 126.199 187.256 124.336C190.708 122.377 193.087 119.259 194.395 114.984Z" fill="#050505"/>
<path d="M72.6922 167.417L102.727 177.782L93.359 211.838L87.0062 210.091C85.0706 208.157 79.1053 202.068 69.1103 191.825C58.0867 180.49 51.1522 173.784 48.3067 171.707C51.6155 175.205 52.7045 179.009 51.574 183.119C50.3746 187.48 47.2326 190.794 42.1482 193.061C36.9893 195.254 30.7482 195.344 23.4249 193.329C18.1309 191.873 13.9509 189.645 10.8848 186.645C7.73053 183.621 5.76875 180.574 4.99949 177.505C4.23023 174.436 4.24542 171.448 5.04505 168.541C6.36858 163.73 9.44022 160.154 14.26 157.813C18.9915 155.449 25.3277 155.359 33.2686 157.543C39.8861 159.363 46.9033 164.043 54.3204 171.583C54.8691 172.003 55.8879 172.957 57.3768 174.445C58.0468 175.115 60.385 177.483 64.3913 181.55C66.178 183.336 68.2693 185.393 70.6654 187.724C72.9732 190.03 74.4249 191.481 75.0205 192.076C77.3283 194.382 79.4707 196.427 81.4477 198.211L85.3769 183.926C85.8181 182.322 86.1048 181.107 86.2372 180.281C86.2813 179.431 86.1117 178.495 85.7285 177.473C85.257 176.426 84.3706 175.509 83.0691 174.719C81.6795 173.906 79.7328 173.047 77.2292 172.142L71.9063 170.274L72.6922 167.417ZM17.0186 166.417C13.0095 166.5 10.6534 167.82 9.95024 170.376C9.24712 172.932 10.5968 175.271 13.9993 177.393C17.4017 179.515 21.5666 181.281 26.4938 182.69C32.1269 184.293 36.8432 184.917 40.6428 184.56C44.2521 184.205 46.3876 182.825 47.0494 180.419C47.7525 177.863 46.3959 175.549 42.9797 173.477C39.5772 171.355 35.4054 169.614 30.4644 168.255C25.5234 166.896 21.0414 166.283 17.0186 166.417Z" fill="#050505"/>
<path d="M132.216 183.79L102.73 177.782L93.3623 211.839L99.3773 213.494C101.908 212.788 109.771 210.503 122.965 206.639C137.536 202.344 146.491 200.009 149.829 199.634C145.408 201.005 142.632 203.746 141.502 207.856C140.302 212.216 141.197 216.641 144.186 221.129C147.273 225.59 152.283 228.775 159.217 230.682C164.229 232.061 168.724 232.219 172.701 231.156C176.761 230.117 179.867 228.464 182.018 226.198C184.169 223.932 185.644 221.346 186.443 218.439C187.767 213.628 187.06 209.012 184.321 204.593C181.666 200.196 176.579 196.964 169.061 194.896C162.795 193.172 154.782 193.718 145.021 196.532C144.367 196.622 143.067 196.938 141.121 197.481C140.245 197.725 137.172 198.605 131.902 200.121C129.566 200.772 126.848 201.507 123.747 202.325C120.73 203.167 118.832 203.696 118.054 203.913C115.036 204.754 112.283 205.453 109.794 206.008L113.723 191.724C114.164 190.12 114.537 188.928 114.841 188.149C115.229 187.393 115.832 186.67 116.651 185.979C117.554 185.31 118.729 184.96 120.176 184.926C121.706 184.916 123.711 185.144 126.189 185.61L131.43 186.647L132.216 183.79ZM177.804 210.644C181.009 212.712 182.261 215.024 181.557 217.58C180.854 220.136 178.597 221.483 174.785 221.621C170.972 221.758 166.72 221.209 162.028 219.972C156.668 218.551 152.537 216.741 149.638 214.542C146.891 212.438 145.849 210.184 146.511 207.778C147.214 205.222 149.465 203.9 153.263 203.813C157.075 203.675 161.32 204.25 165.999 205.537C170.677 206.824 174.612 208.526 177.804 210.644Z" fill="#050505"/>
<path d="M97.6805 194.487C106.355 197.026 114.51 201.541 122.146 208.031C129.824 214.381 135.742 222.874 139.899 233.512C143.988 243.977 144.352 254.947 140.993 266.422C137.674 277.758 131.451 286.799 122.323 293.547C113.236 300.155 103.727 304.132 93.7959 305.479C83.7552 306.794 74.3978 306.181 65.7239 303.642C57.0499 301.103 48.929 296.674 41.3612 290.356C33.7246 283.866 27.862 275.389 23.7733 264.923C19.7256 254.318 19.3815 243.278 22.7411 231.803C25.2812 223.126 29.5175 215.782 35.4499 209.77C41.3134 203.586 47.8997 199.209 55.2086 196.638C62.4077 194.036 69.6838 192.596 77.037 192.317C84.4311 191.899 91.3123 192.622 97.6805 194.487ZM28.9995 233.635C26.2955 242.871 28.171 250.105 34.6261 255.338C40.9992 260.85 54.3969 266.596 74.8192 272.575C95.0219 278.489 109.368 280.79 117.859 279.478C126.528 278.369 132.153 273.407 134.734 264.59C137.356 255.634 135.371 248.367 128.778 242.791C122.186 237.214 108.788 231.469 88.5852 225.554C68.3825 219.639 54.0564 217.268 45.6069 218.441C37.1574 219.614 31.6216 224.679 28.9995 233.635Z" fill="#7A0005"/>
</svg>
