<svg width="424" height="621" viewBox="0 0 424 621" fill="none" xmlns="http://www.w3.org/2000/svg">
<path d="M380 442.443V571H234.5H96V552.061H143.046V477.5V193.939H96V175H369.673V301.261H350.739V277.157C350.739 245.4 344.046 223.591 330.659 211.73C317.271 199.87 294.322 193.939 261.81 193.939H204.436V360.374H287.628V316.183H308.857V428.096H287.628V378.739H204.436V511.5V552.061H230H283.612C313.829 552.061 334.292 545.174 345.002 531.4C355.712 517.626 361.067 494.861 361.067 463.104V442.443H380Z" fill="#050505"/>
<path d="M249.637 70.6552L290.59 27.8621L249.637 5L213.363 27.8621L236.18 123.414M236.18 123.414L118 175H345L236.18 123.414Z" stroke="#050505" stroke-width="8"/>
<path d="M280.829 391.415V388.2H242.381L227.973 381.956L220 360.659L239.177 357.653H280.829V287.718H313.669V430H280.829V391.415Z" fill="#3D5D8C"/>
<path d="M379.199 234.154V329.812H350.364V278.096L347.961 254.25L344.757 234.154L341.363 223.934L330.5 221L338.349 214.862L341.363 223.934L379.199 234.154Z" fill="#3D5D8C"/>
<path d="M280.829 391.415V388.2H242.381L227.973 381.956L220 360.659L239.177 357.653H280.829V287.718H313.669V430H280.829V391.415Z" stroke="#3D5D8C"/>
<path d="M379.199 234.154V329.812H350.364V278.096L347.961 254.25L344.757 234.154L341.363 223.934L330.5 221L338.349 214.862L341.363 223.934L379.199 234.154Z" stroke="#3D5D8C"/>
<path d="M317.769 212C349.792 212 375.503 223.056 394.902 245.169C414.301 267.282 424 293.559 424 324C424 354.441 414.147 380.718 394.44 402.831C375.041 424.944 349.484 436 317.769 436C285.13 436 259.265 425.231 240.174 403.692C221.391 382.154 212 355.733 212 324.431C212 293.128 221.391 266.564 240.174 244.738C259.265 222.913 285.13 212 317.769 212ZM317.769 224.923C306.684 224.923 296.985 227.077 288.671 231.385C280.357 235.692 274.045 241.149 269.734 247.754C265.423 254.072 261.882 261.969 259.111 271.446C256.648 280.923 255.108 289.682 254.492 297.723C253.877 305.477 253.569 314.38 253.569 324.431C253.569 334.482 253.877 343.385 254.492 351.138C255.108 358.892 256.648 367.508 259.111 376.985C261.882 386.462 265.423 394.359 269.734 400.677C274.353 406.995 280.665 412.308 288.671 416.615C296.985 420.923 306.684 423.077 317.769 423.077C360.877 423.077 382.431 390.051 382.431 324C382.431 257.949 360.877 224.923 317.769 224.923Z" fill="#7A0005"/>
<path d="M201.614 546.54L193.5 464.5L162.5 422.5L122.478 403V546.54H62V571H193.5L201.614 546.54Z" fill="#3D5D8C"/>
<path d="M105.769 397C137.792 397 163.503 408.056 182.902 430.169C202.301 452.282 212 478.559 212 509C212 539.441 202.147 565.718 182.44 587.831C163.041 609.944 137.484 621 105.769 621C73.13 621 47.2651 610.231 28.1743 588.692C9.39143 567.154 0 540.733 0 509.431C0 478.128 9.39143 451.564 28.1743 429.738C47.2651 407.913 73.13 397 105.769 397ZM105.769 409.923C94.6841 409.923 84.9847 412.077 76.671 416.385C68.3573 420.692 62.045 426.149 57.7342 432.754C53.4234 439.072 49.8824 446.969 47.1111 456.446C44.6478 465.923 43.1082 474.682 42.4924 482.723C41.8765 490.477 41.5686 499.38 41.5686 509.431C41.5686 519.482 41.8765 528.385 42.4924 536.138C43.1082 543.892 44.6478 552.508 47.1111 561.985C49.8824 571.462 53.4234 579.359 57.7342 585.677C62.3529 591.995 68.6652 597.308 76.671 601.615C84.9847 605.923 94.6841 608.077 105.769 608.077C148.877 608.077 170.431 575.051 170.431 509C170.431 442.949 148.877 409.923 105.769 409.923Z" fill="#7A0005"/>
</svg>
