<svg width="1280" height="887" viewBox="0 0 1280 887" fill="none" xmlns="http://www.w3.org/2000/svg">
<path d="M643.5 561.5L0.5 881.5L0 3L1279.5 3V882L643.5 561.5Z" fill="#050505" stroke="#050505" stroke-width="5"/>
<path d="M470.981 51.6838C470.756 51.7077 469.995 52.6954 469.799 52.2929C469.47 51.6189 469.734 50.196 469.763 49.4891C469.844 47.5605 470.597 46.1357 471.614 44.5228C472.665 42.8568 474.105 40.8315 476.129 40.3322C478.531 39.7395 483.568 39.3792 485.096 41.7706C486.44 43.8738 486.014 48.1858 485.326 50.4613C485.123 51.1306 484.156 52.2082 484.583 50.9782C484.818 50.3001 485.575 49.9033 486.179 49.5593C488.398 48.2967 490.668 47.9785 493.216 48.1904C496.142 48.4337 498.629 49.9504 499.526 52.6934C500.251 54.9143 499.342 58.2012 497.656 59.8255C497.238 60.2288 494.171 61.9721 493.518 61.4788C493.158 61.207 495.792 60.4148 495.938 60.3937C498.441 60.033 500.9 60.336 502.859 61.9213C504.702 63.4126 505.383 65.1261 505.554 67.4142C505.685 69.1772 506.127 70.8948 505.31 72.5561C503.95 75.3188 501.116 77.3054 497.854 77.2994C494.805 77.2937 492.881 76.194 490.221 75.1592" stroke="#7A0005" stroke-width="5" stroke-linecap="round"/>
<path d="M384.059 76.7283C384.157 76.9238 385.385 77.2855 385.05 77.5939C384.489 78.1104 382.993 78.3391 382.282 78.544C380.344 79.1029 378.685 78.8909 376.753 78.5033C374.757 78.1029 372.278 77.4688 371.12 75.81C369.746 73.8407 367.739 69.4221 369.61 67.2631C371.255 65.3642 375.669 64.3361 378.15 64.2106C378.88 64.1737 380.265 64.6918 378.906 64.7103C378.157 64.7206 377.515 64.169 376.976 63.7373C374.998 62.1525 373.94 60.2128 373.315 57.8488C372.598 55.1335 373.287 52.3969 375.713 50.6917C377.677 49.311 381.233 49.0533 383.396 50.0396C383.933 50.2845 386.665 52.4753 386.39 53.225C386.238 53.6381 384.59 51.5259 384.522 51.401C383.345 49.2654 382.84 46.9517 383.77 44.6684C384.645 42.5204 386.12 41.3454 388.333 40.4426C390.037 39.747 391.595 38.7863 393.51 38.9787C396.694 39.2986 399.592 41.2006 400.653 44.1395C401.646 46.8877 401.186 48.9809 401.031 51.7149" stroke="#7A0005" stroke-width="5" stroke-linecap="round"/>
<path d="M409.429 53.053C416.314 53.053 421.88 55.4141 426.127 60.1365C430.374 64.8588 432.497 70.5624 432.497 77.2473C432.497 83.8708 430.342 89.5438 426.031 94.2661C421.784 98.9271 416.25 101.258 409.429 101.258C402.48 101.258 396.914 98.9578 392.732 94.3581C388.614 89.7584 386.555 84.0548 386.555 77.2473C386.555 70.4398 388.614 64.7055 392.732 60.0445C396.85 55.3835 402.416 53.053 409.429 53.053ZM409.429 56.1808C406.663 56.1808 404.378 56.8554 402.577 58.2046C400.775 59.4925 399.488 61.3324 398.716 63.7242C398.008 66.1161 397.525 68.2932 397.268 70.2558C397.075 72.2183 396.979 74.5488 396.979 77.2473C396.979 79.3325 397.011 81.1723 397.075 82.7669C397.204 84.3001 397.493 86.1093 397.944 88.1945C398.458 90.2797 399.134 91.9969 399.971 93.3462C400.807 94.6954 402.03 95.8606 403.638 96.8419C405.247 97.7618 407.177 98.2218 409.429 98.2218C417.859 98.2218 422.073 91.2303 422.073 77.2473C422.073 63.2029 417.859 56.1808 409.429 56.1808Z" fill="#3D5D8C"/>
<path d="M464.287 53.053C471.172 53.053 476.737 55.4141 480.984 60.1365C485.231 64.8588 487.355 70.5624 487.355 77.2473C487.355 83.8708 485.199 89.5438 480.888 94.2661C476.641 98.9271 471.107 101.258 464.287 101.258C457.337 101.258 451.771 98.9578 447.589 94.3581C443.471 89.7584 441.412 84.0548 441.412 77.2473C441.412 70.4398 443.471 64.7055 447.589 60.0445C451.707 55.3835 457.273 53.053 464.287 53.053ZM464.287 56.1808C461.52 56.1808 459.235 56.8554 457.434 58.2046C455.632 59.4925 454.345 61.3324 453.573 63.7242C452.865 66.1161 452.383 68.2932 452.125 70.2558C451.932 72.2183 451.836 74.5488 451.836 77.2473C451.836 79.3325 451.868 81.1723 451.932 82.7669C452.061 84.3001 452.35 86.1093 452.801 88.1945C453.316 90.2797 453.991 91.9969 454.828 93.3462C455.664 94.6954 456.887 95.8606 458.495 96.8419C460.104 97.7618 462.034 98.2218 464.287 98.2218C472.716 98.2218 476.931 91.2303 476.931 77.2473C476.931 63.2029 472.716 56.1808 464.287 56.1808Z" fill="#3D5D8C"/>
<path d="M636.294 69.8649C636.294 70.4604 636.952 70.005 637.386 69.8649C639.197 69.2795 641.44 69.2382 643.354 69.1101C647.539 68.8299 651.95 68.992 656.103 69.5471C656.839 69.6454 661.031 70.0822 660.957 71.2952C660.916 71.9547 658.979 72.6338 658.402 72.9043C656.497 73.7981 654.272 74.273 652.295 75.0596C649.941 75.9962 647.672 77.6708 645.188 78.2778C644.96 78.3337 646.655 79.0008 646.86 79.0922C648.435 79.7924 649.895 80.7508 651.377 81.5853C653.341 82.6905 654.945 83.9638 656.661 85.3298C657.503 86.001 658.99 86.7235 659.285 87.7335C659.557 88.6669 658.701 88.6374 657.694 88.6374C655.805 88.6374 653.88 88.8476 651.993 88.9552C648.821 89.1361 645.313 89.2043 642.193 88.5976C642.04 88.5679 640.601 87.9967 641.31 88.6374C642.355 89.5809 643.598 90.3302 644.608 91.3191C645.995 92.6784 646.965 94.3209 648.254 95.749C649.391 97.0083 649.951 98.0349 650.506 99.5432C650.603 99.8067 651.101 101.136 650.715 101.291C650.398 101.419 649.234 100.505 648.927 100.348C647.015 99.3665 644.648 98.9909 642.669 98.113C640.655 97.2196 638.352 96.9371 636.294 96.0569C635.25 95.6102 634.226 95.3293 633.159 94.9743C632.487 94.7507 631.933 94.1797 631.173 94.1797C630.666 94.1797 628.319 93.7652 628.143 93.4645" stroke="#3D5D8C" stroke-width="3" stroke-linecap="round"/>
<path d="M542.242 68.8072C542.194 69.3948 541.598 68.9078 541.193 68.7447C539.498 68.0632 537.344 67.8938 535.515 67.6578C531.513 67.1414 527.259 67.0485 523.221 67.3581C522.506 67.413 518.439 67.6036 518.413 68.8048C518.399 69.4578 520.207 70.2389 520.74 70.5388C522.5 71.5299 524.602 72.1261 526.44 73.0156C528.628 74.0747 530.675 75.857 533.014 76.5982C533.229 76.6665 531.546 77.2276 531.341 77.306C529.771 77.9066 528.29 78.7686 526.797 79.5069C524.82 80.4849 523.175 81.6493 521.416 82.8988C520.552 83.5127 519.065 84.1404 518.7 85.12C518.362 86.0254 519.189 86.0453 520.156 86.103C521.973 86.2113 523.807 86.5291 525.613 86.7435C528.648 87.1038 532.015 87.3722 535.065 86.9524C535.214 86.9319 536.644 86.4507 535.91 87.0422C534.829 87.9133 533.574 88.5813 532.524 89.4992C531.08 90.7608 530.016 92.3259 528.662 93.6611C527.468 94.8385 526.846 95.8193 526.191 97.2757C526.076 97.5302 525.491 98.8135 525.849 98.9886C526.144 99.1328 527.337 98.2978 527.645 98.1601C529.562 97.3015 531.868 97.0665 533.842 96.3137C535.85 95.5478 538.087 95.401 540.137 94.6505C541.177 94.2696 542.183 94.0511 543.238 93.762C543.902 93.5799 544.482 93.0483 545.211 93.0918C545.7 93.1209 547.99 92.8464 548.183 92.5599" stroke="#3D5D8C" stroke-width="3" stroke-linecap="round"/>
<path d="M585.807 78.9975C585.043 84.5972 582.531 89.246 578.271 92.9439C574.01 96.6418 568.572 98.4907 561.959 98.4907C554.582 98.4907 549.176 96.1663 545.742 91.5175C542.308 86.9216 541.163 80.3446 542.308 71.7866C542.944 67.402 543.834 63.572 544.979 60.2967C546.123 57.0215 547.777 53.9311 549.939 51.0256C552.165 48.1201 555.154 45.8221 558.906 44.1317C562.658 42.4412 567.173 41.4375 572.452 41.1205C575.377 40.962 578.398 40.8828 581.514 40.8828C583.422 40.7771 584.916 40.4602 585.997 39.9319C587.142 39.4036 587.873 38.4527 588.191 37.0792H591.053C590.544 40.0904 589.622 42.4412 588.287 44.1317C587.015 45.7693 584.853 46.8787 581.8 47.4598C580.592 47.6711 577.189 47.988 571.593 48.4106C564.852 48.8333 559.701 49.969 556.14 51.818C552.578 53.6669 549.876 57.0215 548.031 61.8815C546.887 64.8927 545.996 68.4057 545.36 72.4205H546.123C547.268 68.1416 549.621 64.8134 553.183 62.4362C556.807 60.059 561.259 58.8704 566.537 58.8704C572.706 58.8704 577.666 60.7722 581.419 64.5757C585.107 68.4321 586.57 73.2394 585.807 78.9975ZM551.847 78.0466C551.211 84.0161 551.752 88.48 553.469 91.4383C555.186 94.3966 558.111 95.8758 562.245 95.8758C564.789 95.8758 566.951 95.3739 568.731 94.3702C570.512 93.3665 571.848 91.9137 572.738 90.012C573.628 88.1102 574.264 86.3669 574.646 84.7821C575.027 83.1973 575.345 81.2955 575.6 79.0768C576.299 73.1601 575.854 68.7755 574.264 65.9228C572.674 63.0173 569.876 61.5646 565.87 61.5646C563.326 61.5646 561.132 62.0664 559.288 63.0702C557.443 64.0739 556.044 65.4738 555.09 67.2699C554.136 69.0132 553.405 70.7301 552.896 72.4205C552.451 74.0582 552.101 75.9335 551.847 78.0466Z" fill="#7A0005"/>
<path d="M638.923 73.0545C636.443 90.012 628.081 98.4907 613.835 98.4907C607.603 98.4907 602.547 96.404 598.668 92.2307C594.725 88.0045 593.167 82.9595 593.994 77.0957C594.821 71.5489 597.269 66.8209 601.339 62.9117C605.473 58.9496 610.751 56.9686 617.174 56.9686C624.233 56.9686 628.621 59.5836 630.338 64.8134C630.72 56.2026 629.829 49.8898 627.667 45.8749C625.505 41.8601 621.944 39.8527 616.983 39.8527C612.468 39.8527 608.652 41.1469 605.536 43.7355L603.819 41.9922C608.016 38.6641 612.85 37 618.319 37C626.205 37 632.023 40.3017 635.776 46.9051C639.464 53.5613 640.513 62.2778 638.923 73.0545ZM604.201 77.0957C603.247 83.1709 603.628 87.8196 605.346 91.0421C606.935 94.2645 609.861 95.8758 614.122 95.8758C616.475 95.8758 618.541 95.2947 620.322 94.1325C622.103 92.9174 623.502 91.3062 624.519 89.2988C625.537 87.2914 626.3 85.416 626.809 83.6727C627.317 81.8766 627.699 80.0276 627.953 78.1259C628.78 72.1564 628.335 67.5605 626.618 64.338C624.774 61.2212 621.785 59.6628 617.651 59.6628C615.171 59.6628 613.04 60.2175 611.26 61.3269C609.543 62.4362 608.207 64.021 607.253 66.0813C606.363 68.0887 605.695 69.8848 605.25 71.4697C604.869 73.0016 604.519 74.877 604.201 77.0957Z" fill="#7A0005"/>
<path d="M780.981 51.6838C780.756 51.7077 779.995 52.6954 779.799 52.2929C779.47 51.6189 779.734 50.196 779.763 49.4891C779.844 47.5605 780.597 46.1357 781.614 44.5228C782.665 42.8568 784.105 40.8315 786.129 40.3322C788.531 39.7395 793.568 39.3792 795.096 41.7706C796.44 43.8738 796.014 48.1858 795.326 50.4613C795.123 51.1306 794.156 52.2082 794.583 50.9782C794.818 50.3001 795.575 49.9033 796.179 49.5593C798.398 48.2967 800.668 47.9785 803.216 48.1904C806.142 48.4337 808.629 49.9504 809.526 52.6934C810.251 54.9143 809.342 58.2012 807.656 59.8255C807.238 60.2288 804.171 61.9721 803.518 61.4788C803.158 61.207 805.792 60.4148 805.938 60.3937C808.441 60.033 810.9 60.336 812.859 61.9213C814.702 63.4126 815.383 65.1261 815.554 67.4142C815.685 69.1772 816.127 70.8948 815.31 72.5561C813.95 75.3188 811.116 77.3054 807.854 77.2994C804.805 77.2937 802.881 76.194 800.221 75.1592" stroke="#7A0005" stroke-width="5" stroke-linecap="round"/>
<path d="M694.059 76.7283C694.157 76.9238 695.385 77.2855 695.05 77.5939C694.489 78.1104 692.993 78.3391 692.282 78.544C690.344 79.1029 688.685 78.8909 686.753 78.5033C684.757 78.1029 682.278 77.4688 681.12 75.81C679.746 73.8407 677.739 69.4221 679.61 67.2631C681.255 65.3642 685.669 64.3361 688.15 64.2106C688.88 64.1737 690.265 64.6918 688.906 64.7103C688.157 64.7206 687.515 64.169 686.976 63.7373C684.998 62.1525 683.94 60.2128 683.315 57.8488C682.598 55.1335 683.287 52.3969 685.713 50.6917C687.677 49.311 691.233 49.0533 693.396 50.0396C693.933 50.2845 696.665 52.4753 696.39 53.225C696.238 53.6381 694.59 51.5259 694.522 51.401C693.345 49.2654 692.84 46.9517 693.77 44.6684C694.645 42.5204 696.12 41.3454 698.333 40.4426C700.037 39.747 701.595 38.7863 703.51 38.9787C706.694 39.2986 709.592 41.2006 710.653 44.1395C711.646 46.8877 711.186 48.9809 711.031 51.7149" stroke="#7A0005" stroke-width="5" stroke-linecap="round"/>
<path d="M719.429 53.053C726.314 53.053 731.88 55.4141 736.127 60.1365C740.374 64.8588 742.497 70.5624 742.497 77.2473C742.497 83.8708 740.342 89.5438 736.031 94.2661C731.784 98.9271 726.25 101.258 719.429 101.258C712.48 101.258 706.914 98.9578 702.732 94.3581C698.614 89.7584 696.554 84.0548 696.554 77.2473C696.554 70.4398 698.614 64.7055 702.732 60.0445C706.85 55.3835 712.416 53.053 719.429 53.053ZM719.429 56.1808C716.663 56.1808 714.378 56.8554 712.577 58.2046C710.775 59.4925 709.488 61.3324 708.716 63.7242C708.008 66.1161 707.525 68.2932 707.268 70.2558C707.075 72.2183 706.978 74.5488 706.978 77.2473C706.978 79.3325 707.011 81.1723 707.075 82.7669C707.204 84.3001 707.493 86.1093 707.944 88.1945C708.458 90.2797 709.134 91.9969 709.971 93.3462C710.807 94.6954 712.03 95.8606 713.638 96.8419C715.247 97.7618 717.177 98.2218 719.429 98.2218C727.859 98.2218 732.073 91.2303 732.073 77.2473C732.073 63.2029 727.859 56.1808 719.429 56.1808Z" fill="#3D5D8C"/>
<path d="M774.287 53.053C781.172 53.053 786.737 55.4141 790.984 60.1365C795.231 64.8588 797.354 70.5624 797.354 77.2473C797.354 83.8708 795.199 89.5438 790.888 94.2661C786.641 98.9271 781.107 101.258 774.287 101.258C767.337 101.258 761.771 98.9578 757.589 94.3581C753.471 89.7584 751.412 84.0548 751.412 77.2473C751.412 70.4398 753.471 64.7055 757.589 60.0445C761.707 55.3835 767.273 53.053 774.287 53.053ZM774.287 56.1808C771.52 56.1808 769.235 56.8554 767.434 58.2046C765.632 59.4925 764.345 61.3324 763.573 63.7242C762.865 66.1161 762.383 68.2932 762.125 70.2558C761.932 72.2183 761.836 74.5488 761.836 77.2473C761.836 79.3325 761.868 81.1723 761.932 82.7669C762.061 84.3001 762.35 86.1093 762.801 88.1945C763.316 90.2797 763.991 91.9969 764.828 93.3462C765.664 94.6954 766.887 95.8606 768.495 96.8419C770.104 97.7618 772.034 98.2218 774.287 98.2218C782.716 98.2218 786.93 91.2303 786.93 77.2473C786.93 63.2029 782.716 56.1808 774.287 56.1808Z" fill="#3D5D8C"/>
<path d="M946.294 69.8649C946.294 70.4604 946.952 70.005 947.386 69.8649C949.197 69.2795 951.44 69.2382 953.354 69.1101C957.539 68.8299 961.95 68.992 966.103 69.5471C966.839 69.6454 971.031 70.0822 970.957 71.2952C970.916 71.9547 968.979 72.6338 968.402 72.9043C966.497 73.7981 964.272 74.273 962.295 75.0596C959.941 75.9962 957.672 77.6708 955.188 78.2778C954.96 78.3337 956.655 79.0008 956.86 79.0922C958.435 79.7924 959.895 80.7508 961.377 81.5853C963.341 82.6905 964.945 83.9638 966.661 85.3298C967.503 86.001 968.99 86.7235 969.285 87.7335C969.557 88.6669 968.701 88.6374 967.694 88.6374C965.805 88.6374 963.88 88.8476 961.993 88.9552C958.821 89.1361 955.313 89.2043 952.193 88.5976C952.04 88.5679 950.601 87.9967 951.31 88.6374C952.355 89.5809 953.598 90.3302 954.608 91.3191C955.995 92.6784 956.965 94.3209 958.254 95.749C959.391 97.0083 959.951 98.0349 960.506 99.5432C960.603 99.8067 961.101 101.136 960.715 101.291C960.398 101.419 959.234 100.505 958.927 100.348C957.015 99.3665 954.648 98.9909 952.669 98.113C950.655 97.2196 948.352 96.9371 946.294 96.0569C945.25 95.6102 944.226 95.3293 943.159 94.9743C942.487 94.7507 941.933 94.1797 941.173 94.1797C940.666 94.1797 938.319 93.7652 938.143 93.4645" stroke="#3D5D8C" stroke-width="3" stroke-linecap="round"/>
<path d="M852.242 68.8072C852.194 69.3948 851.598 68.9078 851.193 68.7447C849.498 68.0632 847.344 67.8938 845.515 67.6578C841.513 67.1414 837.259 67.0485 833.221 67.3581C832.506 67.413 828.439 67.6036 828.413 68.8048C828.399 69.4578 830.207 70.2389 830.74 70.5388C832.5 71.5299 834.602 72.1261 836.44 73.0156C838.628 74.0747 840.675 75.857 843.014 76.5982C843.229 76.6665 841.546 77.2276 841.341 77.306C839.771 77.9066 838.29 78.7686 836.797 79.5069C834.82 80.4849 833.175 81.6493 831.416 82.8988C830.552 83.5127 829.065 84.1404 828.7 85.12C828.362 86.0254 829.189 86.0453 830.156 86.103C831.973 86.2113 833.807 86.5291 835.613 86.7435C838.648 87.1038 842.015 87.3722 845.065 86.9524C845.214 86.9319 846.644 86.4507 845.91 87.0422C844.829 87.9133 843.574 88.5813 842.524 89.4992C841.08 90.7608 840.016 92.3259 838.662 93.6611C837.468 94.8385 836.846 95.8193 836.191 97.2757C836.076 97.5302 835.491 98.8135 835.849 98.9886C836.144 99.1328 837.337 98.2978 837.645 98.1601C839.562 97.3015 841.868 97.0665 843.842 96.3137C845.85 95.5478 848.087 95.401 850.137 94.6505C851.177 94.2696 852.183 94.0511 853.238 93.762C853.902 93.5799 854.482 93.0483 855.211 93.0918C855.7 93.1209 857.99 92.8464 858.183 92.5599" stroke="#3D5D8C" stroke-width="3" stroke-linecap="round"/>
<path d="M895.807 78.9975C895.043 84.5972 892.531 89.246 888.271 92.9439C884.01 96.6418 878.572 98.4907 871.959 98.4907C864.582 98.4907 859.176 96.1663 855.742 91.5175C852.308 86.9216 851.163 80.3446 852.308 71.7866C852.944 67.402 853.834 63.572 854.979 60.2967C856.123 57.0215 857.777 53.9311 859.939 51.0256C862.165 48.1201 865.154 45.8221 868.906 44.1317C872.658 42.4412 877.173 41.4375 882.452 41.1205C885.377 40.962 888.398 40.8828 891.514 40.8828C893.422 40.7771 894.916 40.4602 895.997 39.9319C897.142 39.4036 897.873 38.4527 898.191 37.0792H901.053C900.544 40.0904 899.622 42.4412 898.287 44.1317C897.015 45.7693 894.853 46.8787 891.8 47.4598C890.592 47.6711 887.189 47.988 881.593 48.4106C874.852 48.8333 869.701 49.969 866.14 51.818C862.578 53.6669 859.876 57.0215 858.031 61.8815C856.887 64.8927 855.996 68.4057 855.36 72.4205H856.123C857.268 68.1416 859.621 64.8134 863.183 62.4362C866.807 60.059 871.259 58.8704 876.537 58.8704C882.706 58.8704 887.666 60.7722 891.419 64.5757C895.107 68.4321 896.57 73.2394 895.807 78.9975ZM861.847 78.0466C861.211 84.0161 861.752 88.48 863.469 91.4383C865.186 94.3966 868.111 95.8758 872.245 95.8758C874.789 95.8758 876.951 95.3739 878.731 94.3702C880.512 93.3665 881.848 91.9137 882.738 90.012C883.628 88.1102 884.264 86.3669 884.646 84.7821C885.027 83.1973 885.345 81.2955 885.6 79.0768C886.299 73.1601 885.854 68.7755 884.264 65.9228C882.674 63.0173 879.876 61.5646 875.87 61.5646C873.326 61.5646 871.132 62.0664 869.288 63.0702C867.443 64.0739 866.044 65.4738 865.09 67.2699C864.136 69.0132 863.405 70.7301 862.896 72.4205C862.451 74.0582 862.101 75.9335 861.847 78.0466Z" fill="#7A0005"/>
<path d="M948.923 73.0545C946.443 90.012 938.081 98.4907 923.835 98.4907C917.603 98.4907 912.547 96.404 908.668 92.2307C904.725 88.0045 903.167 82.9595 903.994 77.0957C904.821 71.5489 907.269 66.8209 911.339 62.9117C915.473 58.9496 920.751 56.9686 927.174 56.9686C934.233 56.9686 938.621 59.5836 940.338 64.8134C940.72 56.2026 939.829 49.8898 937.667 45.8749C935.505 41.8601 931.944 39.8527 926.983 39.8527C922.468 39.8527 918.652 41.1469 915.536 43.7355L913.819 41.9922C918.016 38.6641 922.85 37 928.319 37C936.205 37 942.023 40.3017 945.776 46.9051C949.464 53.5613 950.513 62.2778 948.923 73.0545ZM914.201 77.0957C913.247 83.1709 913.628 87.8196 915.346 91.0421C916.935 94.2645 919.861 95.8758 924.122 95.8758C926.475 95.8758 928.541 95.2947 930.322 94.1325C932.103 92.9174 933.502 91.3062 934.519 89.2988C935.537 87.2914 936.3 85.416 936.809 83.6727C937.317 81.8766 937.699 80.0276 937.953 78.1259C938.78 72.1564 938.335 67.5605 936.618 64.338C934.774 61.2212 931.785 59.6628 927.651 59.6628C925.171 59.6628 923.04 60.2175 921.26 61.3269C919.543 62.4362 918.207 64.021 917.253 66.0813C916.363 68.0887 915.695 69.8848 915.25 71.4697C914.869 73.0016 914.519 74.877 914.201 77.0957Z" fill="#7A0005"/>
<path d="M1090.98 51.6838C1090.76 51.7077 1089.99 52.6954 1089.8 52.2929C1089.47 51.6189 1089.73 50.196 1089.76 49.4891C1089.84 47.5605 1090.6 46.1357 1091.61 44.5228C1092.66 42.8568 1094.11 40.8315 1096.13 40.3322C1098.53 39.7395 1103.57 39.3792 1105.1 41.7706C1106.44 43.8738 1106.01 48.1858 1105.33 50.4613C1105.12 51.1306 1104.16 52.2082 1104.58 50.9782C1104.82 50.3001 1105.57 49.9033 1106.18 49.5593C1108.4 48.2967 1110.67 47.9785 1113.22 48.1904C1116.14 48.4337 1118.63 49.9504 1119.53 52.6934C1120.25 54.9143 1119.34 58.2012 1117.66 59.8255C1117.24 60.2288 1114.17 61.9721 1113.52 61.4788C1113.16 61.207 1115.79 60.4148 1115.94 60.3937C1118.44 60.033 1120.9 60.336 1122.86 61.9213C1124.7 63.4126 1125.38 65.1261 1125.55 67.4142C1125.69 69.1772 1126.13 70.8948 1125.31 72.5561C1123.95 75.3188 1121.12 77.3054 1117.85 77.2994C1114.8 77.2937 1112.88 76.194 1110.22 75.1592" stroke="#7A0005" stroke-width="5" stroke-linecap="round"/>
<path d="M1004.06 76.7283C1004.16 76.9238 1005.38 77.2855 1005.05 77.5939C1004.49 78.1104 1002.99 78.3391 1002.28 78.544C1000.34 79.1029 998.685 78.8909 996.753 78.5033C994.757 78.1029 992.278 77.4688 991.12 75.81C989.746 73.8407 987.739 69.4221 989.61 67.2631C991.255 65.3642 995.669 64.3361 998.15 64.2106C998.88 64.1737 1000.26 64.6918 998.906 64.7103C998.157 64.7206 997.515 64.169 996.976 63.7373C994.998 62.1525 993.94 60.2128 993.315 57.8488C992.598 55.1335 993.287 52.3969 995.713 50.6917C997.677 49.311 1001.23 49.0533 1003.4 50.0396C1003.93 50.2845 1006.66 52.4753 1006.39 53.225C1006.24 53.6381 1004.59 51.5259 1004.52 51.401C1003.34 49.2654 1002.84 46.9517 1003.77 44.6684C1004.64 42.5204 1006.12 41.3454 1008.33 40.4426C1010.04 39.747 1011.6 38.7863 1013.51 38.9787C1016.69 39.2986 1019.59 41.2006 1020.65 44.1395C1021.65 46.8877 1021.19 48.9809 1021.03 51.7149" stroke="#7A0005" stroke-width="5" stroke-linecap="round"/>
<path d="M1029.43 53.053C1036.31 53.053 1041.88 55.4141 1046.13 60.1365C1050.37 64.8588 1052.5 70.5624 1052.5 77.2473C1052.5 83.8708 1050.34 89.5438 1046.03 94.2661C1041.78 98.9271 1036.25 101.258 1029.43 101.258C1022.48 101.258 1016.91 98.9578 1012.73 94.3581C1008.61 89.7584 1006.55 84.0548 1006.55 77.2473C1006.55 70.4398 1008.61 64.7055 1012.73 60.0445C1016.85 55.3835 1022.42 53.053 1029.43 53.053ZM1029.43 56.1808C1026.66 56.1808 1024.38 56.8554 1022.58 58.2046C1020.77 59.4925 1019.49 61.3324 1018.72 63.7242C1018.01 66.1161 1017.53 68.2932 1017.27 70.2558C1017.08 72.2183 1016.98 74.5488 1016.98 77.2473C1016.98 79.3325 1017.01 81.1723 1017.08 82.7669C1017.2 84.3001 1017.49 86.1093 1017.94 88.1945C1018.46 90.2797 1019.13 91.9969 1019.97 93.3462C1020.81 94.6954 1022.03 95.8606 1023.64 96.8419C1025.25 97.7618 1027.18 98.2218 1029.43 98.2218C1037.86 98.2218 1042.07 91.2303 1042.07 77.2473C1042.07 63.2029 1037.86 56.1808 1029.43 56.1808Z" fill="#3D5D8C"/>
<path d="M1084.29 53.053C1091.17 53.053 1096.74 55.4141 1100.98 60.1365C1105.23 64.8588 1107.35 70.5624 1107.35 77.2473C1107.35 83.8708 1105.2 89.5438 1100.89 94.2661C1096.64 98.9271 1091.11 101.258 1084.29 101.258C1077.34 101.258 1071.77 98.9578 1067.59 94.3581C1063.47 89.7584 1061.41 84.0548 1061.41 77.2473C1061.41 70.4398 1063.47 64.7055 1067.59 60.0445C1071.71 55.3835 1077.27 53.053 1084.29 53.053ZM1084.29 56.1808C1081.52 56.1808 1079.24 56.8554 1077.43 58.2046C1075.63 59.4925 1074.35 61.3324 1073.57 63.7242C1072.87 66.1161 1072.38 68.2932 1072.13 70.2558C1071.93 72.2183 1071.84 74.5488 1071.84 77.2473C1071.84 79.3325 1071.87 81.1723 1071.93 82.7669C1072.06 84.3001 1072.35 86.1093 1072.8 88.1945C1073.32 90.2797 1073.99 91.9969 1074.83 93.3462C1075.66 94.6954 1076.89 95.8606 1078.5 96.8419C1080.1 97.7618 1082.03 98.2218 1084.29 98.2218C1092.72 98.2218 1096.93 91.2303 1096.93 77.2473C1096.93 63.2029 1092.72 56.1808 1084.29 56.1808Z" fill="#3D5D8C"/>
<path d="M1256.29 69.8649C1256.29 70.4604 1256.95 70.005 1257.39 69.8649C1259.2 69.2795 1261.44 69.2382 1263.35 69.1101C1267.54 68.8299 1271.95 68.992 1276.1 69.5471C1276.84 69.6454 1281.03 70.0822 1280.96 71.2952C1280.92 71.9547 1278.98 72.6338 1278.4 72.9043C1276.5 73.7981 1274.27 74.273 1272.29 75.0596C1269.94 75.9962 1267.67 77.6708 1265.19 78.2778C1264.96 78.3337 1266.65 79.0008 1266.86 79.0922C1268.43 79.7924 1269.89 80.7508 1271.38 81.5853C1273.34 82.6905 1274.95 83.9638 1276.66 85.3298C1277.5 86.001 1278.99 86.7235 1279.28 87.7335C1279.56 88.6669 1278.7 88.6374 1277.69 88.6374C1275.81 88.6374 1273.88 88.8476 1271.99 88.9552C1268.82 89.1361 1265.31 89.2043 1262.19 88.5976C1262.04 88.5679 1260.6 87.9967 1261.31 88.6374C1262.36 89.5809 1263.6 90.3302 1264.61 91.3191C1266 92.6784 1266.96 94.3209 1268.25 95.749C1269.39 97.0083 1269.95 98.0349 1270.51 99.5432C1270.6 99.8067 1271.1 101.136 1270.72 101.291C1270.4 101.419 1269.23 100.505 1268.93 100.348C1267.02 99.3665 1264.65 98.9909 1262.67 98.113C1260.65 97.2196 1258.35 96.9371 1256.29 96.0569C1255.25 95.6102 1254.23 95.3293 1253.16 94.9743C1252.49 94.7507 1251.93 94.1797 1251.17 94.1797C1250.67 94.1797 1248.32 93.7652 1248.14 93.4645" stroke="#3D5D8C" stroke-width="3" stroke-linecap="round"/>
<path d="M1162.24 68.8072C1162.19 69.3948 1161.6 68.9078 1161.19 68.7447C1159.5 68.0632 1157.34 67.8938 1155.51 67.6578C1151.51 67.1414 1147.26 67.0485 1143.22 67.3581C1142.51 67.413 1138.44 67.6036 1138.41 68.8048C1138.4 69.4578 1140.21 70.2389 1140.74 70.5388C1142.5 71.5299 1144.6 72.1261 1146.44 73.0156C1148.63 74.0747 1150.67 75.857 1153.01 76.5982C1153.23 76.6665 1151.55 77.2276 1151.34 77.306C1149.77 77.9066 1148.29 78.7686 1146.8 79.5069C1144.82 80.4849 1143.18 81.6493 1141.42 82.8988C1140.55 83.5127 1139.06 84.1404 1138.7 85.12C1138.36 86.0254 1139.19 86.0453 1140.16 86.103C1141.97 86.2113 1143.81 86.5291 1145.61 86.7435C1148.65 87.1038 1152.02 87.3722 1155.06 86.9524C1155.21 86.9319 1156.64 86.4507 1155.91 87.0422C1154.83 87.9133 1153.57 88.5813 1152.52 89.4992C1151.08 90.7608 1150.02 92.3259 1148.66 93.6611C1147.47 94.8385 1146.85 95.8193 1146.19 97.2757C1146.08 97.5302 1145.49 98.8135 1145.85 98.9886C1146.14 99.1328 1147.34 98.2978 1147.64 98.1601C1149.56 97.3015 1151.87 97.0665 1153.84 96.3137C1155.85 95.5478 1158.09 95.401 1160.14 94.6505C1161.18 94.2696 1162.18 94.0511 1163.24 93.762C1163.9 93.5799 1164.48 93.0483 1165.21 93.0918C1165.7 93.1209 1167.99 92.8464 1168.18 92.5599" stroke="#3D5D8C" stroke-width="3" stroke-linecap="round"/>
<path d="M1205.81 78.9975C1205.04 84.5972 1202.53 89.246 1198.27 92.9439C1194.01 96.6418 1188.57 98.4907 1181.96 98.4907C1174.58 98.4907 1169.18 96.1663 1165.74 91.5175C1162.31 86.9216 1161.16 80.3446 1162.31 71.7866C1162.94 67.402 1163.83 63.572 1164.98 60.2967C1166.12 57.0215 1167.78 53.9311 1169.94 51.0256C1172.16 48.1201 1175.15 45.8221 1178.91 44.1317C1182.66 42.4412 1187.17 41.4375 1192.45 41.1205C1195.38 40.962 1198.4 40.8828 1201.51 40.8828C1203.42 40.7771 1204.92 40.4602 1206 39.9319C1207.14 39.4036 1207.87 38.4527 1208.19 37.0792H1211.05C1210.54 40.0904 1209.62 42.4412 1208.29 44.1317C1207.01 45.7693 1204.85 46.8787 1201.8 47.4598C1200.59 47.6711 1197.19 47.988 1191.59 48.4106C1184.85 48.8333 1179.7 49.969 1176.14 51.818C1172.58 53.6669 1169.88 57.0215 1168.03 61.8815C1166.89 64.8927 1166 68.4057 1165.36 72.4205H1166.12C1167.27 68.1416 1169.62 64.8134 1173.18 62.4362C1176.81 60.059 1181.26 58.8704 1186.54 58.8704C1192.71 58.8704 1197.67 60.7722 1201.42 64.5757C1205.11 68.4321 1206.57 73.2394 1205.81 78.9975ZM1171.85 78.0466C1171.21 84.0161 1171.75 88.48 1173.47 91.4383C1175.19 94.3966 1178.11 95.8758 1182.24 95.8758C1184.79 95.8758 1186.95 95.3739 1188.73 94.3702C1190.51 93.3665 1191.85 91.9137 1192.74 90.012C1193.63 88.1102 1194.26 86.3669 1194.65 84.7821C1195.03 83.1973 1195.35 81.2955 1195.6 79.0768C1196.3 73.1601 1195.85 68.7755 1194.26 65.9228C1192.67 63.0173 1189.88 61.5646 1185.87 61.5646C1183.33 61.5646 1181.13 62.0664 1179.29 63.0702C1177.44 64.0739 1176.04 65.4738 1175.09 67.2699C1174.14 69.0132 1173.41 70.7301 1172.9 72.4205C1172.45 74.0582 1172.1 75.9335 1171.85 78.0466Z" fill="#7A0005"/>
<path d="M1258.92 73.0545C1256.44 90.012 1248.08 98.4907 1233.84 98.4907C1227.6 98.4907 1222.55 96.404 1218.67 92.2307C1214.73 88.0045 1213.17 82.9595 1213.99 77.0957C1214.82 71.5489 1217.27 66.8209 1221.34 62.9117C1225.47 58.9496 1230.75 56.9686 1237.17 56.9686C1244.23 56.9686 1248.62 59.5836 1250.34 64.8134C1250.72 56.2026 1249.83 49.8898 1247.67 45.8749C1245.5 41.8601 1241.94 39.8527 1236.98 39.8527C1232.47 39.8527 1228.65 41.1469 1225.54 43.7355L1223.82 41.9922C1228.02 38.6641 1232.85 37 1238.32 37C1246.2 37 1252.02 40.3017 1255.78 46.9051C1259.46 53.5613 1260.51 62.2778 1258.92 73.0545ZM1224.2 77.0957C1223.25 83.1709 1223.63 87.8196 1225.35 91.0421C1226.94 94.2645 1229.86 95.8758 1234.12 95.8758C1236.47 95.8758 1238.54 95.2947 1240.32 94.1325C1242.1 92.9174 1243.5 91.3062 1244.52 89.2988C1245.54 87.2914 1246.3 85.416 1246.81 83.6727C1247.32 81.8766 1247.7 80.0276 1247.95 78.1259C1248.78 72.1564 1248.33 67.5605 1246.62 64.338C1244.77 61.2212 1241.78 59.6628 1237.65 59.6628C1235.17 59.6628 1233.04 60.2175 1231.26 61.3269C1229.54 62.4362 1228.21 64.021 1227.25 66.0813C1226.36 68.0887 1225.7 69.8848 1225.25 71.4697C1224.87 73.0016 1224.52 74.877 1224.2 77.0957Z" fill="#7A0005"/>
<path d="M95.294 69.8649C95.294 70.4604 95.952 70.005 96.3855 69.8649C98.1971 69.2795 100.44 69.2382 102.354 69.1101C106.539 68.8299 110.95 68.992 115.103 69.5471C115.839 69.6454 120.031 70.0822 119.957 71.2952C119.916 71.9547 117.979 72.6338 117.402 72.9043C115.497 73.7981 113.272 74.273 111.295 75.0596C108.941 75.9962 106.672 77.6708 104.188 78.2778C103.959 78.3337 105.655 79.0008 105.86 79.0922C107.434 79.7924 108.894 80.7508 110.377 81.5853C112.341 82.6905 113.945 83.9638 115.66 85.3298C116.503 86.001 117.989 86.7235 118.285 87.7335C118.557 88.6669 117.701 88.6374 116.694 88.6374C114.805 88.6374 112.88 88.8476 110.993 88.9552C107.821 89.1361 104.313 89.2043 101.193 88.5976C101.04 88.5679 99.6007 87.9967 100.31 88.6374C101.355 89.5809 102.598 90.3302 103.608 91.3191C104.995 92.6784 105.965 94.3209 107.254 95.749C108.391 97.0083 108.951 98.0349 109.506 99.5432C109.603 99.8067 110.101 101.136 109.715 101.291C109.398 101.419 108.234 100.505 107.927 100.348C106.015 99.3665 103.648 98.9909 101.669 98.113C99.6547 97.2196 97.352 96.9371 95.294 96.0569C94.2497 95.6102 93.2263 95.3293 92.159 94.9743C91.487 94.7507 90.9325 94.1797 90.1734 94.1797C89.6657 94.1797 87.3185 93.7652 87.1428 93.4645" stroke="#3D5D8C" stroke-width="3" stroke-linecap="round"/>
<path d="M1.24233 68.8072C1.19446 69.3948 0.598414 68.9078 0.192833 68.7447C-1.50202 68.0632 -3.65556 67.8938 -5.48521 67.6578C-9.4871 67.1414 -13.741 67.0485 -17.7793 67.3581C-18.4944 67.413 -22.561 67.6036 -22.5867 68.8048C-22.6007 69.4578 -20.7925 70.2389 -20.2598 70.5388C-18.4997 71.5299 -16.3983 72.1261 -14.5604 73.0156C-12.3722 74.0747 -10.3253 75.857 -7.98622 76.5982C-7.7706 76.6665 -9.45445 77.2276 -9.65942 77.306C-11.2292 77.9066 -12.7101 78.7686 -14.203 79.5069C-16.1802 80.4849 -17.8249 81.6493 -19.584 82.8988C-20.4482 83.5127 -21.9354 84.1404 -22.3004 85.12C-22.6378 86.0254 -21.8114 86.0453 -20.8435 86.103C-19.0274 86.2113 -17.1929 86.5291 -15.3871 86.7435C-12.3516 87.1038 -8.98483 87.3722 -5.93528 86.9524C-5.78611 86.9319 -4.35622 86.4507 -5.08994 87.0422C-6.17062 87.9133 -7.42614 88.5813 -8.47633 89.4992C-9.91981 90.7608 -10.9838 92.3259 -12.3382 93.6611C-13.5324 94.8385 -14.1542 95.8193 -14.8092 97.2757C-14.9236 97.5302 -15.5086 98.8135 -15.1507 98.9886C-14.8558 99.1328 -13.6629 98.2978 -13.3554 98.1601C-11.4383 97.3015 -9.13172 97.0665 -7.15795 96.3137C-5.14955 95.5478 -2.91276 95.401 -0.863176 94.6505C0.176926 94.2696 1.18351 94.0511 2.23836 93.762C2.90248 93.5799 3.48152 93.0483 4.21142 93.0918C4.69964 93.1209 6.9898 92.8464 7.18293 92.5599" stroke="#3D5D8C" stroke-width="3" stroke-linecap="round"/>
<path d="M44.8065 78.9975C44.0434 84.5972 41.5314 89.246 37.2706 92.9439C33.0097 96.6418 27.5724 98.4907 20.9585 98.4907C13.5816 98.4907 8.17602 96.1663 4.74191 91.5175C1.3078 86.9216 0.1631 80.3446 1.3078 71.7866C1.94375 67.402 2.83408 63.572 3.97878 60.2967C5.12348 57.0215 6.77694 53.9311 8.93916 51.0256C11.165 48.1201 14.1539 45.8221 17.906 44.1317C21.6581 42.4412 26.1733 41.4375 31.4517 41.1205C34.377 40.962 37.3978 40.8828 40.5139 40.8828C42.4217 40.7771 43.9162 40.4602 44.9973 39.9319C46.142 39.4036 46.8734 38.4527 47.1913 37.0792H50.0531C49.5443 40.0904 48.6222 42.4412 47.2867 44.1317C46.0148 45.7693 43.8526 46.8787 40.8001 47.4598C39.5918 47.6711 36.1895 47.988 30.5931 48.4106C23.8521 48.8333 18.7009 49.969 15.1396 51.818C11.5783 53.6669 8.87557 57.0215 7.03132 61.8815C5.88662 64.8927 4.99629 68.4057 4.36035 72.4205H5.12348C6.26819 68.1416 8.62119 64.8134 12.1825 62.4362C15.8074 60.059 20.259 58.8704 25.5374 58.8704C31.706 58.8704 36.6664 60.7722 40.4185 64.5757C44.107 68.4321 45.5697 73.2394 44.8065 78.9975ZM10.847 78.0466C10.2111 84.0161 10.7516 88.48 12.4687 91.4383C14.1857 94.3966 17.1111 95.8758 21.2447 95.8758C23.7885 95.8758 25.9507 95.3739 27.7314 94.3702C29.512 93.3665 30.8475 91.9137 31.7378 90.012C32.6282 88.1102 33.2641 86.3669 33.6457 84.7821C34.0272 83.1973 34.3452 81.2955 34.5996 79.0768C35.2991 73.1601 34.854 68.7755 33.2641 65.9228C31.6742 63.0173 28.8761 61.5646 24.8696 61.5646C22.3258 61.5646 20.1318 62.0664 18.2876 63.0702C16.4433 64.0739 15.0442 65.4738 14.0903 67.2699C13.1364 69.0132 12.4051 70.7301 11.8963 72.4205C11.4511 74.0582 11.1014 75.9335 10.847 78.0466Z" fill="#7A0005"/>
<path d="M97.9235 73.0545C95.4433 90.012 87.0806 98.4907 72.8354 98.4907C66.6031 98.4907 61.5473 96.404 57.6681 92.2307C53.7252 88.0045 52.1671 82.9595 52.9938 77.0957C53.8206 71.5489 56.269 66.8209 60.339 62.9117C64.4727 58.9496 69.751 56.9686 76.1741 56.9686C83.2331 56.9686 87.6211 59.5836 89.3382 64.8134C89.7197 56.2026 88.8294 49.8898 86.6672 45.8749C84.505 41.8601 80.9437 39.8527 75.9833 39.8527C71.4681 39.8527 67.6524 41.1469 64.5363 43.7355L62.8192 41.9922C67.0165 38.6641 71.8496 37 77.3188 37C85.2045 37 91.0234 40.3017 94.7755 46.9051C98.464 53.5613 99.5133 62.2778 97.9235 73.0545ZM63.2008 77.0957C62.2469 83.1709 62.6284 87.8196 64.3455 91.0421C65.9353 94.2645 68.8607 95.8758 73.1215 95.8758C75.4745 95.8758 77.5414 95.2947 79.322 94.1325C81.1027 92.9174 82.5018 91.3062 83.5193 89.2988C84.5368 87.2914 85.2999 85.416 85.8087 83.6727C86.3174 81.8766 86.699 80.0276 86.9534 78.1259C87.7801 72.1564 87.3349 67.5605 85.6179 64.338C83.7737 61.2212 80.7847 59.6628 76.651 59.6628C74.1709 59.6628 72.0404 60.2175 70.2598 61.3269C68.5427 62.4362 67.2072 64.021 66.2533 66.0813C65.363 68.0887 64.6953 69.8848 64.2501 71.4697C63.8685 73.0016 63.5188 74.877 63.2008 77.0957Z" fill="#7A0005"/>
</svg>
