<svg width="1280" height="1803" viewBox="0 0 1280 1803" fill="none" xmlns="http://www.w3.org/2000/svg">
<path d="M1003.9 256.545C1003.9 266.94 1004.74 274.263 1006.43 278.515C1008.22 282.956 1010.91 285.177 1014.5 285.177C1016.71 285.177 1018.51 284.232 1019.88 282.342C1021.36 280.358 1022.36 277.854 1022.89 274.83C1023.52 271.712 1023.89 269.113 1023.99 267.034C1024.2 264.955 1024.31 262.877 1024.31 260.798V253.144C1024.31 236.985 1020.93 228.906 1014.18 228.906C1007.32 228.906 1003.9 238.119 1003.9 256.545ZM1063.24 285.177C1066.83 285.177 1069.47 283.004 1071.15 278.657C1072.74 274.31 1073.53 266.94 1073.53 256.545C1073.53 247.002 1072.68 240.009 1071 235.568C1069.2 231.127 1066.67 228.906 1063.4 228.906C1056.54 228.906 1053.11 236.985 1053.11 253.144V260.798C1053.11 262.688 1053.22 264.766 1053.43 267.034C1053.64 269.208 1054.06 271.806 1054.7 274.83C1055.33 277.854 1056.38 280.358 1057.86 282.342C1059.34 284.232 1061.13 285.177 1063.24 285.177ZM1052.16 282.059C1052.37 291.791 1053.17 300.201 1054.54 307.288C1055.91 314.375 1058.6 321.462 1062.61 328.549L1061.18 329.967C1057.18 327.793 1052.95 323.777 1048.52 317.919C1044.09 312.155 1040.82 306.863 1038.71 302.044C1036.71 306.769 1033.44 312.06 1028.9 317.919C1024.47 323.777 1020.25 327.793 1016.24 329.967L1014.81 328.549C1018.72 321.368 1021.36 314.186 1022.73 307.005C1024.2 299.823 1025.05 291.508 1025.26 282.059C1021.78 290.846 1015.55 295.24 1006.59 295.24C999.728 295.24 993.767 293.162 988.702 289.004C983.638 284.752 979.945 279.791 977.624 274.121C975.409 268.357 974.301 262.499 974.301 256.545C974.301 250.592 975.356 244.828 977.466 239.253C979.682 233.584 983.269 228.717 988.227 224.654C993.292 220.591 999.306 218.559 1006.27 218.559C1015.55 218.559 1021.88 223.189 1025.26 232.45C1025.26 213.268 1021.78 197.629 1014.81 185.534L1016.24 184.116C1020.14 186.101 1024.42 190.117 1029.06 196.164C1033.7 202.212 1036.97 207.504 1038.87 212.039C1040.66 207.409 1043.83 202.165 1048.37 196.306C1052.9 190.353 1057.18 186.29 1061.18 184.116L1062.61 185.534C1055.65 198.007 1052.16 213.646 1052.16 232.45C1055.65 223.189 1061.98 218.559 1071.15 218.559C1078.12 218.559 1084.08 220.591 1089.04 224.654C1094.1 228.717 1097.69 233.584 1099.8 239.253C1102.01 244.828 1103.12 250.592 1103.12 256.545C1103.12 262.499 1102.01 268.357 1099.8 274.121C1097.69 279.791 1094.1 284.752 1089.04 289.004C1083.97 293.162 1078.01 295.24 1071.15 295.24C1061.98 295.24 1055.65 290.846 1052.16 282.059Z" fill="#050505"/>
<path d="M1072.43 358.135H1079.43V373.647H1072.43V368.631L1042.19 357.518L1005.74 369.557V373.184H998.732V351.961H1005.74V355.666L1026.43 348.72L1005.74 341.311V346.096H998.732V331.819H1005.74V336.449L1033.27 346.482L1072.43 333.362V329.966H1079.43V351.498H1072.43V347.562L1049.67 355.048L1072.43 363.306V358.135Z" fill="#050505"/>
<path d="M1072.43 262.893H1079.43V278.142H1072.43V273.21L1042.19 262.286L1005.74 274.121V277.687H998.732V256.823H1005.74V260.465L1026.43 253.637L1005.74 246.354V251.057H998.732V237.022H1005.74V241.574L1033.27 251.437L1072.43 238.539V235.201H1079.43V256.368H1072.43V252.499L1049.67 259.858L1072.43 267.976V262.893Z" fill="#7A0005"/>
<path d="M1003.9 256.545C1003.9 266.94 1004.74 274.263 1006.43 278.515C1008.22 282.956 1010.91 285.177 1014.5 285.177C1016.71 285.177 1018.51 284.232 1019.88 282.342C1021.36 280.358 1022.36 277.854 1022.89 274.83C1023.52 271.712 1023.89 269.113 1023.99 267.034C1024.2 264.955 1024.31 262.877 1024.31 260.798V253.144C1024.31 236.985 1020.93 228.906 1014.18 228.906C1007.32 228.906 1003.9 238.119 1003.9 256.545ZM1063.24 285.177C1066.83 285.177 1069.47 283.004 1071.15 278.657C1072.74 274.31 1073.53 266.94 1073.53 256.545C1073.53 247.002 1072.68 240.009 1071 235.568C1069.2 231.127 1066.67 228.906 1063.4 228.906C1056.54 228.906 1053.11 236.985 1053.11 253.144V260.798C1053.11 262.688 1053.22 264.766 1053.43 267.034C1053.64 269.208 1054.06 271.806 1054.7 274.83C1055.33 277.854 1056.38 280.358 1057.86 282.342C1059.34 284.232 1061.13 285.177 1063.24 285.177ZM1052.16 282.059C1052.37 291.791 1053.17 300.201 1054.54 307.288C1055.91 314.375 1058.6 321.462 1062.61 328.549L1061.18 329.967C1057.18 327.793 1052.95 323.777 1048.52 317.919C1044.09 312.155 1040.82 306.863 1038.71 302.044C1036.71 306.769 1033.44 312.06 1028.9 317.919C1024.47 323.777 1020.25 327.793 1016.24 329.967L1014.81 328.549C1018.72 321.368 1021.36 314.186 1022.73 307.005C1024.2 299.823 1025.05 291.508 1025.26 282.059C1021.78 290.846 1015.55 295.24 1006.59 295.24C999.728 295.24 993.767 293.162 988.702 289.004C983.638 284.752 979.945 279.791 977.624 274.121C975.409 268.357 974.301 262.499 974.301 256.545C974.301 250.592 975.356 244.828 977.466 239.253C979.682 233.584 983.269 228.717 988.227 224.654C993.292 220.591 999.306 218.559 1006.27 218.559C1015.55 218.559 1021.88 223.189 1025.26 232.45C1025.26 213.268 1021.78 197.629 1014.81 185.534L1016.24 184.116C1020.14 186.101 1024.42 190.117 1029.06 196.164C1033.7 202.212 1036.97 207.504 1038.87 212.039C1040.66 207.409 1043.83 202.165 1048.37 196.306C1052.9 190.353 1057.18 186.29 1061.18 184.116L1062.61 185.534C1055.65 198.007 1052.16 213.646 1052.16 232.45C1055.65 223.189 1061.98 218.559 1071.15 218.559C1078.12 218.559 1084.08 220.591 1089.04 224.654C1094.1 228.717 1097.69 233.584 1099.8 239.253C1102.01 244.828 1103.12 250.592 1103.12 256.545C1103.12 262.499 1102.01 268.357 1099.8 274.121C1097.69 279.791 1094.1 284.752 1089.04 289.004C1083.97 293.162 1078.01 295.24 1071.15 295.24C1061.98 295.24 1055.65 290.846 1052.16 282.059Z" fill="#050505"/>
<path d="M1072.43 358.135H1079.43V373.647H1072.43V368.631L1042.19 357.518L1005.74 369.557V373.184H998.732V351.961H1005.74V355.666L1026.43 348.72L1005.74 341.311V346.096H998.732V331.819H1005.74V336.449L1033.27 346.482L1072.43 333.362V329.966H1079.43V351.498H1072.43V347.562L1049.67 355.048L1072.43 363.306V358.135Z" fill="#050505"/>
<path d="M1072.43 262.893H1079.43V278.142H1072.43V273.21L1042.19 262.286L1005.74 274.121V277.687H998.732V256.823H1005.74V260.465L1026.43 253.637L1005.74 246.354V251.057H998.732V237.022H1005.74V241.574L1033.27 251.437L1072.43 238.539V235.201H1079.43V256.368H1072.43V252.499L1049.67 259.858L1072.43 267.976V262.893Z" fill="#7A0005"/>
<path d="M1083.79 441.283C1087.09 451.142 1090.21 457.821 1093.15 461.32C1096.26 464.964 1099.52 466.219 1102.92 465.083C1105.02 464.381 1106.42 462.917 1107.13 460.69C1107.9 458.34 1108.06 455.647 1107.6 452.612C1107.21 449.454 1106.74 446.872 1106.18 444.867C1105.72 442.828 1105.16 440.823 1104.51 438.851L1102.08 431.591C1096.96 416.264 1091.2 409.67 1084.8 411.809C1078.29 413.981 1077.96 423.805 1083.79 441.283ZM1149.15 449.645C1152.56 448.509 1154.37 445.612 1154.59 440.955C1154.72 436.331 1153.14 429.089 1149.84 419.23C1146.82 410.177 1143.81 403.812 1140.8 400.134C1137.69 396.49 1134.59 395.185 1131.48 396.221C1124.98 398.393 1124.28 407.142 1129.4 422.469L1131.83 429.729C1132.42 431.521 1133.18 433.46 1134.1 435.544C1134.99 437.539 1136.21 439.87 1137.77 442.538C1139.33 445.205 1141.12 447.246 1143.15 448.661C1145.15 449.985 1147.15 450.314 1149.15 449.645ZM1137.66 450.196C1140.94 459.361 1144.36 467.087 1147.9 473.375C1151.45 479.663 1156.24 485.533 1162.29 490.986L1161.39 492.781C1156.9 491.989 1151.62 489.517 1145.56 485.363C1139.53 481.299 1134.76 477.316 1131.23 473.413C1130.82 478.529 1129.4 484.584 1126.95 491.578C1124.6 498.538 1121.87 503.684 1118.76 507.015L1116.96 506.122C1118.38 498.074 1118.61 490.427 1117.64 483.181C1116.77 475.901 1114.93 467.746 1112.14 458.717C1111.62 468.155 1107.11 474.294 1098.6 477.134C1092.1 479.306 1085.78 479.222 1079.66 476.882C1073.51 474.453 1068.44 470.917 1064.44 466.274C1060.52 461.509 1057.61 456.302 1055.72 450.656C1053.84 445.009 1053.01 439.208 1053.25 433.251C1053.56 427.172 1055.42 421.42 1058.83 415.995C1062.35 410.537 1067.41 406.706 1074.02 404.5C1082.82 401.56 1090.29 403.947 1096.43 411.661C1090.35 393.467 1082.1 379.736 1071.66 370.469L1072.56 368.673C1076.9 369.319 1082.22 371.775 1088.54 376.041C1094.86 380.307 1099.64 384.29 1102.87 387.991C1103.11 383.031 1104.45 377.054 1106.9 370.061C1109.32 362.977 1112.08 357.77 1115.2 354.439L1117 355.332C1114.34 369.368 1115.99 385.305 1121.95 403.141C1122.32 393.255 1126.86 386.858 1135.56 383.951C1142.17 381.746 1148.46 381.785 1154.45 384.068C1160.54 386.318 1165.49 389.798 1169.29 394.508C1173.15 399.094 1176.03 404.211 1177.91 409.857C1179.8 415.504 1180.6 421.412 1180.33 427.581C1180.12 433.627 1178.29 439.468 1174.83 445.106C1171.35 450.653 1166.35 454.513 1159.85 456.685C1151.14 459.592 1143.74 457.429 1137.66 450.196Z" fill="#050505"/>
<path d="M1180.97 515.941L1187.62 513.723L1192.53 528.436L1185.89 530.654L1184.3 525.896L1152.09 524.933L1121.33 547.896L1122.48 551.337L1115.84 553.555L1109.12 533.424L1115.76 531.206L1116.93 534.72L1134.36 521.579L1112.39 521.104L1113.9 525.643L1107.26 527.861L1102.74 514.318L1109.38 512.1L1110.85 516.493L1140.14 517.288L1173.13 492.443L1172.05 489.222L1178.7 487.004L1185.51 507.427L1178.87 509.645L1177.62 505.912L1158.41 520.221L1182.61 520.845L1180.97 515.941Z" fill="#050505"/>
<path d="M1150.81 425.599L1157.45 423.381L1162.28 437.846L1155.64 440.064L1154.08 435.386L1121.93 434.602L1091.11 457.371L1092.24 460.754L1085.59 462.972L1078.99 443.182L1085.63 440.964L1086.78 444.418L1104.25 431.388L1082.31 431.033L1083.8 435.495L1077.16 437.713L1072.72 424.4L1079.36 422.182L1080.8 426.5L1110.04 427.134L1143.1 402.5L1142.04 399.333L1148.68 397.115L1155.39 417.193L1148.74 419.411L1147.52 415.741L1128.26 429.93L1152.42 430.421L1150.81 425.599Z" fill="#7A0005"/>
<path d="M956.25 746.704C949.822 754.873 945.958 761.151 944.655 765.536C943.318 770.136 944.06 773.544 946.879 775.762C948.62 777.133 950.614 777.499 952.861 776.862C955.248 776.216 957.584 774.867 959.869 772.817C962.294 770.758 964.191 768.944 965.56 767.375C967.011 765.872 968.379 764.304 969.665 762.67L974.398 756.655C984.389 743.956 986.731 735.518 981.425 731.343C976.035 727.103 967.643 732.223 956.25 746.704ZM985.187 805.903C988.006 808.121 991.423 808.044 995.437 805.671C999.369 803.234 1004.55 797.931 1010.98 789.762C1016.88 782.261 1020.54 776.244 1021.96 771.71C1023.29 767.11 1022.68 763.799 1020.11 761.777C1014.72 757.536 1007.03 761.766 997.034 774.465L992.301 780.48C991.133 781.965 989.93 783.664 988.694 785.577C987.516 787.416 986.241 789.719 984.868 792.487C983.496 795.254 982.777 797.875 982.711 800.348C982.703 802.746 983.528 804.598 985.187 805.903ZM978.409 796.602C972.556 804.382 967.978 811.48 964.674 817.898C961.369 824.316 959.102 831.549 957.87 839.598L955.874 839.831C954.067 835.644 953.234 829.878 953.374 822.534C953.456 815.264 954.157 809.083 955.479 803.991C950.982 806.464 945.139 808.601 937.951 810.4C930.846 812.264 925.046 812.811 920.552 812.04L920.309 810.045C927.817 806.815 934.331 802.802 939.849 798.006C945.451 793.275 951.256 787.262 957.265 779.966C949.094 784.72 941.485 784.324 934.437 778.779C929.048 774.538 925.648 769.218 924.239 762.819C922.888 756.346 923.054 750.164 924.735 744.273C926.558 738.373 929.31 733.084 932.991 728.405C936.672 723.726 941.066 719.849 946.171 716.772C951.418 713.686 957.247 712.08 963.656 711.953C970.149 711.891 976.131 714.013 981.604 718.319C988.901 724.06 991.013 731.613 987.94 740.978C999.801 725.903 1006.73 711.459 1008.74 697.648L1010.74 697.415C1012.58 701.388 1013.45 707.186 1013.36 714.81C1013.27 722.433 1012.57 728.614 1011.26 733.353C1015.53 730.823 1021.26 728.659 1028.45 726.86C1035.69 724.986 1041.57 724.435 1046.06 725.206L1046.3 727.201C1033.12 732.698 1020.71 742.836 1009.08 757.614C1017.55 752.489 1025.38 752.764 1032.6 758.44C1038.07 762.746 1041.5 768.029 1042.88 774.288C1044.35 780.613 1044.16 786.655 1042.31 792.416C1040.61 798.168 1037.91 803.383 1034.23 808.061C1030.55 812.74 1026.06 816.659 1020.75 819.819C1015.59 822.97 1009.7 824.651 1003.09 824.861C996.543 824.997 990.572 822.945 985.183 818.705C977.969 813.029 975.711 805.661 978.409 796.602Z" fill="#050505"/>
<path d="M947.293 868.921L952.797 873.251L943.205 885.443L937.701 881.112L940.803 877.17L923.907 849.736L887.816 836.659L885.574 839.51L880.07 835.179L893.193 818.5L898.697 822.83L896.406 825.741L916.963 833.078L905.282 814.46L902.324 818.221L896.819 813.89L905.648 802.669L911.152 807L908.289 810.639L923.726 835.551L962.611 849.451L964.711 846.783L970.215 851.113L956.901 868.035L951.397 863.705L953.831 860.611L931.313 852.421L944.096 872.985L947.293 868.921Z" fill="#050505"/>
<path d="M1006.18 794.07L1011.69 798.4L1002.26 810.385L996.756 806.054L999.805 802.179L982.793 774.893L946.828 761.656L944.623 764.458L939.119 760.128L952.02 743.731L957.524 748.061L955.272 750.923L975.756 758.352L963.998 739.833L961.089 743.53L955.585 739.199L964.264 728.169L969.768 732.499L966.953 736.077L982.496 760.855L1021.24 774.93L1023.31 772.307L1028.81 776.638L1015.72 793.273L1010.22 788.942L1012.61 785.901L990.173 777.611L1003.04 798.065L1006.18 794.07Z" fill="#7A0005"/>
<path d="M1084.34 617.33C1081.22 627.242 1079.82 634.479 1080.15 639.043C1080.52 643.818 1082.42 646.745 1085.84 647.825C1087.95 648.492 1089.94 648.131 1091.82 646.741C1093.83 645.294 1095.54 643.208 1096.95 640.483C1098.49 637.7 1099.63 635.333 1100.35 633.382C1101.18 631.463 1101.91 629.513 1102.53 627.53L1104.84 620.231C1109.7 604.822 1108.91 596.102 1102.47 594.069C1095.93 592.005 1089.89 599.758 1084.34 617.33ZM1132.32 662.498C1135.74 663.578 1138.91 662.299 1141.83 658.663C1144.65 654.994 1147.62 648.203 1150.75 638.291C1153.62 629.19 1154.92 622.268 1154.65 617.525C1154.27 612.75 1152.53 609.87 1149.41 608.885C1142.87 606.821 1137.17 613.493 1132.3 628.902L1130 636.201C1129.43 638.003 1128.91 640.017 1128.42 642.243C1127.97 644.379 1127.59 646.984 1127.28 650.058C1126.98 653.133 1127.23 655.838 1128.04 658.175C1128.88 660.422 1130.31 661.863 1132.32 662.498ZM1122.69 656.19C1119.96 665.535 1118.19 673.793 1117.36 680.964C1116.54 688.135 1116.97 695.703 1118.66 703.668L1116.87 704.591C1113.71 701.312 1110.89 696.211 1108.43 689.291C1105.94 682.46 1104.41 676.429 1103.85 671.199C1100.52 675.101 1095.8 679.162 1089.71 683.383C1083.72 687.636 1078.49 690.195 1074.01 691.061L1073.08 689.281C1078.97 683.607 1083.64 677.553 1087.11 671.118C1090.68 664.714 1093.99 657.038 1097.04 648.091C1091.07 655.423 1083.81 657.739 1075.26 655.04C1068.72 652.975 1063.66 649.198 1060.09 643.709C1056.54 638.13 1054.51 632.287 1054 626.182C1053.62 620.018 1054.33 614.098 1056.12 608.421C1057.91 602.744 1060.66 597.565 1064.35 592.884C1068.17 588.144 1073.05 584.583 1079 582.201C1085.06 579.851 1091.4 579.724 1098.04 581.82C1106.9 584.615 1111.54 590.936 1111.97 600.783C1117.75 582.491 1119.13 566.529 1116.13 552.899L1117.92 551.976C1121.04 555.044 1123.91 560.16 1126.52 567.324C1129.12 574.489 1130.65 580.519 1131.09 585.416C1134.2 581.541 1138.8 577.493 1144.89 573.271C1151 568.96 1156.3 566.372 1160.78 565.506L1161.71 567.286C1151.32 577.085 1143.29 590.95 1137.63 608.882C1143.74 601.099 1151.17 598.589 1159.92 601.353C1166.56 603.449 1171.63 607.18 1175.14 612.548C1178.74 617.947 1180.7 623.668 1181.01 629.71C1181.44 635.693 1180.76 641.523 1178.97 647.2C1177.18 652.877 1174.36 658.13 1170.51 662.96C1166.79 667.732 1161.88 671.382 1155.77 673.913C1149.69 676.353 1143.38 676.541 1136.84 674.477C1128.08 671.714 1123.37 665.618 1122.69 656.19Z" fill="#050505"/>
<path d="M1119.12 734.838L1125.8 736.946L1121.13 751.739L1114.45 749.631L1115.96 744.847L1090.46 725.146L1052.08 725.654L1050.99 729.113L1044.31 727.005L1050.7 706.766L1057.38 708.874L1056.26 712.407L1078.08 712.012L1060.58 698.718L1059.14 703.281L1052.46 701.173L1056.76 687.558L1063.44 689.666L1062.05 694.082L1085.29 711.938L1126.57 711.214L1127.6 707.976L1134.27 710.084L1127.79 730.617L1121.11 728.509L1122.3 724.756L1098.34 725.043L1117.56 739.769L1119.12 734.838Z" fill="#050505"/>
<path d="M1147.79 644.013L1154.47 646.121L1149.88 660.663L1143.2 658.555L1144.68 653.852L1119.13 634.33L1080.81 634.644L1079.74 638.044L1073.06 635.936L1079.34 616.04L1086.02 618.149L1084.92 621.621L1106.71 621.339L1089.17 608.165L1087.75 612.65L1081.08 610.542L1085.3 597.158L1091.98 599.266L1090.61 603.607L1113.9 621.301L1155.12 620.789L1156.13 617.606L1162.8 619.714L1156.43 639.899L1149.75 637.791L1150.92 634.101L1127 634.267L1146.26 648.86L1147.79 644.013Z" fill="#7A0005"/>
<path d="M906.163 102.684C909.817 112.415 913.181 118.975 916.256 122.362C919.496 125.89 922.795 127.023 926.154 125.762C928.228 124.983 929.575 123.468 930.195 121.217C930.88 118.84 930.938 116.144 930.369 113.127C929.866 109.985 929.298 107.423 928.666 105.44C928.133 103.419 927.501 101.436 926.771 99.4897L924.08 92.3241C918.401 77.1968 912.401 70.8198 906.079 73.1931C899.659 75.6035 899.687 85.4339 906.163 102.684ZM971.787 108.63C975.145 107.369 976.851 104.407 976.903 99.7445C976.857 95.1189 975.007 87.9406 971.354 78.2096C967.999 69.2747 964.752 63.025 961.61 59.4606C958.37 55.9332 955.219 54.7443 952.157 55.8938C945.737 58.3042 945.366 67.0731 951.046 82.2005L953.736 89.366C954.4 91.1353 955.23 93.0444 956.224 95.0934C957.186 97.0539 958.494 99.3383 960.149 101.947C961.805 104.555 963.673 106.529 965.753 107.867C967.8 109.117 969.811 109.371 971.787 108.63ZM960.32 109.604C963.938 118.642 967.635 126.237 971.41 132.39C975.185 138.542 980.194 144.232 986.439 149.457L985.604 151.285C981.086 150.659 975.724 148.383 969.516 144.456C963.342 140.617 958.42 136.812 954.751 133.042C954.534 138.17 953.332 144.274 951.144 151.353C949.055 158.395 946.516 163.638 943.526 167.082L941.694 166.256C942.825 158.161 942.77 150.51 941.53 143.305C940.389 136.062 938.256 127.981 935.132 119.06C934.962 128.511 930.678 134.813 922.283 137.965C915.862 140.375 909.551 140.524 903.349 138.412C897.113 136.211 891.912 132.864 887.746 128.372C883.646 123.755 880.55 118.659 878.457 113.086C876.365 107.513 875.327 101.746 875.343 95.7848C875.424 89.6982 877.072 83.8815 880.286 78.3347C883.599 72.7507 888.515 68.735 895.034 66.2875C903.726 63.0242 911.28 65.134 917.696 72.6168C910.954 54.6586 902.197 41.2415 891.427 32.3656L892.262 30.538C896.615 31.0237 902.026 33.2816 908.498 37.3116C914.97 41.3416 919.892 45.146 923.264 48.7248C923.315 43.7597 924.435 37.7374 926.623 30.6581C928.778 23.4903 931.351 18.1845 934.34 14.7406L936.172 15.567C934.037 29.6917 936.274 45.5562 942.883 63.1606C942.888 53.2674 947.187 46.7076 955.78 43.4814C962.299 41.0339 968.594 40.8407 974.664 42.9017C980.834 44.9257 985.902 48.2208 989.871 52.787C993.904 57.2276 996.968 62.2345 999.06 67.8078C1001.15 73.381 1002.17 79.2551 1002.13 85.4302C1002.14 91.4797 1000.53 97.3849 997.282 103.146C994.002 108.818 989.152 112.86 982.732 115.27C974.139 118.496 966.668 116.608 960.32 109.604Z" fill="#050505"/>
<path d="M1006.03 173.704L1012.59 171.243L1018.04 185.765L1011.48 188.227L1009.72 183.53L977.502 183.756L947.609 207.838L948.884 211.234L942.327 213.696L934.868 193.827L941.425 191.365L942.727 194.833L959.657 181.058L937.681 181.394L939.363 185.874L932.806 188.336L927.788 174.969L934.345 172.508L935.972 176.843L965.278 176.557L997.324 150.512L996.13 147.333L1002.69 144.871L1010.26 165.029L1003.7 167.491L1002.32 163.806L983.637 178.814L1007.85 178.545L1006.03 173.704Z" fill="#050505"/>
<path d="M972.553 84.5392L979.11 82.0776L984.47 96.3539L977.913 98.8155L976.18 94.1988L944.027 94.6006L914.063 118.492L915.317 121.83L908.76 124.292L901.427 104.76L907.983 102.298L909.263 105.707L926.235 92.0421L904.304 92.4965L905.957 96.9001L899.4 99.3617L894.467 86.2218L901.024 83.7602L902.624 88.0218L931.869 87.5767L963.994 61.7398L962.82 58.6147L969.377 56.1531L976.817 75.9694L970.26 78.431L968.9 74.8086L950.178 89.6983L974.34 89.298L972.553 84.5392Z" fill="#7A0005"/>
<path d="M1003.9 256.545C1003.9 266.94 1004.74 274.263 1006.43 278.515C1008.22 282.956 1010.91 285.177 1014.5 285.177C1016.71 285.177 1018.51 284.232 1019.88 282.342C1021.36 280.358 1022.36 277.854 1022.89 274.83C1023.52 271.712 1023.89 269.113 1023.99 267.034C1024.2 264.955 1024.31 262.877 1024.31 260.798V253.144C1024.31 236.985 1020.93 228.906 1014.18 228.906C1007.32 228.906 1003.9 238.119 1003.9 256.545ZM1063.24 285.177C1066.83 285.177 1069.47 283.004 1071.15 278.657C1072.74 274.31 1073.53 266.94 1073.53 256.545C1073.53 247.002 1072.68 240.009 1071 235.568C1069.2 231.127 1066.67 228.906 1063.4 228.906C1056.54 228.906 1053.11 236.985 1053.11 253.144V260.798C1053.11 262.688 1053.22 264.766 1053.43 267.034C1053.64 269.208 1054.06 271.806 1054.7 274.83C1055.33 277.854 1056.38 280.358 1057.86 282.342C1059.34 284.232 1061.13 285.177 1063.24 285.177ZM1052.16 282.059C1052.37 291.791 1053.17 300.201 1054.54 307.288C1055.91 314.375 1058.6 321.462 1062.61 328.549L1061.18 329.967C1057.18 327.793 1052.95 323.777 1048.52 317.919C1044.09 312.155 1040.82 306.863 1038.71 302.044C1036.71 306.769 1033.44 312.06 1028.9 317.919C1024.47 323.777 1020.25 327.793 1016.24 329.967L1014.81 328.549C1018.72 321.368 1021.36 314.186 1022.73 307.005C1024.2 299.823 1025.05 291.508 1025.26 282.059C1021.78 290.846 1015.55 295.24 1006.59 295.24C999.728 295.24 993.767 293.162 988.702 289.004C983.638 284.752 979.945 279.791 977.624 274.121C975.409 268.357 974.301 262.499 974.301 256.545C974.301 250.592 975.356 244.828 977.466 239.253C979.682 233.584 983.269 228.717 988.227 224.654C993.292 220.591 999.306 218.559 1006.27 218.559C1015.55 218.559 1021.88 223.189 1025.26 232.45C1025.26 213.268 1021.78 197.629 1014.81 185.534L1016.24 184.116C1020.14 186.101 1024.42 190.117 1029.06 196.164C1033.7 202.212 1036.97 207.504 1038.87 212.039C1040.66 207.409 1043.83 202.165 1048.37 196.306C1052.9 190.353 1057.18 186.29 1061.18 184.116L1062.61 185.534C1055.65 198.007 1052.16 213.646 1052.16 232.45C1055.65 223.189 1061.98 218.559 1071.15 218.559C1078.12 218.559 1084.08 220.591 1089.04 224.654C1094.1 228.717 1097.69 233.584 1099.8 239.253C1102.01 244.828 1103.12 250.592 1103.12 256.545C1103.12 262.499 1102.01 268.357 1099.8 274.121C1097.69 279.791 1094.1 284.752 1089.04 289.004C1083.97 293.162 1078.01 295.24 1071.15 295.24C1061.98 295.24 1055.65 290.846 1052.16 282.059Z" fill="#050505"/>
<path d="M1072.43 358.135H1079.43V373.647H1072.43V368.631L1042.19 357.518L1005.74 369.557V373.184H998.732V351.961H1005.74V355.666L1026.43 348.72L1005.74 341.311V346.096H998.732V331.819H1005.74V336.449L1033.27 346.482L1072.43 333.362V329.966H1079.43V351.498H1072.43V347.562L1049.67 355.048L1072.43 363.306V358.135Z" fill="#050505"/>
<path d="M1072.43 262.893H1079.43V278.142H1072.43V273.21L1042.19 262.286L1005.74 274.121V277.687H998.732V256.823H1005.74V260.465L1026.43 253.637L1005.74 246.354V251.057H998.732V237.022H1005.74V241.574L1033.27 251.437L1072.43 238.539V235.201H1079.43V256.368H1072.43V252.499L1049.67 259.858L1072.43 267.976V262.893Z" fill="#7A0005"/>
<path d="M1003.9 256.545C1003.9 266.94 1004.74 274.263 1006.43 278.515C1008.22 282.956 1010.91 285.177 1014.5 285.177C1016.71 285.177 1018.51 284.232 1019.88 282.342C1021.36 280.358 1022.36 277.854 1022.89 274.83C1023.52 271.712 1023.89 269.113 1023.99 267.034C1024.2 264.955 1024.31 262.877 1024.31 260.798V253.144C1024.31 236.985 1020.93 228.906 1014.18 228.906C1007.32 228.906 1003.9 238.119 1003.9 256.545ZM1063.24 285.177C1066.83 285.177 1069.47 283.004 1071.15 278.657C1072.74 274.31 1073.53 266.94 1073.53 256.545C1073.53 247.002 1072.68 240.009 1071 235.568C1069.2 231.127 1066.67 228.906 1063.4 228.906C1056.54 228.906 1053.11 236.985 1053.11 253.144V260.798C1053.11 262.688 1053.22 264.766 1053.43 267.034C1053.64 269.208 1054.06 271.806 1054.7 274.83C1055.33 277.854 1056.38 280.358 1057.86 282.342C1059.34 284.232 1061.13 285.177 1063.24 285.177ZM1052.16 282.059C1052.37 291.791 1053.17 300.201 1054.54 307.288C1055.91 314.375 1058.6 321.462 1062.61 328.549L1061.18 329.967C1057.18 327.793 1052.95 323.777 1048.52 317.919C1044.09 312.155 1040.82 306.863 1038.71 302.044C1036.71 306.769 1033.44 312.06 1028.9 317.919C1024.47 323.777 1020.25 327.793 1016.24 329.967L1014.81 328.549C1018.72 321.368 1021.36 314.186 1022.73 307.005C1024.2 299.823 1025.05 291.508 1025.26 282.059C1021.78 290.846 1015.55 295.24 1006.59 295.24C999.728 295.24 993.767 293.162 988.702 289.004C983.638 284.752 979.945 279.791 977.624 274.121C975.409 268.357 974.301 262.499 974.301 256.545C974.301 250.592 975.356 244.828 977.466 239.253C979.682 233.584 983.269 228.717 988.227 224.654C993.292 220.591 999.306 218.559 1006.27 218.559C1015.55 218.559 1021.88 223.189 1025.26 232.45C1025.26 213.268 1021.78 197.629 1014.81 185.534L1016.24 184.116C1020.14 186.101 1024.42 190.117 1029.06 196.164C1033.7 202.212 1036.97 207.504 1038.87 212.039C1040.66 207.409 1043.83 202.165 1048.37 196.306C1052.9 190.353 1057.18 186.29 1061.18 184.116L1062.61 185.534C1055.65 198.007 1052.16 213.646 1052.16 232.45C1055.65 223.189 1061.98 218.559 1071.15 218.559C1078.12 218.559 1084.08 220.591 1089.04 224.654C1094.1 228.717 1097.69 233.584 1099.8 239.253C1102.01 244.828 1103.12 250.592 1103.12 256.545C1103.12 262.499 1102.01 268.357 1099.8 274.121C1097.69 279.791 1094.1 284.752 1089.04 289.004C1083.97 293.162 1078.01 295.24 1071.15 295.24C1061.98 295.24 1055.65 290.846 1052.16 282.059Z" fill="#050505"/>
<path d="M1072.43 358.135H1079.43V373.647H1072.43V368.631L1042.19 357.518L1005.74 369.557V373.184H998.732V351.961H1005.74V355.666L1026.43 348.72L1005.74 341.311V346.096H998.732V331.819H1005.74V336.449L1033.27 346.482L1072.43 333.362V329.966H1079.43V351.498H1072.43V347.562L1049.67 355.048L1072.43 363.306V358.135Z" fill="#050505"/>
<path d="M1072.43 262.893H1079.43V278.142H1072.43V273.21L1042.19 262.286L1005.74 274.121V277.687H998.732V256.823H1005.74V260.465L1026.43 253.637L1005.74 246.354V251.057H998.732V237.022H1005.74V241.574L1033.27 251.437L1072.43 238.539V235.201H1079.43V256.368H1072.43V252.499L1049.67 259.858L1072.43 267.976V262.893Z" fill="#7A0005"/>
<path d="M1083.79 441.283C1087.09 451.142 1090.21 457.821 1093.15 461.32C1096.26 464.964 1099.52 466.219 1102.92 465.083C1105.02 464.381 1106.42 462.917 1107.13 460.69C1107.9 458.34 1108.06 455.647 1107.6 452.612C1107.21 449.454 1106.74 446.872 1106.18 444.867C1105.72 442.828 1105.16 440.823 1104.51 438.851L1102.08 431.591C1096.96 416.264 1091.2 409.67 1084.8 411.809C1078.29 413.981 1077.96 423.805 1083.79 441.283ZM1149.15 449.645C1152.56 448.509 1154.37 445.612 1154.59 440.955C1154.72 436.331 1153.14 429.089 1149.84 419.23C1146.82 410.177 1143.81 403.812 1140.8 400.134C1137.69 396.49 1134.59 395.185 1131.48 396.221C1124.98 398.393 1124.28 407.142 1129.4 422.469L1131.83 429.729C1132.42 431.521 1133.18 433.46 1134.1 435.544C1134.99 437.539 1136.21 439.87 1137.77 442.538C1139.33 445.205 1141.12 447.246 1143.15 448.661C1145.15 449.985 1147.15 450.314 1149.15 449.645ZM1137.66 450.196C1140.94 459.361 1144.36 467.087 1147.9 473.375C1151.45 479.663 1156.24 485.533 1162.29 490.986L1161.39 492.781C1156.9 491.989 1151.62 489.517 1145.56 485.363C1139.53 481.299 1134.76 477.316 1131.23 473.413C1130.82 478.529 1129.4 484.584 1126.95 491.578C1124.6 498.538 1121.87 503.684 1118.76 507.015L1116.96 506.122C1118.38 498.074 1118.61 490.427 1117.64 483.181C1116.77 475.901 1114.93 467.746 1112.14 458.717C1111.62 468.155 1107.11 474.294 1098.6 477.134C1092.1 479.306 1085.78 479.222 1079.66 476.882C1073.51 474.453 1068.44 470.917 1064.44 466.274C1060.52 461.509 1057.61 456.302 1055.72 450.656C1053.84 445.009 1053.01 439.208 1053.25 433.251C1053.56 427.172 1055.42 421.42 1058.83 415.995C1062.35 410.537 1067.41 406.706 1074.02 404.5C1082.82 401.56 1090.29 403.947 1096.43 411.661C1090.35 393.467 1082.1 379.736 1071.66 370.469L1072.56 368.673C1076.9 369.319 1082.22 371.775 1088.54 376.041C1094.86 380.307 1099.64 384.29 1102.87 387.991C1103.11 383.031 1104.45 377.054 1106.9 370.061C1109.32 362.977 1112.08 357.77 1115.2 354.439L1117 355.332C1114.34 369.368 1115.99 385.305 1121.95 403.141C1122.32 393.255 1126.86 386.858 1135.56 383.951C1142.17 381.746 1148.46 381.785 1154.45 384.068C1160.54 386.318 1165.49 389.798 1169.29 394.508C1173.15 399.094 1176.03 404.211 1177.91 409.857C1179.8 415.504 1180.6 421.412 1180.33 427.581C1180.12 433.627 1178.29 439.468 1174.83 445.106C1171.35 450.653 1166.35 454.513 1159.85 456.685C1151.14 459.592 1143.74 457.429 1137.66 450.196Z" fill="#050505"/>
<path d="M1180.97 515.941L1187.62 513.723L1192.53 528.436L1185.89 530.654L1184.3 525.896L1152.09 524.933L1121.33 547.896L1122.48 551.337L1115.84 553.555L1109.12 533.424L1115.76 531.206L1116.93 534.72L1134.36 521.579L1112.39 521.104L1113.9 525.643L1107.26 527.861L1102.74 514.318L1109.38 512.1L1110.85 516.493L1140.14 517.288L1173.13 492.443L1172.05 489.222L1178.7 487.004L1185.51 507.427L1178.87 509.645L1177.62 505.912L1158.41 520.221L1182.61 520.845L1180.97 515.941Z" fill="#050505"/>
<path d="M1150.81 425.599L1157.45 423.381L1162.28 437.846L1155.64 440.064L1154.08 435.386L1121.93 434.602L1091.11 457.371L1092.24 460.754L1085.59 462.972L1078.99 443.182L1085.63 440.964L1086.78 444.418L1104.25 431.388L1082.31 431.033L1083.8 435.495L1077.16 437.713L1072.72 424.4L1079.36 422.182L1080.8 426.5L1110.04 427.134L1143.1 402.5L1142.04 399.333L1148.68 397.115L1155.39 417.193L1148.74 419.411L1147.52 415.741L1128.26 429.93L1152.42 430.421L1150.81 425.599Z" fill="#7A0005"/>
<path d="M956.25 746.704C949.822 754.873 945.958 761.151 944.655 765.536C943.318 770.136 944.06 773.544 946.879 775.762C948.62 777.133 950.614 777.499 952.861 776.862C955.248 776.216 957.584 774.867 959.869 772.817C962.294 770.758 964.191 768.944 965.56 767.375C967.011 765.872 968.379 764.304 969.665 762.67L974.398 756.655C984.389 743.956 986.731 735.518 981.425 731.343C976.035 727.103 967.643 732.223 956.25 746.704ZM985.187 805.903C988.006 808.121 991.423 808.044 995.437 805.671C999.369 803.234 1004.55 797.931 1010.98 789.762C1016.88 782.261 1020.54 776.244 1021.96 771.71C1023.29 767.11 1022.68 763.799 1020.11 761.777C1014.72 757.536 1007.03 761.766 997.034 774.465L992.301 780.48C991.133 781.965 989.93 783.664 988.694 785.577C987.516 787.416 986.241 789.719 984.868 792.487C983.496 795.254 982.777 797.875 982.711 800.348C982.703 802.746 983.528 804.598 985.187 805.903ZM978.409 796.602C972.556 804.382 967.978 811.48 964.674 817.898C961.369 824.316 959.102 831.549 957.87 839.598L955.874 839.831C954.067 835.644 953.234 829.878 953.374 822.534C953.456 815.264 954.157 809.083 955.479 803.991C950.982 806.464 945.139 808.601 937.951 810.4C930.846 812.264 925.046 812.811 920.552 812.04L920.309 810.045C927.817 806.815 934.331 802.802 939.849 798.006C945.451 793.275 951.256 787.262 957.265 779.966C949.094 784.72 941.485 784.324 934.437 778.779C929.048 774.538 925.648 769.218 924.239 762.819C922.888 756.346 923.054 750.164 924.735 744.273C926.558 738.373 929.31 733.084 932.991 728.405C936.672 723.726 941.066 719.849 946.171 716.772C951.418 713.686 957.247 712.08 963.656 711.953C970.149 711.891 976.131 714.013 981.604 718.319C988.901 724.06 991.013 731.613 987.94 740.978C999.801 725.903 1006.73 711.459 1008.74 697.648L1010.74 697.415C1012.58 701.388 1013.45 707.186 1013.36 714.81C1013.27 722.433 1012.57 728.614 1011.26 733.353C1015.53 730.823 1021.26 728.659 1028.45 726.86C1035.69 724.986 1041.57 724.435 1046.06 725.206L1046.3 727.201C1033.12 732.698 1020.71 742.836 1009.08 757.614C1017.55 752.489 1025.38 752.764 1032.6 758.44C1038.07 762.746 1041.5 768.029 1042.88 774.288C1044.35 780.613 1044.16 786.655 1042.31 792.416C1040.61 798.168 1037.91 803.383 1034.23 808.061C1030.55 812.74 1026.06 816.659 1020.75 819.819C1015.59 822.97 1009.7 824.651 1003.09 824.861C996.543 824.997 990.572 822.945 985.183 818.705C977.969 813.029 975.711 805.661 978.409 796.602Z" fill="#050505"/>
<path d="M947.293 868.921L952.797 873.251L943.205 885.443L937.701 881.112L940.803 877.17L923.907 849.736L887.816 836.659L885.574 839.51L880.07 835.179L893.193 818.5L898.697 822.83L896.406 825.741L916.963 833.078L905.282 814.46L902.324 818.221L896.819 813.89L905.648 802.669L911.152 807L908.289 810.639L923.726 835.551L962.611 849.451L964.711 846.783L970.215 851.113L956.901 868.035L951.397 863.705L953.831 860.611L931.313 852.421L944.096 872.985L947.293 868.921Z" fill="#050505"/>
<path d="M1006.18 794.07L1011.69 798.4L1002.26 810.385L996.756 806.054L999.805 802.179L982.793 774.893L946.828 761.656L944.623 764.458L939.119 760.128L952.02 743.731L957.524 748.061L955.272 750.923L975.756 758.352L963.998 739.833L961.089 743.53L955.585 739.199L964.264 728.169L969.768 732.499L966.953 736.077L982.496 760.855L1021.24 774.93L1023.31 772.307L1028.81 776.638L1015.72 793.273L1010.22 788.942L1012.61 785.901L990.173 777.611L1003.04 798.065L1006.18 794.07Z" fill="#7A0005"/>
<path d="M1084.34 617.33C1081.22 627.242 1079.82 634.479 1080.15 639.043C1080.52 643.818 1082.42 646.745 1085.84 647.825C1087.95 648.492 1089.94 648.131 1091.82 646.741C1093.83 645.294 1095.54 643.208 1096.95 640.483C1098.49 637.7 1099.63 635.333 1100.35 633.382C1101.18 631.463 1101.91 629.513 1102.53 627.53L1104.84 620.231C1109.7 604.822 1108.91 596.102 1102.47 594.069C1095.93 592.005 1089.89 599.758 1084.34 617.33ZM1132.32 662.498C1135.74 663.578 1138.91 662.299 1141.83 658.663C1144.65 654.994 1147.62 648.203 1150.75 638.291C1153.62 629.19 1154.92 622.268 1154.65 617.525C1154.27 612.75 1152.53 609.87 1149.41 608.885C1142.87 606.821 1137.17 613.493 1132.3 628.902L1130 636.201C1129.43 638.003 1128.91 640.017 1128.42 642.243C1127.97 644.379 1127.59 646.984 1127.28 650.058C1126.98 653.133 1127.23 655.838 1128.04 658.175C1128.88 660.422 1130.31 661.863 1132.32 662.498ZM1122.69 656.19C1119.96 665.535 1118.19 673.793 1117.36 680.964C1116.54 688.135 1116.97 695.703 1118.66 703.668L1116.87 704.591C1113.71 701.312 1110.89 696.211 1108.43 689.291C1105.94 682.46 1104.41 676.429 1103.85 671.199C1100.52 675.101 1095.8 679.162 1089.71 683.383C1083.72 687.636 1078.49 690.195 1074.01 691.061L1073.08 689.281C1078.97 683.607 1083.64 677.553 1087.11 671.118C1090.68 664.714 1093.99 657.038 1097.04 648.091C1091.07 655.423 1083.81 657.739 1075.26 655.04C1068.72 652.975 1063.66 649.198 1060.09 643.709C1056.54 638.13 1054.51 632.287 1054 626.182C1053.62 620.018 1054.33 614.098 1056.12 608.421C1057.91 602.744 1060.66 597.565 1064.35 592.884C1068.17 588.144 1073.05 584.583 1079 582.201C1085.06 579.851 1091.4 579.724 1098.04 581.82C1106.9 584.615 1111.54 590.936 1111.97 600.783C1117.75 582.491 1119.13 566.529 1116.13 552.899L1117.92 551.976C1121.04 555.044 1123.91 560.16 1126.52 567.324C1129.12 574.489 1130.65 580.519 1131.09 585.416C1134.2 581.541 1138.8 577.493 1144.89 573.271C1151 568.96 1156.3 566.372 1160.78 565.506L1161.71 567.286C1151.32 577.085 1143.29 590.95 1137.63 608.882C1143.74 601.099 1151.17 598.589 1159.92 601.353C1166.56 603.449 1171.63 607.18 1175.14 612.548C1178.74 617.947 1180.7 623.668 1181.01 629.71C1181.44 635.693 1180.76 641.523 1178.97 647.2C1177.18 652.877 1174.36 658.13 1170.51 662.96C1166.79 667.732 1161.88 671.382 1155.77 673.913C1149.69 676.353 1143.38 676.541 1136.84 674.477C1128.08 671.714 1123.37 665.618 1122.69 656.19Z" fill="#050505"/>
<path d="M1119.12 734.838L1125.8 736.946L1121.13 751.739L1114.45 749.631L1115.96 744.847L1090.46 725.146L1052.08 725.654L1050.99 729.113L1044.31 727.005L1050.7 706.766L1057.38 708.874L1056.26 712.407L1078.08 712.012L1060.58 698.718L1059.14 703.281L1052.46 701.173L1056.76 687.558L1063.44 689.666L1062.05 694.082L1085.29 711.938L1126.57 711.214L1127.6 707.976L1134.27 710.084L1127.79 730.617L1121.11 728.509L1122.3 724.756L1098.34 725.043L1117.56 739.769L1119.12 734.838Z" fill="#050505"/>
<path d="M1147.79 644.013L1154.47 646.121L1149.88 660.663L1143.2 658.555L1144.68 653.852L1119.13 634.33L1080.81 634.644L1079.74 638.044L1073.06 635.936L1079.34 616.04L1086.02 618.149L1084.92 621.621L1106.71 621.339L1089.17 608.165L1087.75 612.65L1081.08 610.542L1085.3 597.158L1091.98 599.266L1090.61 603.607L1113.9 621.301L1155.12 620.789L1156.13 617.606L1162.8 619.714L1156.43 639.899L1149.75 637.791L1150.92 634.101L1127 634.267L1146.26 648.86L1147.79 644.013Z" fill="#7A0005"/>
<path d="M906.163 102.684C909.817 112.415 913.181 118.975 916.256 122.362C919.496 125.89 922.795 127.023 926.154 125.762C928.228 124.983 929.575 123.468 930.195 121.217C930.88 118.84 930.938 116.144 930.369 113.127C929.866 109.985 929.298 107.423 928.666 105.44C928.133 103.419 927.501 101.436 926.771 99.4897L924.08 92.3241C918.401 77.1968 912.401 70.8198 906.079 73.1931C899.659 75.6035 899.687 85.4339 906.163 102.684ZM971.787 108.63C975.145 107.369 976.851 104.407 976.903 99.7445C976.857 95.1189 975.007 87.9406 971.354 78.2096C967.999 69.2747 964.752 63.025 961.61 59.4606C958.37 55.9332 955.219 54.7443 952.157 55.8938C945.737 58.3042 945.366 67.0731 951.046 82.2005L953.736 89.366C954.4 91.1353 955.23 93.0444 956.224 95.0934C957.186 97.0539 958.494 99.3383 960.149 101.947C961.805 104.555 963.673 106.529 965.753 107.867C967.8 109.117 969.811 109.371 971.787 108.63ZM960.32 109.604C963.938 118.642 967.635 126.237 971.41 132.39C975.185 138.542 980.194 144.232 986.439 149.457L985.604 151.285C981.086 150.659 975.724 148.383 969.516 144.456C963.342 140.617 958.42 136.812 954.751 133.042C954.534 138.17 953.332 144.274 951.144 151.353C949.055 158.395 946.516 163.638 943.526 167.082L941.694 166.256C942.825 158.161 942.77 150.51 941.53 143.305C940.389 136.062 938.256 127.981 935.132 119.06C934.962 128.511 930.678 134.813 922.283 137.965C915.862 140.375 909.551 140.524 903.349 138.412C897.113 136.211 891.912 132.864 887.746 128.372C883.646 123.755 880.55 118.659 878.457 113.086C876.365 107.513 875.327 101.746 875.343 95.7848C875.424 89.6982 877.072 83.8815 880.286 78.3347C883.599 72.7507 888.515 68.735 895.034 66.2875C903.726 63.0242 911.28 65.134 917.696 72.6168C910.954 54.6586 902.197 41.2415 891.427 32.3656L892.262 30.538C896.615 31.0237 902.026 33.2816 908.498 37.3116C914.97 41.3416 919.892 45.146 923.264 48.7248C923.315 43.7597 924.435 37.7374 926.623 30.6581C928.778 23.4903 931.351 18.1845 934.34 14.7406L936.172 15.567C934.037 29.6917 936.274 45.5562 942.883 63.1606C942.888 53.2674 947.187 46.7076 955.78 43.4814C962.299 41.0339 968.594 40.8407 974.664 42.9017C980.834 44.9257 985.902 48.2208 989.871 52.787C993.904 57.2276 996.968 62.2345 999.06 67.8078C1001.15 73.381 1002.17 79.2551 1002.13 85.4302C1002.14 91.4797 1000.53 97.3849 997.282 103.146C994.002 108.818 989.152 112.86 982.732 115.27C974.139 118.496 966.668 116.608 960.32 109.604Z" fill="#050505"/>
<path d="M1006.03 173.704L1012.59 171.243L1018.04 185.765L1011.48 188.227L1009.72 183.53L977.502 183.756L947.609 207.838L948.884 211.234L942.327 213.696L934.868 193.827L941.425 191.365L942.727 194.833L959.657 181.058L937.681 181.394L939.363 185.874L932.806 188.336L927.788 174.969L934.345 172.508L935.972 176.843L965.278 176.557L997.324 150.512L996.13 147.333L1002.69 144.871L1010.26 165.029L1003.7 167.491L1002.32 163.806L983.637 178.814L1007.85 178.545L1006.03 173.704Z" fill="#050505"/>
<path d="M972.553 84.5392L979.11 82.0776L984.47 96.3539L977.913 98.8155L976.18 94.1988L944.027 94.6006L914.063 118.492L915.317 121.83L908.76 124.292L901.427 104.76L907.983 102.298L909.263 105.707L926.235 92.0421L904.304 92.4965L905.957 96.9001L899.4 99.3617L894.467 86.2218L901.024 83.7602L902.624 88.0218L931.869 87.5767L963.994 61.7398L962.82 58.6147L969.377 56.1531L976.817 75.9694L970.26 78.431L968.9 74.8086L950.178 89.6983L974.34 89.298L972.553 84.5392Z" fill="#7A0005"/>
<path d="M860.564 985.291C860.608 1000.48 861.873 1011.18 864.358 1017.39C866.999 1023.88 870.941 1027.11 876.184 1027.09C879.422 1027.09 882.04 1025.7 884.036 1022.93C886.187 1020.02 887.641 1016.36 888.399 1011.94C889.311 1007.38 889.84 1003.58 889.985 1000.54C890.285 997.497 890.43 994.458 890.421 991.42L890.389 980.232C890.32 956.615 885.351 944.821 875.482 944.85C865.458 944.879 860.485 958.359 860.564 985.291ZM947.428 1026.89C952.671 1026.87 956.517 1023.68 958.966 1017.32C961.261 1010.96 962.386 1000.19 962.342 984.995C962.301 971.046 961.038 960.829 958.551 954.345C955.911 947.861 952.2 944.626 947.42 944.64C937.396 944.669 932.419 956.492 932.488 980.11L932.52 991.297C932.528 994.059 932.691 997.097 933.01 1000.41C933.327 1003.59 933.955 1007.38 934.893 1011.8C935.831 1016.22 937.384 1019.87 939.551 1022.77C941.718 1025.52 944.344 1026.9 947.428 1026.89ZM931.223 1022.38C931.573 1036.6 932.765 1048.89 934.8 1059.24C936.835 1069.6 940.797 1079.94 946.688 1090.28L944.612 1092.36C938.743 1089.2 932.557 1083.35 926.055 1074.81C919.554 1066.4 914.751 1058.68 911.646 1051.64C908.737 1058.56 903.979 1066.31 897.373 1074.89C890.921 1083.47 884.77 1089.36 878.919 1092.55L876.831 1090.49C882.506 1079.97 886.331 1069.47 888.305 1058.96C890.433 1048.46 891.632 1036.3 891.9 1022.49C886.848 1035.35 877.769 1041.8 864.661 1041.84C854.637 1041.87 845.916 1038.85 838.496 1032.8C831.076 1026.6 825.657 1019.37 822.241 1011.09C818.978 1002.68 817.334 994.119 817.308 985.417C817.283 976.716 818.801 968.287 821.861 960.129C825.075 951.833 830.298 944.705 837.528 938.745C844.913 932.785 853.694 929.789 863.872 929.76C877.442 929.72 886.714 936.461 891.689 949.982C891.607 921.945 886.451 899.102 876.222 881.453L878.298 879.375C884.012 882.259 890.275 888.111 897.086 896.93C903.897 905.75 908.7 913.47 911.495 920.091C914.096 913.316 918.7 905.637 925.306 897.055C931.912 888.335 938.14 882.378 943.991 879.184L946.079 881.249C935.954 899.51 930.932 922.383 931.012 949.867C936.061 936.317 945.294 929.523 958.71 929.484C968.888 929.454 977.609 932.398 984.875 938.316C992.294 944.233 997.558 951.331 1000.67 959.608C1003.93 967.748 1005.57 976.168 1005.6 984.869C1005.62 993.57 1004.03 1002.14 1000.81 1010.57C997.754 1018.87 992.532 1026.13 985.148 1032.37C977.764 1038.47 969.06 1041.53 959.037 1041.56C945.621 1041.6 936.349 1035.21 931.223 1022.38Z" fill="#050505"/>
<path d="M961.166 1133.49L971.403 1133.46L971.469 1156.13L961.232 1156.16L961.211 1148.83L916.961 1132.71L863.737 1150.46L863.752 1155.77L853.516 1155.79L853.425 1124.77L863.662 1124.74L863.677 1130.16L893.892 1119.92L863.616 1109.18L863.637 1116.17L853.4 1116.2L853.34 1095.33L863.576 1095.3L863.596 1102.07L903.886 1116.62L961.061 1097.28L961.046 1092.31L971.283 1092.28L971.374 1123.75L961.138 1123.78L961.121 1118.03L927.885 1129.07L961.188 1141.04L961.166 1133.49Z" fill="#050505"/>
<path d="M960.763 994.278L970.999 994.248L971.064 1016.54L960.828 1016.57L960.807 1009.36L916.558 993.519L863.333 1010.97L863.348 1016.18L853.111 1016.21L853.023 985.72L863.259 985.69L863.274 991.013L893.489 980.945L863.214 970.388L863.234 977.263L852.998 977.293L852.938 956.778L863.175 956.748L863.194 963.402L903.484 977.7L960.659 958.682L960.645 953.803L970.882 953.773L970.972 984.711L960.735 984.741L960.719 979.086L927.482 989.939L960.785 1001.71L960.763 994.278Z" fill="#7A0005"/>
<path d="M860.564 985.291C860.608 1000.48 861.873 1011.18 864.358 1017.39C866.999 1023.88 870.941 1027.11 876.184 1027.09C879.422 1027.09 882.04 1025.7 884.036 1022.93C886.187 1020.02 887.641 1016.36 888.399 1011.94C889.311 1007.38 889.84 1003.58 889.985 1000.54C890.285 997.497 890.43 994.458 890.421 991.42L890.389 980.232C890.32 956.615 885.351 944.821 875.482 944.85C865.458 944.879 860.485 958.359 860.564 985.291ZM947.428 1026.89C952.671 1026.87 956.517 1023.68 958.966 1017.32C961.261 1010.96 962.386 1000.19 962.342 984.995C962.301 971.046 961.038 960.829 958.551 954.345C955.911 947.861 952.2 944.626 947.42 944.64C937.396 944.669 932.419 956.492 932.488 980.11L932.52 991.297C932.528 994.059 932.691 997.097 933.01 1000.41C933.327 1003.59 933.955 1007.38 934.893 1011.8C935.831 1016.22 937.384 1019.87 939.551 1022.77C941.718 1025.52 944.344 1026.9 947.428 1026.89ZM931.223 1022.38C931.573 1036.6 932.765 1048.89 934.8 1059.24C936.835 1069.6 940.797 1079.94 946.688 1090.28L944.612 1092.36C938.743 1089.2 932.557 1083.35 926.055 1074.81C919.554 1066.4 914.751 1058.68 911.646 1051.64C908.737 1058.56 903.979 1066.31 897.373 1074.89C890.921 1083.47 884.77 1089.36 878.919 1092.55L876.831 1090.49C882.506 1079.97 886.331 1069.47 888.305 1058.96C890.433 1048.46 891.632 1036.3 891.9 1022.49C886.848 1035.35 877.769 1041.8 864.661 1041.84C854.637 1041.87 845.916 1038.85 838.496 1032.8C831.076 1026.6 825.657 1019.37 822.241 1011.09C818.978 1002.68 817.334 994.119 817.308 985.417C817.283 976.716 818.801 968.287 821.861 960.129C825.075 951.833 830.298 944.705 837.528 938.745C844.913 932.785 853.694 929.789 863.872 929.76C877.442 929.72 886.714 936.461 891.689 949.982C891.607 921.945 886.451 899.102 876.222 881.453L878.298 879.375C884.012 882.259 890.275 888.111 897.086 896.93C903.897 905.75 908.7 913.47 911.495 920.091C914.096 913.316 918.7 905.637 925.306 897.055C931.912 888.335 938.14 882.378 943.991 879.184L946.079 881.249C935.954 899.51 930.932 922.383 931.012 949.867C936.061 936.317 945.294 929.523 958.71 929.484C968.888 929.454 977.609 932.398 984.875 938.316C992.294 944.233 997.558 951.331 1000.67 959.608C1003.93 967.748 1005.57 976.168 1005.6 984.869C1005.62 993.57 1004.03 1002.14 1000.81 1010.57C997.754 1018.87 992.532 1026.13 985.148 1032.37C977.764 1038.47 969.06 1041.53 959.037 1041.56C945.621 1041.6 936.349 1035.21 931.223 1022.38Z" fill="#050505"/>
<path d="M961.166 1133.49L971.403 1133.46L971.469 1156.13L961.232 1156.16L961.211 1148.83L916.961 1132.71L863.737 1150.46L863.752 1155.77L853.516 1155.79L853.425 1124.77L863.662 1124.74L863.677 1130.16L893.892 1119.92L863.616 1109.18L863.637 1116.17L853.4 1116.2L853.34 1095.33L863.576 1095.3L863.596 1102.07L903.886 1116.62L961.061 1097.28L961.046 1092.31L971.283 1092.28L971.374 1123.75L961.138 1123.78L961.121 1118.03L927.885 1129.07L961.188 1141.04L961.166 1133.49Z" fill="#050505"/>
<path d="M960.763 994.278L970.999 994.248L971.064 1016.54L960.828 1016.57L960.807 1009.36L916.558 993.519L863.333 1010.97L863.348 1016.18L853.111 1016.21L853.023 985.72L863.259 985.69L863.274 991.013L893.489 980.945L863.214 970.388L863.234 977.263L852.998 977.293L852.938 956.778L863.175 956.748L863.194 963.402L903.484 977.7L960.659 958.682L960.645 953.803L970.882 953.773L970.972 984.711L960.735 984.741L960.719 979.086L927.482 989.939L960.785 1001.71L960.763 994.278Z" fill="#7A0005"/>
<path d="M-2.34238 1189.21L688.604 1160.44L755.666 1159.99L-4.65499 1528.89L-2.34238 1189.21Z" fill="#3D5D8C"/>
<path d="M-2.00325 1227.74L542.59 1205.06L595.447 1204.71L-3.82602 1495.47L-2.00325 1227.74Z" fill="#EADEC4"/>
<path d="M-0.502666 1155.72L853.5 1125L853.5 1155.72L-0.502458 1587.01L-0.502666 1155.72Z" fill="#050505"/>
<path d="M971.5 1133.51L1279.5 1133.51L1279.5 1510.51L971.5 1156.01L971.5 1133.51Z" fill="#050505"/>
<path d="M1411.37 1156.25L1074.01 1164.43L1040.7 1167.4L1325.5 1495L1411.37 1156.25Z" fill="#3D5D8C"/>
<path d="M1442.51 1193.23L1165.44 1199.94L1138.08 1202.38L1371.98 1471.43L1442.51 1193.23Z" fill="#EADEC4"/>
<path d="M-0.502666 1155.72L853.5 1125L853.5 1155.72L-0.502458 1587.01L-0.502666 1155.72Z" fill="#050505"/>
<path d="M971.5 1133.51L1279.5 1133.51L1279.5 1510.51L971.5 1156.01L971.5 1133.51Z" fill="#050505"/>
<path d="M1411.37 1156.25L1074.01 1164.43L1040.7 1167.4L1325.5 1495L1411.37 1156.25Z" fill="#3D5D8C"/>
<path d="M1442.51 1193.23L1165.44 1199.94L1138.08 1202.38L1371.98 1471.43L1442.51 1193.23Z" fill="#EADEC4"/>
<path d="M-2.34238 1189.21L688.604 1160.44L755.666 1159.99L-4.65499 1528.89L-2.34238 1189.21Z" fill="#3D5D8C"/>
<path d="M-2.00325 1227.74L542.59 1205.06L595.447 1204.71L-3.82602 1495.47L-2.00325 1227.74Z" fill="#EADEC4"/>
</svg>
