<svg width="1280" height="998" viewBox="0 0 1280 998" fill="none" xmlns="http://www.w3.org/2000/svg">
<path d="M0 127H1280" stroke="#7A0005" stroke-width="10"/>
<rect width="1280" height="870" transform="translate(0 128)" fill="#7A0005"/>
<path d="M313 199H1281" stroke="#3D5D8C" stroke-width="15"/>
<path d="M0 199H158" stroke="#3D5D8C" stroke-width="15"/>
<path d="M9 25.5C5.20821 23.5 5.45924 23.0152 5.20821 22.5C4.78791 21.6374 5.17041 16.8906 5.20823 15.9858C5.31142 13.5174 6.27583 11.6937 7.57726 9.62942C8.92163 7.49701 10.7654 4.90483 13.3553 4.26576C16.43 3.50706 22.8775 3.04593 24.8331 6.10679C26.5529 8.79875 26.0075 14.3177 25.1269 17.2302C24.8679 18.0868 23.63 19.4661 24.1761 17.8917C24.4771 17.0239 25.4457 16.516 26.2194 16.0757C29.0592 14.4597 31.9641 14.0524 35.2253 14.3236C38.9712 14.6351 42.1546 16.5763 43.3016 20.087C44.2303 22.9297 43.0669 27.1367 40.9094 29.2156C40.3736 29.7318 36.4486 31.9632 35.6126 31.3317C35.152 30.9838 38.5226 29.9699 38.71 29.9429C41.9131 29.4813 45.0604 29.869 47.5677 31.8981C49.9265 33.8069 50.7989 36 51.0172 38.9285C51.1854 41.1851 51.7514 43.3835 50.7049 45.5098C48.9645 49.0459 45.3367 51.5886 41.1627 51.5809C37.2595 51.5736 29.6235 49.8245 26.2194 48.5001" stroke="#7A0005" stroke-width="5" stroke-linecap="round"/>
<path d="M-72.0137 20.5468C-63.2014 20.5468 -56.0775 23.5689 -50.6419 29.6131C-45.2063 35.6573 -42.4885 42.9575 -42.4885 51.5136C-42.4885 59.9912 -45.2475 67.2521 -50.7654 73.2964C-56.201 79.2621 -63.2838 82.245 -72.0137 82.245C-80.9083 82.245 -88.0322 79.3013 -93.3854 73.4141C-98.6563 67.5269 -101.292 60.2267 -101.292 51.5136C-101.292 42.8005 -98.6563 35.4611 -93.3854 29.4953C-88.1145 23.5296 -80.9906 20.5468 -72.0137 20.5468ZM-72.0137 24.5501C-75.555 24.5501 -78.4787 25.4135 -80.7847 27.1405C-83.0907 28.7889 -84.7379 31.1438 -85.7262 34.2051C-86.6321 37.2665 -87.2498 40.0531 -87.5792 42.565C-87.8263 45.0769 -87.9498 48.0598 -87.9498 51.5136C-87.9498 54.1825 -87.9087 56.5374 -87.8263 58.5783C-87.6616 60.5407 -87.291 62.8563 -86.7145 65.5252C-86.0556 68.1941 -85.1909 70.392 -84.1202 72.1189C-83.0496 73.8458 -81.4848 75.3373 -79.4258 76.5932C-77.3669 77.7707 -74.8962 78.3594 -72.0137 78.3594C-61.2248 78.3594 -55.8304 69.4108 -55.8304 51.5136C-55.8304 33.5379 -61.2248 24.5501 -72.0137 24.5501Z" fill="#3D5D8C"/>
<path d="M-1.80067 20.5468C7.01157 20.5468 14.1355 23.5689 19.5711 29.6131C25.0067 35.6573 27.7245 42.9575 27.7245 51.5136C27.7245 59.9912 24.9655 67.2521 19.4476 73.2964C14.012 79.2621 6.92922 82.245 -1.80067 82.245C-10.6953 82.245 -17.8192 79.3013 -23.1724 73.4141C-28.4433 67.5269 -31.0788 60.2267 -31.0788 51.5136C-31.0788 42.8005 -28.4433 35.4611 -23.1724 29.4953C-17.9016 23.5296 -10.7776 20.5468 -1.80067 20.5468ZM-1.80067 24.5501C-5.34205 24.5501 -8.26574 25.4135 -10.5717 27.1405C-12.8778 28.7889 -14.5249 31.1438 -15.5132 34.2051C-16.4191 37.2665 -17.0368 40.0531 -17.3662 42.565C-17.6133 45.0769 -17.7368 48.0598 -17.7368 51.5136C-17.7368 54.1825 -17.6957 56.5374 -17.6133 58.5783C-17.4486 60.5407 -17.078 62.8563 -16.5015 65.5252C-15.8426 68.1941 -14.9779 70.392 -13.9072 72.1189C-12.8366 73.8458 -11.2718 75.3373 -9.21285 76.5932C-7.15392 77.7707 -4.68319 78.3594 -1.80067 78.3594C8.98816 78.3594 14.3826 69.4108 14.3826 51.5136C14.3826 33.5379 8.98816 24.5501 -1.80067 24.5501Z" fill="#3D5D8C"/>
<path d="M218.353 42.0662C218.353 42.8284 219.195 42.2455 219.75 42.0662C222.069 41.3169 224.94 41.264 227.389 41.1C232.746 40.7414 238.391 40.9488 243.707 41.6594C244.649 41.7852 250.015 42.3443 249.92 43.8968C249.868 44.7409 247.388 45.6101 246.65 45.9563C244.211 47.1003 241.363 47.7081 238.833 48.715C235.82 49.9137 232.916 52.0571 229.737 52.8339C229.444 52.9056 231.614 53.7594 231.878 53.8764C233.892 54.7725 235.761 55.9992 237.659 57.0673C240.172 58.4819 242.225 60.1116 244.421 61.86C245.499 62.7191 247.402 63.6438 247.78 64.9365C248.129 66.1313 247.032 66.0934 245.744 66.0934C243.326 66.0934 240.862 66.3625 238.446 66.5002C234.386 66.7318 229.898 66.8191 225.903 66.0426C225.708 66.0046 223.865 65.2734 224.774 66.0934C226.111 67.3011 227.702 68.2601 228.994 69.5259C230.77 71.2656 232.011 73.3679 233.661 75.1958C235.116 76.8076 235.834 78.1216 236.544 80.0521C236.668 80.3894 237.305 82.0911 236.812 82.2896C236.405 82.4531 234.915 81.2833 234.523 81.0818C232.076 79.8259 229.046 79.3451 226.512 78.2215C223.935 77.0781 220.987 76.7165 218.353 75.5899C217.017 75.0182 215.707 74.6587 214.341 74.2042C213.481 73.9181 212.771 73.1872 211.799 73.1872C211.149 73.1872 208.145 72.6566 207.92 72.2719" stroke="#3D5D8C" stroke-width="3" stroke-linecap="round"/>
<path d="M97.9757 40.7118C97.9144 41.4638 97.1515 40.8404 96.6324 40.6317C94.4631 39.7595 91.7068 39.5427 89.365 39.2405C84.2428 38.5796 78.7982 38.4607 73.6294 38.857C72.7142 38.9272 67.5093 39.1712 67.4763 40.7086C67.4584 41.5444 69.7728 42.5442 70.4546 42.9281C72.7075 44.1966 75.397 44.9596 77.7494 46.0981C80.5502 47.4536 83.1701 49.7349 86.1639 50.6836C86.4398 50.7711 84.2846 51.4891 84.0223 51.5895C82.0131 52.3582 80.1176 53.4615 78.2069 54.4066C75.6762 55.6582 73.5711 57.1486 71.3196 58.7479C70.2134 59.5336 68.3099 60.337 67.8427 61.5909C67.411 62.7497 68.4686 62.7752 69.7075 62.8491C72.0319 62.9876 74.38 63.3944 76.6912 63.6687C80.5765 64.1299 84.8857 64.4734 88.7889 63.9362C88.9798 63.9099 90.81 63.2941 89.8709 64.0511C88.4877 65.166 86.8807 66.0211 85.5365 67.1959C83.689 68.8107 82.3271 70.8139 80.5937 72.5228C79.0651 74.0298 78.2693 75.2851 77.431 77.1492C77.2845 77.4749 76.5357 79.1174 76.9939 79.3416C77.3713 79.5262 78.8981 78.4574 79.2917 78.2811C81.7455 77.1822 84.6977 76.8815 87.224 75.918C89.7946 74.9376 92.6575 74.7498 95.2808 73.7892C96.612 73.3017 97.9004 73.022 99.2505 72.6519C100.101 72.4189 100.842 71.7384 101.776 71.7941C102.401 71.8314 105.332 71.4801 105.579 71.1133" stroke="#3D5D8C" stroke-width="3" stroke-linecap="round"/>
<path d="M153.735 53.7541C152.758 60.9212 149.543 66.8713 144.09 71.6043C138.636 76.3373 131.677 78.7038 123.212 78.7038C113.77 78.7038 106.851 75.7288 102.456 69.7787C98.0602 63.8963 96.595 55.4782 98.0602 44.5247C98.8741 38.9127 100.014 34.0106 101.479 29.8185C102.944 25.6264 105.06 21.671 107.828 17.9522C110.677 14.2334 114.502 11.2921 119.305 9.12846C124.107 6.96479 129.886 5.68011 136.642 5.27442C140.386 5.07158 144.253 4.97016 148.241 4.97016C150.683 4.83493 152.596 4.42924 153.979 3.7531C155.445 3.07695 156.381 1.85989 156.788 0.101909H160.45C159.799 3.95594 158.619 6.96479 156.91 9.12846C155.282 11.2245 152.514 12.6444 148.607 13.3882C147.061 13.6586 142.706 14.0643 135.543 14.6052C126.915 15.1462 120.322 16.5999 115.764 18.9664C111.206 21.3329 107.746 25.6264 105.386 31.847C103.921 35.701 102.781 40.1974 101.967 45.3361H102.944C104.409 39.8593 107.421 35.5996 111.979 32.5569C116.619 29.5143 122.316 27.9929 129.072 27.9929C136.968 27.9929 143.316 30.427 148.119 35.2953C152.84 40.2312 154.712 46.3841 153.735 53.7541ZM110.27 52.537C109.456 60.1775 110.148 65.8909 112.345 69.6773C114.543 73.4637 118.287 75.3569 123.578 75.3569C126.834 75.3569 129.601 74.7146 131.88 73.4299C134.159 72.1452 135.869 70.2858 137.008 67.8517C138.148 65.4176 138.962 63.1863 139.45 61.1579C139.939 59.1294 140.346 56.6953 140.671 53.8555C141.566 46.2827 140.997 40.6707 138.962 37.0195C136.927 33.3007 133.345 31.4413 128.217 31.4413C124.962 31.4413 122.153 32.0836 119.793 33.3683C117.432 34.653 115.642 36.4447 114.421 38.7436C113.2 40.9749 112.264 43.1724 111.613 45.3361C111.043 47.4321 110.595 49.8324 110.27 52.537Z" fill="#7A0005"/>
<path d="M221.721 46.1474C218.546 67.8517 207.843 78.7038 189.61 78.7038C181.633 78.7038 175.162 76.0331 170.197 70.6915C165.15 65.2824 163.156 58.8252 164.214 51.32C165.272 44.2204 168.406 38.1689 173.616 33.1654C178.906 28.0943 185.662 25.5588 193.883 25.5588C202.918 25.5588 208.535 28.9057 210.732 35.5996C211.221 24.5784 210.081 16.4984 207.314 11.3597C204.546 6.22103 199.988 3.65168 193.639 3.65168C187.86 3.65168 182.976 5.30823 178.988 8.62135L176.79 6.39007C182.162 2.13035 188.348 0.000488281 195.348 0.000488281C205.442 0.000488281 212.889 4.2264 217.692 12.6782C222.413 21.1977 223.756 32.3541 221.721 46.1474ZM177.278 51.32C176.057 59.0956 176.546 65.0457 178.744 69.1702C180.778 73.2947 184.523 75.3569 189.976 75.3569C192.988 75.3569 195.633 74.6132 197.912 73.1256C200.191 71.5705 201.982 69.5083 203.285 66.9389C204.587 64.3696 205.564 61.9692 206.215 59.738C206.866 57.4391 207.354 55.0726 207.68 52.6384C208.738 44.998 208.168 39.1155 205.971 34.991C203.61 31.0018 199.784 29.0071 194.494 29.0071C191.319 29.0071 188.592 29.7171 186.313 31.137C184.116 32.5569 182.406 34.5853 181.185 37.2223C180.046 39.7917 179.191 42.0906 178.621 44.119C178.133 46.0798 177.685 48.4801 177.278 51.32Z" fill="#7A0005"/>
<path d="M404.354 24.5C401.5 23.5 402.236 23.0152 401.985 22.5C401.565 21.6374 401.947 16.8906 401.985 15.9858C402.088 13.5174 403.053 11.6937 404.354 9.62942C405.699 7.49701 407.542 4.90483 410.132 4.26576C413.207 3.50706 419.654 3.04593 421.61 6.10679C423.33 8.79875 422.784 14.3177 421.904 17.2302C421.645 18.0868 420.407 19.4661 420.953 17.8917C421.254 17.0239 422.223 16.516 422.996 16.0757C425.836 14.4597 428.741 14.0524 432.002 14.3236C435.748 14.6351 438.931 16.5763 440.078 20.087C441.007 22.9297 439.844 27.1367 437.686 29.2156C437.15 29.7318 433.225 31.9632 432.39 31.3317C431.929 30.9838 435.3 29.9699 435.487 29.9429C438.69 29.4813 441.837 29.869 444.345 31.8981C446.703 33.8069 447.576 36 447.794 38.9285C447.962 41.1851 448.528 43.3835 447.482 45.5098C445.741 49.0459 442.114 51.5886 437.94 51.5809C434.036 51.5736 426.4 49.3245 422.996 48.0001" stroke="#7A0005" stroke-width="5" stroke-linecap="round"/>
<path d="M300 47.5C306.709 46.3246 299.429 49.2791 299 49.6739C298.282 50.3349 290.926 52.9111 290.016 53.1733C287.536 53.8886 285.412 53.6173 282.939 53.1212C280.385 52.6087 277.212 51.7971 275.73 49.6739C273.971 47.1534 271.403 41.4979 273.797 38.7345C275.902 36.3042 281.552 34.9883 284.728 34.8276C285.662 34.7803 287.435 35.4435 285.695 35.4673C284.736 35.4803 283.915 34.7743 283.226 34.2218C280.694 32.1935 279.339 29.7108 278.54 26.685C277.622 23.2096 278.504 19.707 281.609 17.5245C284.123 15.7573 288.674 15.4274 291.442 16.6898C292.129 17.0032 295.626 19.8073 295.274 20.7669C295.08 21.2957 292.971 18.5922 292.883 18.4323C291.376 15.6989 290.73 12.7375 291.921 9.81505C293.04 7.06581 294.929 5.56194 297.761 4.40645C299.943 3.51608 301.937 2.28644 304.387 2.53268C308.463 2.94218 312.171 5.37664 313.53 9.13819C314.801 12.6557 314.698 21.0006 314.5 24.5" stroke="#7A0005" stroke-width="5" stroke-linecap="round"/>
<path d="M324.763 20.5468C333.575 20.5468 340.699 23.5689 346.135 29.6131C351.571 35.6573 354.288 42.9575 354.288 51.5136C354.288 59.9912 351.529 67.2521 346.011 73.2964C340.576 79.2621 333.493 82.245 324.763 82.245C315.869 82.245 308.745 79.3013 303.391 73.4141C298.121 67.5269 295.485 60.2267 295.485 51.5136C295.485 42.8005 298.121 35.4611 303.391 29.4953C308.662 23.5296 315.786 20.5468 324.763 20.5468ZM324.763 24.5501C321.222 24.5501 318.298 25.4135 315.992 27.1405C313.686 28.7889 312.039 31.1438 311.051 34.2051C310.145 37.2665 309.527 40.0531 309.198 42.565C308.951 45.0769 308.827 48.0598 308.827 51.5136C308.827 54.1825 308.868 56.5374 308.951 58.5783C309.115 60.5407 309.486 62.8563 310.062 65.5252C310.721 68.1941 311.586 70.392 312.657 72.1189C313.727 73.8458 315.292 75.3373 317.351 76.5932C319.41 77.7707 321.881 78.3594 324.763 78.3594C335.552 78.3594 340.946 69.4108 340.946 51.5136C340.946 33.5379 335.552 24.5501 324.763 24.5501Z" fill="#3D5D8C"/>
<path d="M394.976 20.5468C403.788 20.5468 410.912 23.5689 416.348 29.6131C421.784 35.6573 424.501 42.9575 424.501 51.5136C424.501 59.9912 421.742 67.2521 416.224 73.2964C410.789 79.2621 403.706 82.245 394.976 82.245C386.082 82.245 378.958 79.3013 373.604 73.4141C368.334 67.5269 365.698 60.2267 365.698 51.5136C365.698 42.8005 368.334 35.4611 373.604 29.4953C378.875 23.5296 385.999 20.5468 394.976 20.5468ZM394.976 24.5501C391.435 24.5501 388.511 25.4135 386.205 27.1405C383.899 28.7889 382.252 31.1438 381.264 34.2051C380.358 37.2665 379.74 40.0531 379.411 42.565C379.164 45.0769 379.04 48.0598 379.04 51.5136C379.04 54.1825 379.081 56.5374 379.164 58.5783C379.328 60.5407 379.699 62.8563 380.275 65.5252C380.934 68.1941 381.799 70.392 382.87 72.1189C383.94 73.8458 385.505 75.3373 387.564 76.5932C389.623 77.7707 392.094 78.3594 394.976 78.3594C405.765 78.3594 411.159 69.4108 411.159 51.5136C411.159 33.5379 405.765 24.5501 394.976 24.5501Z" fill="#3D5D8C"/>
<path d="M615.132 42.0662C615.132 42.8284 615.974 42.2455 616.529 42.0662C618.847 41.3169 621.719 41.264 624.168 41.1C629.525 40.7414 635.17 40.9488 640.486 41.6594C641.427 41.7852 646.794 42.3443 646.698 43.8968C646.646 44.7409 644.167 45.6101 643.429 45.9563C640.99 47.1003 638.142 47.7081 635.611 48.715C632.598 49.9137 629.694 52.0571 626.516 52.8339C626.223 52.9056 628.393 53.7594 628.656 53.8764C630.671 54.7725 632.539 55.9992 634.437 57.0673C636.951 58.4819 639.004 60.1116 641.199 61.86C642.278 62.7191 644.18 63.6438 644.558 64.9365C644.907 66.1313 643.81 66.0934 642.522 66.0934C640.105 66.0934 637.64 66.3625 635.225 66.5002C631.165 66.7318 626.676 66.8191 622.682 66.0426C622.486 66.0046 620.644 65.2734 621.552 66.0934C622.89 67.3011 624.481 68.2601 625.773 69.5259C627.549 71.2656 628.789 73.3679 630.439 75.1958C631.894 76.8076 632.612 78.1216 633.323 80.0521C633.447 80.3894 634.083 82.0911 633.59 82.2896C633.184 82.4531 631.694 81.2833 631.301 81.0818C628.854 79.8259 625.824 79.3451 623.291 78.2215C620.713 77.0781 617.766 76.7165 615.132 75.5899C613.795 75.0182 612.485 74.6587 611.119 74.2042C610.259 73.9181 609.549 73.1872 608.578 73.1872C607.928 73.1872 604.924 72.6566 604.699 72.2719" stroke="#3D5D8C" stroke-width="3" stroke-linecap="round"/>
<path d="M494.754 40.7118C494.693 41.4638 493.93 40.8404 493.411 40.6317C491.242 39.7595 488.485 39.5427 486.143 39.2405C481.021 38.5796 475.577 38.4607 470.408 38.857C469.493 38.9272 464.288 39.1712 464.255 40.7086C464.237 41.5444 466.551 42.5442 467.233 42.9281C469.486 44.1966 472.175 44.9596 474.528 46.0981C477.329 47.4536 479.949 49.7349 482.942 50.6836C483.218 50.7711 481.063 51.4891 480.801 51.5895C478.792 52.3582 476.896 53.4615 474.985 54.4066C472.455 55.6582 470.35 57.1486 468.098 58.7479C466.992 59.5336 465.088 60.337 464.621 61.5909C464.189 62.7497 465.247 62.7752 466.486 62.8491C468.81 62.9876 471.158 63.3944 473.47 63.6687C477.355 64.1299 481.664 64.4734 485.567 63.9362C485.758 63.9099 487.588 63.2941 486.649 64.0511C485.266 65.166 483.659 66.0211 482.315 67.1959C480.467 68.8107 479.106 70.8139 477.372 72.5228C475.844 74.0298 475.048 75.2851 474.209 77.1492C474.063 77.4749 473.314 79.1174 473.772 79.3416C474.15 79.5262 475.677 78.4574 476.07 78.2811C478.524 77.1822 481.476 76.8815 484.002 75.918C486.573 74.9376 489.436 74.7498 492.059 73.7892C493.391 73.3017 494.679 73.022 496.029 72.6519C496.879 72.4189 497.62 71.7384 498.554 71.7941C499.179 71.8314 502.11 71.4801 502.358 71.1133" stroke="#3D5D8C" stroke-width="3" stroke-linecap="round"/>
<path d="M550.512 53.7541C549.535 60.9212 546.32 66.8713 540.867 71.6043C535.413 76.3373 528.454 78.7038 519.989 78.7038C510.547 78.7038 503.628 75.7288 499.232 69.7787C494.837 63.8963 493.372 55.4782 494.837 44.5247C495.651 38.9127 496.791 34.0106 498.256 29.8185C499.721 25.6264 501.837 21.671 504.605 17.9522C507.453 14.2334 511.279 11.2921 516.081 9.12846C520.884 6.96479 526.663 5.68011 533.419 5.27442C537.163 5.07158 541.029 4.97016 545.018 4.97016C547.46 4.83493 549.373 4.42924 550.756 3.7531C552.221 3.07695 553.157 1.85989 553.564 0.101909H557.227C556.576 3.95594 555.396 6.96479 553.687 9.12846C552.059 11.2245 549.291 12.6444 545.384 13.3882C543.838 13.6586 539.483 14.0643 532.32 14.6052C523.692 15.1462 517.099 16.5999 512.541 18.9664C507.983 21.3329 504.523 25.6264 502.163 31.847C500.698 35.701 499.558 40.1974 498.744 45.3361H499.721C501.186 39.8593 504.198 35.5996 508.756 32.5569C513.395 29.5143 519.093 27.9929 525.849 27.9929C533.744 27.9929 540.093 30.427 544.896 35.2953C549.617 40.2312 551.489 46.3841 550.512 53.7541ZM507.047 52.537C506.233 60.1775 506.924 65.8909 509.122 69.6773C511.32 73.4637 515.064 75.3569 520.355 75.3569C523.611 75.3569 526.378 74.7146 528.657 73.4299C530.936 72.1452 532.646 70.2858 533.785 67.8517C534.925 65.4176 535.739 63.1863 536.227 61.1579C536.715 59.1294 537.122 56.6953 537.448 53.8555C538.343 46.2827 537.774 40.6707 535.739 37.0195C533.704 33.3007 530.122 31.4413 524.994 31.4413C521.739 31.4413 518.93 32.0836 516.57 33.3683C514.209 34.653 512.419 36.4447 511.198 38.7436C509.977 40.9749 509.041 43.1724 508.39 45.3361C507.82 47.4321 507.372 49.8324 507.047 52.537Z" fill="#7A0005"/>
<path d="M618.498 46.1474C615.323 67.8517 604.62 78.7038 586.387 78.7038C578.41 78.7038 571.939 76.0331 566.974 70.6915C561.927 65.2824 559.933 58.8252 560.991 51.32C562.049 44.2204 565.183 38.1689 570.393 33.1654C575.683 28.0943 582.439 25.5588 590.66 25.5588C599.695 25.5588 605.311 28.9057 607.509 35.5996C607.998 24.5784 606.858 16.4984 604.091 11.3597C601.323 6.22103 596.765 3.65168 590.416 3.65168C584.637 3.65168 579.753 5.30823 575.765 8.62135L573.567 6.39007C578.939 2.13035 585.125 0.000488281 592.125 0.000488281C602.218 0.000488281 609.666 4.2264 614.469 12.6782C619.19 21.1977 620.533 32.3541 618.498 46.1474ZM574.055 51.32C572.834 59.0956 573.323 65.0457 575.52 69.1702C577.555 73.2947 581.3 75.3569 586.753 75.3569C589.765 75.3569 592.41 74.6132 594.689 73.1256C596.968 71.5705 598.759 69.5083 600.061 66.9389C601.364 64.3696 602.341 61.9692 602.992 59.738C603.643 57.4391 604.131 55.0726 604.457 52.6384C605.515 44.998 604.945 39.1155 602.748 34.991C600.387 31.0018 596.561 29.0071 591.271 29.0071C588.096 29.0071 585.369 29.7171 583.09 31.137C580.893 32.5569 579.183 34.5853 577.962 37.2223C576.823 39.7917 575.968 42.0906 575.398 44.119C574.91 46.0798 574.462 48.4801 574.055 51.32Z" fill="#7A0005"/>
<path d="M798.76 23C796.391 23 799.011 22.5152 798.76 22C798.34 21.1374 798.722 16.8906 798.76 15.9858C798.863 13.5174 799.828 11.6937 801.129 9.62943C802.474 7.49702 804.317 4.90484 806.907 4.26577C809.982 3.50708 816.429 3.04594 818.385 6.1068C820.105 8.79877 819.559 14.3177 818.679 17.2302C818.42 18.0868 817.182 19.4661 817.728 17.8917C818.029 17.0239 818.998 16.516 819.771 16.0757C822.611 14.4597 825.516 14.0524 828.777 14.3236C832.523 14.6351 835.706 16.5763 836.853 20.0871C837.782 22.9297 836.619 27.1367 834.461 29.2156C833.925 29.7319 830 31.9632 829.165 31.3318C828.704 30.9838 832.074 29.9699 832.262 29.9429C835.465 29.4813 838.612 29.869 841.12 31.8981C843.478 33.8069 844.351 36.0001 844.569 38.9286C844.737 41.1851 845.303 43.3835 844.257 45.5099C842.516 49.0459 838.889 51.5886 834.715 51.5809C830.811 51.5736 823.904 49.8244 820.5 48.5" stroke="#7A0005" stroke-width="5" stroke-linecap="round"/>
<path d="M698.5 45.5C706.434 42.6507 696.429 49.1052 696 49.5C695.282 50.161 687.701 52.911 686.791 53.1732C684.311 53.8886 682.187 53.6172 679.714 53.1211C677.16 52.6087 673.987 51.797 672.505 49.6739C670.746 47.1533 668.178 41.4979 670.572 38.7345C672.677 36.3042 678.327 34.9882 681.503 34.8276C682.437 34.7803 684.21 35.4435 682.47 35.4672C681.511 35.4803 680.69 34.7743 680.001 34.2217C677.469 32.1934 676.114 29.7107 675.315 26.685C674.397 23.2095 675.279 19.707 678.384 17.5245C680.898 15.7573 685.449 15.4274 688.217 16.6897C688.904 17.0032 692.401 19.8073 692.049 20.7669C691.855 21.2956 689.746 18.5922 689.658 18.4322C688.151 15.6988 687.505 12.7375 688.696 9.81501C689.815 7.06578 691.704 5.56191 694.536 4.40641C696.718 3.51604 698.712 2.28641 701.162 2.53265C705.238 2.94214 708.946 5.37661 710.305 9.13815C711.576 12.6557 711.198 19.0006 711 22.5" stroke="#7A0005" stroke-width="5" stroke-linecap="round"/>
<path d="M721.538 20.5468C730.35 20.5468 737.474 23.5689 742.91 29.6131C748.346 35.6573 751.063 42.9575 751.063 51.5136C751.063 59.9912 748.304 67.2521 742.786 73.2964C737.351 79.2621 730.268 82.245 721.538 82.245C712.644 82.245 705.52 79.3013 700.166 73.4141C694.896 67.5269 692.26 60.2267 692.26 51.5136C692.26 42.8005 694.896 35.4611 700.166 29.4953C705.437 23.5296 712.561 20.5468 721.538 20.5468ZM721.538 24.5501C717.997 24.5501 715.073 25.4135 712.767 27.1405C710.461 28.7889 708.814 31.1438 707.826 34.2051C706.92 37.2665 706.302 40.0531 705.973 42.565C705.726 45.0769 705.602 48.0598 705.602 51.5136C705.602 54.1825 705.643 56.5374 705.726 58.5783C705.89 60.5407 706.261 62.8563 706.837 65.5252C707.496 68.1941 708.361 70.392 709.432 72.1189C710.502 73.8458 712.067 75.3373 714.126 76.5932C716.185 77.7707 718.656 78.3594 721.538 78.3594C732.327 78.3594 737.721 69.4108 737.721 51.5136C737.721 33.5379 732.327 24.5501 721.538 24.5501Z" fill="#3D5D8C"/>
<path d="M791.751 20.5468C800.563 20.5468 807.687 23.5689 813.123 29.6131C818.559 35.6573 821.276 42.9575 821.276 51.5136C821.276 59.9912 818.517 67.2521 812.999 73.2964C807.564 79.2621 800.481 82.245 791.751 82.245C782.857 82.245 775.733 79.3013 770.379 73.4141C765.109 67.5269 762.473 60.2267 762.473 51.5136C762.473 42.8005 765.109 35.4611 770.379 29.4953C775.65 23.5296 782.774 20.5468 791.751 20.5468ZM791.751 24.5501C788.21 24.5501 785.286 25.4135 782.98 27.1405C780.674 28.7889 779.027 31.1438 778.039 34.2051C777.133 37.2665 776.515 40.0531 776.186 42.565C775.939 45.0769 775.815 48.0598 775.815 51.5136C775.815 54.1825 775.856 56.5374 775.939 58.5783C776.103 60.5407 776.474 62.8563 777.05 65.5252C777.709 68.1941 778.574 70.392 779.645 72.1189C780.715 73.8458 782.28 75.3373 784.339 76.5932C786.398 77.7707 788.869 78.3594 791.751 78.3594C802.54 78.3594 807.934 69.4108 807.934 51.5136C807.934 33.5379 802.54 24.5501 791.751 24.5501Z" fill="#3D5D8C"/>
<path d="M1011.91 42.0662C1011.91 42.8284 1012.75 42.2455 1013.31 42.0662C1015.63 41.3169 1018.5 41.264 1020.95 41.1C1026.3 40.7414 1031.95 40.9488 1037.26 41.6594C1038.21 41.7852 1043.57 42.3443 1043.48 43.8968C1043.42 44.7409 1040.94 45.6101 1040.21 45.9563C1037.77 47.1003 1034.92 47.7081 1032.39 48.715C1029.38 49.9137 1026.47 52.0571 1023.29 52.8339C1023 52.9056 1025.17 53.7594 1025.43 53.8764C1027.45 54.7725 1029.32 55.9992 1031.22 57.0673C1033.73 58.4819 1035.78 60.1116 1037.98 61.86C1039.06 62.7191 1040.96 63.6438 1041.34 64.9365C1041.69 66.1313 1040.59 66.0934 1039.3 66.0934C1036.88 66.0934 1034.42 66.3625 1032 66.5002C1027.94 66.7318 1023.45 66.8191 1019.46 66.0426C1019.26 66.0046 1017.42 65.2734 1018.33 66.0934C1019.67 67.3011 1021.26 68.2601 1022.55 69.5259C1024.33 71.2656 1025.57 73.3679 1027.22 75.1958C1028.67 76.8076 1029.39 78.1216 1030.1 80.0521C1030.23 80.3894 1030.86 82.0911 1030.37 82.2896C1029.96 82.4531 1028.47 81.2833 1028.08 81.0818C1025.63 79.8259 1022.6 79.3451 1020.07 78.2215C1017.49 77.0781 1014.54 76.7165 1011.91 75.5899C1010.57 75.0182 1009.26 74.6587 1007.9 74.2042C1007.04 73.9181 1006.33 73.1872 1005.36 73.1872C1004.71 73.1872 1001.7 72.6566 1001.48 72.2719" stroke="#3D5D8C" stroke-width="3" stroke-linecap="round"/>
<path d="M891.533 40.7118C891.471 41.4638 890.708 40.8404 890.189 40.6317C888.02 39.7595 885.264 39.5427 882.922 39.2405C877.8 38.5796 872.355 38.4607 867.186 38.857C866.271 38.9272 861.066 39.1712 861.033 40.7086C861.015 41.5444 863.33 42.5442 864.011 42.9281C866.264 44.1966 868.954 44.9596 871.306 46.0981C874.107 47.4536 876.727 49.7349 879.721 50.6836C879.997 50.7711 877.841 51.4891 877.579 51.5895C875.57 52.3582 873.675 53.4615 871.764 54.4066C869.233 55.6582 867.128 57.1486 864.876 58.7479C863.77 59.5336 861.867 60.337 861.4 61.5909C860.968 62.7497 862.026 62.7752 863.264 62.8491C865.589 62.9876 867.937 63.3944 870.248 63.6687C874.133 64.1299 878.443 64.4734 882.346 63.9362C882.537 63.9099 884.367 63.2941 883.428 64.0511C882.045 65.166 880.438 66.0211 879.093 67.1959C877.246 68.8107 875.884 70.8139 874.151 72.5228C872.622 74.0298 871.826 75.2851 870.988 77.1492C870.841 77.4749 870.093 79.1174 870.551 79.3416C870.928 79.5262 872.455 78.4574 872.849 78.2811C875.302 77.1822 878.255 76.8815 880.781 75.918C883.351 74.9376 886.214 74.7498 888.838 73.7892C890.169 73.3017 891.457 73.022 892.807 72.6519C893.657 72.4189 894.399 71.7384 895.333 71.7941C895.958 71.8314 898.889 71.4801 899.136 71.1133" stroke="#3D5D8C" stroke-width="3" stroke-linecap="round"/>
<path d="M947.289 53.7541C946.312 60.9212 943.097 66.8713 937.644 71.6043C932.19 76.3373 925.231 78.7038 916.765 78.7038C907.323 78.7038 900.405 75.7288 896.009 69.7787C891.614 63.8963 890.149 55.4782 891.614 44.5247C892.428 38.9127 893.567 34.0106 895.033 29.8185C896.498 25.6264 898.614 21.671 901.381 17.9522C904.23 14.2334 908.056 11.2921 912.858 9.12846C917.661 6.96479 923.44 5.68011 930.196 5.27442C933.94 5.07158 937.806 4.97016 941.795 4.97016C944.237 4.83493 946.149 4.42924 947.533 3.7531C948.998 3.07695 949.934 1.85989 950.341 0.101909H954.004C953.353 3.95594 952.173 6.96479 950.463 9.12846C948.835 11.2245 946.068 12.6444 942.161 13.3882C940.614 13.6586 936.26 14.0643 929.097 14.6052C920.469 15.1462 913.876 16.5999 909.318 18.9664C904.759 21.3329 901.3 25.6264 898.94 31.847C897.474 35.701 896.335 40.1974 895.521 45.3361H896.498C897.963 39.8593 900.975 35.5996 905.533 32.5569C910.172 29.5143 915.87 27.9929 922.626 27.9929C930.521 27.9929 936.87 30.427 941.673 35.2953C946.394 40.2312 948.266 46.3841 947.289 53.7541ZM903.823 52.537C903.009 60.1775 903.701 65.8909 905.899 69.6773C908.097 73.4637 911.841 75.3569 917.132 75.3569C920.388 75.3569 923.155 74.7146 925.434 73.4299C927.713 72.1452 929.422 70.2858 930.562 67.8517C931.702 65.4176 932.516 63.1863 933.004 61.1579C933.492 59.1294 933.899 56.6953 934.225 53.8555C935.12 46.2827 934.55 40.6707 932.516 37.0195C930.481 33.3007 926.899 31.4413 921.771 31.4413C918.515 31.4413 915.707 32.0836 913.347 33.3683C910.986 34.653 909.196 36.4447 907.975 38.7436C906.754 40.9749 905.818 43.1724 905.166 45.3361C904.597 47.4321 904.149 49.8324 903.823 52.537Z" fill="#7A0005"/>
<path d="M1015.27 46.1474C1012.1 67.8517 1001.4 78.7038 983.164 78.7038C975.187 78.7038 968.716 76.0331 963.751 70.6915C958.704 65.2824 956.71 58.8252 957.768 51.32C958.826 44.2204 961.96 38.1689 967.169 33.1654C972.46 28.0943 979.216 25.5588 987.437 25.5588C996.472 25.5588 1002.09 28.9057 1004.29 35.5996C1004.77 24.5784 1003.63 16.4984 1000.87 11.3597C998.1 6.22103 993.542 3.65168 987.193 3.65168C981.414 3.65168 976.53 5.30823 972.542 8.62135L970.344 6.39007C975.716 2.13035 981.902 0.000488281 988.902 0.000488281C998.995 0.000488281 1006.44 4.2264 1011.25 12.6782C1015.97 21.1977 1017.31 32.3541 1015.27 46.1474ZM970.832 51.32C969.611 59.0956 970.1 65.0457 972.297 69.1702C974.332 73.2947 978.076 75.3569 983.53 75.3569C986.542 75.3569 989.187 74.6132 991.466 73.1256C993.745 71.5705 995.536 69.5083 996.838 66.9389C998.141 64.3696 999.117 61.9692 999.769 59.738C1000.42 57.4391 1000.91 55.0726 1001.23 52.6384C1002.29 44.998 1001.72 39.1155 999.524 34.991C997.164 31.0018 993.338 29.0071 988.047 29.0071C984.873 29.0071 982.146 29.7171 979.867 31.137C977.669 32.5569 975.96 34.5853 974.739 37.2223C973.6 39.7917 972.745 42.0906 972.175 44.119C971.687 46.0798 971.239 48.4801 970.832 51.32Z" fill="#7A0005"/>
<path d="M1197.91 24.5C1195.94 23.5 1195.79 22.5152 1195.54 22C1195.12 21.1374 1195.5 16.8906 1195.54 15.9858C1195.64 13.5174 1196.61 11.6937 1197.91 9.62942C1199.25 7.49701 1201.09 4.90483 1203.68 4.26576C1206.76 3.50706 1213.21 3.04593 1215.16 6.10679C1216.88 8.79875 1216.34 14.3177 1215.46 17.2302C1215.2 18.0868 1213.96 19.4661 1214.51 17.8917C1214.81 17.0239 1215.77 16.516 1216.55 16.0757C1219.39 14.4597 1222.29 14.0524 1225.55 14.3236C1229.3 14.6351 1232.48 16.5763 1233.63 20.087C1234.56 22.9297 1233.4 27.1367 1231.24 29.2156C1230.7 29.7319 1226.78 31.9632 1225.94 31.3317C1225.48 30.9838 1228.85 29.9699 1229.04 29.9429C1232.24 29.4813 1235.39 29.869 1237.9 31.8981C1240.26 33.8069 1241.13 36 1241.35 38.9286C1241.51 41.1851 1242.08 43.3835 1241.03 45.5098C1239.29 49.0459 1235.67 51.5886 1231.49 51.5809C1227.59 51.5736 1220.9 50.3245 1217.5 49" stroke="#7A0005" stroke-width="5" stroke-linecap="round"/>
<path d="M1093 48C1098.16 46.1507 1092.43 50.1052 1092 50.5C1091.28 51.161 1084.48 52.9111 1083.57 53.1733C1081.09 53.8886 1078.96 53.6173 1076.49 53.1212C1073.94 52.6087 1070.76 51.7971 1069.28 49.6739C1067.52 47.1534 1064.96 41.4979 1067.35 38.7346C1069.45 36.3042 1075.1 34.9883 1078.28 34.8276C1079.21 34.7804 1080.99 35.4435 1079.25 35.4673C1078.29 35.4804 1077.47 34.7744 1076.78 34.2218C1074.25 32.1935 1072.89 29.7108 1072.09 26.685C1071.17 23.2096 1072.06 19.7071 1075.16 17.5245C1077.67 15.7573 1082.23 15.4275 1084.99 16.6898C1085.68 17.0033 1089.18 19.8073 1088.83 20.7669C1088.63 21.2957 1086.52 18.5922 1086.44 18.4323C1084.93 15.6989 1084.28 12.7376 1085.47 9.81507C1086.59 7.06583 1088.48 5.56196 1091.31 4.40647C1093.49 3.5161 1095.49 2.28646 1097.94 2.5327C1102.01 2.9422 1105.72 5.37666 1107.08 9.13821C1108.35 12.6557 1107.28 19.5006 1107.08 23" stroke="#7A0005" stroke-width="5" stroke-linecap="round"/>
<path d="M1118.32 20.5468C1127.13 20.5468 1134.25 23.5689 1139.69 29.6131C1145.12 35.6573 1147.84 42.9575 1147.84 51.5136C1147.84 59.9912 1145.08 67.2521 1139.56 73.2964C1134.13 79.2621 1127.05 82.245 1118.32 82.245C1109.42 82.245 1102.3 79.3013 1096.94 73.4141C1091.67 67.5269 1089.04 60.2267 1089.04 51.5136C1089.04 42.8005 1091.67 35.4611 1096.94 29.4953C1102.21 23.5296 1109.34 20.5468 1118.32 20.5468ZM1118.32 24.5501C1114.77 24.5501 1111.85 25.4135 1109.54 27.1405C1107.24 28.7889 1105.59 31.1438 1104.6 34.2051C1103.7 37.2665 1103.08 40.0531 1102.75 42.565C1102.5 45.0769 1102.38 48.0598 1102.38 51.5136C1102.38 54.1825 1102.42 56.5374 1102.5 58.5783C1102.67 60.5407 1103.04 62.8563 1103.61 65.5252C1104.27 68.1941 1105.14 70.392 1106.21 72.1189C1107.28 73.8458 1108.84 75.3373 1110.9 76.5932C1112.96 77.7707 1115.43 78.3594 1118.32 78.3594C1129.1 78.3594 1134.5 69.4108 1134.5 51.5136C1134.5 33.5379 1129.1 24.5501 1118.32 24.5501Z" fill="#3D5D8C"/>
<path d="M1188.53 20.5468C1197.34 20.5468 1204.46 23.5689 1209.9 29.6131C1215.34 35.6573 1218.05 42.9575 1218.05 51.5136C1218.05 59.9912 1215.29 67.2521 1209.78 73.2964C1204.34 79.2621 1197.26 82.245 1188.53 82.245C1179.63 82.245 1172.51 79.3013 1167.16 73.4141C1161.89 67.5269 1159.25 60.2267 1159.25 51.5136C1159.25 42.8005 1161.89 35.4611 1167.16 29.4953C1172.43 23.5296 1179.55 20.5468 1188.53 20.5468ZM1188.53 24.5501C1184.99 24.5501 1182.06 25.4135 1179.76 27.1405C1177.45 28.7889 1175.8 31.1438 1174.82 34.2051C1173.91 37.2665 1173.29 40.0531 1172.96 42.565C1172.72 45.0769 1172.59 48.0598 1172.59 51.5136C1172.59 54.1825 1172.63 56.5374 1172.72 58.5783C1172.88 60.5407 1173.25 62.8563 1173.83 65.5252C1174.49 68.1941 1175.35 70.392 1176.42 72.1189C1177.49 73.8458 1179.06 75.3373 1181.12 76.5932C1183.18 77.7707 1185.65 78.3594 1188.53 78.3594C1199.32 78.3594 1204.71 69.4108 1204.71 51.5136C1204.71 33.5379 1199.32 24.5501 1188.53 24.5501Z" fill="#3D5D8C"/>
<path d="M1288.31 40.7118C1288.24 41.4638 1287.48 40.8404 1286.96 40.6317C1284.79 39.7595 1282.04 39.5427 1279.69 39.2405C1274.57 38.5796 1269.13 38.4607 1263.96 38.857C1263.04 38.9272 1257.84 39.1712 1257.81 40.7086C1257.79 41.5444 1260.1 42.5442 1260.78 42.9281C1263.04 44.1966 1265.73 44.9596 1268.08 46.0981C1270.88 47.4536 1273.5 49.7349 1276.49 50.6836C1276.77 50.7711 1274.61 51.4891 1274.35 51.5895C1272.34 52.3582 1270.45 53.4615 1268.54 54.4066C1266.01 55.6582 1263.9 57.1486 1261.65 58.7479C1260.54 59.5336 1258.64 60.337 1258.17 61.5909C1257.74 62.7497 1258.8 62.7752 1260.04 62.8491C1262.36 62.9876 1264.71 63.3944 1267.02 63.6687C1270.91 64.1299 1275.22 64.4734 1279.12 63.9362C1279.31 63.9099 1281.14 63.2941 1280.2 64.0511C1278.82 65.166 1277.21 66.0211 1275.87 67.1959C1274.02 68.8107 1272.66 70.8139 1270.92 72.5228C1269.39 74.0298 1268.6 75.2851 1267.76 77.1492C1267.61 77.4749 1266.87 79.1174 1267.32 79.3416C1267.7 79.5262 1269.23 78.4574 1269.62 78.2811C1272.07 77.1822 1275.03 76.8815 1277.55 75.918C1280.12 74.9376 1282.99 74.7498 1285.61 73.7892C1286.94 73.3017 1288.23 73.022 1289.58 72.6519C1290.43 72.4189 1291.17 71.7384 1292.11 71.7941C1292.73 71.8314 1295.66 71.4801 1295.91 71.1133" stroke="#3D5D8C" stroke-width="3" stroke-linecap="round"/>
</svg>
