<svg width="1280" height="1089" viewBox="0 0 1280 1089" fill="none" xmlns="http://www.w3.org/2000/svg">
<path fill-rule="evenodd" clip-rule="evenodd" d="M298.343 4.00172C184.505 4.4975 79.7996 111.956 79.7996 111.956L-2 285.5L79.7996 570.336L639.5 1084L1194 570.336L1279.5 284.774L1194 111.956C1194 111.956 1090.27 4.4975 977.488 4.00172C863.711 3.50157 639.5 111.956 639.5 111.956C639.5 111.956 413.187 3.50157 298.343 4.00172Z" fill="#7A0005"/>
<path d="M79.7996 111.956L77.2928 109.514L76.8837 109.934L76.6337 110.464L79.7996 111.956ZM298.343 4.00172L298.328 0.501758L298.343 4.00172ZM-2 285.5L-5.16594 284.008L-5.72773 285.2L-5.36403 286.466L-2 285.5ZM79.7996 570.336L76.4356 571.302L76.7074 572.249L77.4331 572.915L79.7996 570.336ZM639.5 1084L637.133 1086.58L639.511 1088.76L641.879 1086.57L639.5 1084ZM1194 570.336L1196.38 572.904L1197.08 572.255L1197.35 571.34L1194 570.336ZM1279.5 284.774L1282.85 285.778L1283.25 284.457L1282.64 283.222L1279.5 284.774ZM1194 111.956L1197.14 110.404L1196.9 109.917L1196.52 109.526L1194 111.956ZM977.488 4.00172L977.504 0.501758L977.488 4.00172ZM639.5 111.956L637.987 115.113L639.507 115.841L641.024 115.107L639.5 111.956ZM79.7996 111.956C82.3064 114.399 82.3061 114.399 82.3063 114.399C82.3069 114.399 82.3074 114.398 82.3086 114.397C82.3109 114.394 82.3148 114.39 82.3203 114.385C82.3313 114.374 82.3486 114.356 82.3723 114.332C82.4195 114.284 82.4918 114.21 82.589 114.112C82.7833 113.916 83.0768 113.622 83.4664 113.236C84.2457 112.464 85.4098 111.325 86.9352 109.872C89.9863 106.966 94.4818 102.802 100.235 97.7994C111.745 87.7909 128.272 74.4398 148.323 61.0775C188.517 34.2924 242.456 7.74515 298.358 7.50169L298.328 0.501758C240.392 0.754073 185.06 28.1842 144.441 55.2525C124.086 68.8169 107.321 82.3615 95.642 92.5171C89.8005 97.5964 85.2265 101.832 82.1069 104.804C80.5469 106.29 79.3502 107.461 78.5402 108.263C78.1352 108.664 77.8268 108.973 77.6179 109.184C77.5135 109.289 77.4339 109.37 77.3796 109.425C77.3525 109.453 77.3316 109.474 77.3172 109.489C77.3099 109.496 77.3043 109.502 77.3002 109.506C77.2982 109.508 77.2963 109.51 77.2953 109.511C77.2939 109.513 77.2928 109.514 79.7996 111.956ZM1.16594 286.992L82.9656 113.449L76.6337 110.464L-5.16594 284.008L1.16594 286.992ZM83.1636 569.37L1.36403 284.534L-5.36403 286.466L76.4356 571.302L83.1636 569.37ZM641.867 1081.42L82.1662 567.757L77.4331 572.915L637.133 1086.58L641.867 1081.42ZM1191.62 567.768L637.121 1081.43L641.879 1086.57L1196.38 572.904L1191.62 567.768ZM1276.15 283.77L1190.65 569.332L1197.35 571.34L1282.85 285.778L1276.15 283.77ZM1190.86 113.508L1276.36 286.326L1282.64 283.222L1197.14 110.404L1190.86 113.508ZM977.473 7.50169C1032.84 7.74507 1086.26 34.2844 1126.08 61.0691C1145.95 74.4304 1162.32 87.7807 1173.72 97.7888C1179.42 102.791 1183.88 106.955 1186.9 109.861C1188.41 111.314 1189.56 112.453 1190.33 113.225C1190.72 113.611 1191.01 113.905 1191.2 114.101C1191.3 114.199 1191.37 114.272 1191.42 114.32C1191.44 114.344 1191.46 114.362 1191.47 114.373C1191.48 114.379 1191.48 114.383 1191.48 114.385C1191.48 114.386 1191.48 114.387 1191.48 114.387C1191.48 114.388 1191.48 114.387 1194 111.956C1196.52 109.526 1196.52 109.525 1196.52 109.523C1196.52 109.522 1196.51 109.52 1196.51 109.518C1196.51 109.514 1196.5 109.508 1196.5 109.501C1196.48 109.486 1196.46 109.465 1196.43 109.437C1196.38 109.382 1196.3 109.301 1196.2 109.196C1195.99 108.985 1195.69 108.676 1195.28 108.274C1194.48 107.472 1193.3 106.301 1191.75 104.815C1188.66 101.843 1184.13 97.6073 1178.34 92.5277C1166.77 82.3717 1150.16 68.8263 1129.99 55.2609C1089.75 28.1922 1034.92 0.754156 977.504 0.501758L977.473 7.50169ZM639.5 111.956C641.024 115.107 641.025 115.107 641.026 115.106C641.028 115.105 641.03 115.104 641.033 115.103C641.039 115.1 641.049 115.095 641.062 115.089C641.089 115.076 641.129 115.057 641.182 115.031C641.289 114.98 641.448 114.903 641.661 114.801C642.085 114.597 642.718 114.295 643.549 113.899C645.212 113.109 647.668 111.947 650.836 110.469C657.173 107.512 666.357 103.286 677.736 98.2151C700.494 88.0725 732.019 74.5561 767.085 61.0579C837.414 33.986 921.331 7.2549 977.473 7.50169L977.504 0.501758C919.869 0.2484 834.792 27.4946 764.57 54.5252C729.362 68.0781 697.722 81.6442 674.886 91.8213C663.467 96.9104 654.245 101.153 647.876 104.126C644.692 105.612 642.22 106.78 640.543 107.578C639.704 107.977 639.064 108.283 638.633 108.49C638.417 108.593 638.254 108.672 638.144 108.725C638.089 108.751 638.047 108.771 638.019 108.785C638.005 108.792 637.995 108.797 637.987 108.8C637.984 108.802 637.981 108.803 637.979 108.804C637.977 108.805 637.976 108.806 639.5 111.956ZM298.358 7.50169C355.04 7.25484 439.754 33.9906 510.741 61.0618C546.137 74.5604 577.958 88.0772 600.93 98.22C612.416 103.291 621.686 107.517 628.083 110.474C631.281 111.953 633.76 113.114 635.439 113.905C636.278 114.3 636.917 114.603 637.345 114.806C637.559 114.908 637.72 114.985 637.828 115.037C637.882 115.062 637.922 115.081 637.949 115.094C637.962 115.101 637.972 115.105 637.978 115.108C637.982 115.11 637.984 115.111 637.985 115.112C637.987 115.112 637.987 115.113 639.5 111.956C641.013 108.8 641.011 108.8 641.009 108.799C641.008 108.798 641.005 108.796 641.001 108.795C640.994 108.791 640.983 108.786 640.969 108.779C640.94 108.766 640.899 108.746 640.843 108.719C640.732 108.666 640.567 108.588 640.35 108.484C639.915 108.277 639.269 107.971 638.422 107.572C636.729 106.775 634.234 105.606 631.02 104.12C624.591 101.148 615.284 96.9054 603.758 91.8164C580.708 81.6396 548.773 68.0738 513.235 54.5213C442.354 27.4901 356.489 0.24846 298.328 0.501758L298.358 7.50169Z" fill="#050505"/>
<path d="M664.621 533.002L584 667.678L751 820.696L595 1035" stroke="url(#paint0_linear_0_879)" stroke-width="15"/>
<defs>
<linearGradient id="paint0_linear_0_879" x1="667.5" y1="533.002" x2="667.5" y2="980.002" gradientUnits="userSpaceOnUse">
<stop stop-color="#7A0005"/>
<stop offset="1"/>
</linearGradient>
</defs>
</svg>
