<svg width="490" height="562" viewBox="0 0 490 562" fill="none" xmlns="http://www.w3.org/2000/svg">
<rect x="4.5" y="164.5" width="481" height="393" fill="#3D5D8C" stroke="#7A0005" stroke-width="9"/>
<path fill-rule="evenodd" clip-rule="evenodd" d="M441 186H9V262H441V261.127L343.623 222.304L441 186.356V186Z" fill="#7A0005"/>
<path fill-rule="evenodd" clip-rule="evenodd" d="M441 466H9V541H441V540.138L343.623 501.826L441 466.351V466Z" fill="#7A0005"/>
<path d="M83.4266 436.633H93.0009V446H47.9043V436.633H57.4787V308.481H47.9043V299.114H93.0009V308.481H83.4266V436.633Z" fill="#EADEC4"/>
<path d="M253.208 436.633H267.5V446H212.413V436.633H227.26V316.145H212.413V306.991C223.421 306.991 231.885 305.997 237.806 304.011C243.356 302.166 247.241 298.83 249.461 294.005L255.289 294.431C253.902 298.972 253.208 311.461 253.208 331.898V436.633Z" fill="#EADEC4"/>
<path d="M435.5 436.633V446H391.93V436.633H401.088V296.347H391.93V286.98C400.255 286.98 406.869 286.767 411.772 286.342C416.398 285.916 419.82 285.135 422.04 284L426.342 285.916V436.633H435.5Z" fill="#EADEC4"/>
<path d="M83.4266 436.633H93.0009V446H47.9043V436.633H57.4787V308.481H47.9043V299.114H93.0009V308.481H83.4266V436.633Z" fill="#EADEC4"/>
<path d="M251 466H481V541H251V466Z" fill="#7A0005"/>
<circle cx="87" cy="299" r="22.5" stroke="#050505" stroke-width="3"/>
<circle cx="257" cy="298" r="22.5" stroke="#050505" stroke-width="3"/>
<circle cx="426" cy="298" r="22.5" stroke="#050505" stroke-width="3"/>
<path d="M253.299 64.0897L290.103 25.5759L253.299 5L220.701 25.5759L241.206 111.572M241.206 111.572L135 158H339L241.206 111.572Z" stroke="#050505" stroke-width="8"/>
</svg>
