<svg width="1280" height="1547" viewBox="0 0 1280 1547" fill="none" xmlns="http://www.w3.org/2000/svg">
<path d="M471.77 1392.79C468.424 1391.54 466.129 1389.75 464.884 1387.41C463.692 1385.09 463.251 1382.05 463.561 1378.3C464.058 1374.86 464.288 1372.37 464.252 1370.85C464.162 1369.3 463.781 1368.13 463.11 1367.34C462.511 1366.51 461.495 1365.83 460.061 1365.29L459.026 1364.91L453.269 1380.36L457.809 1382.05L456.503 1385.56L432.209 1376.51L433.515 1373L438.772 1374.96L451.206 1341.59L445.949 1339.63L447.255 1336.12L471.549 1345.17L470.243 1348.68L465.703 1346.99L460.302 1361.48L462.771 1362.4C463.939 1362.84 465.1 1362.73 466.252 1362.07C467.405 1361.41 469 1359.64 471.036 1356.77C472.524 1354.73 473.735 1353.18 474.667 1352.14C478.075 1348.51 481.983 1347.52 486.39 1349.16C488.833 1350.07 490.534 1351.43 491.493 1353.24C492.525 1355.01 492.595 1357.1 491.705 1359.49C490.973 1361.45 489.839 1362.87 488.302 1363.75C486.838 1364.6 485.15 1364.66 483.238 1363.95C481.274 1363.22 479.879 1362.09 479.053 1360.58C478.247 1359.01 478.21 1357.24 478.942 1355.28C479.199 1354.58 479.523 1354.04 479.914 1353.64C480.251 1353.22 480.658 1352.86 481.135 1352.55C480.286 1352.72 479.501 1353.12 478.78 1353.76C477.952 1354.36 476.745 1355.82 475.158 1358.13C473.253 1360.81 471.692 1362.64 470.474 1363.64C469.348 1364.55 468.119 1365.09 466.786 1365.26C470.831 1368.04 473.795 1370.47 475.676 1372.56C476.966 1374.13 477.692 1375.67 477.855 1377.18C478.09 1378.66 478.071 1380.74 477.798 1383.42C477.472 1386.08 477.38 1387.71 477.52 1388.31C477.628 1388.83 477.894 1389.17 478.318 1389.33C479.062 1389.61 479.85 1389.11 480.683 1387.85C481.516 1386.59 482.447 1384.58 483.476 1381.82L486.901 1383.09C485.278 1387.45 483.342 1390.54 481.091 1392.36C478.859 1394.13 475.752 1394.27 471.77 1392.79Z" fill="black"/>
<path d="M669.847 1415L672.638 1415.67L675.832 1402.4L673.246 1401.78C671.022 1401.24 668.997 1401.38 667.171 1402.19C665.39 1403.01 664.237 1404.51 663.713 1406.69C663.189 1408.86 663.522 1410.67 664.711 1412.11C665.912 1413.5 667.624 1414.47 669.847 1415ZM664.745 1419.75C663.493 1421.56 662.344 1423.44 661.297 1425.4C659.869 1427.74 658.389 1429.4 656.858 1430.38C655.327 1431.35 653.36 1431.55 650.955 1430.97C649.322 1430.58 648.037 1429.94 647.101 1429.04C646.199 1428.2 645.664 1427.13 645.494 1425.84C645.335 1424.51 645.319 1423.28 645.445 1422.16C645.582 1420.99 645.852 1419.57 646.256 1417.89L648.706 1418.48C647.494 1423.52 647.591 1426.2 648.998 1426.54C649.361 1426.63 649.716 1426.55 650.065 1426.3C650.368 1426.03 651.245 1424.68 652.695 1422.25C654.033 1419.88 655.377 1418.29 656.728 1417.46C658.012 1416.71 660.66 1416.08 664.674 1415.56C663.198 1415.11 661.836 1414.59 660.585 1414C659.346 1413.36 658.139 1412.59 656.966 1411.69C655.792 1410.78 654.956 1409.67 654.457 1408.35C653.959 1407.03 653.896 1405.59 654.267 1404.05C654.693 1402.28 655.558 1400.88 656.862 1399.85C658.211 1398.83 659.796 1398.23 661.617 1398.04C663.448 1397.81 665.185 1397.78 666.828 1397.93C668.481 1398.04 670.148 1398.3 671.826 1398.7L690.746 1403.26L690.124 1405.84L685.155 1404.65L678.128 1433.84L683.097 1435.04L682.49 1437.56L663.367 1432.95L663.973 1430.44L668.805 1431.6L672.064 1418.06L670.567 1417.69C668.389 1417.17 666.448 1417.86 664.745 1419.75Z" fill="black"/>
<path fill-rule="evenodd" clip-rule="evenodd" d="M1280.99 0.760742C1280.99 0.760742 1234.46 50.6303 1187.15 65.2338C1167.35 71.3439 1153.42 71.834 1136.65 72.4242C1124.61 72.8481 1111.1 73.3237 1092.88 75.9713C1083.49 77.3369 1074.92 78.4798 1066.84 79.5565L1066.84 79.5568C1037.47 83.4734 1014.67 86.5137 982.732 96.2069C973.551 98.9938 965.053 101.769 957.09 104.589C902.057 111.234 830.864 137.685 770.038 164.306C746.525 149.911 697.195 140 640.147 140C577.102 140 523.483 152.104 503.718 168.987C431.119 136.574 340.782 102.702 280.846 103.002C167.15 103.571 62.5754 227 62.5754 227L-10.4096 227V521H-18.0001V870.031L-87.0001 1485.07L528.933 1256H743.679L1329.12 1473.73L1281 1044.79V521H1280.59V227.263L1280.65 227.263L1280.99 0.760742ZM1076.59 521H193.59V227L621.575 227C621.575 227 621.43 226.92 621.144 226.763C620.938 226.65 620.659 226.498 620.309 226.307C626.794 226.574 633.417 226.712 640.147 226.712C640.513 226.712 640.88 226.712 641.246 226.711L641.656 226.71L642.123 226.708C641.77 226.901 641.59 227 641.59 227H1076.59V521Z" fill="#7A0005"/>
<path d="M92.8495 65.2338C45.5317 50.6303 -1.00012 0.760742 -1.00012 0.760742L-0.650586 227.263L492.404 226.502C492.404 226.502 460.066 187.944 432.788 166.737C388.839 132.57 358.029 114.651 297.263 96.2069C256.546 83.8487 230.68 82.3045 187.112 75.9713C143.544 69.6381 126.869 75.733 92.8495 65.2338Z" fill="#7A0005"/>
<path d="M532.212 1458.38C534.707 1467.4 537.772 1471.41 541.405 1470.41C542.491 1470.11 543.268 1469.42 543.735 1468.35C544.203 1467.27 544.392 1466.01 544.303 1464.55C544.244 1463.03 544.106 1461.72 543.89 1460.61C543.714 1459.49 543.482 1458.41 543.194 1457.37L542.258 1453.98C541.969 1452.94 541.617 1451.91 541.203 1450.9C540.819 1449.84 540.27 1448.67 539.554 1447.38C538.881 1446.08 538.052 1445.12 537.07 1444.49C536.117 1443.81 535.098 1443.62 534.012 1443.92C530.42 1444.92 529.82 1449.74 532.212 1458.38ZM560.262 1465.19C562.058 1464.69 563.1 1463.26 563.388 1460.89C563.622 1458.48 563.087 1454.92 561.781 1450.2C560.568 1445.82 559.243 1442.65 557.807 1440.71C556.352 1438.87 554.748 1438.19 552.994 1438.67C551.866 1438.98 551.021 1439.67 550.459 1440.72C549.938 1441.77 549.701 1443.02 549.748 1444.49C549.784 1445.92 549.889 1447.2 550.064 1448.32C550.27 1449.39 550.528 1450.48 550.84 1451.61L551.776 1454.99C552.054 1456 552.411 1457.04 552.848 1458.14C553.285 1459.23 553.862 1460.42 554.577 1461.7C555.292 1462.99 556.147 1463.97 557.142 1464.64C558.136 1465.31 559.176 1465.49 560.262 1465.19ZM553.156 1462.91C555.766 1471.85 559.326 1478.87 563.837 1483.96L563.446 1484.74C562.579 1484.53 560.788 1483.34 558.074 1481.17C555.414 1479.03 553.73 1477.5 553.023 1476.57C552.846 1477.87 552.217 1480.07 551.138 1483.16C550.058 1486.24 549.191 1488.15 548.536 1488.87L547.736 1488.42C548.425 1484.4 548.609 1480.6 548.288 1477C547.978 1473.44 547.241 1469.4 546.077 1464.87C546.218 1470.09 544.367 1473.23 540.524 1474.29C537.852 1475.03 535.279 1474.75 532.808 1473.46C530.325 1472.12 528.304 1470.34 526.746 1468.12C525.175 1465.86 524.032 1463.43 523.316 1460.84C522.599 1458.25 522.309 1455.66 522.444 1453.06C522.62 1450.45 523.427 1448 524.863 1445.71C526.287 1443.39 528.336 1441.85 531.009 1441.11C535.018 1440 538.348 1441.8 540.999 1446.51C539.763 1442.04 538.331 1438.17 536.704 1434.88C535.107 1431.55 532.955 1428.32 530.249 1425.2L530.703 1424.4C531.612 1424.6 533.37 1425.76 535.977 1427.87C538.584 1429.98 540.3 1431.55 541.125 1432.58C541.261 1431.29 541.875 1429.12 542.966 1426.07C544.045 1422.98 544.927 1421.05 545.613 1420.28L546.35 1420.75C545.305 1428.19 545.881 1436.12 548.078 1444.55C547.891 1439.16 549.824 1435.91 553.875 1434.79C556.548 1434.05 559.087 1434.29 561.494 1435.51C563.9 1436.73 565.856 1438.44 567.362 1440.63C568.855 1442.78 569.961 1445.15 570.677 1447.74C571.393 1450.33 571.68 1452.99 571.538 1455.73C571.426 1458.41 570.649 1460.97 569.206 1463.39C567.793 1465.76 565.75 1467.31 563.077 1468.05C559.152 1469.14 555.844 1467.42 553.156 1462.91Z" fill="black"/>
<path d="M603.528 1339.6C605.595 1340.78 607.752 1340.55 610.001 1338.89C612.094 1337.28 614.686 1333.77 617.776 1328.36C620.859 1323.07 622.646 1318.97 623.137 1316.05C623.571 1313.23 622.755 1311.23 620.688 1310.05C616.701 1307.78 612.166 1311.09 607.082 1320L604.132 1325.17C599.89 1332.6 599.689 1337.41 603.528 1339.6ZM597.601 1336.61L587.278 1354.7L595.915 1359.63L594.019 1362.95L567.074 1347.57L568.97 1344.25L573.842 1347.03L601.947 1297.79L597.075 1295.01L598.971 1291.69C606.107 1295.76 610.88 1298.03 613.291 1298.49L615.127 1300.42L608.68 1311.71C611.427 1308.39 614.539 1306.25 618.018 1305.3C621.546 1304.38 625.131 1304.96 628.773 1307.03C632.07 1308.92 634.271 1311.58 635.376 1315.01C636.482 1318.45 636.673 1321.89 635.951 1325.32C635.278 1328.79 634.028 1332.12 632.202 1335.32C630.348 1338.57 627.974 1341.36 625.079 1343.68C622.262 1345.99 618.995 1347.49 615.277 1348.17C611.636 1348.83 608.143 1348.21 604.796 1346.3C600.318 1343.74 597.919 1340.51 597.601 1336.61Z" fill="black"/>
<path d="M747.489 1368.3L724.838 1374.01L723.977 1370.6L729.097 1369.31L720.897 1336.81L715.778 1338.1L714.917 1334.69L737.567 1328.97C739.067 1328.59 740.366 1328.29 741.465 1328.07C742.564 1327.85 743.967 1327.63 745.674 1327.42C747.368 1327.16 748.842 1327.12 750.098 1327.3C751.353 1327.47 752.615 1327.79 753.883 1328.24C755.19 1328.62 756.279 1329.34 757.147 1330.39C758.055 1331.37 758.705 1332.63 759.096 1334.18C760.388 1339.3 757.253 1343.23 749.691 1345.96C758.626 1344.31 763.824 1346.39 765.285 1352.18C765.781 1354.14 765.72 1355.97 765.103 1357.67C764.486 1359.36 763.57 1360.75 762.357 1361.83C761.195 1362.89 759.632 1363.89 757.668 1364.82C755.704 1365.76 753.985 1366.47 752.511 1366.95C751.076 1367.37 749.402 1367.82 747.489 1368.3ZM745.347 1337.9C744.199 1333.35 741.169 1331.69 736.256 1332.93L735.015 1333.25L738.557 1347.29L740.651 1346.76C743.082 1346.15 744.619 1345.15 745.263 1343.78C745.945 1342.34 745.973 1340.38 745.347 1337.9ZM740.95 1350.23L739.398 1350.62L743.215 1365.75L744.766 1365.36C747.61 1364.64 749.593 1363.56 750.716 1362.12C751.825 1360.63 752.027 1358.49 751.323 1355.7C750.605 1352.86 749.437 1351.06 747.819 1350.31C746.187 1349.51 743.898 1349.49 740.95 1350.23Z" fill="black"/>
<path d="M850.991 1379.61L864.226 1374.44L853.549 1347.12L845.53 1350.25C847.372 1355.09 848.934 1360.37 850.214 1366.08C851.538 1371.78 851.797 1376.29 850.991 1379.61ZM869.914 1340.72L865.415 1342.48L876.092 1369.8L881.503 1367.68L886.676 1380.92L883.807 1382.04L883.272 1380.67C882.134 1377.76 880.477 1375.83 878.301 1374.87C876.185 1373.95 873.671 1374.05 870.759 1375.19L855.437 1381.18C849.743 1383.4 848.068 1387.51 850.413 1393.51L850.948 1394.88L848.079 1396L842.906 1382.77L846.101 1381.52C847.557 1378.19 847.732 1373.64 846.625 1367.86C845.562 1362.06 844.067 1356.64 842.14 1351.58L837.511 1353.39L836.39 1350.52L868.793 1337.85L869.914 1340.72Z" fill="black"/>
<path d="M946.689 1438.82L945.917 1441.06L930.187 1435.66L930.958 1433.41L934.38 1434.59L944.939 1403.84L941.517 1402.67L942.289 1400.42L958.019 1405.82L957.247 1408.07L954.489 1407.12L949.719 1421.02L959.065 1424.23L963.835 1410.33L961.129 1409.4L961.9 1407.16L977.631 1412.56L976.859 1414.81L973.386 1413.61L962.827 1444.36L966.3 1445.55L965.529 1447.8L949.798 1442.4L950.57 1440.15L953.277 1441.08L958.293 1426.47L948.947 1423.26L943.931 1437.87L946.689 1438.82Z" fill="black"/>
<path d="M798.217 1453.61L800.552 1452.8L796.492 1441.07L793.298 1442.17L792.49 1439.84L807.355 1434.7L808.163 1437.03L804.907 1438.16L808.967 1449.89L811.301 1449.08C812.325 1448.73 813.03 1448.05 813.416 1447.04C813.802 1446.04 813.91 1444.1 813.74 1441.22C813.668 1439.69 813.648 1438.5 813.679 1437.67C813.738 1436.77 813.89 1435.76 814.138 1434.62C814.412 1433.42 814.922 1432.44 815.667 1431.68C816.412 1430.92 817.399 1430.33 818.627 1429.9C820.306 1429.32 821.828 1429.34 823.191 1429.97C824.582 1430.55 825.568 1431.67 826.149 1433.35C826.602 1434.66 826.602 1435.85 826.148 1436.93C825.736 1437.99 824.894 1438.74 823.625 1439.18C822.437 1439.59 821.3 1439.61 820.214 1439.26C819.113 1438.86 818.364 1438.09 817.967 1436.94C817.655 1436.04 817.653 1435.24 817.96 1434.53C818.186 1433.86 818.713 1433.26 819.543 1432.75C819.159 1432.7 818.803 1432.73 818.476 1432.84C817.575 1433.15 816.952 1433.81 816.607 1434.8C816.247 1435.75 816.126 1437.71 816.242 1440.7C816.354 1443.27 816.279 1445.18 816.019 1446.42C815.785 1447.46 815.314 1448.29 814.609 1448.9C818.664 1448.83 821.538 1449.05 823.229 1449.56C824.921 1450.08 826.568 1451.52 828.171 1453.9C828.185 1453.95 828.234 1454.02 828.317 1454.13C828.387 1454.2 828.443 1454.29 828.485 1454.42C828.554 1454.48 828.638 1454.59 828.736 1454.74C828.833 1454.89 828.924 1455.02 829.007 1455.13C829.439 1455.71 829.732 1456.16 829.886 1456.48C830.845 1457.66 831.693 1458.12 832.43 1457.86C833.126 1457.62 833.46 1456.87 833.432 1455.59C833.335 1454.25 832.91 1452.49 832.159 1450.32L834.309 1449.58C834.862 1451.18 835.24 1452.54 835.445 1453.66C835.676 1454.72 835.751 1455.87 835.669 1457.09C835.573 1458.27 835.098 1459.28 834.244 1460.13C833.446 1461 832.268 1461.7 830.712 1462.24C828.296 1463.08 826.261 1463.09 824.607 1462.29C822.981 1461.43 821.4 1459.85 819.867 1457.54C819.519 1457.06 819.052 1456.37 818.466 1455.47C817.768 1454.39 817.156 1453.54 816.628 1452.95C816.142 1452.34 815.444 1451.84 814.535 1451.47C813.612 1451.06 812.618 1451.03 811.554 1451.4L809.711 1452.04L814.026 1464.51L817.65 1463.25L818.436 1465.53L802.773 1470.95L801.986 1468.67L805.61 1467.42L801.295 1454.95L799.514 1455.57C798.695 1455.85 798.035 1456.26 797.534 1456.8C797.074 1457.33 796.773 1457.98 796.632 1458.77C796.476 1459.51 796.394 1460.2 796.388 1460.84C796.367 1461.45 796.404 1462.21 796.496 1463.15C796.583 1464.72 796.633 1465.53 796.647 1465.57C796.885 1468.38 796.643 1470.59 795.921 1472.22C795.2 1473.84 793.61 1475.08 791.153 1475.93C789.638 1476.45 788.277 1476.63 787.069 1476.45C785.902 1476.26 784.895 1475.73 784.05 1474.88C783.231 1473.97 782.555 1473.01 782.023 1472.01C781.491 1471 780.962 1469.74 780.438 1468.22L782.588 1467.48C783.396 1469.81 784.175 1471.47 784.926 1472.45C785.596 1473.45 786.319 1473.82 787.097 1473.55C787.834 1473.3 788.215 1472.41 788.239 1470.89C788.166 1470.54 788.119 1470.01 788.097 1469.28C788.096 1469.15 788.087 1468.99 788.071 1468.81C788.055 1468.63 788.033 1468.5 788.005 1468.42C788.003 1468.29 788.009 1468.17 788.022 1468.07C788.02 1467.94 788.012 1467.85 787.998 1467.81C787.888 1466.56 787.93 1465.42 788.124 1464.39C788.344 1463.31 788.615 1462.43 788.937 1461.77C789.244 1461.07 789.811 1460.32 790.638 1459.53C791.451 1458.7 792.142 1458.05 792.712 1457.58C793.323 1457.09 794.254 1456.4 795.505 1455.51C794.615 1455.59 793.748 1455.27 792.904 1454.55C792.033 1453.89 790.742 1452.41 789.03 1450.12C787.317 1447.68 785.991 1446.17 785.052 1445.58C784.073 1445 783.173 1444.85 782.354 1445.13C781.74 1445.35 781.325 1445.61 781.109 1445.91C782.204 1445.76 783.137 1445.87 783.909 1446.25C784.723 1446.75 785.279 1447.42 785.576 1448.28C785.987 1449.47 785.91 1450.51 785.345 1451.39C784.765 1452.23 783.861 1452.87 782.632 1453.29C781.281 1453.76 780.081 1453.74 779.034 1453.23C778.028 1452.71 777.291 1451.77 776.823 1450.42C776.271 1448.82 776.357 1447.35 777.081 1446C777.792 1444.6 778.966 1443.62 780.604 1443.06C781.874 1442.62 783.037 1442.47 784.093 1442.61C785.136 1442.7 786.107 1443.13 787.006 1443.87C787.946 1444.6 788.702 1445.32 789.272 1446.04C789.827 1446.72 790.551 1447.69 791.442 1448.94C793.086 1451.3 794.371 1452.76 795.295 1453.31C796.219 1453.86 797.194 1453.96 798.217 1453.61Z" fill="black"/>
<path d="M917.362 1512.59L921.923 1514.73L917.751 1523.6L916.231 1522.88L916.851 1521.57C918.742 1517.55 917.694 1514.6 913.708 1512.72L892.323 1502.67L893.038 1501.15L897.092 1503.05L907.58 1480.76L903.526 1478.85L904.241 1477.33L916.656 1483.17L915.941 1484.69L911.887 1482.78L901.399 1505.08L913.055 1510.56L923.542 1488.26L919.488 1486.36L920.203 1484.84L932.618 1490.68L931.903 1492.2L927.849 1490.29L917.362 1512.59Z" fill="black"/>
<path d="M1038.58 1457.45L1026.32 1455.96L1026.51 1454.47L1030.73 1454.98L1034.55 1423.71L1030.33 1423.2L1030.51 1421.71L1053.34 1424.5L1052.07 1434.92L1050.58 1434.74L1050.8 1432.95C1051.14 1430.18 1050.8 1428.22 1049.8 1427.09C1048.83 1425.96 1046.92 1425.23 1044.08 1424.88L1039.01 1424.26L1037.3 1438.26L1040.88 1438.69C1042.93 1438.94 1044.85 1439.46 1046.63 1440.25C1048.45 1441.05 1049.98 1442.26 1051.22 1443.89C1052.47 1445.52 1052.96 1447.37 1052.71 1449.46C1052.49 1451.28 1051.93 1452.79 1051.05 1453.99C1050.16 1455.19 1049.03 1456.06 1047.65 1456.6C1046.31 1457.14 1044.89 1457.47 1043.4 1457.59C1041.91 1457.71 1040.3 1457.66 1038.58 1457.45ZM1047.74 1448.85C1048.06 1446.3 1047.55 1444.29 1046.22 1442.82C1044.88 1441.35 1042.94 1440.46 1040.4 1440.15L1037.12 1439.75L1035.19 1455.53L1038.32 1455.91C1041.2 1456.26 1043.39 1455.89 1044.9 1454.8C1046.45 1453.68 1047.4 1451.7 1047.74 1448.85Z" fill="black"/>
<path d="M364.94 1439.51L369.318 1440.75L376.904 1413.92L369.022 1411.69C367.466 1417.19 366.432 1420.77 365.919 1422.43C364.998 1425.37 364.308 1427.49 363.847 1428.8C362.176 1433.6 360.497 1436.75 358.811 1438.25C357.083 1439.75 354.885 1440.11 352.216 1439.36C350.381 1438.84 349.048 1437.9 348.217 1436.54C347.44 1435.15 347.31 1433.54 347.829 1431.7C348.218 1430.33 348.911 1429.31 349.909 1428.64C350.961 1427.95 352.175 1427.8 353.551 1428.19C354.719 1428.52 355.583 1429.12 356.145 1430C356.707 1430.88 356.823 1431.9 356.493 1433.07C355.798 1435.53 354.098 1436.45 351.394 1435.82C351.628 1436.42 352.307 1436.89 353.433 1437.2C355.03 1437.61 356.442 1437 357.669 1435.36C358.897 1433.73 360.272 1430.54 361.794 1425.79C362.862 1422.49 364.333 1417.52 366.208 1410.89L361.016 1409.43L361.688 1407.05L390.648 1415.23L389.976 1417.61L385.473 1416.34L377.887 1443.17L382.391 1444.45L381.737 1446.76L364.285 1441.83L364.94 1439.51Z" fill="black"/>
<path d="M277.559 1455.83L278.554 1458.61L283.196 1456.95L283.782 1458.59L270.128 1463.47L269.542 1461.83L273.912 1460.27L265.323 1436.24L260.954 1437.8L260.368 1436.16L274.022 1431.28L274.608 1432.92L269.966 1434.58L276.563 1453.04L283.464 1432.71L282.527 1430.09L277.885 1431.75L277.299 1430.11L290.954 1425.23L291.539 1426.87L287.17 1428.43L295.758 1452.47L300.128 1450.9L300.713 1452.54L287.059 1457.42L286.473 1455.78L291.116 1454.12L284.46 1435.5L277.559 1455.83ZM276.016 1413.08C276.999 1412.73 277.856 1412.77 278.587 1413.21C279.305 1413.61 279.84 1414.3 280.191 1415.28C281.024 1417.61 280.833 1419.84 279.619 1421.96C278.392 1424.04 276.595 1425.5 274.228 1426.35C271.861 1427.19 269.544 1427.2 267.276 1426.37C264.994 1425.5 263.437 1423.9 262.604 1421.57C262.253 1420.59 262.228 1419.71 262.53 1418.95C262.855 1418.13 263.491 1417.56 264.437 1417.22C266.294 1416.55 267.541 1417.11 268.179 1418.9C268.478 1419.74 268.41 1420.52 267.973 1421.25C267.572 1421.97 266.954 1422.48 266.116 1422.78C265.898 1422.86 265.52 1422.95 264.985 1423.06C267.024 1424.63 269.774 1424.8 273.233 1423.56C276.947 1422.23 279.052 1420.31 279.548 1417.79C279.054 1418.13 278.534 1418.4 277.987 1418.6C277.296 1418.84 276.697 1418.89 276.193 1418.74C275.259 1418.54 274.59 1417.88 274.187 1416.75C273.888 1415.91 273.908 1415.17 274.249 1414.51C274.59 1413.86 275.179 1413.38 276.016 1413.08Z" fill="black"/>
<path d="M436.508 1494.31L448.035 1517.08L451.916 1515.11L452.702 1516.66L440.283 1522.95L439.497 1521.4L443.637 1519.3L432.11 1496.54L427.97 1498.63L427.184 1497.08L455.127 1482.93L455.913 1484.48L451.773 1486.58L463.3 1509.35L467.44 1507.25L468.226 1508.8L455.807 1515.09L455.021 1513.54L458.902 1511.57L447.375 1488.81L436.508 1494.31Z" fill="black"/>
<path d="M721.001 1508.55C720.08 1511.34 718.312 1513.06 715.697 1513.7C713.094 1514.31 710.306 1514.12 707.332 1513.14C705.643 1512.58 704.088 1511.87 702.667 1510.99C701.295 1510.09 700.172 1508.87 699.3 1507.31C698.464 1505.78 698.33 1504.14 698.9 1502.42C699.264 1501.32 699.824 1500.55 700.581 1500.1C701.386 1499.64 702.322 1499.58 703.386 1499.93C704.378 1500.26 705.052 1500.81 705.409 1501.57C705.766 1502.34 705.774 1503.24 705.435 1504.27C704.89 1505.92 703.491 1506.58 701.241 1506.25C701.488 1507.35 702.145 1508.32 703.212 1509.16C704.156 1510 705.564 1510.73 707.436 1511.34C711.732 1512.76 714.626 1511.21 716.117 1506.7C716.832 1504.53 716.644 1502.88 715.552 1501.75C714.473 1500.58 712.74 1499.6 710.353 1498.81L708.04 1498.05L708.585 1496.39L710.953 1497.17C713.193 1497.91 714.979 1497.99 716.31 1497.42C717.653 1496.8 718.682 1495.41 719.397 1493.24C720.537 1489.79 719.215 1487.44 715.433 1486.19C713.157 1485.44 711.286 1485.56 709.822 1486.54C708.37 1487.49 707.011 1489.13 705.746 1491.49L704.204 1490.98L707.24 1481.78L708.727 1482.27L709.358 1484.8C711.85 1483.79 714.583 1483.78 717.557 1484.76C720.127 1485.61 722.087 1486.88 723.437 1488.59C724.787 1490.3 725.062 1492.37 724.262 1494.79C723.632 1496.7 722.505 1498.02 720.881 1498.74C719.305 1499.44 717.447 1499.64 715.307 1499.34C717.388 1500.32 719.018 1501.61 720.197 1503.22C721.387 1504.79 721.655 1506.57 721.001 1508.55Z" fill="black"/>
</svg>
