<svg width="476" height="247" viewBox="0 0 476 247" fill="none" xmlns="http://www.w3.org/2000/svg">
<path d="M156.133 260.711L62.577 195.587M62.577 195.587L62.4327 155.847M62.577 195.587L32.0178 144.231M62.577 195.587L12.9584 151.78M62.577 195.587L8.97345 177.022" stroke="#050505" stroke-width="7"/>
<path d="M320 261.178L413.556 196.054M413.556 196.054L413.701 156.314M413.556 196.054L444.116 144.698M413.556 196.054L463.175 152.247M413.556 196.054L467.16 177.488" stroke="#050505" stroke-width="7"/>
<ellipse cx="236.795" cy="90.2244" rx="69.078" ry="90.2244" fill="#3D5D8C"/>
<ellipse cx="162.525" cy="90.9232" rx="11.3028" ry="18.4415" transform="rotate(-16.0258 162.525 90.9232)" fill="#3D5D8C"/>
<ellipse cx="306.2" cy="90.8761" rx="11.3028" ry="18.4415" transform="rotate(23.455 306.2 90.8761)" fill="#3D5D8C"/>
<path d="M329.822 146.229C331.034 146.229 263.744 116.562 264.536 118.072C265.235 119.67 247.818 143.743 247.818 146.229C247.818 152.09 246.677 156.84 244.394 160.481C242.112 164.121 239.411 165.941 236.29 165.941C233.169 165.941 230.468 164.121 228.185 160.481C225.903 156.84 224.762 152.09 224.762 146.229C224.762 143.743 207.464 119.581 208.163 118.072C208.908 116.474 152.382 146.229 153.64 146.229C154.758 146.229 230.864 138.46 231.609 139.703C232.261 140.946 232.587 142.589 232.587 144.631C232.587 146.851 232.191 148.627 231.399 149.959C230.607 151.202 229.629 151.823 228.465 151.823C227.999 151.823 227.44 151.69 226.788 151.424C228.605 156.041 231.772 158.35 236.29 158.35C241.087 158.35 244.348 155.997 246.071 151.291C245.326 151.646 244.604 151.823 243.905 151.823C241.297 151.823 239.993 149.426 239.993 144.631C239.993 142.5 240.342 140.857 241.041 139.703C241.693 138.46 328.658 146.229 329.822 146.229Z" fill="#050505"/>
<path d="M276.988 66.5759C277.034 67.4688 277.638 66.7528 278.048 66.521C279.762 65.5519 281.938 65.377 283.787 65.0886C287.831 64.4577 292.128 64.4786 296.206 65.1018C296.928 65.2122 301.035 65.656 301.056 67.4785C301.068 68.4693 299.239 69.5851 298.7 70.0198C296.919 71.4558 294.794 72.28 292.935 73.559C290.721 75.0819 288.647 77.707 286.282 78.7421C286.064 78.8375 287.763 79.7524 287.969 79.8791C289.553 80.8497 291.045 82.2132 292.551 83.3897C294.544 84.948 296.202 86.7764 297.974 88.7382C298.845 89.7021 300.345 90.7106 300.71 92.2101C301.047 93.5959 300.213 93.5948 299.235 93.6455C297.4 93.7406 295.546 94.1527 293.721 94.4091C290.654 94.8401 287.253 95.1191 284.174 94.3665C284.023 94.3297 282.581 93.5457 283.32 94.4705C284.408 95.8327 285.674 96.8935 286.732 98.3255C288.185 100.294 289.254 102.708 290.618 104.784C291.82 106.615 292.444 108.126 293.101 110.36C293.215 110.75 293.802 112.718 293.44 112.97C293.141 113.178 291.939 111.866 291.629 111.645C289.696 110.27 287.367 109.826 285.376 108.61C283.35 107.372 281.091 107.064 279.024 105.848C277.975 105.231 276.959 104.861 275.894 104.383C275.224 104.081 274.641 103.253 273.904 103.291C273.411 103.317 271.098 102.813 270.904 102.371" stroke="#050505" stroke-width="4" stroke-linecap="round"/>
<path d="M196.47 68.9857C196.364 69.8627 195.835 69.094 195.458 68.823C193.882 67.6909 191.809 67.2957 190.058 66.8219C186.226 65.7855 182.107 65.3669 178.157 65.5655C177.457 65.6007 173.491 65.6192 173.345 67.4168C173.265 68.3941 174.941 69.6829 175.427 70.1672C177.035 71.7675 179.014 72.7985 180.707 74.2517C182.723 75.9819 184.529 78.7863 186.724 80.0502C186.926 80.1667 185.235 80.8965 185.028 81.0006C183.444 81.7971 181.92 82.9911 180.396 83.9991C178.378 85.3341 176.664 86.9703 174.83 88.7266C173.929 89.5894 172.422 90.432 171.968 91.8755C171.549 93.2095 172.349 93.2937 173.283 93.4437C175.034 93.7252 176.782 94.3217 178.513 94.7614C181.422 95.5006 184.663 96.1237 187.665 95.6953C187.811 95.6743 189.248 95.0475 188.476 95.8853C187.339 97.1192 186.053 98.0375 184.94 99.3435C183.412 101.139 182.22 103.413 180.771 105.324C179.492 107.009 178.789 108.438 178.006 110.577C177.869 110.95 177.171 112.834 177.501 113.12C177.772 113.355 179.015 112.183 179.327 111.997C181.275 110.837 183.537 110.636 185.529 109.638C187.556 108.623 189.741 108.55 191.807 107.56C192.855 107.058 193.854 106.797 194.907 106.433C195.57 106.204 196.185 105.445 196.889 105.558C197.36 105.634 199.611 105.373 199.827 104.957" stroke="#050505" stroke-width="4" stroke-linecap="round"/>
<path d="M276.425 86.6613L276.425 86.6592C277.485 82.8212 278.206 78.6999 278.59 74.2966C279.883 61.0009 278.863 50.5291 275.468 42.9297L275.467 42.9258C273.742 39.1503 271.467 36.2869 268.629 34.3691C265.788 32.4498 262.416 31.5 258.534 31.5C253.359 31.5 249.176 33.6058 246.027 37.7894L245.822 38.0611L245.999 38.3511L247.862 41.3962L248.246 42.0234L248.688 41.436C250.794 38.6383 253.515 37.258 256.886 37.258C258.836 37.258 260.44 38.0141 261.733 39.5536L261.739 39.5606L261.745 39.5673C263.1 41.0665 264.073 43.1943 264.635 45.9916L264.635 45.9917L264.636 45.9995C265.254 48.8394 265.656 51.3551 265.845 53.5488C265.989 55.2266 266.079 57.09 266.113 59.1397C265.4 58.049 264.564 57.1647 263.601 56.497C262.158 55.4964 260.462 55.0043 258.534 55.0043C252.916 55.0043 248.215 57.4697 244.454 62.3354L244.452 62.3379C240.753 67.1868 238.602 73.31 237.975 80.679L237.975 80.6801C237.347 88.2501 238.721 94.6184 242.141 99.7452C245.567 104.88 250.133 107.485 255.811 107.485C259.341 107.485 262.518 106.572 265.327 104.74L265.327 104.74L265.333 104.735C268.126 102.848 270.399 100.313 272.153 97.1414C273.941 93.9331 275.364 90.4391 276.425 86.6613ZM252.369 80.7691L252.369 80.7642C252.973 73.7332 253.89 68.5499 255.105 65.1812C255.337 65.9278 255.566 67.1748 255.823 68.5788L255.857 68.7625C256.127 70.2361 256.427 71.8421 256.789 73.0806C256.969 73.6966 257.173 74.255 257.413 74.6689C257.631 75.0436 257.987 75.4887 258.534 75.4887C259.057 75.4887 259.467 75.1084 259.762 74.7351C260.078 74.3343 260.379 73.7891 260.663 73.1824C261.234 71.965 261.787 70.3898 262.284 68.9547C262.315 68.8654 262.346 68.7767 262.376 68.6888C262.824 67.3945 263.217 66.2578 263.542 65.5732C264.191 68.9392 264.203 74.2774 263.552 81.6282C262.884 88.9167 261.933 94.1234 260.718 97.2903L260.718 97.2904C259.442 100.618 257.887 102.013 256.17 102.013C255.256 102.013 254.5 101.646 253.872 100.867C253.227 100.067 252.712 98.8242 252.361 97.0851L252.361 97.0834C251.66 93.672 251.653 88.2477 252.369 80.7691ZM263.84 65.0703C263.84 65.0705 263.838 65.0721 263.835 65.0746C263.838 65.0714 263.84 65.0701 263.84 65.0703Z" fill="#050505" stroke="#050505"/>
<path d="M206.013 61.791C203.071 64.396 200.906 68.0984 199.494 72.86C199.952 68.696 200.511 65.3674 201.168 62.8659C201.917 60.1296 203.036 57.8479 204.514 56.0077C205.984 54.1763 207.792 52.9012 209.944 52.1714L209.944 52.1716L209.956 52.1672C212.146 51.3627 215.085 50.7659 218.789 50.3874C223.269 49.9443 226.322 49.4974 227.902 49.0389C231.031 48.1805 233.28 46.4145 234.591 43.7355C235.919 41.0564 236.787 37.3717 237.22 32.7123L237.27 32.1661H236.722H233.641H233.2L233.145 32.6038C233.016 33.6299 232.602 34.3047 231.943 34.7162L231.943 34.7161L231.932 34.7237C231.185 35.2196 229.819 35.5924 227.744 35.7821C226.147 35.7833 223.774 35.9116 220.633 36.1644L220.633 36.1643L220.624 36.1653C212.264 37.0045 206.096 40.7962 202.187 47.5458C198.315 54.2314 195.868 63.4792 194.814 75.2521C193.902 85.1961 194.973 93.0501 198.097 98.7563L198.097 98.7571C199.683 101.641 201.661 103.829 204.041 105.294C206.422 106.76 209.178 107.485 212.291 107.485C217.993 107.485 222.925 105.094 227.068 100.368L227.068 100.368C231.257 95.5805 233.654 89.4801 234.282 82.0987C234.959 75.0957 233.656 69.2576 230.321 64.6326C226.985 60.0053 222.563 57.6687 217.091 57.6687C212.818 57.6687 209.117 59.0427 206.013 61.791ZM208.911 97.3633L208.911 97.3633L208.909 97.3523C208.165 94.2639 208.062 89.0998 208.634 81.8088C209.193 75.1981 210.065 70.4525 211.23 67.5268C211.454 68.1573 211.683 69.1931 211.945 70.3806C211.97 70.4929 211.995 70.6065 212.02 70.7212C212.313 72.0463 212.646 73.4997 213.048 74.6238C213.248 75.1833 213.477 75.6953 213.747 76.0761C214.006 76.442 214.387 76.8014 214.91 76.8014C215.41 76.8014 215.807 76.4552 216.095 76.1099C216.401 75.7419 216.692 75.2426 216.966 74.6893C217.517 73.5791 218.051 72.1425 218.53 70.8327C218.561 70.7481 218.592 70.6641 218.622 70.5809C219.056 69.3954 219.437 68.3551 219.752 67.724C220.387 70.7799 220.442 75.7185 219.889 82.5844L219.889 82.5847C219.316 89.7496 218.436 94.7585 217.272 97.6641L217.271 97.6675C216.109 100.631 214.544 101.918 212.649 101.918C211.75 101.918 211.01 101.573 210.397 100.856C209.768 100.119 209.261 98.9727 208.911 97.3633ZM211.026 67.0881C211.026 67.0881 211.027 67.089 211.028 67.0912C211.027 67.0893 211.026 67.0882 211.026 67.0881ZM220.04 67.2607C220.04 67.2608 220.039 67.2614 220.037 67.2626C220.039 67.2612 220.04 67.2607 220.04 67.2607Z" fill="#050505" stroke="#050505"/>
<path d="M271 192.235C271 198.863 256.322 200 237.351 200C218.379 200 203 198.863 203 192.235C203 185.608 218.379 176 237.351 176C256.322 176 271 185.608 271 192.235Z" fill="#7A0005"/>
</svg>
