<svg width="1280" height="334" viewBox="0 0 1280 334" fill="none" xmlns="http://www.w3.org/2000/svg">
<path d="M1195.75 226.707C1195.2 228.335 1197.27 227.65 1198.48 227.636C1203.56 227.576 1209.2 229.371 1214.11 230.649C1224.83 233.443 1235.71 237.637 1245.58 242.687C1247.33 243.581 1257.4 248.341 1256.09 251.592C1255.37 253.36 1249.9 253.569 1248.2 253.817C1242.61 254.64 1236.6 254.045 1230.93 254.513C1224.17 255.071 1216.94 257.718 1210.17 257.265C1209.55 257.223 1213.16 260.488 1213.59 260.913C1216.88 264.165 1219.64 268.026 1222.57 271.568C1226.45 276.259 1229.28 281.103 1232.3 286.295C1233.78 288.846 1236.83 292.085 1236.63 295.097C1236.44 297.88 1234.32 297.07 1231.81 296.214C1227.08 294.607 1222.07 293.544 1217.26 292.234C1209.16 290.03 1200.32 287.234 1193.09 282.921C1192.73 282.71 1189.66 279.925 1190.84 282.279C1192.58 285.747 1194.99 288.852 1196.59 292.413C1198.8 297.308 1199.7 302.622 1201.59 307.621C1203.26 312.03 1203.71 315.312 1203.7 319.907C1203.69 320.71 1203.7 324.766 1202.59 324.862C1201.68 324.942 1199.62 321.453 1199 320.763C1195.13 316.455 1189.56 313.415 1185.43 309.332C1181.22 305.177 1175.73 302.447 1171.4 298.291C1169.21 296.182 1166.91 294.544 1164.57 292.665C1163.1 291.483 1161.5 289.5 1160.34 288.805C1159 287.997 1152.16 282.471 1152 281.5" stroke="#EADEC4" stroke-width="7" stroke-linecap="round"/>
<path d="M932.826 134.045C932.16 135.61 931.123 133.772 930.26 132.981C926.656 129.677 921.429 127.383 917.073 125.181C907.547 120.366 896.997 116.494 886.612 113.906C884.773 113.448 874.428 110.51 873.247 113.771C872.605 115.544 876.4 119.216 877.453 120.489C880.933 124.695 885.633 128.111 889.401 132.106C893.888 136.861 897.349 143.473 902.508 147.489C902.984 147.859 898.252 147.96 897.667 148C893.183 148.306 888.679 149.402 884.26 150.151C878.407 151.142 873.212 152.925 867.652 154.844C864.921 155.787 860.619 156.237 858.795 158.604C857.11 160.792 859.158 161.549 861.524 162.53C865.964 164.371 870.256 166.799 874.572 168.921C881.827 172.488 889.995 176.085 898.01 177.531C898.402 177.602 902.425 177.503 900.041 178.496C896.529 179.957 892.768 180.715 889.289 182.331C884.507 184.551 880.392 187.923 875.764 190.421C871.683 192.623 869.217 194.774 866.225 198.198C865.703 198.796 863.047 201.806 863.779 202.589C864.382 203.234 868.141 201.966 869.038 201.851C874.63 201.135 880.615 202.455 886.25 202.076C891.984 201.691 897.713 203.192 903.536 202.884C906.49 202.728 909.21 202.987 912.117 203.094C913.946 203.161 916 203.094 917.673 202.94C923 202.884 925.251 202.47 926 201.851" stroke="#EADEC4" stroke-width="7" stroke-linecap="round"/>
<path d="M1047.12 204.634C1039.51 220.448 1027.31 231.417 1010.51 237.542C993.912 243.577 976.717 243.568 958.926 237.516C939.447 230.89 926.894 219.5 921.266 203.345C915.743 187.386 918.243 168.717 928.767 147.336C941.166 121.954 956.037 103.892 973.381 93.1514C990.724 82.4108 1012.9 80.5951 1039.92 87.7045C1050.24 90.5742 1057.93 92.87 1062.99 94.5916C1069.88 96.457 1074.93 97.2139 1078.13 96.8623C1081.13 96.602 1083.29 95.2594 1084.63 92.8346L1094.53 96.1997C1089.58 106.199 1084.04 113.434 1077.9 117.905C1071.96 122.285 1063.84 123.764 1053.55 122.341C1048.3 121.675 1038.29 119.392 1023.54 115.492C1011.28 112.283 1001.23 110.385 993.387 109.797C985.593 109.066 978.51 110.016 972.139 112.649C965.767 115.282 960.281 119.336 955.681 124.811C951.283 130.195 946.536 137.86 941.441 147.807L944.202 148.746C952.552 138.787 962.583 132.439 974.295 129.703C986.006 126.966 998.534 127.868 1011.88 132.407C1028.9 138.198 1040.9 147.958 1047.86 161.688C1054.83 175.418 1054.58 189.733 1047.12 204.634ZM964.973 175.972C957.522 191.838 953.805 203.773 953.82 211.779C953.584 220.018 956.84 225.286 963.588 227.582C970.644 229.982 977.259 228.392 983.435 222.813C989.562 217.377 996.302 206.869 1003.66 191.29C1010.96 175.855 1014.66 164.232 1014.75 156.423C1014.79 148.756 1011.43 143.776 1004.68 141.48C997.629 139.08 991.062 140.526 984.984 145.819C978.703 151.202 972.033 161.254 964.973 175.972Z" fill="#3D5D8C"/>
<path d="M1195.4 235.394C1190.8 244.871 1185.36 253.338 1179.06 260.795C1172.8 268.108 1165.62 274.385 1157.51 279.625C1149.6 284.774 1140.56 287.941 1130.4 289.126C1120.3 290.167 1109.72 288.81 1098.68 285.053C1081.04 279.054 1068.78 268.563 1061.9 253.582C1055.01 238.601 1055.45 222.988 1063.2 206.744C1070.8 190.93 1082.26 179.628 1097.58 172.838C1113.04 166.1 1129.52 165.704 1147.01 171.652C1158.82 175.669 1166.04 182.847 1168.69 193.187C1170.88 186.733 1172.53 180.893 1173.62 175.665C1174.71 170.437 1175.36 164.257 1175.56 157.125C1175.92 150.046 1174.4 143.931 1171.02 138.781C1167.84 133.539 1162.88 129.771 1156.13 127.475C1144.78 123.614 1134.45 123.782 1125.16 127.979L1121.52 119.061C1134.45 113.222 1148.97 113.041 1165.08 118.519C1189.47 126.815 1204.25 141.204 1209.43 161.687C1214.41 182.261 1209.73 206.83 1195.4 235.394ZM1106.22 221.378C1098.16 237.518 1093.94 249.923 1093.56 258.593C1093.13 267.406 1096.36 272.987 1103.27 275.335C1109.86 277.578 1116.52 275.604 1123.25 269.412C1129.72 263.454 1136.84 252.595 1144.6 236.834C1152.55 220.498 1156.69 208.068 1157.03 199.541C1157.41 190.871 1154.07 185.336 1147.02 182.936C1140.58 180.745 1134.14 182.556 1127.71 188.37C1120.94 194.705 1113.77 205.708 1106.22 221.378Z" fill="#3D5D8C"/>
<path d="M83.0719 225.458C83.5917 227.097 81.5378 226.369 80.3242 226.33C75.2526 226.166 69.5696 227.843 64.6406 229.019C53.8596 231.59 42.898 235.558 32.9266 240.403C31.1609 241.261 20.9873 245.811 22.234 249.089C22.9118 250.871 28.3816 251.193 30.0693 251.477C35.6459 252.414 41.662 251.944 47.3261 252.53C54.0698 253.227 61.243 256.024 68.0245 255.711C68.6496 255.682 64.9637 258.871 64.5261 259.287C61.1747 262.471 58.3359 266.274 55.3315 269.754C51.3522 274.364 48.4256 279.148 45.3 284.277C43.7643 286.797 40.6534 289.972 40.7919 292.987C40.92 295.773 43.0514 295.007 45.5855 294.204C50.3403 292.695 55.371 291.736 60.2153 290.525C68.3587 288.49 77.2472 285.877 84.5741 281.715C84.9324 281.512 88.0572 278.791 86.8303 281.12C85.0232 284.551 82.5478 287.605 80.8696 291.133C78.5629 295.981 77.5566 301.275 75.5579 306.234C73.7955 310.607 73.2798 313.88 73.199 318.473C73.1849 319.276 73.0935 323.332 74.1987 323.451C75.1091 323.549 77.2421 320.104 77.8766 319.426C81.833 315.199 87.4649 312.275 91.6813 308.279C95.9718 304.212 101.522 301.596 105.934 297.531C108.174 295.468 110.505 293.877 112.882 292.048C114.378 290.896 121.431 284 122.5 283C130.813 275.224 125.32 280.467 125.5 279.5" stroke="#EADEC4" stroke-width="7" stroke-linecap="round"/>
<path d="M342.5 140.5C343.133 142.079 345.121 141.273 346 140.5C349.672 137.271 359.393 131.835 363.793 129.724C373.417 125.108 384.045 121.455 394.481 119.082C396.329 118.662 406.733 115.939 407.846 119.224C408.451 121.01 404.581 124.603 403.502 125.854C399.936 129.986 395.166 133.305 391.316 137.22C386.732 141.882 383.135 148.421 377.893 152.329C377.41 152.689 382.139 152.888 382.723 152.94C387.199 153.339 391.68 154.528 396.082 155.368C401.913 156.48 407.07 158.371 412.589 160.404C415.301 161.403 419.593 161.943 421.367 164.347C423.006 166.569 420.943 167.284 418.557 168.215C414.08 169.964 409.739 172.303 405.38 174.335C398.053 177.751 389.811 181.178 381.768 182.458C381.375 182.521 377.355 182.339 379.718 183.38C383.199 184.914 386.943 185.75 390.388 187.437C395.123 189.756 399.168 193.213 403.743 195.805C407.777 198.091 410.198 200.294 413.118 203.778C413.629 204.387 416.222 207.451 415.473 208.219C414.857 208.851 411.125 207.506 410.231 207.372C404.655 206.541 398.643 207.736 393.017 207.241C387.293 206.737 381.534 208.12 375.719 207.691C372.768 207.474 370.043 207.676 367.136 207.723C365.305 207.752 363.383 206.752 361.584 207.454C360.38 207.924 354.375 208.998 353.639 208.364" stroke="#EADEC4" stroke-width="7" stroke-linecap="round"/>
<path d="M232.133 206.468C239.408 222.435 251.38 233.655 268.05 240.127C284.519 246.504 301.711 246.851 319.624 241.168C339.235 234.947 352.022 223.819 357.983 207.785C363.835 191.944 361.722 173.226 351.643 151.633C339.772 125.999 325.278 107.633 308.161 96.5358C291.044 85.4384 268.907 83.1639 241.751 89.7124C231.376 92.3679 223.64 94.5039 218.544 96.1204C211.612 97.8426 206.551 98.4949 203.359 98.0771C200.367 97.7548 198.227 96.3676 196.94 93.9156L186.979 97.0751C191.713 107.175 197.103 114.523 203.15 119.12C208.998 123.622 217.083 125.268 227.407 124.059C232.669 123.502 242.719 121.427 257.555 117.833C269.875 114.879 279.961 113.189 287.815 112.763C295.622 112.194 302.684 113.291 308.999 116.055C315.315 118.819 320.716 122.986 325.202 128.555C329.487 134.029 334.074 141.791 338.962 151.841L336.182 152.723C328.04 142.593 318.143 136.038 306.49 133.06C294.838 130.082 282.294 130.724 268.86 134.986C251.719 140.423 239.524 149.933 232.275 163.515C225.026 177.098 224.979 191.415 232.133 206.468ZM314.852 179.513C321.973 195.529 325.442 207.539 325.262 215.543C325.327 223.785 321.962 228.985 315.168 231.14C308.064 233.393 301.483 231.667 295.424 225.961C289.411 220.399 282.89 209.755 275.861 194.027C268.878 178.443 265.423 166.747 265.495 158.937C265.613 151.272 269.069 146.361 275.864 144.206C282.967 141.953 289.502 143.534 295.47 148.952C301.638 154.464 308.098 164.651 314.852 179.513Z" fill="#3D5D8C"/>
<path d="M83.2466 234.151C87.6423 243.721 92.9129 252.3 99.0583 259.885C105.158 267.326 112.21 273.75 120.213 279.157C128.017 284.469 136.984 287.822 147.114 289.217C157.199 290.468 167.8 289.329 178.919 285.802C196.677 280.169 209.152 269.935 216.343 255.099C223.535 240.264 223.424 224.645 216.012 208.244C208.737 192.277 197.514 180.74 182.343 173.634C167.017 166.577 150.552 165.84 132.948 171.425C121.058 175.196 113.684 182.224 110.827 192.506C108.766 186.008 107.243 180.135 106.257 174.886C105.272 169.636 104.752 163.444 104.699 156.31C104.491 149.225 106.131 143.142 109.618 138.063C112.906 132.889 117.947 129.224 124.741 127.068C136.169 123.443 146.487 123.825 155.698 128.214L159.522 119.373C146.707 113.267 132.193 112.786 115.979 117.929C91.4254 125.718 76.3462 139.798 70.741 160.169C65.336 180.636 69.5046 205.296 83.2466 234.151ZM172.697 221.985C180.417 238.288 184.379 250.777 184.582 259.453C184.831 268.274 181.48 273.786 174.531 275.991C167.891 278.097 161.273 275.985 154.676 269.655C148.325 263.565 141.435 252.561 134.006 236.642C126.393 220.146 122.509 207.632 122.352 199.1C122.149 190.424 125.599 184.959 132.703 182.706C139.189 180.649 145.584 182.593 151.889 188.539C158.532 195.013 165.468 206.162 172.697 221.985Z" fill="#3D5D8C"/>
<path d="M745.5 55C742.61 67.6027 742.8 51.7184 742.206 50.5C741.212 48.46 742.121 38.8968 742.206 36.755C742.437 30.9118 744.699 26.5909 747.753 21.6991C750.908 16.6458 755.237 10.5021 761.332 8.9781C768.567 7.16882 783.745 6.04909 788.364 13.2855C792.426 19.6498 791.169 32.7156 789.109 39.6132C788.504 41.6419 785.596 44.9121 786.874 41.1832C787.578 39.1278 789.856 37.9212 791.676 36.8757C798.354 33.0381 805.192 32.0615 812.871 32.6891C821.692 33.4099 829.197 37.9907 831.914 46.2957C834.114 53.0201 831.395 62.9832 826.325 67.9133C825.066 69.1376 815.836 74.4363 813.865 72.9454C812.779 72.1239 820.71 69.7091 821.151 69.6444C828.69 68.5377 836.102 69.4418 842.015 74.2336C847.578 78.7413 849.642 83.9287 850.17 90.8594C850.577 96.2 851.92 101.401 849.466 106.439C845.386 114.816 836.857 120.85 827.029 120.85C817.839 120.85 812.033 117.529 804.012 114.409" stroke="#3D5D8C" stroke-width="7" stroke-linecap="round"/>
<path d="M471.554 115.074C471.747 115.712 475.18 117.379 474.05 118.16C472.158 119.467 467.655 119.469 465.471 119.762C459.514 120.561 454.744 119.149 449.258 117.079C443.59 114.94 436.614 111.868 434.006 106.299C430.911 99.6868 427.127 85.3494 433.648 79.6632C439.383 74.6624 452.832 73.5854 460.176 74.3527C462.336 74.5785 466.155 76.7919 462.156 76.2191C459.952 75.9033 458.332 73.9327 456.956 72.3732C451.904 66.6486 449.721 60.2724 449.016 52.8096C448.205 44.2377 451.533 36.2523 459.468 32.2003C465.893 28.9195 476.455 29.7832 482.333 33.7768C483.792 34.7685 490.769 42.6814 489.604 44.8292C488.961 46.0126 485.132 38.8404 484.989 38.4293C482.552 31.4038 482.173 24.1491 485.993 17.6505C489.586 11.5372 494.478 8.65451 501.403 6.93884C506.74 5.61683 511.772 3.42249 517.301 4.89244C526.496 7.33697 534.095 14.4499 535.811 23.8598C537.416 32.6591 535.067 38.798 533.308 47.0231" stroke="#3D5D8C" stroke-width="7" stroke-linecap="round"/>
<path d="M550.067 47.4038C572.752 47.4038 591.717 54.2865 606.962 68.052C622.388 81.8174 630.101 99.5537 630.101 121.261C630.101 142.438 622.297 159.733 606.69 173.146C591.082 186.382 572.208 193 550.067 193C527.563 193 508.599 186.117 493.173 172.352C477.747 158.586 470.034 140.85 470.034 119.143C470.034 97.9654 477.837 80.7585 493.445 67.5225C509.052 54.1101 527.926 47.4038 550.067 47.4038ZM563.406 75.1994C560.684 66.3754 556.238 61.9634 550.067 61.9634C543.897 61.9634 539.45 66.1989 536.728 74.67C534.006 83.3175 532.645 98.1418 532.645 119.143C532.645 140.85 534.006 156.116 536.728 164.94C539.45 173.94 543.897 178.44 550.067 178.44C556.238 178.44 560.684 174.117 563.406 165.469C566.128 156.998 567.489 142.262 567.489 121.261C567.489 99.5537 566.128 84.1999 563.406 75.1994Z" fill="#EADEC4"/>
<path d="M721.004 47.4038C743.689 47.4038 762.654 54.2865 777.899 68.052C793.325 81.8174 801.038 99.5537 801.038 121.261C801.038 142.438 793.234 159.733 777.627 173.146C762.019 186.382 743.145 193 721.004 193C698.5 193 679.536 186.117 664.11 172.352C648.684 158.586 640.971 140.85 640.971 119.143C640.971 97.9654 648.774 80.7585 664.382 67.5225C679.989 54.1101 698.863 47.4038 721.004 47.4038ZM734.343 75.1994C731.621 66.3754 727.175 61.9634 721.004 61.9634C714.834 61.9634 710.387 66.1989 707.665 74.67C704.943 83.3175 703.582 98.1418 703.582 119.143C703.582 140.85 704.943 156.116 707.665 164.94C710.387 173.94 714.834 178.44 721.004 178.44C727.175 178.44 731.621 174.117 734.343 165.469C737.065 156.998 738.426 142.262 738.426 121.261C738.426 99.5537 737.065 84.1999 734.343 75.1994Z" fill="#EADEC4"/>
</svg>
