<svg width="1203" height="591" viewBox="0 0 1203 591" fill="none" xmlns="http://www.w3.org/2000/svg">
<rect x="780.066" y="104.36" width="196.91" height="178.382" fill="#3D5D8C" stroke="#7A0005" stroke-width="4"/>
<rect x="780.066" y="308.168" width="196.91" height="178.382" fill="#3D5D8C" stroke="#7A0005" stroke-width="4"/>
<path d="M860.911 403.057L844.189 409.348H911.762L895.488 402.544L878.438 372.292L860.911 403.057Z" fill="#050505" stroke="#050505" stroke-width="0.3"/>
<path fill-rule="evenodd" clip-rule="evenodd" d="M845.12 409.349C842.91 409.349 841.12 411.139 841.12 413.349V431.989C829.448 437.441 819.614 445.691 813.506 456.74C812.602 458.375 812.268 460.034 811.952 461.606C811.461 464.044 811.013 466.27 808.548 467.864C806.232 469.362 801.684 469.718 801.684 469.718V484.551H955.757V469.718C955.757 469.718 951.209 469.362 948.892 467.864C946.427 466.27 945.979 464.044 945.488 461.606C945.172 460.034 944.838 458.375 943.934 456.74C937.667 445.403 927.478 437.013 915.405 431.569V413.349C915.405 411.139 913.614 409.349 911.405 409.349H845.12Z" fill="#7A0005"/>
<rect x="855.088" y="370.113" width="46.8652" height="4.35955" rx="2.17978" fill="#050505"/>
<path d="M928.148 358.982C928.148 359.586 928.757 359.124 929.159 358.982C930.837 358.39 932.916 358.348 934.688 358.218C938.566 357.934 942.652 358.098 946.501 358.661C947.182 358.76 951.066 359.202 950.997 360.431C950.96 361.099 949.165 361.786 948.631 362.06C946.865 362.966 944.804 363.446 942.972 364.243C940.791 365.192 938.689 366.888 936.388 367.502C936.176 367.559 937.747 368.234 937.937 368.327C939.396 369.036 940.748 370.007 942.122 370.852C943.942 371.971 945.428 373.26 947.017 374.644C947.798 375.324 949.175 376.055 949.448 377.078C949.701 378.023 948.907 377.993 947.974 377.993C946.225 377.993 944.441 378.206 942.692 378.315C939.753 378.498 936.504 378.568 933.613 377.953C933.471 377.923 932.138 377.345 932.795 377.993C933.763 378.949 934.915 379.708 935.85 380.709C937.136 382.086 938.034 383.749 939.228 385.195C940.281 386.471 940.801 387.51 941.315 389.038C941.405 389.305 941.866 390.651 941.509 390.808C941.215 390.938 940.136 390.012 939.852 389.853C938.081 388.859 935.888 388.478 934.054 387.589C932.188 386.685 930.054 386.399 928.148 385.507C927.18 385.055 926.232 384.77 925.243 384.411C924.62 384.184 924.107 383.606 923.403 383.606C922.933 383.606 920.759 383.186 920.596 382.882" stroke="#EADEC4" stroke-width="3" stroke-linecap="round"/>
<path d="M830.357 357.911C830.313 358.506 829.761 358.013 829.385 357.848C827.815 357.158 825.819 356.986 824.124 356.747C820.417 356.224 816.475 356.13 812.734 356.444C812.071 356.499 808.304 356.692 808.28 357.909C808.267 358.57 809.942 359.361 810.436 359.665C812.067 360.669 814.013 361.272 815.716 362.173C817.744 363.246 819.64 365.051 821.807 365.801C822.007 365.87 820.447 366.439 820.257 366.518C818.803 367.126 817.431 367.999 816.047 368.747C814.216 369.737 812.692 370.917 811.062 372.182C810.261 372.804 808.883 373.439 808.545 374.431C808.233 375.348 808.998 375.368 809.895 375.427C811.578 375.537 813.277 375.858 814.95 376.075C817.763 376.44 820.882 376.712 823.707 376.287C823.846 376.266 825.17 375.779 824.49 376.378C823.489 377.26 822.326 377.937 821.353 378.866C820.016 380.144 819.03 381.729 817.775 383.081C816.669 384.273 816.093 385.267 815.486 386.742C815.38 386.999 814.838 388.299 815.169 388.476C815.443 388.622 816.548 387.777 816.833 387.637C818.609 386.768 820.746 386.53 822.575 385.767C824.435 384.992 826.508 384.843 828.407 384.083C829.37 383.697 830.303 383.476 831.28 383.183C831.895 382.999 832.432 382.46 833.108 382.504C833.56 382.534 835.682 382.256 835.861 381.966" stroke="#EADEC4" stroke-width="3" stroke-linecap="round"/>
<path d="M876.289 368.444C875.55 374.555 872.737 379.576 867.85 383.508C863.019 387.388 857.307 389.327 850.715 389.327C843.497 389.327 838.041 386.962 834.347 382.233C830.71 377.557 829.431 371.074 830.511 362.784C831.761 352.954 834.66 345.275 839.206 339.749C843.753 334.222 850.914 331.114 860.689 330.423C864.44 330.21 867.253 330.104 869.128 330.104C871.629 329.945 873.391 329.626 874.414 329.147C875.38 328.722 875.948 328.032 876.119 327.075H879.784C879.273 330.954 878.25 333.983 876.716 336.162C875.238 338.287 872.709 339.696 869.128 340.386C867.31 340.758 863.729 341.13 858.387 341.502C853.954 341.821 850.402 342.326 847.731 343.017C845.06 343.654 842.815 344.77 840.996 346.364C839.178 347.959 837.814 349.925 836.905 352.263C836.052 354.548 835.342 357.63 834.773 361.509H835.796C837.444 357.258 840.059 354.016 843.639 351.785C847.22 349.553 851.482 348.437 856.426 348.437C862.735 348.437 867.821 350.323 871.686 354.096C875.55 357.869 877.085 362.651 876.289 368.444ZM845.77 368.204C845.088 374.315 845.202 378.699 846.111 381.356C846.964 384.119 848.64 385.501 851.141 385.501C853.755 385.501 855.773 384.226 857.194 381.675C858.614 379.178 859.666 374.926 860.348 368.922C861.03 362.97 860.945 358.693 860.092 356.089C859.24 353.538 857.563 352.263 855.062 352.263C852.448 352.263 850.431 353.485 849.01 355.929C847.532 358.427 846.452 362.519 845.77 368.204Z" fill="#7A0005"/>
<path d="M929.011 361.907C928.556 365.574 927.704 369.002 926.453 372.19C925.203 375.325 923.526 378.221 921.424 380.878C919.378 383.482 916.735 385.554 913.496 387.095C910.256 388.583 906.59 389.327 902.498 389.327C895.963 389.327 890.706 387.228 886.728 383.03C882.749 378.832 881.13 373.598 881.868 367.328C882.607 361.217 885.136 356.169 889.455 352.183C893.832 348.198 899.259 346.205 905.738 346.205C910.114 346.205 913.325 347.773 915.371 350.908C915.371 348.517 915.257 346.391 915.03 344.531C914.803 342.671 914.32 340.546 913.581 338.154C912.899 335.763 911.705 333.903 910 332.575C908.352 331.193 906.278 330.502 903.777 330.502C899.572 330.502 896.162 331.725 893.547 334.169L891.331 331.618C894.968 328.218 899.771 326.517 905.738 326.517C914.774 326.517 921.31 329.626 925.345 335.843C929.323 342.113 930.545 350.801 929.011 361.907ZM897.81 367.328C896.957 373.598 896.957 378.195 897.81 381.117C898.662 384.093 900.367 385.581 902.925 385.581C905.369 385.581 907.358 384.173 908.892 381.356C910.37 378.646 911.506 374.236 912.302 368.125C913.098 361.801 913.069 357.205 912.217 354.335C911.364 351.413 909.631 349.951 907.017 349.951C904.63 349.951 902.697 351.28 901.22 353.937C899.685 356.806 898.549 361.27 897.81 367.328Z" fill="#7A0005"/>
<path d="M860.91 199.248L844.188 205.539H911.762L895.487 198.735L878.438 168.483L860.91 199.248Z" fill="#050505" stroke="#050505" stroke-width="0.3"/>
<path fill-rule="evenodd" clip-rule="evenodd" d="M845.119 205.539C842.91 205.539 841.119 207.33 841.119 209.539V228.18C829.447 233.631 819.613 241.882 813.506 252.93C812.602 254.565 812.268 256.225 811.951 257.797C811.461 260.234 811.013 262.461 808.548 264.055C806.231 265.553 801.683 265.909 801.683 265.909V280.742H955.756V265.909C955.756 265.909 951.208 265.553 948.891 264.055C946.426 262.461 945.978 260.234 945.488 257.797C945.171 256.225 944.837 254.565 943.934 252.93C937.667 241.594 927.477 233.204 915.404 227.759V209.539C915.404 207.33 913.613 205.539 911.404 205.539H845.119Z" fill="#7A0005"/>
<rect x="855.088" y="166.303" width="46.8652" height="4.35955" rx="2.17978" fill="#050505"/>
<path d="M926.337 155.573C926.337 156.168 926.995 155.713 927.428 155.573C929.24 154.988 931.483 154.946 933.397 154.818C937.582 154.538 941.992 154.7 946.146 155.255C946.881 155.353 951.074 155.79 950.999 157.003C950.959 157.663 949.022 158.342 948.445 158.612C946.54 159.506 944.315 159.981 942.337 160.768C939.983 161.704 937.714 163.379 935.231 163.986C935.002 164.042 936.698 164.709 936.903 164.8C938.477 165.5 939.937 166.459 941.42 167.293C943.384 168.399 944.988 169.672 946.703 171.038C947.546 171.709 949.032 172.432 949.327 173.442C949.6 174.375 948.743 174.345 947.737 174.345C945.848 174.345 943.922 174.556 942.035 174.663C938.863 174.844 935.356 174.912 932.235 174.306C932.083 174.276 930.643 173.705 931.353 174.345C932.398 175.289 933.641 176.038 934.651 177.027C936.038 178.386 937.007 180.029 938.297 181.457C939.433 182.716 939.994 183.743 940.549 185.251C940.646 185.515 941.143 186.844 940.758 186.999C940.441 187.127 939.277 186.213 938.97 186.056C937.058 185.075 934.691 184.699 932.711 183.821C930.697 182.928 928.395 182.645 926.337 181.765C925.292 181.318 924.269 181.037 923.202 180.682C922.53 180.459 921.975 179.888 921.216 179.888C920.708 179.888 918.361 179.473 918.186 179.173" stroke="#EADEC4" stroke-width="3" stroke-linecap="round"/>
<path d="M832.285 154.515C832.237 155.103 831.641 154.616 831.235 154.453C829.54 153.771 827.387 153.602 825.557 153.366C821.555 152.849 817.301 152.756 813.263 153.066C812.548 153.121 808.481 153.312 808.456 154.513C808.442 155.166 810.25 155.947 810.782 156.247C812.543 157.238 814.644 157.834 816.482 158.724C818.67 159.783 820.717 161.565 823.056 162.306C823.272 162.375 821.588 162.936 821.383 163.014C819.813 163.615 818.332 164.477 816.839 165.215C814.862 166.193 813.217 167.357 811.458 168.607C810.594 169.221 809.107 169.848 808.742 170.828C808.405 171.733 809.231 171.753 810.199 171.811C812.015 171.919 813.849 172.237 815.655 172.451C818.691 172.812 822.057 173.08 825.107 172.66C825.256 172.64 826.686 172.159 825.952 172.75C824.872 173.621 823.616 174.289 822.566 175.207C821.122 176.469 820.058 178.034 818.704 179.369C817.51 180.546 816.888 181.527 816.233 182.984C816.119 183.238 815.534 184.521 815.892 184.697C816.186 184.841 817.379 184.006 817.687 183.868C819.604 183.009 821.911 182.775 823.884 182.022C825.893 181.256 828.13 181.109 830.179 180.359C831.219 179.978 832.226 179.759 833.281 179.47C833.945 179.288 834.524 178.756 835.254 178.8C835.742 178.829 838.032 178.554 838.225 178.268" stroke="#EADEC4" stroke-width="3" stroke-linecap="round"/>
<path d="M875.849 164.706C875.086 170.305 872.574 174.954 868.313 178.652C864.052 182.35 858.615 184.199 852.001 184.199C844.624 184.199 839.218 181.874 835.784 177.226C832.35 172.63 831.205 166.053 832.35 157.495C832.986 153.11 833.876 149.28 835.021 146.005C836.166 142.729 837.819 139.639 839.982 136.734C842.207 133.828 845.196 131.53 848.948 129.84C852.7 128.149 857.216 127.145 862.494 126.829C865.419 126.67 868.44 126.591 871.556 126.591C873.464 126.485 874.959 126.168 876.04 125.64C877.184 125.112 877.916 124.161 878.234 122.787H881.095C880.587 125.798 879.665 128.149 878.329 129.84C877.057 131.477 874.895 132.587 871.842 133.168C870.634 133.379 867.232 133.696 861.635 134.119C854.894 134.541 849.743 135.677 846.182 137.526C842.621 139.375 839.918 142.729 838.074 147.59C836.929 150.601 836.039 154.114 835.403 158.129H836.166C837.311 153.85 839.664 150.521 843.225 148.144C846.85 145.767 851.301 144.578 856.58 144.578C862.748 144.578 867.709 146.48 871.461 150.284C875.149 154.14 876.612 158.947 875.849 164.706ZM841.889 163.755C841.253 169.724 841.794 174.188 843.511 177.146C845.228 180.105 848.153 181.584 852.287 181.584C854.831 181.584 856.993 181.082 858.774 180.078C860.554 179.074 861.89 177.622 862.78 175.72C863.671 173.818 864.306 172.075 864.688 170.49C865.07 168.905 865.388 167.003 865.642 164.785C866.341 158.868 865.896 154.483 864.306 151.631C862.717 148.725 859.918 147.273 855.912 147.273C853.368 147.273 851.174 147.774 849.33 148.778C847.486 149.782 846.087 151.182 845.133 152.978C844.179 154.721 843.447 156.438 842.939 158.129C842.494 159.766 842.144 161.642 841.889 163.755Z" fill="#7A0005"/>
<path d="M928.966 158.762C926.486 175.72 918.123 184.199 903.878 184.199C897.645 184.199 892.59 182.112 888.71 177.939C884.768 173.713 883.209 168.668 884.036 162.804C884.863 157.257 887.311 152.529 891.381 148.62C895.515 144.658 900.793 142.677 907.216 142.677C914.275 142.677 918.663 145.292 920.381 150.521C920.762 141.911 919.872 135.598 917.71 131.583C915.547 127.568 911.986 125.561 907.026 125.561C902.51 125.561 898.695 126.855 895.579 129.443L893.862 127.7C898.059 124.372 902.892 122.708 908.361 122.708C916.247 122.708 922.066 126.01 925.818 132.613C929.506 139.269 930.556 147.986 928.966 158.762ZM894.243 162.804C893.289 168.879 893.671 173.528 895.388 176.75C896.978 179.973 899.903 181.584 904.164 181.584C906.517 181.584 908.584 181.003 910.364 179.84C912.145 178.625 913.544 177.014 914.562 175.007C915.579 172.999 916.342 171.124 916.851 169.381C917.36 167.585 917.741 165.736 917.996 163.834C918.822 157.864 918.377 153.268 916.66 150.046C914.816 146.929 911.827 145.371 907.693 145.371C905.213 145.371 903.083 145.926 901.302 147.035C899.585 148.144 898.25 149.729 897.296 151.789C896.405 153.797 895.738 155.593 895.292 157.178C894.911 158.71 894.561 160.585 894.243 162.804Z" fill="#7A0005"/>
<rect x="1003.4" y="206.809" width="196.91" height="178.382" fill="#3D5D8C" stroke="#7A0005" stroke-width="4"/>
<rect x="1003.4" y="2" width="196.91" height="178.382" fill="#3D5D8C" stroke="#7A0005" stroke-width="4"/>
<rect x="1003.4" y="410.618" width="196.91" height="178.382" fill="#3D5D8C" stroke="#7A0005" stroke-width="4"/>
<path d="M1084.72 506.765L1068 513.056H1135.57L1119.3 506.252L1102.25 476L1084.72 506.765Z" fill="#050505" stroke="#050505" stroke-width="0.3"/>
<path fill-rule="evenodd" clip-rule="evenodd" d="M1068.46 512.798C1066.25 512.798 1064.46 514.589 1064.46 516.798V535.438C1052.79 540.89 1042.96 549.14 1036.85 560.189C1035.94 561.824 1035.61 563.483 1035.29 565.055C1034.8 567.493 1034.35 569.719 1031.89 571.313C1029.57 572.812 1025.02 573.167 1025.02 573.167V588H1179.1V573.167C1179.1 573.167 1174.55 572.812 1172.23 571.313C1169.77 569.719 1169.32 567.493 1168.83 565.055C1168.51 563.483 1168.18 561.824 1167.28 560.189C1161.01 548.853 1150.82 540.462 1138.75 535.018V516.798C1138.75 514.589 1136.96 512.798 1134.75 512.798H1068.46Z" fill="#7A0005"/>
<rect x="1079" y="473" width="46.8652" height="4.35955" rx="2.17978" fill="#050505"/>
<path d="M1153.7 460.115C1153.7 460.729 1154.28 460.259 1154.66 460.115C1156.26 459.511 1158.24 459.468 1159.93 459.336C1163.62 459.047 1167.51 459.214 1171.18 459.787C1171.83 459.888 1175.53 460.339 1175.46 461.59C1175.43 462.27 1173.72 462.971 1173.21 463.25C1171.53 464.172 1169.56 464.662 1167.82 465.473C1165.74 466.44 1163.74 468.167 1161.55 468.793C1161.34 468.851 1162.84 469.539 1163.02 469.634C1164.41 470.356 1165.7 471.345 1167.01 472.205C1168.74 473.346 1170.16 474.659 1171.67 476.068C1172.41 476.761 1173.73 477.506 1173.99 478.548C1174.23 479.511 1173.47 479.481 1172.58 479.481C1170.92 479.481 1169.22 479.697 1167.55 479.808C1164.75 479.995 1161.66 480.065 1158.9 479.44C1158.77 479.409 1157.5 478.82 1158.12 479.481C1159.05 480.454 1160.14 481.227 1161.03 482.247C1162.26 483.649 1163.11 485.344 1164.25 486.817C1165.25 488.116 1165.75 489.175 1166.24 490.731C1166.32 491.003 1166.76 492.375 1166.42 492.535C1166.14 492.666 1165.12 491.724 1164.85 491.561C1163.16 490.549 1161.07 490.161 1159.32 489.256C1157.55 488.334 1155.51 488.043 1153.7 487.135C1152.78 486.674 1151.87 486.384 1150.93 486.018C1150.34 485.787 1149.85 485.198 1149.18 485.198C1148.73 485.198 1146.66 484.77 1146.5 484.46" stroke="#EADEC4" stroke-width="3" stroke-linecap="round"/>
<path d="M1053.16 462.224C1053.12 462.83 1052.59 462.328 1052.23 462.159C1050.74 461.456 1048.84 461.282 1047.22 461.038C1043.69 460.505 1039.94 460.41 1036.37 460.729C1035.74 460.786 1032.15 460.982 1032.13 462.221C1032.12 462.895 1033.71 463.701 1034.18 464.01C1035.74 465.033 1037.59 465.648 1039.21 466.565C1041.14 467.658 1042.95 469.497 1045.01 470.261C1045.2 470.332 1043.72 470.911 1043.54 470.992C1042.15 471.611 1040.85 472.5 1039.53 473.262C1037.78 474.271 1036.33 475.472 1034.78 476.761C1034.02 477.394 1032.7 478.042 1032.38 479.053C1032.08 479.987 1032.81 480.007 1033.67 480.067C1035.27 480.178 1036.89 480.506 1038.48 480.727C1041.16 481.099 1044.13 481.376 1046.82 480.943C1046.96 480.922 1048.22 480.425 1047.57 481.036C1046.62 481.934 1045.51 482.623 1044.58 483.57C1043.31 484.872 1042.37 486.486 1041.17 487.864C1040.12 489.078 1039.57 490.09 1038.99 491.593C1038.89 491.855 1038.38 493.179 1038.69 493.36C1038.95 493.508 1040 492.647 1040.28 492.505C1041.97 491.619 1044 491.377 1045.74 490.6C1047.52 489.81 1049.49 489.659 1051.3 488.884C1052.22 488.492 1053.11 488.266 1054.04 487.968C1054.62 487.78 1055.13 487.232 1055.78 487.276C1056.21 487.306 1058.23 487.023 1058.4 486.728" stroke="#EADEC4" stroke-width="3" stroke-linecap="round"/>
<path d="M1100.15 472.466C1099.34 478.962 1096.36 484.267 1091.22 488.381C1086.13 492.44 1080.26 494.47 1073.6 494.47C1066.35 494.47 1060.85 492.089 1057.12 487.325C1053.33 482.561 1051.95 476.012 1052.98 467.675C1053.63 462.695 1054.6 458.311 1055.9 454.521C1057.2 450.732 1059.01 447.295 1061.34 444.209C1063.67 441.124 1066.67 438.715 1070.35 436.983C1074.04 435.251 1078.39 434.195 1083.43 433.816C1084.51 433.762 1086.03 433.681 1087.97 433.573L1091.63 433.41C1094.17 433.248 1096.01 432.95 1097.15 432.517C1098.18 432.138 1098.75 431.57 1098.85 430.812H1102.91C1102.43 435.251 1101.37 438.688 1099.75 441.124C1098.18 443.506 1095.47 445.13 1091.63 445.996C1089.84 446.375 1086.11 446.781 1080.42 447.214C1075.61 447.647 1072.2 448.107 1070.19 448.594C1065.86 449.623 1062.86 451.436 1061.18 454.034C1059.56 456.633 1058.45 460.395 1057.85 465.321H1058.99C1060.72 461.044 1063.45 457.796 1067.19 455.577C1070.92 453.358 1075.17 452.248 1079.94 452.248C1086.38 452.248 1091.52 454.143 1095.36 457.932C1099.26 461.775 1100.86 466.62 1100.15 472.466ZM1071.09 472.628C1070.33 479.07 1070.19 483.536 1070.68 486.026C1071.17 488.624 1072.33 489.923 1074.17 489.923C1076.01 489.923 1077.5 488.678 1078.64 486.188C1079.77 483.482 1080.69 479.178 1081.4 473.278C1082.16 466.999 1082.29 462.695 1081.8 460.368C1081.32 457.986 1080.13 456.795 1078.23 456.795C1076.28 456.795 1074.79 457.959 1073.77 460.286C1072.68 462.668 1071.79 466.782 1071.09 472.628Z" fill="#7A0005"/>
<path d="M1153.71 465.564C1153 470.869 1151.59 475.633 1149.48 479.855C1147.43 484.077 1144.37 487.569 1140.31 490.329C1136.3 493.09 1131.62 494.47 1126.26 494.47C1119.44 494.47 1114.05 492.332 1110.1 488.056C1106.1 483.779 1104.45 478.366 1105.15 471.816C1105.96 465.266 1108.59 459.962 1113.03 455.902C1117.47 451.842 1122.96 449.812 1129.51 449.812C1132.87 449.812 1135.54 450.813 1137.55 452.816C1137.11 440.745 1133.49 434.709 1126.67 434.709C1122.66 434.709 1119.41 435.873 1116.92 438.201L1114.49 435.197C1117.95 431.732 1122.77 430 1128.94 430C1138.52 430 1145.42 433.058 1149.65 439.175C1153.81 445.292 1155.17 454.088 1153.71 465.564ZM1123.83 471.816C1123.01 478.583 1122.85 483.292 1123.34 485.945C1123.83 488.651 1124.99 490.004 1126.83 490.004C1128.67 490.004 1130.16 488.678 1131.3 486.026C1132.43 483.319 1133.41 478.799 1134.22 472.466C1135.03 465.7 1135.19 460.99 1134.71 458.338C1134.22 455.631 1133.05 454.278 1131.21 454.278C1129.37 454.278 1127.89 455.604 1126.75 458.256C1125.61 460.963 1124.64 465.483 1123.83 471.816Z" fill="#7A0005"/>
<path d="M1084.25 300.607L1067.53 306.899H1135.1L1118.83 300.094L1101.78 269.843L1084.25 300.607Z" fill="#050505" stroke="#050505" stroke-width="0.3"/>
<path fill-rule="evenodd" clip-rule="evenodd" d="M1068.46 306.899C1066.25 306.899 1064.46 308.69 1064.46 310.899V330.007C1052.78 335.502 1042.93 343.823 1036.82 354.972C1035.91 356.62 1035.58 358.292 1035.26 359.876C1034.77 362.333 1034.33 364.577 1031.86 366.183C1029.55 367.693 1025 368.052 1025 368.052V383H1179V368.052C1179 368.052 1174.45 367.693 1172.14 366.183C1169.67 364.577 1169.23 362.333 1168.74 359.876C1168.42 358.292 1168.09 356.62 1167.18 354.972C1160.93 343.573 1150.78 335.129 1138.75 329.642V310.899C1138.75 308.69 1136.96 306.899 1134.75 306.899H1068.46Z" fill="#7A0005"/>
<rect x="1078.43" y="267.663" width="46.8652" height="4.35955" rx="2.17978" fill="#050505"/>
<path d="M1150.62 255.689C1150.62 256.28 1151.25 255.828 1151.67 255.689C1153.41 255.107 1155.57 255.066 1157.41 254.939C1161.43 254.66 1165.67 254.821 1169.67 255.373C1170.38 255.471 1174.41 255.905 1174.34 257.11C1174.3 257.765 1172.43 258.44 1171.88 258.709C1170.05 259.597 1167.91 260.069 1166.01 260.851C1163.74 261.781 1161.56 263.445 1159.17 264.048C1158.95 264.104 1160.58 264.767 1160.78 264.858C1162.29 265.554 1163.7 266.506 1165.12 267.335C1167.01 268.433 1168.56 269.699 1170.2 271.056C1171.02 271.723 1172.44 272.441 1172.73 273.445C1172.99 274.372 1172.17 274.343 1171.2 274.343C1169.38 274.343 1167.53 274.552 1165.72 274.659C1162.66 274.838 1159.29 274.906 1156.29 274.303C1156.14 274.274 1154.76 273.706 1155.44 274.343C1156.45 275.28 1157.64 276.025 1158.61 277.008C1159.95 278.358 1160.88 279.99 1162.12 281.41C1163.21 282.661 1163.75 283.681 1164.29 285.18C1164.38 285.442 1164.86 286.763 1164.49 286.917C1164.18 287.044 1163.06 286.136 1162.77 285.979C1160.93 285.004 1158.65 284.631 1156.75 283.759C1154.81 282.871 1152.6 282.59 1150.62 281.716C1149.61 281.272 1148.63 280.993 1147.6 280.64C1146.95 280.418 1146.42 279.85 1145.69 279.85C1145.2 279.85 1142.94 279.438 1142.78 279.14" stroke="#EADEC4" stroke-width="3" stroke-linecap="round"/>
<path d="M1054.62 257.082C1054.58 257.666 1054 257.182 1053.61 257.02C1051.98 256.342 1049.91 256.174 1048.15 255.94C1044.3 255.426 1040.21 255.334 1036.33 255.642C1035.64 255.696 1031.73 255.886 1031.7 257.079C1031.69 257.728 1033.43 258.504 1033.94 258.802C1035.63 259.787 1037.65 260.38 1039.42 261.264C1041.53 262.316 1043.5 264.087 1045.75 264.824C1045.95 264.892 1044.33 265.449 1044.14 265.527C1042.63 266.124 1041.2 266.98 1039.77 267.714C1037.86 268.686 1036.28 269.843 1034.59 271.084C1033.76 271.695 1032.33 272.318 1031.98 273.292C1031.65 274.191 1032.45 274.211 1033.38 274.269C1035.13 274.376 1036.89 274.692 1038.63 274.905C1041.55 275.263 1044.79 275.53 1047.72 275.113C1047.86 275.092 1049.24 274.614 1048.53 275.202C1047.49 276.067 1046.28 276.731 1045.27 277.643C1043.89 278.897 1042.86 280.452 1041.56 281.779C1040.41 282.949 1039.81 283.924 1039.18 285.371C1039.07 285.624 1038.51 286.899 1038.85 287.073C1039.14 287.216 1040.29 286.386 1040.58 286.25C1042.43 285.396 1044.64 285.163 1046.54 284.415C1048.47 283.654 1050.63 283.508 1052.6 282.762C1053.6 282.384 1054.57 282.167 1055.58 281.879C1056.22 281.698 1056.78 281.17 1057.48 281.213C1057.95 281.242 1060.15 280.969 1060.34 280.685" stroke="#EADEC4" stroke-width="3" stroke-linecap="round"/>
<path d="M1098.59 265.363C1097.94 271.099 1095.38 275.844 1090.89 279.598C1086.41 283.352 1080.95 285.229 1074.52 285.229C1067.38 285.229 1062.1 282.935 1058.68 278.347C1055.26 273.862 1054.08 267.423 1055.14 259.028C1055.73 254.596 1056.58 250.712 1057.71 247.375C1058.89 243.985 1060.57 240.831 1062.75 237.911C1064.93 234.991 1067.85 232.697 1071.51 231.028C1075.17 229.36 1079.51 228.369 1084.52 228.056C1085.76 228.004 1087.41 227.926 1089.48 227.822C1091.54 227.822 1092.75 227.795 1093.11 227.743C1095.47 227.639 1097.12 227.326 1098.06 226.805C1098.95 226.388 1099.54 225.579 1099.83 224.38H1102.93C1102.4 227.613 1101.42 230.22 1100.01 232.201C1098.65 234.131 1096.41 235.356 1093.28 235.877C1091.98 236.086 1088.56 236.399 1083.02 236.816C1076.82 237.233 1072.01 238.224 1068.59 239.788C1065.23 241.352 1062.72 244.35 1061.07 248.782C1060.12 251.337 1059.33 254.674 1058.68 258.794H1059.56C1060.8 254.57 1063.19 251.337 1066.73 249.095C1070.33 246.801 1074.61 245.654 1079.56 245.654C1085.58 245.654 1090.42 247.505 1094.08 251.207C1097.68 254.961 1099.18 259.68 1098.59 265.363ZM1067 264.738C1066.35 270.786 1066.67 275.166 1067.97 277.877C1069.27 280.693 1071.57 282.101 1074.87 282.101C1077 282.101 1078.8 281.579 1080.27 280.536C1081.81 279.441 1082.93 277.929 1083.64 276C1084.4 274.071 1084.93 272.376 1085.23 270.916C1085.52 269.456 1085.79 267.71 1086.03 265.676C1086.73 259.888 1086.47 255.613 1085.23 252.849C1083.99 250.138 1081.78 248.782 1078.59 248.782C1072.1 248.782 1068.24 254.101 1067 264.738Z" fill="#7A0005"/>
<path d="M1150.82 259.341C1150.4 262.104 1149.81 264.685 1149.05 267.084C1148.34 269.43 1147.3 271.751 1145.95 274.045C1144.65 276.287 1143.09 278.216 1141.26 279.833C1139.49 281.449 1137.25 282.752 1134.53 283.743C1131.88 284.734 1128.93 285.229 1125.68 285.229C1119.37 285.229 1114.32 283.17 1110.55 279.05C1106.71 274.879 1105.18 269.821 1105.95 263.877C1106.71 258.194 1109.16 253.423 1113.29 249.564C1117.42 245.654 1122.61 243.699 1128.87 243.699C1134.65 243.699 1138.43 245.81 1140.2 250.034C1140.31 242.16 1139.37 236.451 1137.36 232.905C1135.36 229.255 1132.2 227.43 1127.89 227.43C1123.59 227.43 1120.05 228.656 1117.27 231.106L1115.41 229.073C1119.01 225.736 1123.7 224.067 1129.49 224.067C1137.75 224.067 1143.74 227.222 1147.45 233.531C1151.17 239.892 1152.29 248.496 1150.82 259.341ZM1118.42 263.877C1117.6 269.978 1117.83 274.514 1119.13 277.486C1120.37 280.563 1122.67 282.101 1126.04 282.101C1132.23 282.101 1136.07 276.339 1137.54 264.816C1138.37 258.82 1138.1 254.283 1136.74 251.207C1135.39 248.235 1133.06 246.749 1129.75 246.749C1127.69 246.749 1125.92 247.322 1124.44 248.47C1122.97 249.617 1121.82 251.259 1120.99 253.397C1120.22 255.483 1119.66 257.229 1119.31 258.637C1119.01 260.045 1118.72 261.792 1118.42 263.877Z" fill="#7A0005"/>
<path d="M1084.25 96.7984L1067.53 103.09H1135.1L1118.83 96.285L1101.78 66.0334L1084.25 96.7984Z" fill="#050505" stroke="#050505" stroke-width="0.3"/>
<path fill-rule="evenodd" clip-rule="evenodd" d="M1068.46 103.09C1066.25 103.09 1064.46 104.881 1064.46 107.09V125.73C1052.79 131.182 1042.96 139.432 1036.85 150.481C1035.94 152.116 1035.61 153.775 1035.29 155.347C1034.8 157.785 1034.36 160.011 1031.89 161.605C1029.57 163.104 1025.03 163.459 1025.03 163.459V178.292H1179.1V163.459C1179.1 163.459 1174.55 163.104 1172.23 161.605C1169.77 160.011 1169.32 157.785 1168.83 155.347C1168.51 153.775 1168.18 152.116 1167.28 150.481C1161.01 139.144 1150.82 130.754 1138.75 125.31V107.09C1138.75 104.881 1136.96 103.09 1134.75 103.09H1068.46Z" fill="#7A0005"/>
<rect x="1078.43" y="62.8538" width="46.8652" height="4.35955" rx="2.17978" fill="#050505"/>
<path d="M1149.21 58.4675C1149.21 59.0402 1149.91 58.6022 1150.37 58.4675C1152.29 57.9044 1154.68 57.8646 1156.71 57.7414C1161.16 57.4719 1165.85 57.6278 1170.27 58.1618C1171.05 58.2563 1175.51 58.6764 1175.43 59.8431C1175.39 60.4774 1173.33 61.1306 1172.71 61.3908C1170.69 62.2504 1168.32 62.7072 1166.22 63.4638C1163.72 64.3646 1161.3 65.9753 1158.66 66.5591C1158.42 66.6129 1160.22 67.2545 1160.44 67.3424C1162.12 68.0159 1163.67 68.9377 1165.24 69.7403C1167.33 70.8033 1169.04 72.028 1170.86 73.3419C1171.76 73.9874 1173.34 74.6824 1173.65 75.6538C1173.94 76.5516 1173.03 76.5231 1171.96 76.5231C1169.95 76.5231 1167.9 76.7253 1165.9 76.8288C1162.53 77.0028 1158.8 77.0685 1155.48 76.4849C1155.32 76.4564 1153.79 75.907 1154.54 76.5231C1155.65 77.4307 1156.97 78.1514 1158.05 79.1025C1159.52 80.4099 1160.55 81.9897 1161.92 83.3633C1163.13 84.5745 1163.73 85.5619 1164.32 87.0126C1164.42 87.2661 1164.95 88.5448 1164.54 88.694C1164.2 88.8169 1162.97 87.9378 1162.64 87.7864C1160.61 86.8427 1158.09 86.4814 1155.98 85.637C1153.84 84.7777 1151.39 84.506 1149.21 83.6594C1148.1 83.2298 1147.01 82.9596 1145.87 82.6181C1145.16 82.4031 1144.57 81.8539 1143.76 81.8539C1143.22 81.8539 1140.73 81.4552 1140.54 81.166" stroke="#EADEC4" stroke-width="3" stroke-linecap="round"/>
<path d="M1058.38 59.816C1058.33 60.3811 1057.69 59.9127 1057.26 59.7558C1055.46 59.1004 1053.17 58.9374 1051.23 58.7104C1046.97 58.2137 1042.45 58.1244 1038.15 58.4222C1037.39 58.475 1033.07 58.6583 1033.04 59.8136C1033.03 60.4417 1034.95 61.193 1035.52 61.4815C1037.39 62.4347 1039.62 63.0081 1041.58 63.8637C1043.9 64.8823 1046.08 66.5966 1048.57 67.3095C1048.8 67.3752 1047.01 67.9148 1046.79 67.9903C1045.12 68.5679 1043.54 69.397 1041.96 70.1072C1039.85 71.0478 1038.11 72.1677 1036.23 73.3695C1035.32 73.96 1033.73 74.5637 1033.35 75.506C1032.99 76.3767 1033.87 76.3959 1034.9 76.4514C1036.83 76.5556 1038.78 76.8612 1040.7 77.0674C1043.92 77.414 1047.5 77.6721 1050.75 77.2684C1050.91 77.2486 1052.43 76.7859 1051.65 77.3547C1050.5 78.1926 1049.16 78.8351 1048.05 79.718C1046.51 80.9314 1045.38 82.4367 1043.94 83.721C1042.67 84.8534 1042.01 85.7967 1041.31 87.1975C1041.19 87.4423 1040.57 88.6766 1040.95 88.845C1041.26 88.9837 1042.53 88.1806 1042.86 88.0481C1044.9 87.2223 1047.35 86.9963 1049.45 86.2723C1051.58 85.5356 1053.96 85.3944 1056.14 84.6726C1057.25 84.3062 1058.32 84.0961 1059.44 83.818C1060.14 83.6429 1060.76 83.1315 1061.54 83.1733C1062.05 83.2013 1064.49 82.9374 1064.7 82.6618" stroke="#EADEC4" stroke-width="3" stroke-linecap="round"/>
<path d="M1099.03 65.9959C1098.38 71.1942 1095.96 75.5597 1091.79 79.0925C1087.62 82.6253 1082.24 84.3918 1075.65 84.3918C1068.21 84.3918 1062.83 82.1711 1059.5 77.7299C1056.11 73.3896 1055 67.081 1056.18 58.8041C1056.7 55.5237 1057.32 52.6217 1058.04 50.0983C1058.75 47.5748 1059.86 45.0514 1061.36 42.528C1062.86 40.0045 1064.66 37.9101 1066.74 36.2446C1068.83 34.5287 1071.51 33.0903 1074.77 31.9296C1078.09 30.7688 1081.91 30.0622 1086.21 29.8099C1089.34 29.6585 1092.41 29.5828 1095.41 29.5828C1097.43 29.4818 1098.93 29.179 1099.91 28.6743C1100.95 28.1696 1101.67 27.2107 1102.06 25.7976H1104.7C1104.18 28.3715 1103.27 30.466 1101.96 32.081C1100.66 33.696 1098.57 34.7053 1095.7 35.1091C1094.99 35.2605 1091.66 35.5381 1085.72 35.9418C1078.75 36.3456 1073.46 37.5063 1069.88 39.4242C1066.29 41.342 1063.55 44.7234 1061.66 49.5684C1060.48 52.5965 1059.57 56.0031 1058.92 59.7883H1059.6C1060.71 55.7003 1063.03 52.5208 1066.55 50.2497C1070.07 47.9281 1074.54 46.7673 1079.95 46.7673C1086.15 46.7673 1091.04 48.5842 1094.63 52.218C1098.21 55.9022 1099.68 60.4948 1099.03 65.9959ZM1064.2 64.9361C1063.61 70.6895 1064.3 74.9793 1066.26 77.8056C1068.15 80.6823 1071.34 82.1207 1075.84 82.1207C1078.06 82.1207 1080.02 81.7926 1081.71 81.1365C1083.41 80.43 1084.75 79.572 1085.72 78.5626C1086.7 77.5532 1087.52 76.2663 1088.17 74.7018C1088.89 73.1372 1089.38 71.7241 1089.64 70.4624C1089.9 69.2007 1090.13 67.7119 1090.32 65.9959C1091.04 60.293 1090.45 56.0536 1088.56 53.2778C1086.67 50.4516 1083.64 49.0384 1079.46 49.0384C1076.72 49.0384 1074.34 49.4927 1072.32 50.4011C1070.36 51.3095 1068.83 52.5965 1067.72 54.2619C1066.68 55.9274 1065.9 57.5929 1065.37 59.2583C1064.85 60.8733 1064.46 62.7659 1064.2 64.9361Z" fill="#7A0005"/>
<path d="M1152.36 60.4696C1149.88 76.4177 1141.66 84.3918 1127.71 84.3918C1121.51 84.3918 1116.52 82.3982 1112.74 78.4112C1108.82 74.4242 1107.26 69.6297 1108.04 64.0276C1108.82 58.8798 1111.27 54.4386 1115.38 50.7039C1119.49 46.9188 1124.71 45.0262 1131.03 45.0262C1138.66 45.0262 1143.36 47.7263 1145.12 53.1264C1145.64 44.6477 1144.76 38.3895 1142.48 34.3521C1140.2 30.3146 1136.48 28.2958 1131.33 28.2958C1126.56 28.2958 1122.65 29.5575 1119.59 32.081L1118.02 30.5669C1122.13 27.3874 1126.96 25.7976 1132.5 25.7976C1140.2 25.7976 1145.84 29.0024 1149.43 35.4119C1153.08 41.8719 1154.06 50.2245 1152.36 60.4696ZM1116.75 64.0276C1115.77 69.7811 1116.26 74.2223 1118.22 77.3514C1120.11 80.5309 1123.34 82.1207 1127.9 82.1207C1130.38 82.1207 1132.57 81.5655 1134.46 80.4552C1136.41 79.2944 1137.95 77.7804 1139.05 75.913C1140.16 74.0457 1141.01 72.2288 1141.6 70.4624C1142.19 68.696 1142.61 66.9044 1142.87 65.0875C1143.72 59.435 1143.16 55.0442 1141.21 51.9152C1139.19 48.8366 1135.89 47.2973 1131.33 47.2973C1129.17 47.2973 1127.25 47.6758 1125.55 48.4328C1123.86 49.1898 1122.52 50.0983 1121.54 51.1581C1120.63 52.218 1119.81 53.5806 1119.1 55.2461C1118.38 56.9116 1117.86 58.3751 1117.53 59.6369C1117.27 60.8481 1117.01 62.3117 1116.75 64.0276Z" fill="#7A0005"/>
<rect x="2" y="-2" width="196.773" height="178.258" transform="matrix(-1 0 0 1 422.952 106.287)" fill="#3D5D8C" stroke="#7A0005" stroke-width="4"/>
<rect x="2" y="-2" width="196.773" height="178.258" transform="matrix(-1 0 0 1 422.952 309.951)" fill="#3D5D8C" stroke="#7A0005" stroke-width="4"/>
<path d="M340.162 402.773L356.872 409.06H289.347L305.609 402.26L322.647 372.03L340.162 402.773Z" fill="#050505" stroke="#050505" stroke-width="0.3"/>
<path fill-rule="evenodd" clip-rule="evenodd" d="M355.938 409.06C358.147 409.06 359.938 410.851 359.938 413.06V431.684C371.602 437.132 381.429 445.377 387.532 456.417C388.435 458.051 388.769 459.71 389.085 461.28C389.575 463.716 390.023 465.941 392.486 467.534C394.802 469.031 399.346 469.387 399.346 469.387V484.209H245.383V469.387C245.383 469.387 249.928 469.031 252.243 467.534C254.706 465.941 255.154 463.716 255.644 461.28C255.96 459.71 256.294 458.051 257.197 456.417C263.46 445.089 273.642 436.705 285.706 431.264V413.06C285.706 410.851 287.497 409.06 289.706 409.06H355.938Z" fill="#7A0005"/>
<rect width="46.8317" height="4.35644" rx="2.17822" transform="matrix(-1 0 0 1 345.98 369.852)" fill="#050505"/>
<path d="M340.158 199.11L356.868 205.396H289.343L305.606 198.597L322.643 168.367L340.158 199.11Z" fill="#050505" stroke="#050505" stroke-width="0.3"/>
<path fill-rule="evenodd" clip-rule="evenodd" d="M355.935 205.396C358.144 205.396 359.935 207.187 359.935 209.396V228.021C371.599 233.469 381.425 241.713 387.529 252.754C388.432 254.387 388.766 256.046 389.082 257.617C389.572 260.053 390.02 262.277 392.483 263.87C394.798 265.367 399.343 265.723 399.343 265.723V280.545H245.38V265.723C245.38 265.723 249.924 265.367 252.24 263.87C254.703 262.277 255.151 260.053 255.641 257.617C255.957 256.046 256.291 254.387 257.194 252.754C263.456 241.425 273.638 233.041 285.703 227.601V209.396C285.703 207.187 287.494 205.396 289.703 205.396H355.935Z" fill="#7A0005"/>
<rect width="46.8317" height="4.35644" rx="2.17822" transform="matrix(-1 0 0 1 345.977 166.188)" fill="#050505"/>
<rect x="2" y="-2" width="196.773" height="178.258" transform="matrix(-1 0 0 1 200.772 208.664)" fill="#3D5D8C" stroke="#7A0005" stroke-width="4"/>
<rect x="2" y="-2" width="196.773" height="178.258" transform="matrix(-1 0 0 1 200.772 4)" fill="#3D5D8C" stroke="#7A0005" stroke-width="4"/>
<rect x="2" y="-2" width="196.773" height="178.258" transform="matrix(-1 0 0 1 200.772 412.327)" fill="#3D5D8C" stroke="#7A0005" stroke-width="4"/>
<path d="M118.172 506.379L135 513H66.9995L83.3766 505.838L100.534 474L118.172 506.379Z" fill="#050505" stroke="#050505" stroke-width="0.3"/>
<path fill-rule="evenodd" clip-rule="evenodd" d="M133.762 512.436C135.971 512.436 137.762 514.227 137.762 516.436V535.06C149.425 540.508 159.252 548.753 165.355 559.794C166.259 561.427 166.592 563.086 166.908 564.656C167.399 567.092 167.846 569.317 170.31 570.91C172.625 572.407 177.169 572.763 177.169 572.763V587.585H23.2064V572.763C23.2064 572.763 27.7511 572.407 30.0662 570.91C32.5296 569.317 32.9772 567.092 33.4675 564.656C33.7835 563.086 34.1173 561.427 35.0204 559.794C41.2829 548.465 51.4649 540.081 63.5294 534.64V516.436C63.5294 514.227 65.3202 512.436 67.5294 512.436H133.762Z" fill="#7A0005"/>
<rect width="46.8317" height="4.35644" rx="2.17822" transform="matrix(-1 0 0 1 123.802 472.228)" fill="#050505"/>
<path d="M117.985 300.397L134.695 306.684H67.17L83.4326 299.884L100.47 269.654L117.985 300.397Z" fill="#050505" stroke="#050505" stroke-width="0.3"/>
<path fill-rule="evenodd" clip-rule="evenodd" d="M133.763 306.684C135.972 306.684 137.763 308.474 137.763 310.684V329.659C149.427 335.192 159.253 343.564 165.357 354.777C166.26 356.436 166.594 358.12 166.91 359.715C167.4 362.189 167.848 364.448 170.311 366.066C172.626 367.586 177.171 367.948 177.171 367.948V383H23.2079V367.948C23.2079 367.948 27.7526 367.586 30.0676 366.066C32.531 364.448 32.9787 362.189 33.4689 359.715C33.785 358.12 34.1187 356.436 35.0219 354.777C41.2844 343.272 51.4665 334.758 63.531 329.233V310.684C63.531 308.474 65.3219 306.684 67.531 306.684H133.763Z" fill="#7A0005"/>
<rect width="46.8317" height="4.35644" rx="2.17822" transform="matrix(-1 0 0 1 123.804 267.476)" fill="#050505"/>
<path d="M118.172 96.5485L135 103H66.9995L83.3766 96.0221L100.534 65L118.172 96.5485Z" fill="#050505" stroke="#050505" stroke-width="0.3"/>
<path fill-rule="evenodd" clip-rule="evenodd" d="M133.762 103.02C135.971 103.02 137.762 104.811 137.762 107.02V125.593C149.426 131.029 159.252 139.255 165.356 150.271C166.259 151.901 166.593 153.556 166.909 155.123C167.399 157.553 167.847 159.773 170.31 161.363C172.625 162.856 177.17 163.211 177.17 163.211V178H23.2069V163.211C23.2069 163.211 27.7516 162.856 30.0667 161.363C32.5301 159.773 32.9777 157.553 33.4679 155.123C33.784 153.556 34.1178 151.901 35.0209 150.271C41.2834 138.968 51.4655 130.602 63.53 125.174V107.02C63.53 104.811 65.3209 103.02 67.53 103.02H133.762Z" fill="#7A0005"/>
<rect width="46.8317" height="4.35644" rx="2.17822" transform="matrix(-1 0 0 1 123.803 62.812)" fill="#050505"/>
<path d="M137.118 443.684C136.894 443.708 136.143 444.693 135.948 444.292C135.621 443.622 135.879 442.205 135.907 441.501C135.983 439.582 136.726 438.162 137.73 436.554C138.767 434.894 140.189 432.875 142.191 432.375C144.569 431.78 149.556 431.412 151.074 433.79C152.408 435.881 151.995 440.174 151.318 442.441C151.119 443.107 150.164 444.182 150.584 442.957C150.815 442.281 151.564 441.885 152.162 441.541C154.356 440.28 156.603 439.959 159.126 440.166C162.025 440.402 164.49 441.908 165.383 444.636C166.106 446.846 165.213 450.12 163.547 451.739C163.133 452.142 160.1 453.883 159.453 453.393C159.096 453.123 161.702 452.33 161.847 452.308C164.324 451.945 166.759 452.242 168.702 453.816C170.53 455.297 171.208 457.002 171.382 459.279C171.515 461.034 171.957 462.743 171.151 464.398C169.81 467.151 167.007 469.133 163.778 469.133C160.759 469.133 158.851 468.042 156.215 467.017" stroke="#7A0005" stroke-width="5" stroke-linecap="round"/>
<path d="M46.977 467.235C47.0405 467.445 48.1687 467.992 47.7974 468.249C47.1757 468.679 45.696 468.679 44.9785 468.775C43.0212 469.038 41.4539 468.574 39.6512 467.894C37.7889 467.191 35.4966 466.182 34.6399 464.352C33.6228 462.179 32.3795 457.468 34.522 455.6C36.4064 453.957 40.8255 453.603 43.2385 453.855C43.9482 453.929 45.2031 454.657 43.8891 454.468C43.1648 454.365 42.6327 453.717 42.1805 453.205C40.5206 451.324 39.8034 449.229 39.5716 446.776C39.3053 443.96 40.3988 441.336 43.006 440.005C45.117 438.927 48.5877 439.211 50.5188 440.523C50.9984 440.849 53.2908 443.449 52.9079 444.154C52.6969 444.543 51.4385 442.187 51.3916 442.051C50.5909 439.743 50.4664 437.359 51.7214 435.224C52.902 433.215 54.5094 432.268 56.785 431.704C58.5384 431.27 60.1918 430.549 62.0085 431.032C65.0298 431.835 67.5268 434.172 68.0906 437.264C68.6179 440.155 67.8461 442.173 67.2682 444.875" stroke="#7A0005" stroke-width="5" stroke-linecap="round"/>
<path d="M72.7743 445C80.2282 445 86.4597 447.262 91.4687 451.785C96.5373 456.308 99.0716 462.136 99.0716 469.268C99.0716 476.227 96.5075 481.91 91.3792 486.317C86.251 490.666 80.0493 492.84 72.7743 492.84C65.3801 492.84 59.1486 490.579 54.08 486.056C49.0114 481.533 46.4771 475.705 46.4771 468.572C46.4771 461.614 49.0412 455.96 54.1695 451.611C59.2977 447.204 65.4994 445 72.7743 445ZM77.1572 454.134C76.2628 451.234 74.8018 449.784 72.7743 449.784C70.7469 449.784 69.2859 451.176 68.3915 453.96C67.497 456.801 67.0498 461.672 67.0498 468.572C67.0498 475.705 67.497 480.721 68.3915 483.62C69.2859 486.578 70.7469 488.056 72.7743 488.056C74.8018 488.056 76.2628 486.636 77.1572 483.794C78.0517 481.011 78.4989 476.169 78.4989 469.268C78.4989 462.136 78.0517 457.091 77.1572 454.134Z" fill="#EADEC4"/>
<path d="M128.941 445C136.394 445 142.626 447.262 147.635 451.785C152.703 456.308 155.238 462.136 155.238 469.268C155.238 476.227 152.674 481.91 147.545 486.317C142.417 490.666 136.215 492.84 128.941 492.84C121.546 492.84 115.315 490.579 110.246 486.056C105.178 481.533 102.643 475.705 102.643 468.572C102.643 461.614 105.207 455.96 110.336 451.611C115.464 447.204 121.666 445 128.941 445ZM133.323 454.134C132.429 451.234 130.968 449.784 128.941 449.784C126.913 449.784 125.452 451.176 124.558 453.96C123.663 456.801 123.216 461.672 123.216 468.572C123.216 475.705 123.663 480.721 124.558 483.62C125.452 486.578 126.913 488.056 128.941 488.056C130.968 488.056 132.429 486.636 133.323 483.794C134.218 481.011 134.665 476.169 134.665 469.268C134.665 462.136 134.218 457.091 133.323 454.134Z" fill="#EADEC4"/>
<path d="M356.054 344.623C355.826 344.647 355.06 345.636 354.861 345.234C354.528 344.561 354.791 343.138 354.819 342.432C354.897 340.504 355.654 339.078 356.678 337.464C357.735 335.797 359.185 333.77 361.227 333.268C363.651 332.671 368.737 332.301 370.284 334.689C371.645 336.788 371.224 341.099 370.534 343.375C370.331 344.044 369.357 345.123 369.785 343.893C370.021 343.214 370.784 342.816 371.394 342.471C373.631 341.205 375.922 340.883 378.495 341.09C381.451 341.328 383.965 342.839 384.875 345.579C385.612 347.798 384.702 351.085 383.003 352.711C382.581 353.115 379.488 354.863 378.828 354.371C378.464 354.1 381.121 353.304 381.269 353.282C383.795 352.917 386.278 353.216 388.26 354.796C390.123 356.284 390.815 357.995 390.992 360.282C391.128 362.044 391.578 363.759 390.756 365.421C389.389 368.185 386.531 370.176 383.239 370.176C380.16 370.176 378.214 369.081 375.527 368.051" stroke="#7A0005" stroke-width="5" stroke-linecap="round"/>
<path d="M268.738 368.59C268.82 368.795 270.012 369.256 269.656 369.542C269.059 370.02 267.555 370.134 266.834 370.285C264.866 370.698 263.234 370.355 261.346 369.812C259.395 369.252 256.981 368.418 255.96 366.652C254.746 364.555 253.094 359.935 255.118 357.9C256.898 356.111 261.36 355.417 263.834 355.484C264.562 355.504 265.897 356.136 264.546 356.048C263.801 356 263.207 355.393 262.705 354.914C260.862 353.159 259.961 351.117 259.523 348.681C259.02 345.882 259.915 343.171 262.455 341.638C264.512 340.397 268.063 340.415 270.135 341.58C270.649 341.869 273.194 344.295 272.863 345.031C272.68 345.437 271.207 343.174 271.148 343.043C270.144 340.794 269.82 338.417 270.92 336.183C271.954 334.082 273.51 333.011 275.777 332.271C277.523 331.702 279.145 330.853 281.031 331.197C284.169 331.769 286.9 333.917 287.728 336.968C288.502 339.822 287.884 341.9 287.52 344.65" stroke="#7A0005" stroke-width="5" stroke-linecap="round"/>
<path d="M276.857 350.264C281.6 345.897 287.559 343.713 294.734 343.713C301.909 343.713 307.868 345.984 312.61 350.526C317.353 355.009 319.724 360.686 319.724 367.556C319.724 374.31 317.323 379.899 312.519 384.325C307.776 388.75 301.848 390.962 294.734 390.962C287.498 390.962 281.509 388.72 276.766 384.237C272.084 379.696 269.743 373.99 269.743 367.119C269.743 360.249 272.115 354.63 276.857 350.264ZM294.734 347.818C291.876 347.818 289.869 349.303 288.714 352.272C287.437 355.242 286.799 360.191 286.799 367.119C286.799 374.223 287.437 379.288 288.714 382.316C289.869 385.343 291.876 386.857 294.734 386.857C297.47 386.857 299.507 385.285 300.845 382.141C302.122 379.055 302.76 374.194 302.76 367.556C302.76 360.744 302.122 355.737 300.845 352.534C299.507 349.39 297.47 347.818 294.734 347.818Z" fill="#EADEC4"/>
<path d="M332.258 350.264C337.001 345.897 342.96 343.713 350.135 343.713C357.31 343.713 363.268 345.984 368.011 350.526C372.754 355.009 375.125 360.686 375.125 367.556C375.125 374.31 372.723 379.899 367.92 384.325C363.177 388.75 357.249 390.962 350.135 390.962C342.899 390.962 336.91 388.72 332.167 384.237C327.485 379.696 325.144 373.99 325.144 367.119C325.144 360.249 327.515 354.63 332.258 350.264ZM350.135 347.818C347.277 347.818 345.27 349.303 344.115 352.272C342.838 355.242 342.2 360.191 342.2 367.119C342.2 374.223 342.838 379.288 344.115 382.316C345.27 385.343 347.277 386.857 350.135 386.857C352.871 386.857 354.908 385.285 356.245 382.141C357.522 379.055 358.161 374.194 358.161 367.556C358.161 360.744 357.522 355.737 356.245 352.534C354.908 349.39 352.871 347.818 350.135 347.818Z" fill="#EADEC4"/>
<path d="M133.836 238.935C133.614 238.959 132.871 239.944 132.678 239.543C132.355 238.873 132.61 237.455 132.637 236.751C132.712 234.831 133.448 233.411 134.441 231.803C135.468 230.142 136.875 228.123 138.858 227.622C141.211 227.027 146.147 226.659 147.649 229.038C148.97 231.13 148.561 235.424 147.892 237.691C147.695 238.358 146.749 239.432 147.165 238.207C147.394 237.531 148.135 237.135 148.726 236.791C150.898 235.53 153.122 235.209 155.62 235.415C158.489 235.652 160.929 237.158 161.813 239.887C162.529 242.097 161.644 245.372 159.996 246.992C159.586 247.395 156.584 249.136 155.943 248.646C155.59 248.376 158.169 247.582 158.313 247.561C160.765 247.197 163.175 247.494 165.098 249.069C166.907 250.551 167.579 252.256 167.751 254.534C167.883 256.289 168.32 257.998 167.522 259.654C166.195 262.408 163.421 264.391 160.224 264.391C157.236 264.391 155.347 263.299 152.739 262.274" stroke="#7A0005" stroke-width="5" stroke-linecap="round"/>
<path d="M46.8462 264.345C46.9386 264.541 48.1365 264.92 47.8034 265.222C47.2457 265.727 45.7752 265.933 45.0757 266.126C43.1672 266.654 41.5446 266.418 39.6578 266.004C37.7086 265.575 35.2891 264.907 34.1815 263.238C32.8665 261.257 30.9713 256.828 32.8391 254.707C34.4818 252.841 38.8241 251.883 41.2575 251.795C41.9733 251.769 43.3222 252.305 41.99 252.303C41.2557 252.302 40.6362 251.744 40.115 251.306C38.202 249.699 37.1959 247.752 36.6222 245.389C35.9633 242.675 36.6827 239.961 39.0874 238.299C41.0344 236.954 44.5234 236.75 46.6264 237.764C47.1486 238.016 49.7909 240.238 49.5091 240.98C49.3539 241.389 47.7733 239.262 47.7078 239.136C46.5889 236.992 46.1314 234.681 47.0797 232.422C47.9718 230.297 49.4367 229.149 51.6193 228.283C53.3011 227.616 54.8433 226.682 56.7165 226.902C59.8316 227.268 62.6404 229.205 63.6336 232.147C64.5623 234.898 64.0777 236.975 63.8818 239.694" stroke="#7A0005" stroke-width="5" stroke-linecap="round"/>
<path d="M54.61 246.491C59.0876 241.85 64.8579 239.529 71.9211 239.529C78.9843 239.529 84.7547 241.88 89.2322 246.582C93.7098 251.285 95.9485 257.086 95.9485 263.986C95.9485 270.826 93.7098 276.566 89.2322 281.207C84.7547 285.848 78.9843 288.169 71.9211 288.169C64.7949 288.169 59.0245 285.848 54.61 281.207C50.1955 276.505 47.9883 270.673 47.9883 263.712C47.9883 256.811 50.1955 251.071 54.61 246.491ZM71.9211 243.102C70.2814 243.102 68.831 243.438 67.5697 244.109C66.3084 244.72 65.2994 245.666 64.5426 246.949C63.8489 248.231 63.2498 249.483 62.7453 250.704C62.3038 251.926 61.9885 253.452 61.7993 255.284C61.6732 257.116 61.5786 258.582 61.5155 259.681C61.4525 260.78 61.4209 262.124 61.4209 263.712C61.4209 265.666 61.4525 267.315 61.5155 268.658C61.5786 270.001 61.7993 271.772 62.1777 273.971C62.5561 276.169 63.0921 277.971 63.7858 279.375C64.4795 280.719 65.5201 281.909 66.9075 282.948C68.2949 283.986 69.9661 284.505 71.9211 284.505C78.9843 284.505 82.5159 277.665 82.5159 263.986C82.5159 250.063 78.9843 243.102 71.9211 243.102Z" fill="#EADEC4"/>
<path d="M109.945 246.491C114.423 241.85 120.193 239.529 127.256 239.529C134.319 239.529 140.09 241.88 144.567 246.582C149.045 251.285 151.284 257.086 151.284 263.986C151.284 270.826 149.045 276.566 144.567 281.207C140.09 285.848 134.319 288.169 127.256 288.169C120.13 288.169 114.36 285.848 109.945 281.207C105.531 276.505 103.323 270.673 103.323 263.712C103.323 256.811 105.531 251.071 109.945 246.491ZM127.256 243.102C125.617 243.102 124.166 243.438 122.905 244.109C121.643 244.72 120.634 245.666 119.878 246.949C119.184 248.231 118.585 249.483 118.08 250.704C117.639 251.926 117.324 253.452 117.134 255.284C117.008 257.116 116.914 258.582 116.851 259.681C116.788 260.78 116.756 262.124 116.756 263.712C116.756 265.666 116.788 267.315 116.851 268.658C116.914 270.001 117.134 271.772 117.513 273.971C117.891 276.169 118.427 277.971 119.121 279.375C119.815 280.719 120.855 281.909 122.243 282.948C123.63 283.986 125.301 284.505 127.256 284.505C134.319 284.505 137.851 277.665 137.851 263.986C137.851 250.063 134.319 243.102 127.256 243.102Z" fill="#EADEC4"/>
<path d="M133.21 35.4455C132.98 35.4665 132.192 36.446 131.998 36.0405C131.673 35.3615 131.961 33.94 132.001 33.2325C132.11 31.3024 132.897 29.8851 133.954 28.2829C135.047 26.6278 136.541 24.618 138.607 24.1435C141.06 23.5801 146.191 23.2827 147.712 25.6965C149.05 27.8195 148.555 32.1318 147.823 34.4017C147.608 35.0694 146.609 36.1363 147.06 34.9099C147.309 34.234 148.085 33.8461 148.704 33.5093C150.98 32.2729 153.294 31.9828 155.884 32.227C158.858 32.5075 161.368 34.0574 162.241 36.8154C162.948 39.0484 161.977 42.3283 160.239 43.9335C159.807 44.3321 156.662 46.0392 156.005 45.537C155.642 45.2603 158.333 44.5001 158.483 44.4808C161.034 44.1512 163.532 44.4855 165.503 46.0975C167.357 47.614 168.027 49.3384 168.168 51.6316C168.277 53.3987 168.703 55.1242 167.848 56.7774C166.425 59.5267 163.513 61.4803 160.195 61.4332C157.092 61.3892 155.149 60.2638 152.457 59.1942" stroke="#7A0005" stroke-width="5" stroke-linecap="round"/>
<path d="M47.7046 60.4708C47.793 60.6711 49.0213 61.0931 48.6642 61.3851C48.0661 61.8741 46.5326 62.0295 45.7994 62.1995C43.7992 62.6634 42.1247 62.3699 40.183 61.8875C38.1771 61.3892 35.6924 60.6334 34.6072 58.9176C33.3188 56.8807 31.5222 52.3632 33.5413 50.2957C35.3171 48.4774 39.859 47.6657 42.3871 47.6618C43.1307 47.6607 44.5096 48.2469 43.1275 48.1987C42.3657 48.1722 41.7443 47.5891 41.2204 47.1309C39.2972 45.449 38.328 43.4571 37.8233 41.0622C37.2436 38.3114 38.094 35.6084 40.6525 34.022C42.7242 32.7375 46.3519 32.6542 48.4949 33.7467C49.027 34.0179 51.6833 36.343 51.3625 37.0793C51.1858 37.485 49.6274 35.2918 49.5643 35.1635C48.4855 32.9699 48.0994 30.6312 49.1699 28.3932C50.1769 26.288 51.7406 25.1853 54.0383 24.3909C55.8088 23.7788 57.4446 22.8944 59.3796 23.1808C62.5976 23.657 65.4375 25.7013 66.3553 28.6926C67.2135 31.4899 66.6311 33.5606 66.3237 36.2874" stroke="#7A0005" stroke-width="5" stroke-linecap="round"/>
<path d="M72.5916 36.6892C79.4007 36.6892 84.8676 39.0538 88.9923 43.7828C93.117 48.5119 95.1794 54.1316 95.1794 60.6417C95.1794 67.1519 93.0843 72.7715 88.8941 77.5006C84.7694 82.2297 79.3352 84.5943 72.5916 84.5943C65.6516 84.5943 60.152 82.2911 56.0927 77.6849C52.0989 73.0786 50.1021 67.4283 50.1021 60.7339C50.1021 54.0394 52.0989 48.3584 56.0927 43.6907C60.152 39.023 65.6516 36.6892 72.5916 36.6892ZM72.5916 39.453C70.2346 39.453 68.1723 39.9136 66.4045 40.8348C64.6368 41.7561 63.2946 42.923 62.378 44.3356C61.4614 45.6868 60.7085 47.3757 60.1192 49.4025C59.5955 51.4292 59.2681 53.3024 59.1372 55.0221C59.0062 56.6804 58.9407 58.5843 58.9407 60.7339C58.9407 62.8834 59.0062 64.7874 59.1372 66.4456C59.2681 68.1039 59.5955 69.9464 60.1192 71.9731C60.7085 73.9999 61.4614 75.6888 62.378 77.04C63.3601 78.3912 64.7023 79.5274 66.4045 80.4486C68.1723 81.3699 70.2346 81.8305 72.5916 81.8305C81.7577 81.8305 86.3407 74.7676 86.3407 60.6417C86.3407 46.5159 81.7577 39.453 72.5916 39.453Z" fill="#EADEC4"/>
<path d="M127.45 36.6892C134.259 36.6892 139.726 39.0538 143.851 43.7828C147.975 48.5119 150.038 54.1316 150.038 60.6417C150.038 67.1519 147.943 72.7715 143.752 77.5006C139.628 82.2297 134.193 84.5943 127.45 84.5943C120.51 84.5943 115.01 82.2911 110.951 77.6849C106.957 73.0786 104.96 67.4283 104.96 60.7339C104.96 54.0394 106.957 48.3584 110.951 43.6907C115.01 39.023 120.51 36.6892 127.45 36.6892ZM127.45 39.453C125.093 39.453 123.031 39.9136 121.263 40.8348C119.495 41.7561 118.153 42.923 117.236 44.3356C116.32 45.6868 115.567 47.3757 114.977 49.4025C114.454 51.4292 114.126 53.3024 113.995 55.0221C113.864 56.6804 113.799 58.5843 113.799 60.7339C113.799 62.8834 113.864 64.7874 113.995 66.4456C114.126 68.1039 114.454 69.9464 114.977 71.9731C115.567 73.9999 116.32 75.6888 117.236 77.04C118.218 78.3912 119.56 79.5274 121.263 80.4486C123.031 81.3699 125.093 81.8305 127.45 81.8305C136.616 81.8305 141.199 74.7676 141.199 60.6417C141.199 46.5159 136.616 39.453 127.45 39.453Z" fill="#EADEC4"/>
<path d="M355.763 137.308C355.537 137.331 354.777 138.319 354.581 137.917C354.252 137.243 354.515 135.82 354.545 135.113C354.626 133.184 355.379 131.759 356.396 130.147C357.446 128.481 358.887 126.455 360.91 125.956C363.313 125.363 368.35 125.003 369.878 127.394C371.222 129.498 370.795 133.81 370.107 136.085C369.905 136.754 368.938 137.832 369.365 136.602C369.6 135.924 370.357 135.527 370.961 135.183C373.18 133.92 375.449 133.602 377.997 133.814C380.924 134.058 383.411 135.574 384.307 138.317C385.033 140.538 384.124 143.825 382.438 145.449C382.02 145.853 378.953 147.596 378.3 147.103C377.94 146.831 380.573 146.039 380.72 146.017C383.222 145.657 385.681 145.96 387.64 147.545C389.483 149.036 390.165 150.75 390.335 153.038C390.467 154.801 390.909 156.519 390.091 158.18C388.732 160.943 385.897 162.929 382.636 162.923C379.587 162.918 377.662 161.818 375.003 160.783" stroke="#7A0005" stroke-width="5" stroke-linecap="round"/>
<path d="M268.841 162.352C268.938 162.548 270.166 162.909 269.832 163.218C269.271 163.734 267.774 163.963 267.064 164.168C265.125 164.727 263.466 164.515 261.534 164.127C259.539 163.727 257.059 163.093 255.902 161.434C254.528 159.464 252.521 155.046 254.391 152.887C256.036 150.988 260.451 149.96 262.932 149.834C263.661 149.797 265.046 150.316 263.687 150.334C262.938 150.344 262.297 149.793 261.758 149.361C259.78 147.776 258.721 145.837 258.097 143.473C257.38 140.757 258.069 138.021 260.495 136.316C262.459 134.935 266.015 134.677 268.177 135.663C268.714 135.908 271.446 138.099 271.171 138.849C271.02 139.262 269.372 137.15 269.303 137.025C268.126 134.889 267.621 132.575 268.551 130.292C269.426 128.144 270.902 126.969 273.114 126.066C274.819 125.371 276.377 124.41 278.292 124.602C281.476 124.922 284.373 126.824 285.435 129.763C286.428 132.512 285.968 134.605 285.813 137.339" stroke="#7A0005" stroke-width="5" stroke-linecap="round"/>
<path d="M294.211 138.677C301.096 138.677 306.662 141.038 310.909 145.76C315.156 150.483 317.279 156.186 317.279 162.871C317.279 169.495 315.124 175.168 310.812 179.89C306.566 184.551 301.032 186.881 294.211 186.881C287.262 186.881 281.696 184.582 277.514 179.982C273.395 175.382 271.336 169.679 271.336 162.871C271.336 156.064 273.395 150.329 277.514 145.668C281.632 141.007 287.198 138.677 294.211 138.677ZM294.211 141.805C291.444 141.805 289.16 142.479 287.358 143.828C285.557 145.116 284.27 146.956 283.498 149.348C282.79 151.74 282.307 153.917 282.05 155.88C281.857 157.842 281.76 160.173 281.76 162.871C281.76 164.956 281.793 166.796 281.857 168.391C281.986 169.924 282.275 171.733 282.726 173.818C283.24 175.903 283.916 177.621 284.752 178.97C285.589 180.319 286.812 181.484 288.42 182.466C290.029 183.386 291.959 183.846 294.211 183.846C302.641 183.846 306.855 176.854 306.855 162.871C306.855 148.827 302.641 141.805 294.211 141.805Z" fill="#EADEC4"/>
<path d="M349.068 138.677C355.953 138.677 361.519 141.038 365.766 145.76C370.013 150.483 372.136 156.186 372.136 162.871C372.136 169.495 369.981 175.168 365.67 179.89C361.423 184.551 355.889 186.881 349.068 186.881C342.119 186.881 336.553 184.582 332.371 179.982C328.253 175.382 326.194 169.679 326.194 162.871C326.194 156.064 328.253 150.329 332.371 145.668C336.489 141.007 342.055 138.677 349.068 138.677ZM349.068 141.805C346.302 141.805 344.017 142.479 342.216 143.828C340.414 145.116 339.127 146.956 338.355 149.348C337.647 151.74 337.165 153.917 336.907 155.88C336.714 157.842 336.618 160.173 336.618 162.871C336.618 164.956 336.65 166.796 336.714 168.391C336.843 169.924 337.132 171.733 337.583 173.818C338.098 175.903 338.773 177.621 339.61 178.97C340.446 180.319 341.669 181.484 343.277 182.466C344.886 183.386 346.816 183.846 349.068 183.846C357.498 183.846 361.712 176.854 361.712 162.871C361.712 148.827 357.498 141.805 349.068 141.805Z" fill="#EADEC4"/>
<path fill-rule="evenodd" clip-rule="evenodd" d="M443 21L386.769 48.4039L443 78H200V21L443 21Z" fill="#7A0005"/>
<path d="M54.2151 351.104V365.951H56.9596V366.918H51V365.951H52.9865V349.849H51V348.882H56.9857L61.3509 359.677L65.7422 348.882H71.7279V349.849H69.7414V365.951H71.7279V366.918H63.7295V365.951H66.0297V351.156L60.5929 364.539H59.6258L54.2151 351.104Z" fill="#EADEC4"/>
<path d="M80.3598 367.284C78.321 367.284 76.7004 366.63 75.498 365.323C74.2957 363.999 73.6945 362.309 73.6945 360.252C73.6945 358.318 74.2695 356.697 75.4196 355.391C76.5697 354.066 78.1032 353.404 80.02 353.404C81.8323 353.404 83.2525 353.962 84.2806 355.077C85.3262 356.192 85.8489 357.656 85.8489 359.468V359.782C85.8489 359.956 85.8402 360.104 85.8228 360.226H77.4062V360.514C77.4062 361.089 77.4236 361.603 77.4584 362.056C77.5107 362.492 77.6066 362.979 77.746 363.52C77.8854 364.06 78.077 364.504 78.321 364.853C78.565 365.201 78.9048 365.497 79.3404 365.741C79.7761 365.985 80.2901 366.107 80.8826 366.107C82.8691 366.107 84.1325 365.01 84.6727 362.814L85.6398 362.971C85.3436 364.33 84.7337 365.393 83.8101 366.16C82.8866 366.909 81.7365 367.284 80.3598 367.284ZM79.9677 354.397C79.4275 354.397 78.9745 354.563 78.6085 354.894C78.2426 355.208 77.9812 355.661 77.8244 356.253C77.6675 356.828 77.563 357.333 77.5107 357.769C77.4584 358.187 77.4236 358.684 77.4062 359.259H82.2941C82.2941 357.482 82.1111 356.227 81.7452 355.495C81.3792 354.763 80.7868 354.397 79.9677 354.397Z" fill="#EADEC4"/>
<path d="M98.1096 367.284L97.5345 367.048V363.859C96.8375 366.142 95.4522 367.284 93.3785 367.284C91.7928 367.284 90.4597 366.639 89.3793 365.349C88.3163 364.077 87.7935 362.465 87.811 360.514C87.8458 358.492 88.4209 356.802 89.5361 355.443C90.6514 354.084 91.9844 353.404 93.5353 353.404C95.2779 353.404 96.489 354.066 97.1686 355.391C97.0118 353.822 96.9334 352.236 96.9334 350.633V348.333H94.8423V347.366C96.55 347.366 97.7698 347.34 98.5017 347.288C99.1987 347.235 99.6866 347.139 99.9654 347L100.514 347.235V365.951H102.422V366.918C100.453 366.918 99.0157 367.04 98.1096 367.284ZM91.5227 360.095C91.4878 362.065 91.6969 363.485 92.15 364.356C92.5682 365.245 93.2478 365.689 94.1888 365.689C94.729 365.689 95.1908 365.541 95.5741 365.245C95.9749 364.931 96.2625 364.522 96.4367 364.016C96.6284 363.511 96.7591 363.023 96.8288 362.552C96.8985 362.082 96.9334 361.585 96.9334 361.063V359.547C96.9334 358.954 96.9072 358.44 96.8549 358.004C96.8201 357.569 96.7242 357.063 96.5674 356.488C96.4106 355.913 96.1405 355.469 95.7571 355.155C95.3912 354.842 94.9207 354.685 94.3456 354.685C92.5159 354.685 91.5749 356.488 91.5227 360.095Z" fill="#EADEC4"/>
<path d="M123.672 367.284L123.123 367.048V363.598C122.757 366.055 121.285 367.284 118.706 367.284C115.743 367.284 114.262 365.558 114.262 362.108V354.737H112.197V353.744C114.027 353.744 115.273 353.718 115.935 353.665C116.562 353.613 117.007 353.517 117.268 353.378L117.817 353.613V362.108C117.817 362.596 117.843 363.023 117.896 363.389C117.948 363.737 118.044 364.095 118.183 364.461C118.34 364.827 118.575 365.114 118.889 365.323C119.22 365.515 119.629 365.611 120.117 365.611C121.72 365.611 122.522 364.278 122.522 361.612V354.737H119.699V353.744C121.877 353.744 123.332 353.718 124.064 353.665C124.761 353.648 125.249 353.552 125.528 353.378L126.077 353.613V365.951H127.985V366.918C126.8 366.918 125.894 366.944 125.267 366.996C124.657 367.048 124.125 367.144 123.672 367.284Z" fill="#EADEC4"/>
<path d="M136.134 365.951V366.918H129.312V365.951H131.194V354.737H129.312V353.744C130.636 353.744 131.612 353.718 132.24 353.665C132.849 353.613 133.311 353.517 133.625 353.378L134.174 353.613L134.122 356.88C134.296 355.748 134.731 354.885 135.428 354.293C136.143 353.7 137.075 353.404 138.225 353.404C140.316 353.404 141.545 354.319 141.911 356.149C142.19 355.26 142.66 354.58 143.322 354.11C144.002 353.639 144.812 353.404 145.753 353.404C147.304 353.404 148.384 353.805 148.994 354.606C149.622 355.408 149.935 356.619 149.935 358.24V365.951H151.817V366.918H144.995V365.951H146.354V358.213C146.354 357.778 146.337 357.412 146.302 357.116C146.267 356.802 146.189 356.462 146.067 356.096C145.962 355.73 145.771 355.451 145.492 355.26C145.213 355.068 144.864 354.972 144.446 354.972C143.052 354.972 142.355 356.166 142.355 358.553V365.951H143.714V366.918H137.415V365.951H138.774V358.213C138.774 357.778 138.757 357.412 138.722 357.116C138.687 356.802 138.609 356.462 138.487 356.096C138.382 355.73 138.19 355.451 137.912 355.26C137.633 355.068 137.284 354.972 136.866 354.972C135.472 354.972 134.775 356.166 134.775 358.553V365.951H136.134Z" fill="#EADEC4"/>
<path d="M109.545 366.275H112V367H104V366.275H106.561V354.902H104V354.196C105.51 354.196 106.681 354.105 107.513 353.922C108.317 353.752 108.889 353.444 109.228 353L109.841 353.078C109.644 353.471 109.545 354.438 109.545 355.98V366.275Z" fill="#EADEC4"/>
<path d="M107.647 349C107.159 349 106.758 349.157 106.444 349.47C106.148 349.767 106 350.159 106 350.647C106 351.135 106.148 351.527 106.444 351.823C106.758 352.119 107.159 352.267 107.647 352.267C108.117 352.267 108.509 352.119 108.823 351.823C109.137 351.509 109.293 351.117 109.293 350.647C109.293 350.159 109.137 349.767 108.823 349.47C108.527 349.157 108.135 349 107.647 349Z" fill="#EADEC4"/>
<path d="M109.545 366.275H112V367H104V366.275H106.561V354.902H104V354.196C105.51 354.196 106.681 354.105 107.513 353.922C108.317 353.752 108.889 353.444 109.228 353L109.841 353.078C109.644 353.471 109.545 354.438 109.545 355.98V366.275Z" fill="#EADEC4"/>
<path d="M107.647 349C107.159 349 106.758 349.157 106.444 349.47C106.148 349.767 106 350.159 106 350.647C106 351.135 106.148 351.527 106.444 351.823C106.758 352.119 107.159 352.267 107.647 352.267C108.117 352.267 108.509 352.119 108.823 351.823C109.137 351.509 109.293 351.117 109.293 350.647C109.293 350.159 109.137 349.767 108.823 349.47C108.527 349.157 108.135 349 107.647 349Z" fill="#EADEC4"/>
<path d="M479 137V441.5L600.5 395.5L724.5 441.5V137L600.5 180L479 137Z" fill="#7A0005" stroke="#7A0005" stroke-width="10"/>
<path fill-rule="evenodd" clip-rule="evenodd" d="M759 21H1002.04V77.6742H759.799L814 48.4233L759 21.4297V21ZM759 77.6742V78.1055L759.799 77.6742H759Z" fill="#7A0005"/>
</svg>
