<svg width="504" height="219" viewBox="0 0 504 219" fill="none" xmlns="http://www.w3.org/2000/svg">
<path d="M429.458 42.5567C429.314 43.1295 429.166 43.6762 429.013 44.1927C428.327 46.5147 425.034 50.2576 426.481 45.9896C426.974 44.5364 428.147 43.454 429.458 42.5567C430.269 42.0014 431.132 41.5171 431.92 41.0597C439.484 36.6675 447.227 35.5497 455.925 36.268C465.915 37.093 474.414 42.3359 477.492 51.8411C479.984 59.5373 476.904 70.9403 471.162 76.583C470.829 76.9106 470.002 77.4931 468.902 78.1716C465.298 80.3952 458.761 83.6497 457.05 82.3423C455.82 81.4021 464.802 78.6383 465.302 78.5642C466.506 78.3855 467.708 78.2526 468.902 78.1716C470.002 77.4931 470.829 76.9106 471.162 76.583C476.904 70.9403 479.984 59.5373 477.492 51.8411C474.414 42.3359 465.915 37.093 455.925 36.268C447.227 35.5497 439.484 36.6675 431.92 41.0597C431.132 41.5171 430.269 42.0014 429.458 42.5567Z" fill="#3D5D8C"/>
<path d="M380.065 48.5237C379.295 48.6078 376.705 52.0376 376.033 50.6432C374.908 48.3083 375.797 43.3729 375.893 40.9215C376.154 34.2339 378.716 29.2885 382.175 23.6897C385.748 17.9061 390.651 10.8745 397.553 9.13019C405.748 7.05942 422.938 5.77787 428.169 14.0601C432.77 21.3442 431.345 36.2983 429.013 44.1927C428.327 46.5147 425.034 50.2576 426.481 45.9896C427.279 43.6372 429.859 42.2563 431.92 41.0597C439.484 36.6675 447.227 35.5497 455.925 36.268C465.915 37.093 474.414 42.3359 477.492 51.8411C479.984 59.5373 476.904 70.9403 471.162 76.583C469.737 77.9842 459.283 84.0487 457.05 82.3423C455.82 81.4021 464.802 78.6383 465.302 78.5642C473.84 77.2976 482.235 78.3323 488.932 83.8167C495.232 88.9759 497.57 94.9129 498.168 102.845C498.629 108.958 500.15 114.911 497.371 120.676C492.749 130.264 483.09 137.171 471.959 137.171C461.551 137.171 454.976 133.37 445.892 129.799" stroke="#7A0005" stroke-width="9" stroke-linecap="round"/>
<path d="M55.936 93.4054C56.5428 93.3594 57.1257 93.3264 57.6801 93.3063C60.1725 93.2161 64.8698 95.0843 60.2307 95.0781C58.651 95.076 57.224 94.3328 55.936 93.4054C55.139 92.8316 54.3952 92.1873 53.7015 91.6045C47.0397 86.0078 43.5362 79.228 41.5385 70.9996C39.2439 61.5484 41.7492 52.0967 50.123 46.3104C56.9032 41.6253 69.053 40.9161 76.3762 44.4475C76.8013 44.6525 77.6301 45.2325 78.6379 46.034C81.9406 48.6606 87.1666 53.6659 86.4148 55.6466C85.8741 57.0709 80.37 49.6626 80.142 49.2258C79.5924 48.1728 79.0886 47.1081 78.6379 46.034C77.6301 45.2325 76.8013 44.6525 76.3762 44.4475C69.053 40.9161 56.9032 41.6253 50.123 46.3104C41.7492 52.0967 39.2439 61.5484 41.5385 70.9996C43.5362 79.228 47.0397 86.0078 53.7015 91.6045C54.3952 92.1873 55.139 92.8316 55.936 93.4054Z" fill="#3D5D8C"/>
<path d="M82.9689 135.823C90.2725 135.823 87.5751 138.314 86.4151 139.366C84.473 141.127 73.4121 142.541 70.976 143.214C64.3303 145.051 58.6799 144.23 52.1093 142.786C45.3218 141.295 36.8963 138.968 33.0392 133.157C28.4601 126.258 21.8604 110.835 28.3646 103.447C34.0849 96.9487 49.2063 93.6129 57.6801 93.3063C60.1725 93.2161 64.8698 95.0843 60.2307 95.0781C57.6736 95.0747 55.5163 93.1291 53.7015 91.6045C47.0397 86.0078 43.5362 79.228 41.5385 70.9996C39.2439 61.5484 41.7492 52.0967 50.123 46.3104C56.9032 41.6253 69.0531 40.9161 76.3762 44.4475C78.1947 45.3244 87.396 53.0615 86.4148 55.6466C85.8741 57.0709 80.37 49.6626 80.142 49.2258C76.2455 41.7607 74.6526 33.7131 77.9549 25.845C81.0614 18.4434 86.1625 14.4462 93.7631 11.431C99.6197 9.10752 104.99 5.85749 111.513 6.62371C122.361 7.89793 132.142 14.6424 135.601 24.8865C138.835 34.466 137.147 41.699 136.465 51.1698" stroke="#7A0005" stroke-width="9" stroke-linecap="round"/>
<path d="M101.283 68.2116C117.461 51.4764 138.31 43.1089 163.83 43.1089C189.35 43.1089 210.199 51.5865 226.377 68.5419C242.555 85.4972 250.644 106.416 250.644 131.299C250.644 155.961 242.555 176.66 226.377 193.395C210.199 210.13 189.35 218.497 163.83 218.497C138.082 218.497 117.233 210.13 101.283 193.395C85.3333 176.439 77.3583 155.41 77.3583 130.308C77.3583 105.425 85.3333 84.7265 101.283 68.2116ZM163.83 55.9905C157.906 55.9905 152.665 57.2016 148.108 59.6238C143.551 61.8258 139.905 65.2389 137.171 69.8631C134.664 74.4872 132.5 79.0013 130.677 83.4053C129.082 87.8093 127.943 93.3142 127.259 99.9202C126.803 106.526 126.462 111.811 126.234 115.775C126.006 119.738 125.892 124.582 125.892 130.308C125.892 137.354 126.006 143.299 126.234 148.144C126.462 152.988 127.259 159.374 128.626 167.301C129.993 175.228 131.93 181.724 134.437 186.789C136.943 191.633 140.703 195.927 145.716 199.67C150.728 203.414 156.767 205.285 163.83 205.285C189.35 205.285 202.11 180.623 202.11 131.299C202.11 81.0932 189.35 55.9905 163.83 55.9905Z" fill="#3D5D8C"/>
<path d="M301.215 68.2116C317.393 51.4764 338.242 43.1089 363.762 43.1089C389.282 43.1089 410.131 51.5865 426.309 68.5419C442.487 85.4972 450.575 106.416 450.575 131.299C450.575 155.961 442.487 176.66 426.309 193.395C410.131 210.13 389.282 218.497 363.762 218.497C338.014 218.497 317.165 210.13 301.215 193.395C285.265 176.439 277.29 155.41 277.29 130.308C277.29 105.425 285.265 84.7265 301.215 68.2116ZM363.762 55.9905C357.837 55.9905 352.597 57.2016 348.04 59.6238C343.482 61.8258 339.837 65.2389 337.102 69.8631C334.596 74.4872 332.431 79.0013 330.609 83.4053C329.014 87.8093 327.874 93.3142 327.191 99.9202C326.735 106.526 326.393 111.811 326.165 115.775C325.937 119.738 325.824 124.582 325.824 130.308C325.824 137.354 325.937 143.299 326.165 148.144C326.393 152.988 327.191 159.374 328.558 167.301C329.925 175.228 331.862 181.724 334.368 186.789C336.875 191.633 340.634 195.927 345.647 199.67C350.66 203.414 356.698 205.285 363.762 205.285C389.282 205.285 402.042 180.623 402.042 131.299C402.042 81.0932 389.282 55.9905 363.762 55.9905Z" fill="#3D5D8C"/>
</svg>
