<svg width="243" height="319" viewBox="0 0 243 319" fill="none" xmlns="http://www.w3.org/2000/svg">
<path d="M152.025 273.581C149.653 283.536 145.718 270.15 152.025 273.581C156.994 276.285 162.15 276.279 167.493 273.564C172.822 270.64 177.568 265.19 181.73 257.213C186.137 248.768 188.512 240.923 188.856 233.681C189.2 226.438 188.424 218.285 186.528 209.221C185.47 204.429 184.755 200.627 184.383 197.814C184.01 195 184.127 191.249 184.734 186.559C185.245 181.817 186.562 177.413 188.684 173.347C196.355 158.645 205.159 153.998 215.098 159.405C222.838 163.616 225.951 170.23 224.437 179.245C221.053 178.207 217.67 178.575 214.29 180.351C210.896 181.918 207.975 185.047 205.527 189.739C203.16 194.275 202.102 198.418 202.353 202.169C202.591 205.712 204.095 208.237 206.866 209.745C209.924 211.409 213.088 211.223 216.359 209.187C219.63 207.151 222.571 203.631 225.182 198.626C230.813 187.835 232.654 178.193 230.704 169.703C228.836 161.056 224.462 154.861 217.582 151.118C209.937 146.958 202.27 146.602 194.582 150.05C186.894 153.498 179.908 161.243 173.625 173.286C171.34 177.665 169.648 181.965 168.549 186.187C167.451 190.408 166.959 194.76 167.075 199.24C167.273 203.565 167.558 207.133 167.93 209.946C168.303 212.759 168.97 216.536 169.932 221.276C171.993 231.434 172.809 238.805 172.379 243.391C172.059 248.237 170.797 252.771 168.594 256.994C164.432 264.97 159.819 267.581 154.754 264.825C150.931 262.745 149.834 258.735 151.462 252.793C153.09 246.852 145.235 257.438 151.462 252.793L152.025 273.581C148.181 275.305 154.898 269.723 152.025 273.581C153.259 268.63 149.153 277.44 152.025 273.581Z" fill="#050505"/>
<path d="M30.2815 140.106V305.535H51.4785V318.69H0V305.535H19.6829V131.735H0V118.979H51.2261L88.3208 242.553L125.92 118.979H175.632V131.735H155.949V305.535H175.632V318.69H109.518V305.535H129.958V140.505L82.7692 297.961H75.9559L30.2815 140.106Z" fill="#050505"/>
<path d="M97.3915 0.00195312C99.4214 0.00195312 133.289 65.6964 134.616 68.227C135.787 70.9064 106.593 111.264 106.593 115.432C106.593 125.257 104.68 133.221 100.855 139.324C97.029 145.427 92.5007 148.479 87.2698 148.479C82.0388 148.479 77.5105 145.427 73.6849 139.324C69.8593 133.221 67.9465 125.257 67.9465 115.432C67.9465 111.264 38.9523 70.7575 40.1234 68.227C41.3726 65.5475 76.964 0.00195312 79.072 0.00195312C80.9458 0.00195312 78.1741 102.407 79.4233 104.491C80.5164 106.575 81.0629 109.329 81.0629 112.752C81.0629 116.474 80.3993 119.451 79.072 121.684C77.7448 123.768 76.1052 124.81 74.1533 124.81C73.3726 124.81 72.4357 124.587 71.3427 124.14C74.3876 131.881 79.6966 135.751 87.2698 135.751C95.3114 135.751 100.777 131.806 103.665 123.917C102.416 124.512 101.206 124.81 100.035 124.81C95.6627 124.81 93.4766 120.791 93.4766 112.752C93.4766 109.18 94.0622 106.426 95.2333 104.491C96.3263 102.407 95.4397 0.00195312 97.3915 0.00195312Z" fill="#050505"/>
<rect x="234.279" y="185.551" width="23.6966" height="15.1901" rx="7.59505" transform="rotate(-159.792 234.279 185.551)" fill="#3D5D8C"/>
<path d="M50.8157 48.3069C47.0499 46.425 33.0094 48.4821 35.7532 53.9351C37.0057 56.4242 38.9851 58.5188 41.6002 60.8302C44.2152 63.1416 54.282 67.096 63.0021 66.5336C65.3537 66.382 70.2621 63.9906 67.3109 60.9854C66.2485 59.9036 65.664 59.7644 64.771 59.3775" stroke="#EADEC4" stroke-width="2"/>
</svg>
