<svg width="1166" height="239" viewBox="0 0 1166 239" fill="none" xmlns="http://www.w3.org/2000/svg">
<path d="M930.176 128.506L937.5 128.004L941.5 136.504L934.249 138.724L930.176 128.506Z" fill="#3D5D8C"/>
<path d="M932.5 135.504L940.845 135.375L942.997 143.996L936.497 146.496L932.5 135.504Z" fill="#3D5D8C"/>
<path d="M939.5 144.504C944 159.504 942 173 942 187.5" stroke="#3D5D8C" stroke-width="7"/>
<path d="M460.139 168.48L467.189 172.946L464.264 181.337L457.457 179.866L460.139 168.48Z" fill="#3D5D8C"/>
<path d="M464 154.006L470.5 157.506L468.412 167.093L462 165.005L464 154.006Z" fill="#3D5D8C"/>
<path d="M461.061 179.845C456.603 194.858 451.397 202.804 445.685 216.994" stroke="#3D5D8C" stroke-width="7"/>
<path d="M705.5 160.005L712.5 162.005L712.912 171.619L705.34 171.229L705.5 160.005Z" fill="#3D5D8C"/>
<path d="M705.66 175.005L713.313 178.335L711.712 187.075L704.76 186.667L705.66 175.005Z" fill="#3D5D8C"/>
<path d="M708.316 186.093C706.219 201.612 702.295 210.264 698.831 225.164" stroke="#3D5D8C" stroke-width="7"/>
<path d="M257.513 116.485L263 119.505L262.5 130.505L251.355 124.932L257.513 116.485Z" fill="#3D5D8C"/>
<path d="M250.326 126.005L255.737 132.43L250.326 140.505L244.5 137.005L250.326 126.005Z" fill="#3D5D8C"/>
<path d="M248.536 136.739C240.128 150.672 230 157 216.5 165.5" stroke="#3D5D8C" stroke-width="7"/>
<path d="M4 7.00488C4 7.00488 237.557 154.604 436 164.505C666.5 176.005 815.41 183.426 966.5 127.005C1037.45 100.509 1162 28.5049 1162 28.5049" stroke="#EADEC4" stroke-width="15"/>
<path d="M203.441 182.904L231.05 106.503C231.05 106.503 246.013 86.6721 256.073 91.3238C267.156 96.4482 263.974 112.376 260 119.005" stroke="#3D5D8C" stroke-width="7"/>
<path d="M698.085 238.111L679.496 162.061C679.496 162.061 681.202 138.227 692.17 136.691C704.253 135 708.794 155.531 709.084 162.958" stroke="#3D5D8C" stroke-width="7"/>
<path d="M438.425 235.48L437.351 157.198C437.351 157.198 444.355 134.352 455.388 135.314C467.542 136.373 468.382 149.895 467 157.199" stroke="#3D5D8C" stroke-width="7"/>
<path d="M946.5 205.004L906 138.004C906 138.004 900.494 114.752 910.5 110.004C921.522 104.774 932 123.004 934.5 130.004" stroke="#3D5D8C" stroke-width="7"/>
</svg>
