<svg width="563" height="486" viewBox="0 0 563 486" fill="none" xmlns="http://www.w3.org/2000/svg">
<path d="M0.123321 204.611L0.213324 0.000140698L27.1143 0.0119737L27.0849 66.8569L535.758 67.0807L535.788 0.235726L562.689 0.247559L562.599 204.858C562.564 283.116 535.091 349.405 480.178 403.726C425.809 458.048 359.767 485.192 282.053 485.157C204.339 485.123 137.778 457.921 82.3692 403.551C27.5042 349.182 0.0888978 282.868 0.123321 204.611ZM535.705 187.728L535.72 154.305L27.0466 154.081L27.0318 187.504C26.973 321.194 111.994 388.076 282.096 388.151C310.355 388.163 336.442 386.001 360.356 381.664C384.813 377.87 407.913 371.087 429.655 361.315C451.398 352.085 469.88 339.866 485.104 324.656C500.871 309.446 513.107 290.159 521.813 266.794C531.061 243.973 535.692 217.618 535.705 187.728Z" fill="#3D5D8C"/>
</svg>
