<svg width="1213" height="208" viewBox="0 0 1213 208" fill="none" xmlns="http://www.w3.org/2000/svg">
<path d="M54.6578 40.2343H36.5535L36.5535 75.4696H49.791C54.9822 75.4696 59.7841 75.8589 64.1966 76.6376C68.7389 77.4163 73.2163 78.7789 77.6288 80.7256C82.1711 82.5426 85.74 85.3977 88.3356 89.2911C90.9312 93.0547 92.229 97.6619 92.229 103.113C92.229 108.563 90.9312 113.235 88.3356 117.129C85.74 121.022 82.236 124.007 77.8235 126.084C73.5407 128.03 69.0633 129.458 64.3913 130.366C59.849 131.145 54.9822 131.534 49.791 131.534H1.31824L1.31824 125.11H16.5025L16.5025 40.2343H1.31824L1.31824 34.0049L54.6578 34.0049V40.2343ZM47.8443 81.699H36.5535L36.5535 125.11H48.039C63.6126 125.11 71.3994 117.713 71.3994 102.918C71.3994 95.0014 69.5175 89.4858 65.7539 86.3711C61.9903 83.2563 56.0204 81.699 47.8443 81.699Z" fill="#050505"/>
<path d="M51.8001 90.4302C56.3059 86.0292 60.8742 84.1259 65.5047 84.7203C70.1353 85.3147 74.6053 88.5392 78.9149 94.3937L146.784 184.433L158.41 173.079L161.706 177.535C154.857 184.225 149.713 189.505 146.274 193.375C142.935 196.807 141.205 199.093 141.086 200.233L138.455 200.244L65.6417 103.52C62.7622 99.8507 60.3249 97.6258 58.3299 96.8452C56.3398 95.8894 54.4435 96.2916 52.6412 98.052C47.7748 102.805 50.2529 111.472 60.0753 124.052L56.4256 127.617C54.2282 124.646 52.5424 122.199 51.3681 120.276C50.189 118.528 48.9392 116.166 47.6187 113.192C46.2081 110.305 45.4466 107.723 45.3344 105.445C45.3074 103.253 45.7712 100.754 46.7257 97.945C47.6755 95.3116 49.3669 92.8067 51.8001 90.4302Z" fill="#3D5D8C"/>
<path d="M24.678 104.148C31.1665 104.232 35.8859 105.619 38.8363 108.308C41.7866 110.997 42.709 114.941 41.6034 120.14L25.7619 200.918L42.5021 201.135L41.672 205.1C31.8096 204.973 24.2164 205.007 18.8924 205.203C13.96 205.228 11.0362 205.499 10.121 206.017L8.19161 204.667L25.2783 117.941C25.8408 114.59 25.677 112.202 24.7869 110.777C24.0277 109.265 22.3505 108.492 19.7551 108.459C12.7476 108.368 8.26109 114.053 6.29568 125.515L1.04004 125.447C1.59341 122.803 2.13993 120.69 2.67959 119.106C3.08833 117.609 3.89095 115.764 5.08746 113.57C6.1542 111.375 7.47419 109.669 9.04742 108.453C10.6195 107.324 12.7744 106.292 15.5121 105.355C18.119 104.505 21.1742 104.103 24.678 104.148Z" fill="#3D5D8C"/>
<path d="M264.658 40.2343H246.553V75.4696H259.791C264.982 75.4696 269.784 75.8589 274.197 76.6376C278.739 77.4163 283.216 78.7789 287.629 80.7256C292.171 82.5426 295.74 85.3977 298.336 89.2911C300.931 93.0547 302.229 97.6619 302.229 103.113C302.229 108.563 300.931 113.235 298.336 117.129C295.74 121.022 292.236 124.007 287.823 126.084C283.541 128.03 279.063 129.458 274.391 130.366C269.849 131.145 264.982 131.534 259.791 131.534H211.318V125.11H226.502V40.2343H211.318V34.0049L264.658 34.0049V40.2343ZM257.844 81.699H246.553V125.11H258.039C273.613 125.11 281.399 117.713 281.399 102.918C281.399 95.0014 279.518 89.4858 275.754 86.3711C271.99 83.2563 266.02 81.699 257.844 81.699Z" fill="#050505"/>
<path d="M261.8 90.4302C266.306 86.0292 270.874 84.1259 275.505 84.7203C280.135 85.3147 284.605 88.5392 288.915 94.3937L356.784 184.433L368.41 173.079L371.706 177.535C364.857 184.225 359.713 189.505 356.274 193.375C352.935 196.807 351.205 199.093 351.086 200.233L348.455 200.244L275.642 103.52C272.762 99.8507 270.325 97.6258 268.33 96.8452C266.34 95.8894 264.444 96.2916 262.641 98.052C257.775 102.805 260.253 111.472 270.075 124.052L266.426 127.617C264.228 124.646 262.542 122.199 261.368 120.276C260.189 118.528 258.939 116.166 257.619 113.192C256.208 110.305 255.447 107.723 255.334 105.445C255.307 103.253 255.771 100.754 256.726 97.945C257.675 95.3116 259.367 92.8067 261.8 90.4302Z" fill="#3D5D8C"/>
<path d="M234.678 104.148C241.166 104.232 245.886 105.619 248.836 108.308C251.787 110.997 252.709 114.941 251.603 120.14L235.762 200.918L252.502 201.135L251.672 205.1C241.81 204.973 234.216 205.007 228.892 205.203C223.96 205.228 221.036 205.499 220.121 206.017L218.192 204.667L235.278 117.941C235.841 114.59 235.677 112.202 234.787 110.777C234.028 109.265 232.35 108.492 229.755 108.459C222.748 108.368 218.261 114.053 216.296 125.515L211.04 125.447C211.593 122.803 212.14 120.69 212.68 119.106C213.088 117.609 213.891 115.764 215.087 113.57C216.154 111.375 217.474 109.669 219.047 108.453C220.62 107.324 222.774 106.292 225.512 105.355C228.119 104.505 231.174 104.103 234.678 104.148Z" fill="#3D5D8C"/>
<path d="M474.183 40.2343H456.079V75.4696H469.316C474.508 75.4696 479.309 75.8589 483.722 76.6376C488.264 77.4163 492.742 78.7789 497.154 80.7256C501.696 82.5426 505.265 85.3977 507.861 89.2911C510.457 93.0547 511.754 97.6619 511.754 103.113C511.754 108.563 510.457 113.235 507.861 117.129C505.265 121.022 501.761 124.007 497.349 126.084C493.066 128.03 488.589 129.458 483.917 130.366C479.374 131.145 474.508 131.534 469.316 131.534H420.844V125.11H436.028V40.2343H420.844V34.0049L474.183 34.0049V40.2343ZM467.37 81.699H456.079V125.11H467.564C483.138 125.11 490.925 117.713 490.925 102.918C490.925 95.0014 489.043 89.4858 485.279 86.3711C481.516 83.2563 475.546 81.699 467.37 81.699Z" fill="#050505"/>
<path d="M471.325 90.4302C475.831 86.0292 480.4 84.1259 485.03 84.7203C489.661 85.3147 494.131 88.5392 498.44 94.3937L566.31 184.433L577.935 173.079L581.231 177.535C574.382 184.225 569.238 189.505 565.799 193.375C562.46 196.807 560.731 199.093 560.611 200.233L557.981 200.244L485.167 103.52C482.288 99.8507 479.85 97.6258 477.855 96.8452C475.865 95.8894 473.969 96.2916 472.167 98.052C467.3 102.805 469.778 111.472 479.601 124.052L475.951 127.617C473.754 124.646 472.068 122.199 470.894 120.276C469.714 118.528 468.465 116.166 467.144 113.192C465.733 110.305 464.972 107.723 464.86 105.445C464.833 103.253 465.297 100.754 466.251 97.945C467.201 95.3116 468.892 92.8067 471.325 90.4302Z" fill="#3D5D8C"/>
<path d="M444.203 104.148C450.692 104.232 455.411 105.619 458.362 108.308C461.312 110.997 462.234 114.941 461.129 120.14L445.287 200.918L462.027 201.135L461.197 205.1C451.335 204.973 443.742 205.007 438.418 205.203C433.485 205.228 430.562 205.499 429.646 206.017L427.717 204.667L444.804 117.941C445.366 114.59 445.202 112.202 444.312 110.777C443.553 109.265 441.876 108.492 439.28 108.459C432.273 108.368 427.786 114.053 425.821 125.515L420.565 125.447C421.119 122.803 421.665 120.69 422.205 119.106C422.614 117.609 423.416 115.764 424.613 113.57C425.68 111.375 427 109.669 428.573 108.453C430.145 107.324 432.3 106.292 435.038 105.355C437.644 104.505 440.7 104.103 444.203 104.148Z" fill="#3D5D8C"/>
<path d="M684.658 39.2343H666.553V74.4696H679.791C684.982 74.4696 689.784 74.8589 694.197 75.6376C698.739 76.4163 703.216 77.7789 707.629 79.7256C712.171 81.5426 715.74 84.3977 718.336 88.2911C720.931 92.0547 722.229 96.6619 722.229 102.113C722.229 107.563 720.931 112.235 718.336 116.129C715.74 120.022 712.236 123.007 707.823 125.084C703.541 127.03 699.063 128.458 694.391 129.366C689.849 130.145 684.982 130.534 679.791 130.534H631.318V124.11H646.502V39.2343H631.318V33.0049L684.658 33.0049V39.2343ZM677.844 80.699H666.553V124.11H678.039C693.613 124.11 701.399 116.713 701.399 101.918C701.399 94.0014 699.518 88.4858 695.754 85.3711C691.99 82.2563 686.02 80.699 677.844 80.699Z" fill="#050505"/>
<path d="M681.8 89.4302C686.306 85.0292 690.874 83.1259 695.505 83.7203C700.135 84.3147 704.605 87.5392 708.915 93.3937L776.784 183.433L788.41 172.079L791.706 176.535C784.857 183.225 779.713 188.505 776.274 192.375C772.935 195.807 771.205 198.093 771.086 199.233L768.455 199.244L695.642 102.52C692.762 98.8507 690.325 96.6258 688.33 95.8452C686.34 94.8894 684.444 95.2916 682.641 97.052C677.775 101.805 680.253 110.472 690.075 123.052L686.426 126.617C684.228 123.646 682.542 121.199 681.368 119.276C680.189 117.528 678.939 115.166 677.619 112.192C676.208 109.305 675.447 106.723 675.334 104.445C675.307 102.253 675.771 99.7536 676.726 96.945C677.675 94.3116 679.367 91.8067 681.8 89.4302Z" fill="#3D5D8C"/>
<path d="M654.678 103.148C661.166 103.232 665.886 104.619 668.836 107.308C671.787 109.997 672.709 113.941 671.603 119.14L655.762 199.918L672.502 200.135L671.672 204.1C661.81 203.973 654.216 204.007 648.892 204.203C643.96 204.228 641.036 204.499 640.121 205.017L638.192 203.667L655.278 116.941C655.841 113.59 655.677 111.202 654.787 109.777C654.028 108.265 652.35 107.492 649.755 107.459C642.748 107.368 638.261 113.053 636.296 124.515L631.04 124.447C631.593 121.803 632.14 119.69 632.68 118.106C633.088 116.609 633.891 114.764 635.087 112.57C636.154 110.375 637.474 108.669 639.047 107.453C640.62 106.324 642.774 105.292 645.512 104.355C648.119 103.505 651.174 103.103 654.678 103.148Z" fill="#3D5D8C"/>
<path d="M894.183 39.2343H876.079V74.4696H889.316C894.508 74.4696 899.309 74.8589 903.722 75.6376C908.264 76.4163 912.742 77.7789 917.154 79.7256C921.696 81.5426 925.265 84.3977 927.861 88.2911C930.457 92.0547 931.754 96.6619 931.754 102.113C931.754 107.563 930.457 112.235 927.861 116.129C925.265 120.022 921.761 123.007 917.349 125.084C913.066 127.03 908.589 128.458 903.917 129.366C899.374 130.145 894.508 130.534 889.316 130.534H840.844V124.11H856.028V39.2343H840.844V33.0049L894.183 33.0049V39.2343ZM887.37 80.699H876.079V124.11H887.564C903.138 124.11 910.925 116.713 910.925 101.918C910.925 94.0014 909.043 88.4858 905.279 85.3711C901.516 82.2563 895.546 80.699 887.37 80.699Z" fill="#050505"/>
<path d="M891.325 89.4302C895.831 85.0292 900.4 83.1259 905.03 83.7203C909.661 84.3147 914.131 87.5392 918.44 93.3937L986.31 183.433L997.935 172.079L1001.23 176.535C994.382 183.225 989.238 188.505 985.799 192.375C982.46 195.807 980.731 198.093 980.611 199.233L977.981 199.244L905.167 102.52C902.288 98.8507 899.85 96.6258 897.855 95.8452C895.865 94.8894 893.969 95.2916 892.167 97.052C887.3 101.805 889.778 110.472 899.601 123.052L895.951 126.617C893.754 123.646 892.068 121.199 890.894 119.276C889.714 117.528 888.465 115.166 887.144 112.192C885.733 109.305 884.972 106.723 884.86 104.445C884.833 102.253 885.297 99.7536 886.251 96.945C887.201 94.3116 888.892 91.8067 891.325 89.4302Z" fill="#3D5D8C"/>
<path d="M864.203 103.148C870.692 103.232 875.411 104.619 878.362 107.308C881.312 109.997 882.234 113.941 881.129 119.14L865.287 199.918L882.027 200.135L881.197 204.1C871.335 203.973 863.742 204.007 858.418 204.203C853.485 204.228 850.562 204.499 849.646 205.017L847.717 203.667L864.804 116.941C865.366 113.59 865.202 111.202 864.312 109.777C863.553 108.265 861.876 107.492 859.28 107.459C852.273 107.368 847.786 113.053 845.821 124.515L840.565 124.447C841.119 121.803 841.665 119.69 842.205 118.106C842.614 116.609 843.416 114.764 844.613 112.57C845.68 110.375 847 108.669 848.573 107.453C850.145 106.324 852.3 105.292 855.038 104.355C857.644 103.505 860.7 103.103 864.203 103.148Z" fill="#3D5D8C"/>
<path d="M1103.71 39.2343H1085.6V74.4696H1098.84C1104.03 74.4696 1108.83 74.8589 1113.25 75.6376C1117.79 76.4163 1122.27 77.7789 1126.68 79.7256C1131.22 81.5426 1134.79 84.3977 1137.39 88.2911C1139.98 92.0547 1141.28 96.6619 1141.28 102.113C1141.28 107.563 1139.98 112.235 1137.39 116.129C1134.79 120.022 1131.29 123.007 1126.87 125.084C1122.59 127.03 1118.11 128.458 1113.44 129.366C1108.9 130.145 1104.03 130.534 1098.84 130.534H1050.37V124.11H1065.55V39.2343H1050.37V33.0049L1103.71 33.0049V39.2343ZM1096.9 80.699H1085.6V124.11H1097.09C1112.66 124.11 1120.45 116.713 1120.45 101.918C1120.45 94.0014 1118.57 88.4858 1114.8 85.3711C1111.04 82.2563 1105.07 80.699 1096.9 80.699Z" fill="#050505"/>
<path d="M1100.85 89.4302C1105.36 85.0292 1109.92 83.1259 1114.56 83.7203C1119.19 84.3147 1123.66 87.5392 1127.97 93.3937L1195.84 183.433L1207.46 172.079L1210.76 176.535C1203.91 183.225 1198.76 188.505 1195.32 192.375C1191.99 195.807 1190.26 198.093 1190.14 199.233L1187.51 199.244L1114.69 102.52C1111.81 98.8507 1109.38 96.6258 1107.38 95.8452C1105.39 94.8894 1103.49 95.2916 1101.69 97.052C1096.83 101.805 1099.3 110.472 1109.13 123.052L1105.48 126.617C1103.28 123.646 1101.59 121.199 1100.42 119.276C1099.24 117.528 1097.99 115.166 1096.67 112.192C1095.26 109.305 1094.5 106.723 1094.39 104.445C1094.36 102.253 1094.82 99.7536 1095.78 96.945C1096.73 94.3116 1098.42 91.8067 1100.85 89.4302Z" fill="#3D5D8C"/>
<path d="M1073.73 103.148C1080.22 103.232 1084.94 104.619 1087.89 107.308C1090.84 109.997 1091.76 113.941 1090.65 119.14L1074.81 199.918L1091.55 200.135L1090.72 204.1C1080.86 203.973 1073.27 204.007 1067.94 204.203C1063.01 204.228 1060.09 204.499 1059.17 205.017L1057.24 203.667L1074.33 116.941C1074.89 113.59 1074.73 111.202 1073.84 109.777C1073.08 108.265 1071.4 107.492 1068.81 107.459C1061.8 107.368 1057.31 113.053 1055.35 124.515L1050.09 124.447C1050.64 121.803 1051.19 119.69 1051.73 118.106C1052.14 116.609 1052.94 114.764 1054.14 112.57C1055.2 110.375 1056.52 108.669 1058.1 107.453C1059.67 106.324 1061.83 105.292 1064.56 104.355C1067.17 103.505 1070.23 103.103 1073.73 103.148Z" fill="#3D5D8C"/>
<path d="M275.094 17.0732C274.866 17.0975 274.1 18.0861 273.901 17.6842C273.568 17.0111 273.831 15.5884 273.86 14.8818C273.937 12.9541 274.695 11.5285 275.718 9.91462C276.775 8.24746 278.226 6.22054 280.268 5.71774C282.692 5.12083 287.777 4.75141 289.325 7.13884C290.686 9.23853 290.264 13.5491 289.574 15.8248C289.371 16.4941 288.397 17.573 288.825 16.3428C289.061 15.6646 289.825 15.2666 290.434 14.9217C292.672 13.6556 294.963 13.3334 297.536 13.5404C300.491 13.7782 303.005 15.2895 303.916 18.0295C304.653 20.248 303.742 23.5349 302.043 25.1615C301.621 25.5654 298.529 27.3135 297.868 26.8217C297.505 26.5506 300.162 25.754 300.31 25.7326C302.835 25.3675 305.319 25.6658 307.3 27.2467C309.164 28.7338 309.855 30.4452 310.032 32.7318C310.169 34.4938 310.619 36.2097 309.797 37.8717C308.429 40.6355 305.572 42.6264 302.279 42.6264C299.2 42.6264 297.255 41.5307 294.567 40.5014" stroke="#050505" stroke-width="5" stroke-linecap="round"/>
<path d="M187.777 41.04C187.859 41.245 189.051 41.7064 188.694 41.9918C188.098 42.4696 186.594 42.5838 185.872 42.7352C183.904 43.1484 182.273 42.8046 180.384 42.2622C178.433 41.7019 176.02 40.8677 174.998 39.1017C173.785 37.0052 172.132 32.3852 174.156 30.3504C175.936 28.5609 180.399 27.8672 182.873 27.9342C183.6 27.9539 184.936 28.5855 183.584 28.498C182.84 28.4498 182.245 27.8426 181.743 27.3644C179.901 25.6092 178.999 23.5672 178.561 21.1305C178.058 18.3317 178.953 15.6213 181.493 14.0884C183.55 12.8471 187.102 12.8646 189.173 14.0297C189.687 14.319 192.232 16.7454 191.901 17.4812C191.719 17.8866 190.245 15.6244 190.186 15.4928C189.182 13.2437 188.859 10.8672 189.958 8.63344C190.993 6.53211 192.549 5.46052 194.815 4.72142C196.562 4.15191 198.183 3.30318 200.07 3.64706C203.207 4.21894 205.938 6.36653 206.766 9.41806C207.541 12.2716 206.923 14.3499 206.558 17.0995" stroke="#050505" stroke-width="5" stroke-linecap="round"/>
<path d="M195.897 22.7133C200.64 18.3465 206.599 16.1631 213.774 16.1631C220.949 16.1631 226.907 18.4338 231.65 22.9753C236.393 27.4585 238.764 33.1353 238.764 40.0057C238.764 46.7597 236.363 52.3492 231.559 56.7742C226.816 61.1992 220.888 63.4117 213.774 63.4117C206.538 63.4117 200.549 61.1701 195.806 56.6869C191.124 52.1454 188.783 46.4395 188.783 39.5691C188.783 32.6987 191.154 27.0801 195.897 22.7133ZM213.774 20.2679C210.916 20.2679 208.909 21.7526 207.754 24.722C206.477 27.6914 205.839 32.6404 205.839 39.5691C205.839 46.6724 206.477 51.7379 207.754 54.7655C208.909 57.7931 210.916 59.307 213.774 59.307C216.51 59.307 218.547 57.7349 219.885 54.5908C221.161 51.505 221.8 46.6433 221.8 40.0057C221.8 33.1936 221.161 28.1863 219.885 24.984C218.547 21.8399 216.51 20.2679 213.774 20.2679Z" fill="#EADEC4"/>
<path d="M251.298 22.7133C256.041 18.3465 262 16.1631 269.175 16.1631C276.349 16.1631 282.308 18.4338 287.051 22.9753C291.794 27.4585 294.165 33.1353 294.165 40.0057C294.165 46.7597 291.763 52.3492 286.96 56.7742C282.217 61.1992 276.289 63.4117 269.175 63.4117C261.939 63.4117 255.95 61.1701 251.207 56.6869C246.525 52.1454 244.184 46.4395 244.184 39.5691C244.184 32.6987 246.555 27.0801 251.298 22.7133ZM269.175 20.2679C266.317 20.2679 264.31 21.7526 263.155 24.722C261.878 27.6914 261.24 32.6404 261.24 39.5691C261.24 46.6724 261.878 51.7379 263.155 54.7655C264.31 57.7931 266.317 59.307 269.175 59.307C271.911 59.307 273.948 57.7349 275.285 54.5908C276.562 51.505 277.201 46.6433 277.201 40.0057C277.201 33.1936 276.562 28.1863 275.285 24.984C273.948 21.8399 271.911 20.2679 269.175 20.2679Z" fill="#EADEC4"/>
<path d="M901.424 15.0251C901.194 15.0461 900.406 16.0256 900.212 15.6201C899.887 14.9411 900.175 13.5196 900.215 12.8121C900.325 10.882 901.111 9.46467 902.169 7.86248C903.261 6.20742 904.755 4.19757 906.821 3.72305C909.274 3.1597 914.405 2.86229 915.926 5.27614C917.264 7.39907 916.77 11.7114 916.038 13.9813C915.822 14.649 914.823 15.7159 915.274 14.4895C915.523 13.8136 916.299 13.4257 916.919 13.0889C919.194 11.8525 921.508 11.5624 924.098 11.8066C927.073 12.0871 929.582 13.637 930.456 16.3949C931.163 18.628 930.192 21.9079 928.453 23.5131C928.022 23.9117 924.877 25.6188 924.219 25.1166C923.857 24.8399 926.548 24.0797 926.697 24.0604C929.248 23.7308 931.746 24.0651 933.718 25.6771C935.572 27.1936 936.241 28.918 936.383 31.2112C936.492 32.9783 936.917 34.7038 936.062 36.357C934.64 39.1063 931.727 41.0599 928.409 41.0128C925.306 40.9688 923.363 39.8434 920.671 38.7738" stroke="#050505" stroke-width="5" stroke-linecap="round"/>
<path d="M815.919 40.0501C816.007 40.2504 817.236 40.6724 816.879 40.9645C816.28 41.4535 814.747 41.6088 814.014 41.7789C812.013 42.2427 810.339 41.9493 808.397 41.4669C806.391 40.9686 803.907 40.2127 802.822 38.4969C801.533 36.46 799.737 31.9425 801.756 29.875C803.531 28.0567 808.073 27.245 810.601 27.2412C811.345 27.2401 812.724 27.8262 811.342 27.7781C810.58 27.7515 809.959 27.1684 809.435 26.7102C807.512 25.0283 806.542 23.0365 806.038 20.6416C805.458 17.8907 806.308 15.1877 808.867 13.6013C810.938 12.3169 814.566 12.2336 816.709 13.326C817.241 13.5973 819.898 15.9224 819.577 16.6587C819.4 17.0644 817.842 14.8711 817.779 14.7428C816.7 12.5492 816.314 10.2105 817.384 7.97258C818.391 5.86731 819.955 4.7646 822.253 3.97026C824.023 3.35817 825.659 2.47379 827.594 2.76013C830.812 3.2363 833.652 5.28069 834.57 8.27198C835.428 11.0692 834.845 13.14 834.538 15.8667" stroke="#050505" stroke-width="5" stroke-linecap="round"/>
<path d="M840.806 16.2686C847.615 16.2686 853.082 18.6331 857.207 23.3622C861.331 28.0913 863.394 33.7109 863.394 40.2211C863.394 46.7313 861.299 52.3509 857.108 57.08C852.984 61.8091 847.55 64.1736 840.806 64.1736C833.866 64.1736 828.366 61.8705 824.307 57.2642C820.313 52.658 818.316 47.0076 818.316 40.3132C818.316 33.6188 820.313 27.9377 824.307 23.2701C828.366 18.6024 833.866 16.2686 840.806 16.2686ZM840.806 19.0323C838.449 19.0323 836.387 19.4929 834.619 20.4142C832.851 21.3354 831.509 22.5024 830.592 23.9149C829.676 25.2661 828.923 26.9551 828.334 28.9818C827.81 31.0086 827.482 32.8818 827.352 34.6015C827.221 36.2597 827.155 38.1636 827.155 40.3132C827.155 42.4628 827.221 44.3667 827.352 46.025C827.482 47.6832 827.81 49.5257 828.334 51.5525C828.923 53.5792 829.676 55.2682 830.592 56.6194C831.574 57.9705 832.917 59.1067 834.619 60.028C836.387 60.9492 838.449 61.4099 840.806 61.4099C849.972 61.4099 854.555 54.3469 854.555 40.2211C854.555 26.0952 849.972 19.0323 840.806 19.0323Z" fill="#EADEC4"/>
<path d="M895.664 16.2686C902.473 16.2686 907.94 18.6331 912.065 23.3622C916.19 28.0913 918.252 33.7109 918.252 40.2211C918.252 46.7313 916.157 52.3509 911.967 57.08C907.842 61.8091 902.408 64.1736 895.664 64.1736C888.724 64.1736 883.225 61.8705 879.165 57.2642C875.172 52.658 873.175 47.0076 873.175 40.3132C873.175 33.6188 875.172 27.9377 879.165 23.2701C883.225 18.6024 888.724 16.2686 895.664 16.2686ZM895.664 19.0323C893.307 19.0323 891.245 19.4929 889.477 20.4142C887.709 21.3354 886.367 22.5024 885.451 23.9149C884.534 25.2661 883.781 26.9551 883.192 28.9818C882.668 31.0086 882.341 32.8818 882.21 34.6015C882.079 36.2597 882.013 38.1636 882.013 40.3132C882.013 42.4628 882.079 44.3667 882.21 46.025C882.341 47.6832 882.668 49.5257 883.192 51.5525C883.781 53.5792 884.534 55.2682 885.451 56.6194C886.433 57.9705 887.775 59.1067 889.477 60.028C891.245 60.9492 893.307 61.4099 895.664 61.4099C904.83 61.4099 909.413 54.3469 909.413 40.2211C909.413 26.0952 904.83 19.0323 895.664 19.0323Z" fill="#EADEC4"/>
<path d="M264.658 40.2343H246.553V75.4696H259.791C264.982 75.4696 269.784 75.8589 274.197 76.6376C278.739 77.4163 283.216 78.7789 287.629 80.7256C292.171 82.5426 295.74 85.3977 298.336 89.2911C300.931 93.0547 302.229 97.6619 302.229 103.113C302.229 108.563 300.931 113.235 298.336 117.129C295.74 121.022 292.236 124.007 287.823 126.084C283.541 128.03 279.063 129.458 274.391 130.366C269.849 131.145 264.982 131.534 259.791 131.534H211.318V125.11H226.502V40.2343H211.318V34.0049L264.658 34.0049V40.2343ZM257.844 81.699H246.553V125.11H258.039C273.613 125.11 281.399 117.713 281.399 102.918C281.399 95.0014 279.518 89.4858 275.754 86.3711C271.99 83.2563 266.02 81.699 257.844 81.699Z" fill="#050505"/>
<path d="M261.8 90.4302C266.306 86.0292 270.874 84.1259 275.505 84.7203C280.135 85.3147 284.605 88.5392 288.915 94.3937L356.784 184.433L368.41 173.079L371.706 177.535C364.857 184.225 359.713 189.505 356.274 193.375C352.935 196.807 351.205 199.093 351.086 200.233L348.455 200.244L275.642 103.52C272.762 99.8507 270.325 97.6258 268.33 96.8452C266.34 95.8894 264.444 96.2916 262.641 98.052C257.775 102.805 260.253 111.472 270.075 124.052L266.426 127.617C264.228 124.646 262.542 122.199 261.368 120.276C260.189 118.528 258.939 116.166 257.619 113.192C256.208 110.305 255.447 107.723 255.334 105.445C255.307 103.253 255.771 100.754 256.726 97.945C257.675 95.3116 259.367 92.8067 261.8 90.4302Z" fill="#3D5D8C"/>
<path d="M234.678 104.148C241.166 104.232 245.886 105.619 248.836 108.308C251.787 110.997 252.709 114.941 251.603 120.14L235.762 200.918L252.502 201.135L251.672 205.1C241.81 204.973 234.216 205.007 228.892 205.203C223.96 205.228 221.036 205.499 220.121 206.017L218.192 204.667L235.278 117.941C235.841 114.59 235.677 112.202 234.787 110.777C234.028 109.265 232.35 108.492 229.755 108.459C222.748 108.368 218.261 114.053 216.296 125.515L211.04 125.447C211.593 122.803 212.14 120.69 212.68 119.106C213.088 117.609 213.891 115.764 215.087 113.57C216.154 111.375 217.474 109.669 219.047 108.453C220.62 107.324 222.774 106.292 225.512 105.355C228.119 104.505 231.174 104.103 234.678 104.148Z" fill="#3D5D8C"/>
<path d="M474.183 40.2343H456.079V75.4696H469.316C474.508 75.4696 479.309 75.8589 483.722 76.6376C488.264 77.4163 492.742 78.7789 497.154 80.7256C501.696 82.5426 505.265 85.3977 507.861 89.2911C510.457 93.0547 511.754 97.6619 511.754 103.113C511.754 108.563 510.457 113.235 507.861 117.129C505.265 121.022 501.761 124.007 497.349 126.084C493.066 128.03 488.589 129.458 483.917 130.366C479.374 131.145 474.508 131.534 469.316 131.534H420.844V125.11H436.028V40.2343H420.844V34.0049L474.183 34.0049V40.2343ZM467.37 81.699H456.079V125.11H467.564C483.138 125.11 490.925 117.713 490.925 102.918C490.925 95.0014 489.043 89.4858 485.279 86.3711C481.516 83.2563 475.546 81.699 467.37 81.699Z" fill="#050505"/>
<path d="M471.325 90.4302C475.831 86.0292 480.4 84.1259 485.03 84.7203C489.661 85.3147 494.131 88.5392 498.44 94.3937L566.31 184.433L577.935 173.079L581.231 177.535C574.382 184.225 569.238 189.505 565.799 193.375C562.46 196.807 560.731 199.093 560.611 200.233L557.981 200.244L485.167 103.52C482.288 99.8507 479.85 97.6258 477.855 96.8452C475.865 95.8894 473.969 96.2916 472.167 98.052C467.3 102.805 469.778 111.472 479.601 124.052L475.951 127.617C473.754 124.646 472.068 122.199 470.894 120.276C469.714 118.528 468.465 116.166 467.144 113.192C465.733 110.305 464.972 107.723 464.86 105.445C464.833 103.253 465.297 100.754 466.251 97.945C467.201 95.3116 468.892 92.8067 471.325 90.4302Z" fill="#3D5D8C"/>
<path d="M444.203 104.148C450.692 104.232 455.411 105.619 458.362 108.308C461.312 110.997 462.234 114.941 461.129 120.14L445.287 200.918L462.027 201.135L461.197 205.1C451.335 204.973 443.742 205.007 438.418 205.203C433.485 205.228 430.562 205.499 429.646 206.017L427.717 204.667L444.804 117.941C445.366 114.59 445.202 112.202 444.312 110.777C443.553 109.265 441.876 108.492 439.28 108.459C432.273 108.368 427.786 114.053 425.821 125.515L420.565 125.447C421.119 122.803 421.665 120.69 422.205 119.106C422.614 117.609 423.416 115.764 424.613 113.57C425.68 111.375 427 109.669 428.573 108.453C430.145 107.324 432.3 106.292 435.038 105.355C437.644 104.505 440.7 104.103 444.203 104.148Z" fill="#3D5D8C"/>
<path d="M684.658 39.2343H666.553V74.4696H679.791C684.982 74.4696 689.784 74.8589 694.197 75.6376C698.739 76.4163 703.216 77.7789 707.629 79.7256C712.171 81.5426 715.74 84.3977 718.336 88.2911C720.931 92.0547 722.229 96.6619 722.229 102.113C722.229 107.563 720.931 112.235 718.336 116.129C715.74 120.022 712.236 123.007 707.823 125.084C703.541 127.03 699.063 128.458 694.391 129.366C689.849 130.145 684.982 130.534 679.791 130.534H631.318V124.11H646.502V39.2343H631.318V33.0049L684.658 33.0049V39.2343ZM677.844 80.699H666.553V124.11H678.039C693.613 124.11 701.399 116.713 701.399 101.918C701.399 94.0014 699.518 88.4858 695.754 85.3711C691.99 82.2563 686.02 80.699 677.844 80.699Z" fill="#050505"/>
<path d="M681.8 89.4302C686.306 85.0292 690.874 83.1259 695.505 83.7203C700.135 84.3147 704.605 87.5392 708.915 93.3937L776.784 183.433L788.41 172.079L791.706 176.535C784.857 183.225 779.713 188.505 776.274 192.375C772.935 195.807 771.205 198.093 771.086 199.233L768.455 199.244L695.642 102.52C692.762 98.8507 690.325 96.6258 688.33 95.8452C686.34 94.8894 684.444 95.2916 682.641 97.052C677.775 101.805 680.253 110.472 690.075 123.052L686.426 126.617C684.228 123.646 682.542 121.199 681.368 119.276C680.189 117.528 678.939 115.166 677.619 112.192C676.208 109.305 675.447 106.723 675.334 104.445C675.307 102.253 675.771 99.7536 676.726 96.945C677.675 94.3116 679.367 91.8067 681.8 89.4302Z" fill="#3D5D8C"/>
<path d="M654.678 103.148C661.166 103.232 665.886 104.619 668.836 107.308C671.787 109.997 672.709 113.941 671.603 119.14L655.762 199.918L672.502 200.135L671.672 204.1C661.81 203.973 654.216 204.007 648.892 204.203C643.96 204.228 641.036 204.499 640.121 205.017L638.192 203.667L655.278 116.941C655.841 113.59 655.677 111.202 654.787 109.777C654.028 108.265 652.35 107.492 649.755 107.459C642.748 107.368 638.261 113.053 636.296 124.515L631.04 124.447C631.593 121.803 632.14 119.69 632.68 118.106C633.088 116.609 633.891 114.764 635.087 112.57C636.154 110.375 637.474 108.669 639.047 107.453C640.62 106.324 642.774 105.292 645.512 104.355C648.119 103.505 651.174 103.103 654.678 103.148Z" fill="#3D5D8C"/>
<path d="M894.183 39.2343H876.079V74.4696H889.316C894.508 74.4696 899.309 74.8589 903.722 75.6376C908.264 76.4163 912.742 77.7789 917.154 79.7256C921.696 81.5426 925.265 84.3977 927.861 88.2911C930.457 92.0547 931.754 96.6619 931.754 102.113C931.754 107.563 930.457 112.235 927.861 116.129C925.265 120.022 921.761 123.007 917.349 125.084C913.066 127.03 908.589 128.458 903.917 129.366C899.374 130.145 894.508 130.534 889.316 130.534H840.844V124.11H856.028V39.2343H840.844V33.0049L894.183 33.0049V39.2343ZM887.37 80.699H876.079V124.11H887.564C903.138 124.11 910.925 116.713 910.925 101.918C910.925 94.0014 909.043 88.4858 905.279 85.3711C901.516 82.2563 895.546 80.699 887.37 80.699Z" fill="#050505"/>
<path d="M891.325 89.4302C895.831 85.0292 900.4 83.1259 905.03 83.7203C909.661 84.3147 914.131 87.5392 918.44 93.3937L986.31 183.433L997.935 172.079L1001.23 176.535C994.382 183.225 989.238 188.505 985.799 192.375C982.46 195.807 980.731 198.093 980.611 199.233L977.981 199.244L905.167 102.52C902.288 98.8507 899.85 96.6258 897.855 95.8452C895.865 94.8894 893.969 95.2916 892.167 97.052C887.3 101.805 889.778 110.472 899.601 123.052L895.951 126.617C893.754 123.646 892.068 121.199 890.894 119.276C889.714 117.528 888.465 115.166 887.144 112.192C885.733 109.305 884.972 106.723 884.86 104.445C884.833 102.253 885.297 99.7536 886.251 96.945C887.201 94.3116 888.892 91.8067 891.325 89.4302Z" fill="#3D5D8C"/>
<path d="M864.203 103.148C870.692 103.232 875.411 104.619 878.362 107.308C881.312 109.997 882.234 113.941 881.129 119.14L865.287 199.918L882.027 200.135L881.197 204.1C871.335 203.973 863.742 204.007 858.418 204.203C853.485 204.228 850.562 204.499 849.646 205.017L847.717 203.667L864.804 116.941C865.366 113.59 865.202 111.202 864.312 109.777C863.553 108.265 861.876 107.492 859.28 107.459C852.273 107.368 847.786 113.053 845.821 124.515L840.565 124.447C841.119 121.803 841.665 119.69 842.205 118.106C842.614 116.609 843.416 114.764 844.613 112.57C845.68 110.375 847 108.669 848.573 107.453C850.145 106.324 852.3 105.292 855.038 104.355C857.644 103.505 860.7 103.103 864.203 103.148Z" fill="#3D5D8C"/>
<path d="M1103.71 39.2343H1085.6V74.4696H1098.84C1104.03 74.4696 1108.83 74.8589 1113.25 75.6376C1117.79 76.4163 1122.27 77.7789 1126.68 79.7256C1131.22 81.5426 1134.79 84.3977 1137.39 88.2911C1139.98 92.0547 1141.28 96.6619 1141.28 102.113C1141.28 107.563 1139.98 112.235 1137.39 116.129C1134.79 120.022 1131.29 123.007 1126.87 125.084C1122.59 127.03 1118.11 128.458 1113.44 129.366C1108.9 130.145 1104.03 130.534 1098.84 130.534H1050.37V124.11H1065.55V39.2343H1050.37V33.0049L1103.71 33.0049V39.2343ZM1096.9 80.699H1085.6V124.11H1097.09C1112.66 124.11 1120.45 116.713 1120.45 101.918C1120.45 94.0014 1118.57 88.4858 1114.8 85.3711C1111.04 82.2563 1105.07 80.699 1096.9 80.699Z" fill="#050505"/>
<path d="M1100.85 89.4302C1105.36 85.0292 1109.92 83.1259 1114.56 83.7203C1119.19 84.3147 1123.66 87.5392 1127.97 93.3937L1195.84 183.433L1207.46 172.079L1210.76 176.535C1203.91 183.225 1198.76 188.505 1195.32 192.375C1191.99 195.807 1190.26 198.093 1190.14 199.233L1187.51 199.244L1114.69 102.52C1111.81 98.8507 1109.38 96.6258 1107.38 95.8452C1105.39 94.8894 1103.49 95.2916 1101.69 97.052C1096.83 101.805 1099.3 110.472 1109.13 123.052L1105.48 126.617C1103.28 123.646 1101.59 121.199 1100.42 119.276C1099.24 117.528 1097.99 115.166 1096.67 112.192C1095.26 109.305 1094.5 106.723 1094.39 104.445C1094.36 102.253 1094.82 99.7536 1095.78 96.945C1096.73 94.3116 1098.42 91.8067 1100.85 89.4302Z" fill="#3D5D8C"/>
<path d="M1073.73 103.148C1080.22 103.232 1084.94 104.619 1087.89 107.308C1090.84 109.997 1091.76 113.941 1090.65 119.14L1074.81 199.918L1091.55 200.135L1090.72 204.1C1080.86 203.973 1073.27 204.007 1067.94 204.203C1063.01 204.228 1060.09 204.499 1059.17 205.017L1057.24 203.667L1074.33 116.941C1074.89 113.59 1074.73 111.202 1073.84 109.777C1073.08 108.265 1071.4 107.492 1068.81 107.459C1061.8 107.368 1057.31 113.053 1055.35 124.515L1050.09 124.447C1050.64 121.803 1051.19 119.69 1051.73 118.106C1052.14 116.609 1052.94 114.764 1054.14 112.57C1055.2 110.375 1056.52 108.669 1058.1 107.453C1059.67 106.324 1061.83 105.292 1064.56 104.355C1067.17 103.505 1070.23 103.103 1073.73 103.148Z" fill="#3D5D8C"/>
<path d="M275.094 17.0732C274.866 17.0975 274.1 18.0861 273.901 17.6842C273.568 17.0111 273.831 15.5884 273.86 14.8818C273.937 12.9541 274.695 11.5285 275.718 9.91462C276.775 8.24746 278.226 6.22054 280.268 5.71774C282.692 5.12083 287.777 4.75141 289.325 7.13884C290.686 9.23853 290.264 13.5491 289.574 15.8248C289.371 16.4941 288.397 17.573 288.825 16.3428C289.061 15.6646 289.825 15.2666 290.434 14.9217C292.672 13.6556 294.963 13.3334 297.536 13.5404C300.491 13.7782 303.005 15.2895 303.916 18.0295C304.653 20.248 303.742 23.5349 302.043 25.1615C301.621 25.5654 298.529 27.3135 297.868 26.8217C297.505 26.5506 300.162 25.754 300.31 25.7326C302.835 25.3675 305.319 25.6658 307.3 27.2467C309.164 28.7338 309.855 30.4452 310.032 32.7318C310.169 34.4938 310.619 36.2097 309.797 37.8717C308.429 40.6355 305.572 42.6264 302.279 42.6264C299.2 42.6264 297.255 41.5307 294.567 40.5014" stroke="#050505" stroke-width="5" stroke-linecap="round"/>
<path d="M187.777 41.04C187.859 41.245 189.051 41.7064 188.694 41.9918C188.098 42.4696 186.594 42.5838 185.872 42.7352C183.904 43.1484 182.273 42.8046 180.384 42.2622C178.433 41.7019 176.02 40.8677 174.998 39.1017C173.785 37.0052 172.132 32.3852 174.156 30.3504C175.936 28.5609 180.399 27.8672 182.873 27.9342C183.6 27.9539 184.936 28.5855 183.584 28.498C182.84 28.4498 182.245 27.8426 181.743 27.3644C179.901 25.6092 178.999 23.5672 178.561 21.1305C178.058 18.3317 178.953 15.6213 181.493 14.0884C183.55 12.8471 187.102 12.8646 189.173 14.0297C189.687 14.319 192.232 16.7454 191.901 17.4812C191.719 17.8866 190.245 15.6244 190.186 15.4928C189.182 13.2437 188.859 10.8672 189.958 8.63344C190.993 6.53211 192.549 5.46052 194.815 4.72142C196.562 4.15191 198.183 3.30318 200.07 3.64706C203.207 4.21894 205.938 6.36653 206.766 9.41806C207.541 12.2716 206.923 14.3499 206.558 17.0995" stroke="#050505" stroke-width="5" stroke-linecap="round"/>
<path d="M195.897 22.7133C200.64 18.3465 206.599 16.1631 213.774 16.1631C220.949 16.1631 226.907 18.4338 231.65 22.9753C236.393 27.4585 238.764 33.1353 238.764 40.0057C238.764 46.7597 236.363 52.3492 231.559 56.7742C226.816 61.1992 220.888 63.4117 213.774 63.4117C206.538 63.4117 200.549 61.1701 195.806 56.6869C191.124 52.1454 188.783 46.4395 188.783 39.5691C188.783 32.6987 191.154 27.0801 195.897 22.7133ZM213.774 20.2679C210.916 20.2679 208.909 21.7526 207.754 24.722C206.477 27.6914 205.839 32.6404 205.839 39.5691C205.839 46.6724 206.477 51.7379 207.754 54.7655C208.909 57.7931 210.916 59.307 213.774 59.307C216.51 59.307 218.547 57.7349 219.885 54.5908C221.161 51.505 221.8 46.6433 221.8 40.0057C221.8 33.1936 221.161 28.1863 219.885 24.984C218.547 21.8399 216.51 20.2679 213.774 20.2679Z" fill="#EADEC4"/>
<path d="M251.298 22.7133C256.041 18.3465 262 16.1631 269.175 16.1631C276.349 16.1631 282.308 18.4338 287.051 22.9753C291.794 27.4585 294.165 33.1353 294.165 40.0057C294.165 46.7597 291.763 52.3492 286.96 56.7742C282.217 61.1992 276.289 63.4117 269.175 63.4117C261.939 63.4117 255.95 61.1701 251.207 56.6869C246.525 52.1454 244.184 46.4395 244.184 39.5691C244.184 32.6987 246.555 27.0801 251.298 22.7133ZM269.175 20.2679C266.317 20.2679 264.31 21.7526 263.155 24.722C261.878 27.6914 261.24 32.6404 261.24 39.5691C261.24 46.6724 261.878 51.7379 263.155 54.7655C264.31 57.7931 266.317 59.307 269.175 59.307C271.911 59.307 273.948 57.7349 275.285 54.5908C276.562 51.505 277.201 46.6433 277.201 40.0057C277.201 33.1936 276.562 28.1863 275.285 24.984C273.948 21.8399 271.911 20.2679 269.175 20.2679Z" fill="#EADEC4"/>
<path d="M901.424 15.0251C901.194 15.0461 900.406 16.0256 900.212 15.6201C899.887 14.9411 900.175 13.5196 900.215 12.8121C900.325 10.882 901.111 9.46467 902.169 7.86248C903.261 6.20742 904.755 4.19757 906.821 3.72305C909.274 3.1597 914.405 2.86229 915.926 5.27614C917.264 7.39907 916.77 11.7114 916.038 13.9813C915.822 14.649 914.823 15.7159 915.274 14.4895C915.523 13.8136 916.299 13.4257 916.919 13.0889C919.194 11.8525 921.508 11.5624 924.098 11.8066C927.073 12.0871 929.582 13.637 930.456 16.3949C931.163 18.628 930.192 21.9079 928.453 23.5131C928.022 23.9117 924.877 25.6188 924.219 25.1166C923.857 24.8399 926.548 24.0797 926.697 24.0604C929.248 23.7308 931.746 24.0651 933.718 25.6771C935.572 27.1936 936.241 28.918 936.383 31.2112C936.492 32.9783 936.917 34.7038 936.062 36.357C934.64 39.1063 931.727 41.0599 928.409 41.0128C925.306 40.9688 923.363 39.8434 920.671 38.7738" stroke="#050505" stroke-width="5" stroke-linecap="round"/>
<path d="M815.919 40.0501C816.007 40.2504 817.236 40.6724 816.879 40.9645C816.28 41.4535 814.747 41.6088 814.014 41.7789C812.013 42.2427 810.339 41.9493 808.397 41.4669C806.391 40.9686 803.907 40.2127 802.822 38.4969C801.533 36.46 799.737 31.9425 801.756 29.875C803.531 28.0567 808.073 27.245 810.601 27.2412C811.345 27.2401 812.724 27.8262 811.342 27.7781C810.58 27.7515 809.959 27.1684 809.435 26.7102C807.512 25.0283 806.542 23.0365 806.038 20.6416C805.458 17.8907 806.308 15.1877 808.867 13.6013C810.938 12.3169 814.566 12.2336 816.709 13.326C817.241 13.5973 819.898 15.9224 819.577 16.6587C819.4 17.0644 817.842 14.8711 817.779 14.7428C816.7 12.5492 816.314 10.2105 817.384 7.97258C818.391 5.86731 819.955 4.7646 822.253 3.97026C824.023 3.35817 825.659 2.47379 827.594 2.76013C830.812 3.2363 833.652 5.28069 834.57 8.27198C835.428 11.0692 834.845 13.14 834.538 15.8667" stroke="#050505" stroke-width="5" stroke-linecap="round"/>
<path d="M840.806 16.2686C847.615 16.2686 853.082 18.6331 857.207 23.3622C861.331 28.0913 863.394 33.7109 863.394 40.2211C863.394 46.7313 861.299 52.3509 857.108 57.08C852.984 61.8091 847.55 64.1736 840.806 64.1736C833.866 64.1736 828.366 61.8705 824.307 57.2642C820.313 52.658 818.316 47.0076 818.316 40.3132C818.316 33.6188 820.313 27.9377 824.307 23.2701C828.366 18.6024 833.866 16.2686 840.806 16.2686ZM840.806 19.0323C838.449 19.0323 836.387 19.4929 834.619 20.4142C832.851 21.3354 831.509 22.5024 830.592 23.9149C829.676 25.2661 828.923 26.9551 828.334 28.9818C827.81 31.0086 827.482 32.8818 827.352 34.6015C827.221 36.2597 827.155 38.1636 827.155 40.3132C827.155 42.4628 827.221 44.3667 827.352 46.025C827.482 47.6832 827.81 49.5257 828.334 51.5525C828.923 53.5792 829.676 55.2682 830.592 56.6194C831.574 57.9705 832.917 59.1067 834.619 60.028C836.387 60.9492 838.449 61.4099 840.806 61.4099C849.972 61.4099 854.555 54.3469 854.555 40.2211C854.555 26.0952 849.972 19.0323 840.806 19.0323Z" fill="#EADEC4"/>
<path d="M895.664 16.2686C902.473 16.2686 907.94 18.6331 912.065 23.3622C916.19 28.0913 918.252 33.7109 918.252 40.2211C918.252 46.7313 916.157 52.3509 911.967 57.08C907.842 61.8091 902.408 64.1736 895.664 64.1736C888.724 64.1736 883.225 61.8705 879.165 57.2642C875.172 52.658 873.175 47.0076 873.175 40.3132C873.175 33.6188 875.172 27.9377 879.165 23.2701C883.225 18.6024 888.724 16.2686 895.664 16.2686ZM895.664 19.0323C893.307 19.0323 891.245 19.4929 889.477 20.4142C887.709 21.3354 886.367 22.5024 885.451 23.9149C884.534 25.2661 883.781 26.9551 883.192 28.9818C882.668 31.0086 882.341 32.8818 882.21 34.6015C882.079 36.2597 882.013 38.1636 882.013 40.3132C882.013 42.4628 882.079 44.3667 882.21 46.025C882.341 47.6832 882.668 49.5257 883.192 51.5525C883.781 53.5792 884.534 55.2682 885.451 56.6194C886.433 57.9705 887.775 59.1067 889.477 60.028C891.245 60.9492 893.307 61.4099 895.664 61.4099C904.83 61.4099 909.413 54.3469 909.413 40.2211C909.413 26.0952 904.83 19.0323 895.664 19.0323Z" fill="#EADEC4"/>
</svg>
