<svg width="547" height="516" viewBox="0 0 547 516" fill="none" xmlns="http://www.w3.org/2000/svg">
<path fill-rule="evenodd" clip-rule="evenodd" d="M1.3663 112.379L122.103 134.947L31.9541 50.4287L33.647 47.0001L542.715 298.352L509.068 366.498L-2.36207e-07 115.146L1.3663 112.379Z" fill="#3D5D8C"/>
<mask id="path-2-outside-1_0_69" maskUnits="userSpaceOnUse" x="79.878" y="0.400194" width="466.722" height="283.332" fill="black">
<rect fill="white" x="79.878" y="0.400194" width="466.722" height="283.332"/>
<path fill-rule="evenodd" clip-rule="evenodd" d="M82.8507 67.2499L187.146 81.6999L113.439 5.29916L115.131 1.87136L545.26 214.247L511.613 282.393L81.4843 70.0174L82.8507 67.2499Z"/>
</mask>
<path fill-rule="evenodd" clip-rule="evenodd" d="M82.8507 67.2499L187.146 81.6999L113.439 5.29916L115.131 1.87136L545.26 214.247L511.613 282.393L81.4843 70.0174L82.8507 67.2499Z" fill="#7A0005"/>
<path d="M187.146 81.6999L187.009 82.6905L189.874 83.0875L187.866 81.0056L187.146 81.6999ZM82.8507 67.2499L82.988 66.2594L82.2735 66.1604L81.9541 66.8072L82.8507 67.2499ZM113.439 5.29916L112.542 4.85644L112.231 5.4872L112.719 5.99347L113.439 5.29916ZM115.131 1.87136L115.574 0.974703L114.677 0.531979L114.235 1.42864L115.131 1.87136ZM545.26 214.247L546.157 214.69L546.6 213.793L545.703 213.35L545.26 214.247ZM511.613 282.393L511.17 283.29L512.067 283.732L512.51 282.836L511.613 282.393ZM81.4843 70.0174L80.5877 69.5746L80.1449 70.4713L81.0416 70.914L81.4843 70.0174ZM187.284 80.7094L82.988 66.2594L82.7135 68.2404L187.009 82.6905L187.284 80.7094ZM112.719 5.99347L186.427 82.3942L187.866 81.0056L114.159 4.60485L112.719 5.99347ZM114.336 5.74188L116.028 2.31409L114.235 1.42864L112.542 4.85644L114.336 5.74188ZM114.689 2.76802L544.818 215.144L545.703 213.35L115.574 0.974703L114.689 2.76802ZM544.364 213.804L510.717 281.95L512.51 282.836L546.157 214.69L544.364 213.804ZM512.056 281.496L81.927 69.1207L81.0416 70.914L511.17 283.29L512.056 281.496ZM82.381 70.4601L83.7474 67.6926L81.9541 66.8072L80.5877 69.5746L82.381 70.4601Z" fill="#7A0005" mask="url(#path-2-outside-1_0_69)"/>
<path d="M396.784 317.116L380.609 308.984L364.782 340.465L376.609 346.411C381.247 348.742 385.363 351.247 388.955 353.925C392.664 356.661 396.052 359.889 399.12 363.61C402.362 367.274 404.269 371.428 404.839 376.072C405.467 380.601 404.557 385.3 402.109 390.17C399.661 395.04 396.403 398.631 392.335 400.944C388.267 403.257 383.796 404.35 378.921 404.223C374.22 404.039 369.578 403.303 364.996 402.016C360.588 400.672 356.065 398.833 351.427 396.502L308.119 374.73L311.004 368.99L324.571 375.81L362.694 299.978L349.128 293.157L351.926 287.592L399.582 311.55L396.784 317.116ZM372.072 351.102L361.984 346.03L342.485 384.816L352.747 389.975C366.661 396.97 376.941 393.859 383.586 380.64C387.142 373.567 387.938 367.794 385.975 363.321C384.011 358.847 379.377 354.774 372.072 351.102Z" fill="#7A0005"/>
<path d="M371.684 360.68C377.687 358.772 382.623 359.123 386.494 361.734C390.364 364.345 392.909 369.234 394.13 376.4L414.325 487.331L429.812 482.408L430.755 487.87C421.631 490.77 414.664 493.177 409.853 495.091C405.328 496.657 402.756 497.923 402.137 498.888L399.782 497.716L378.172 378.592C377.247 374.021 376.069 370.938 374.637 369.345C373.288 367.597 371.413 367.104 369.012 367.868C362.53 369.928 360.851 378.785 363.976 394.437L359.114 395.982C358.485 392.341 358.078 389.398 357.893 387.152C357.625 385.06 357.569 382.389 357.725 379.138C357.761 375.926 358.241 373.277 359.164 371.191C360.124 369.221 361.661 367.196 363.775 365.115C365.807 363.189 368.443 361.711 371.684 360.68Z" fill="#3D5D8C"/>
<path d="M341.291 360.755C347.051 363.744 350.644 367.103 352.073 370.831C353.501 374.558 352.553 378.496 349.23 382.645L298.794 447.701L313.653 455.413L311.13 458.583C302.376 454.039 295.577 450.66 290.732 448.443C286.314 446.25 283.58 445.179 282.529 445.231L281.412 443.158L335.633 373.347C337.64 370.606 338.566 368.399 338.411 366.726C338.412 365.034 337.261 363.59 334.957 362.395C328.737 359.166 322.175 362.231 315.27 371.588L310.605 369.167C312.287 367.053 313.725 365.41 314.918 364.238C315.956 363.084 317.502 361.796 319.556 360.374C321.495 358.891 323.441 357.96 325.393 357.58C327.304 357.278 329.693 357.323 332.56 357.716C335.271 358.128 338.181 359.141 341.291 360.755Z" fill="#3D5D8C"/>
<path d="M163.784 202.116L147.609 193.984L131.782 225.465L143.609 231.411C148.247 233.742 152.363 236.247 155.955 238.925C159.664 241.661 163.052 244.889 166.12 248.61C169.362 252.274 171.269 256.428 171.839 261.072C172.467 265.601 171.557 270.3 169.109 275.17C166.661 280.04 163.403 283.631 159.335 285.944C155.267 288.257 150.796 289.35 145.921 289.223C141.22 289.039 136.578 288.303 131.996 287.016C127.588 285.672 123.065 283.833 118.427 281.502L75.119 259.73L78.0044 253.99L91.5708 260.81L129.694 184.978L116.128 178.157L118.926 172.592L166.582 196.55L163.784 202.116ZM139.072 236.102L128.984 231.03L109.485 269.816L119.747 274.975C133.661 281.97 143.941 278.859 150.586 265.64C154.142 258.567 154.938 252.794 152.975 248.321C151.011 243.847 146.377 239.774 139.072 236.102Z" fill="#7A0005"/>
<path d="M138.684 245.68C144.687 243.772 149.623 244.123 153.494 246.734C157.364 249.345 159.909 254.234 161.13 261.4L181.325 372.331L196.812 367.408L197.755 372.87C188.631 375.77 181.664 378.177 176.853 380.091C172.328 381.657 169.756 382.923 169.137 383.888L166.782 382.716L145.172 263.592C144.247 259.021 143.069 255.938 141.637 254.345C140.288 252.597 138.413 252.104 136.012 252.868C129.53 254.928 127.851 263.785 130.976 279.437L126.114 280.982C125.485 277.341 125.078 274.398 124.893 272.152C124.625 270.06 124.569 267.389 124.725 264.138C124.761 260.926 125.241 258.277 126.164 256.191C127.124 254.221 128.661 252.196 130.775 250.115C132.807 248.189 135.443 246.711 138.684 245.68Z" fill="#3D5D8C"/>
<path d="M108.291 245.755C114.051 248.744 117.644 252.103 119.073 255.831C120.501 259.558 119.553 263.496 116.23 267.645L65.7941 332.701L80.6533 340.413L78.1305 343.583C69.3762 339.039 62.5767 335.66 57.7319 333.443C53.314 331.25 50.5798 330.179 49.5293 330.231L48.4121 328.158L102.633 258.347C104.64 255.606 105.566 253.399 105.411 251.726C105.412 250.034 104.261 248.59 101.957 247.395C95.7367 244.166 89.1746 247.231 82.2704 256.588L77.6053 254.167C79.2872 252.053 80.7248 250.41 81.9183 249.238C82.9558 248.084 84.5017 246.796 86.556 245.374C88.4951 243.891 90.4407 242.96 92.3928 242.58C94.3042 242.278 96.6932 242.323 99.5599 242.716C102.271 243.128 105.181 244.141 108.291 245.755Z" fill="#3D5D8C"/>
</svg>
