<svg width="1112" height="2971" viewBox="0 0 1112 2971" fill="none" xmlns="http://www.w3.org/2000/svg">
<path d="M391.286 30.3604L306.054 30.858L307.022 196.739L369.342 196.376C393.782 196.233 416.399 197.934 437.193 201.479C458.599 205.02 479.716 211.312 500.542 220.355C521.977 228.784 538.857 242.128 551.184 260.386C563.507 278.033 569.743 299.687 569.893 325.348C570.043 351.01 564.062 373.041 551.949 391.441C539.836 409.842 523.422 423.991 502.706 433.888C482.597 443.17 461.557 450.014 439.587 454.42C418.224 458.21 395.323 460.177 370.883 460.32L142.682 461.652L142.505 431.409L213.99 430.991L211.657 31.4091L140.172 31.8264L140.001 2.49927L391.115 1.03318L391.286 30.3604ZM360.349 225.756L307.193 226.067L308.387 430.44L362.459 430.124C435.776 429.696 472.232 394.656 471.825 325.004C471.608 287.735 462.597 261.819 444.793 247.259C426.989 232.699 398.841 225.532 360.349 225.756Z" fill="#EADEC4"/>
<path d="M891.33 465L845.33 527L807.33 691" stroke="#EADEC4" stroke-width="20"/>
<rect x="-0.596441" y="0.379814" width="18.9794" height="20" rx="7.5" transform="matrix(-0.976254 -0.216627 -0.216627 0.976254 817.958 684.152)" fill="#EADEC4" stroke="#EADEC4"/>
<path d="M344.711 261.336C354.353 235.371 370.023 219.622 391.719 214.088C413.416 208.554 440.466 214.168 472.871 230.928L978.219 485.951L1003.09 418.963L1027.83 431.693C1013.17 471.159 1002.76 501.859 996.576 523.791C989.823 543.737 987.498 556.169 989.601 561.086L978.077 565.671L435.627 291.552C414.534 281.355 398.71 276.365 388.154 276.582C377.215 276.065 369.818 281 365.961 291.386C355.548 319.427 386.391 350.971 458.49 386.018L450.68 407.049C434.19 398.562 421.152 391.357 411.567 385.434C402.364 380.244 391.438 372.641 378.789 362.626C365.948 353.13 356.656 343.77 350.915 334.548C345.749 325.539 342.026 314.406 339.747 301.151C337.85 288.628 339.505 275.357 344.711 261.336Z" fill="#3D5D8C"/>
<path d="M1024.49 625.34L1112 373.55C1112 373.55 1076.2 351.767 1052.43 353.055C1002.22 355.778 984.778 459.919 984.778 459.919L924.477 429.909L873 552.876L939.92 588.742L1024.49 625.34Z" fill="#050505"/>
<path d="M973.629 528.235C973.629 528.235 980.821 417.078 970.152 411.237C960.146 405.76 936.577 497.055 926.226 499.769C910.464 503.901 897.253 381.142 881.729 435.539C866.206 489.936 921.967 2485 921.967 2485" stroke="#EADEC4" stroke-width="20"/>
<ellipse cx="926" cy="503.085" rx="12" ry="11.9273" fill="#7A0005"/>
<ellipse cx="974" cy="522.964" rx="12" ry="11.9273" fill="#7A0005"/>
<path d="M258.717 283.268C286.412 283.62 306.512 293.083 319.018 311.657C331.523 330.231 335.33 357.594 330.438 393.747L260.141 955.415L331.593 956.324L327.919 983.899C285.823 983.364 253.408 983.872 230.675 985.424C209.619 985.77 197.129 987.76 193.205 991.393L185.013 982.082L260.823 379.05C263.335 355.757 262.715 339.176 258.963 329.308C255.772 318.832 248.638 313.524 237.56 313.383C207.649 313.003 188.309 352.655 179.54 432.339L157.107 432.054C159.557 413.671 161.96 398.97 164.316 387.951C166.111 377.539 169.598 364.693 174.778 349.414C179.404 334.127 185.096 322.23 191.852 313.723C198.6 305.829 207.833 298.58 219.55 291.977C230.706 285.981 243.762 283.078 258.717 283.268Z" fill="#3D5D8C"/>
<path d="M327 845L373 907L411 1071" stroke="#EADEC4" stroke-width="20"/>
<path d="M155.209 1001.91L423.214 1004.13C423.214 1004.13 432.578 963.209 423.776 941.097C405.177 894.372 300.306 911.232 300.306 911.232L309.708 844.452L176.036 835.085L163.159 910.016L155.209 1001.91Z" fill="#050505"/>
<circle cx="240.409" cy="869.358" r="12" transform="rotate(71.4169 240.409 869.358)" fill="#7A0005"/>
<circle cx="236.749" cy="921.229" r="12" transform="rotate(71.4169 236.749 921.229)" fill="#7A0005"/>
<rect x="399.275" y="1064.27" width="19.9794" height="21" rx="8" transform="rotate(-12.511 399.275 1064.27)" fill="#EADEC4"/>
<path d="M155.209 1001.91L423.214 1004.13C423.214 1004.13 432.578 963.209 423.776 941.097C405.177 894.372 300.306 911.232 300.306 911.232L309.708 844.452L176.036 835.085L163.159 910.016L155.209 1001.91Z" fill="#050505"/>
<path d="M241.5 921.5C241.5 921.5 300.852 905.767 300.5 896.001C300.169 886.841 248.12 877.705 244 869.501C237.726 857.007 296.996 835.581 326.009 844.455C355.022 853.329 364 2970.5 364 2970.5" stroke="#EADEC4" stroke-width="20"/>
<circle cx="240.409" cy="869.358" r="12" transform="rotate(71.4169 240.409 869.358)" fill="#7A0005"/>
<circle cx="236.749" cy="921.229" r="12" transform="rotate(71.4169 236.749 921.229)" fill="#7A0005"/>
</svg>
