<svg width="333" height="451" viewBox="0 0 333 451" fill="none" xmlns="http://www.w3.org/2000/svg">
<path d="M238 102.637C259.577 61.3758 333 20.8477 333 20.8477H0V451C0 451 56.7611 422.839 88 399.07C138.332 360.774 164.746 333.919 192 280.93C210.261 245.425 212.59 222.86 222 184.859C231.41 146.858 222.487 132.302 238 102.637Z" fill="#7A0005"/>
<path d="M212 3.5L213.691 10.0638C213.691 10.0641 213.691 10.0641 213.691 10.0641L213.691 10.0642L213.69 10.065L213.682 10.0696L213.645 10.0896L213.495 10.1734C213.361 10.2485 213.158 10.3618 212.892 10.5122C212.36 10.8131 211.572 11.2622 210.559 11.8497C208.532 13.0249 205.607 14.7535 202.025 16.9579C194.859 21.3685 185.085 27.6741 174.648 35.2537C153.62 50.5252 130.479 70.566 120.102 90.4114C112.647 104.667 110.683 116.745 109.627 129.377C109.408 132.002 109.228 134.67 109.044 137.397C108.344 147.76 107.588 158.966 104.397 171.853C102.399 179.923 100.716 187.328 99.1237 194.336C93.2819 220.044 88.6535 240.411 74.1125 268.683C46.5498 322.272 19.7236 349.504 -30.8807 388.008C-46.7141 400.055 -68.9018 413.139 -87.0202 423.163C-96.1015 428.187 -104.202 432.465 -110.032 435.488C-112.948 436.999 -115.297 438.197 -116.919 439.018C-117.181 439.151 -117.424 439.274 -117.648 439.386C-118.116 439.623 -118.498 439.814 -118.787 439.959C-119.001 440.066 -119.164 440.148 -119.275 440.203L-119.4 440.265L-119.433 440.282L-119.441 440.286L-119.443 440.287C-119.444 440.287 -119.444 440.287 -121 437.152L-119.444 440.287L-124.5 442.796V437.152V7V3.5H-121H212Z" fill="#7A0005" stroke="#050505" stroke-width="7"/>
</svg>
