<svg width="333" height="452" viewBox="0 0 333 452" fill="none" xmlns="http://www.w3.org/2000/svg">
<path d="M95 102.853C73.4229 61.4983 0 20.8789 0 20.8789H333V452C333 452 276.239 423.775 245 399.953C194.668 361.571 168.254 334.655 141 281.547C122.739 245.962 120.41 223.347 111 185.26C103.116 153.349 110.513 132.584 95 102.853Z" fill="#7A0005"/>
<path d="M117 3.5L115.306 10.0622C115.306 10.0625 115.306 10.0625 115.306 10.0625L115.306 10.0626L115.307 10.0634L115.315 10.0679L115.352 10.0881L115.502 10.172C115.636 10.2473 115.839 10.3609 116.105 10.5116C116.637 10.8132 117.425 11.2632 118.438 11.8521C120.465 13.0299 123.39 14.7624 126.972 16.9718C134.138 21.3923 143.912 27.7121 154.349 35.3087C175.376 50.6143 198.518 70.7007 208.897 90.5927C216.353 104.882 218.317 116.99 219.373 129.651C219.592 132.282 219.772 134.957 219.956 137.69C220.656 148.076 221.411 159.306 224.602 172.221C226.601 180.309 228.283 187.731 229.876 194.756C235.718 220.52 240.346 240.931 254.886 269.266C282.448 322.974 309.273 350.267 359.878 388.857C375.711 400.932 397.899 414.045 416.017 424.092C425.099 429.127 433.199 433.415 439.029 436.444C441.945 437.959 444.294 439.16 445.917 439.983C446.728 440.394 447.357 440.711 447.785 440.926L448.055 441.061C448.141 441.105 448.214 441.141 448.272 441.17L448.397 441.233L448.43 441.249L448.438 441.253L448.441 441.254C448.441 441.255 448.442 441.255 450 438.121L448.442 441.255L453.5 443.77V438.121V7V3.5H450H117Z" fill="#7A0005" stroke="#050505" stroke-width="7"/>
</svg>
