<svg width="464" height="538" viewBox="0 0 464 538" fill="none" xmlns="http://www.w3.org/2000/svg">
<path d="M144.911 127.787C152.671 124.411 159.927 124.531 166.678 128.145C173.398 131.688 178.367 137.156 181.583 144.55C184.799 151.944 185.428 159.343 183.469 166.746C181.479 174.078 176.604 179.431 168.844 182.806C162.589 185.528 156.638 185.918 150.991 183.978C145.265 182.072 140.452 178.476 136.552 173.19C138.89 185.707 135.466 193.964 126.281 197.959C122.005 199.819 117.763 200.027 113.556 198.581C109.269 197.169 105.76 194.946 103.027 191.911C100.183 188.837 97.9417 185.416 96.302 181.647C94.6623 177.877 93.7033 173.941 93.4252 169.838C93.0363 165.696 93.7868 161.577 95.6767 157.479C97.4875 153.415 100.531 150.454 104.807 148.594C113.992 144.598 122.367 147.722 129.93 157.967C128.801 151.475 129.452 145.502 131.882 140.049C134.312 134.595 138.655 130.508 144.911 127.787ZM119.564 182.519C123.682 180.728 127.024 178.455 129.593 175.7C132.05 172.907 132.554 169.843 131.103 166.508C129.621 163.101 127.037 161.381 123.349 161.347C119.662 161.313 115.72 162.208 111.523 164.034C107.485 165.791 104.34 167.978 102.088 170.595C99.7577 173.247 99.3334 176.276 100.815 179.683C102.297 183.09 104.803 184.845 108.332 184.948C111.782 185.085 115.526 184.276 119.564 182.519ZM161.844 166.714C168.321 164.069 172.844 160.937 175.414 157.319C178.126 153.812 178.678 150.21 177.069 146.513C175.493 142.889 172.466 140.8 167.988 140.248C163.652 139.806 158.293 141.017 151.911 143.879C137.832 150.262 132.4 157.151 135.617 164.545C138.833 171.939 147.575 172.662 161.844 166.714Z" fill="#7A0005"/>
<path d="M122.044 170.767C121.273 168.933 120.145 167.688 118.66 167.031C117.151 166.316 115.484 166.342 113.658 167.109C111.947 167.828 110.79 168.988 110.189 170.589C109.587 172.191 109.66 173.879 110.407 175.655C111.155 177.431 112.283 178.677 113.792 179.391C115.334 180.025 116.989 179.97 118.757 179.227C120.526 178.484 121.694 177.353 122.263 175.833C122.865 174.231 122.792 172.543 122.044 170.767Z" fill="#7A0005"/>
<path d="M162.527 153.157C161.755 151.324 160.627 150.079 159.142 149.421C157.633 148.707 155.966 148.733 154.14 149.5C152.429 150.219 151.273 151.379 150.671 152.98C150.069 154.581 150.142 156.27 150.89 158.046C151.637 159.822 152.765 161.067 154.274 161.782C155.816 162.415 157.471 162.36 159.239 161.617C161.008 160.875 162.176 159.743 162.745 158.223C163.347 156.622 163.274 154.933 162.527 153.157Z" fill="#7A0005"/>
<path d="M136.719 204.104L149.521 199.244L155.82 213.102L153.235 214.277C152.061 214.171 148.406 213.803 142.27 213.171C135.493 212.463 131.347 212.157 129.832 212.255C131.892 212.5 133.303 213.458 134.063 215.131C134.87 216.905 134.745 218.869 133.688 221.023C132.585 223.173 130.544 224.925 127.565 226.28C125.41 227.259 123.412 227.675 121.569 227.529C119.69 227.398 118.2 226.932 117.098 226.128C115.997 225.325 115.177 224.332 114.639 223.149C113.749 221.191 113.779 219.159 114.728 217.054C115.641 214.966 117.714 213.187 120.945 211.718C123.637 210.494 127.252 210.106 131.788 210.554C132.085 210.542 132.686 210.576 133.589 210.658C133.996 210.694 135.424 210.833 137.872 211.073C138.957 211.171 140.217 211.275 141.653 211.385C143.053 211.511 143.934 211.591 144.296 211.623C145.696 211.749 146.97 211.835 148.116 211.88L145.474 206.067C145.177 205.415 144.937 204.933 144.753 204.623C144.533 204.33 144.218 204.067 143.809 203.834C143.364 203.618 142.817 203.559 142.169 203.657C141.484 203.771 140.603 204.024 139.525 204.416L137.247 205.267L136.719 204.104ZM118.016 219.14C116.712 220.275 116.296 221.362 116.769 222.402C117.242 223.442 118.334 223.844 120.046 223.607C121.758 223.37 123.624 222.805 125.644 221.911C127.951 220.887 129.684 219.792 130.843 218.625C131.939 217.511 132.265 216.465 131.82 215.486C131.347 214.446 130.26 214.054 128.557 214.311C126.845 214.548 124.984 215.124 122.973 216.038C120.963 216.952 119.31 217.986 118.016 219.14Z" fill="#7A0005"/>
<path d="M160.939 193.094L149.521 199.244L155.821 213.102L158.269 211.989C158.912 211.057 160.883 208.131 164.184 203.209C167.821 197.766 170.14 194.522 171.142 193.476C170.057 195.15 169.895 196.823 170.655 198.496C171.462 200.27 172.979 201.487 175.207 202.148C177.46 202.773 179.997 202.444 182.819 201.161C184.859 200.234 186.39 199.045 187.413 197.596C188.47 196.131 189.041 194.727 189.128 193.383C189.214 192.04 188.989 190.776 188.451 189.594C187.561 187.636 186.053 186.303 183.927 185.596C181.834 184.874 179.259 185.208 176.199 186.599C173.65 187.758 171.148 190.151 168.694 193.776C168.503 193.986 168.16 194.45 167.665 195.167C167.443 195.49 166.668 196.629 165.343 198.585C164.749 199.446 164.052 200.439 163.252 201.566C162.486 202.677 162.003 203.376 161.806 203.663C161.039 204.774 160.321 205.765 159.65 206.636L157.008 200.824C156.711 200.171 156.506 199.674 156.391 199.332C156.311 198.975 156.311 198.569 156.391 198.114C156.506 197.644 156.798 197.203 157.267 196.793C157.771 196.367 158.497 195.889 159.446 195.36L161.467 194.256L160.939 193.094ZM183.44 189.398C185.072 189.198 186.124 189.618 186.597 190.658C187.07 191.698 186.694 192.767 185.47 193.865C184.247 194.962 182.688 195.954 180.793 196.84C178.627 197.85 176.76 198.39 175.193 198.463C173.704 198.525 172.736 198.066 172.291 197.087C171.819 196.047 172.199 194.989 173.432 193.911C174.656 192.813 176.219 191.832 178.123 190.966C180.027 190.101 181.799 189.578 183.44 189.398Z" fill="#7A0005"/>
<path d="M152.24 206.387C155.805 204.836 159.743 204.082 164.055 204.125C168.341 204.11 172.638 205.289 176.944 207.664C181.18 210 184.326 213.53 186.381 218.253C188.41 222.92 188.848 227.627 187.694 232.377C186.515 237.068 184.472 241.006 181.563 244.189C178.61 247.392 175.35 249.769 171.785 251.32C168.22 252.871 164.317 253.644 160.076 253.639C155.764 253.597 151.49 252.407 147.254 250.071C142.993 247.677 139.835 244.118 137.78 239.395C136.226 235.823 135.6 232.225 135.901 228.6C136.133 224.937 137.101 221.673 138.806 218.807C140.466 215.961 142.472 213.479 144.824 211.36C147.15 209.183 149.622 207.526 152.24 206.387ZM140.352 238.276C142.006 242.078 144.62 243.955 148.195 243.907C151.82 243.974 157.829 242.182 166.222 238.531C174.526 234.919 179.898 231.726 182.34 228.951C184.898 226.194 185.387 223.002 183.809 219.372C182.205 215.686 179.545 213.828 175.83 213.8C172.115 213.772 166.106 215.564 157.803 219.176C149.499 222.787 144.114 225.952 141.647 228.669C139.18 231.387 138.748 234.589 140.352 238.276Z" fill="#7A0005"/>
<path d="M42.6882 218.384C36.7608 204.322 34.4569 188.628 35.7763 171.302C36.8342 154.086 43.181 136.632 54.8167 118.941C66.266 101.537 82.7118 88.3161 104.154 79.2777C125.335 70.3496 146.283 67.8085 166.997 71.6545C187.45 75.6107 204.338 83.1656 217.662 94.3191C231.061 105.651 240.725 118.347 246.652 132.409C252.579 146.471 254.977 162.021 253.844 179.059C252.524 196.385 246.14 213.75 234.691 231.153C222.98 248.667 206.403 261.943 184.961 270.982C168.749 277.815 152.661 280.928 136.699 280.32C120.55 279.999 106.36 276.653 94.1268 270.28C81.969 264.085 71.5097 256.44 62.749 247.346C53.7268 238.362 47.0399 228.708 42.6882 218.384ZM180.684 260.836C197.943 253.561 206.935 242.748 207.661 228.397C208.91 213.826 202.556 189.987 188.601 156.879C174.795 124.127 162.073 103.077 150.434 93.7291C138.906 83.9147 124.905 82.4795 108.431 89.4236C91.6953 96.4779 82.7782 107.469 81.6794 122.396C80.5807 137.323 86.934 161.163 100.739 193.914C114.545 226.666 127.137 247.771 138.514 257.229C149.892 266.688 163.949 267.89 180.684 260.836Z" fill="#7A0005"/>
<path d="M222.281 255.587L198.21 266.058L218.589 312.907L236.189 305.251C243.091 302.248 249.701 299.989 256.018 298.472C262.508 296.88 269.25 296.103 276.242 296.139C283.333 295.927 289.729 297.66 295.432 301.335C301.06 304.838 305.45 310.213 308.603 317.46C311.755 324.708 312.732 331.67 311.533 338.348C310.333 345.026 307.401 351.021 302.735 356.334C298.166 361.4 293.039 365.887 287.352 369.797C281.763 373.46 275.518 376.792 268.615 379.795L204.166 407.83L200.45 399.288L220.639 390.506L171.55 277.655L151.361 286.437L147.758 278.155L218.678 247.305L222.281 255.587ZM237.204 314.659L222.191 321.19L247.299 378.91L262.57 372.267C283.277 363.259 289.352 348.92 280.795 329.249C276.216 318.723 270.524 312.478 263.719 310.513C256.913 308.548 248.075 309.931 237.204 314.659Z" fill="#7A0005"/>
<path d="M247.516 323.979C250.961 315.522 255.934 310.349 262.435 308.461C268.935 306.573 276.744 308.275 285.86 313.567L428.175 394.03L437.065 372.209L444.025 376.228C438.788 389.084 435.002 399.079 432.668 406.215C430.213 412.709 429.236 416.749 429.737 418.333L426.246 419.869L273.49 333.378C267.539 330.165 263.012 328.616 259.908 328.732C256.709 328.612 254.42 330.244 253.042 333.627C249.321 342.761 257.628 352.851 277.964 363.897L275.173 370.748C270.534 368.069 266.877 365.79 264.203 363.912C261.624 362.27 258.597 359.853 255.121 356.662C251.576 353.64 249.07 350.646 247.603 347.682C246.299 344.784 245.47 341.192 245.115 336.906C244.855 332.855 245.655 328.546 247.516 323.979Z" fill="#7A0005"/>
<path d="M219.389 357.906C228.065 354.265 235.141 353.379 240.619 355.248C246.098 357.117 249.605 361.827 251.142 369.379L276.799 485.944L299.182 476.55L300.372 482.303C287.185 487.837 277.109 492.275 270.143 495.615C263.599 498.5 259.869 500.552 258.952 501.77L255.605 501.091L228.164 375.897C226.974 371.117 225.375 368.037 223.367 366.656C221.484 365.085 218.807 365.028 215.336 366.484C205.967 370.416 203.29 380.571 207.305 396.947L200.278 399.896C199.485 396.061 198.989 392.934 198.791 390.517C198.469 388.29 198.469 385.373 198.791 381.764C198.939 378.228 199.708 375.197 201.096 372.669C202.534 370.26 204.802 367.64 207.9 364.812C210.874 362.174 214.704 359.872 219.389 357.906Z" fill="#7A0005"/>
<path d="M144.911 127.787C152.671 124.411 159.927 124.531 166.678 128.145C173.398 131.688 178.367 137.156 181.583 144.55C184.799 151.944 185.428 159.343 183.469 166.746C181.479 174.078 176.604 179.431 168.844 182.806C162.589 185.528 156.638 185.918 150.991 183.978C145.265 182.072 140.452 178.476 136.552 173.19C138.89 185.707 135.466 193.964 126.281 197.959C122.005 199.819 117.763 200.027 113.556 198.581C109.269 197.169 105.76 194.946 103.027 191.911C100.183 188.837 97.9417 185.416 96.302 181.647C94.6623 177.877 93.7033 173.941 93.4252 169.838C93.0363 165.696 93.7868 161.577 95.6767 157.479C97.4875 153.415 100.531 150.454 104.807 148.594C113.992 144.598 122.367 147.722 129.93 157.967C128.801 151.475 129.452 145.502 131.882 140.049C134.312 134.595 138.655 130.508 144.911 127.787ZM119.564 182.519C123.682 180.728 127.024 178.455 129.593 175.7C132.05 172.907 132.554 169.843 131.103 166.508C129.621 163.101 127.037 161.381 123.349 161.347C119.662 161.313 115.72 162.208 111.523 164.034C107.485 165.791 104.34 167.978 102.088 170.595C99.7577 173.247 99.3334 176.276 100.815 179.683C102.297 183.09 104.803 184.845 108.332 184.948C111.782 185.085 115.526 184.276 119.564 182.519ZM161.844 166.714C168.321 164.069 172.844 160.937 175.414 157.319C178.126 153.812 178.678 150.21 177.069 146.513C175.493 142.889 172.466 140.8 167.988 140.248C163.652 139.806 158.293 141.017 151.911 143.879C137.832 150.262 132.4 157.151 135.617 164.545C138.833 171.939 147.575 172.662 161.844 166.714Z" fill="#3D5D8C"/>
<path d="M136.719 204.104L149.521 199.244L155.82 213.102L153.235 214.277C152.061 214.171 148.406 213.803 142.27 213.171C135.493 212.463 131.347 212.157 129.832 212.255C131.892 212.5 133.303 213.458 134.063 215.131C134.87 216.905 134.745 218.869 133.688 221.023C132.585 223.173 130.544 224.925 127.565 226.28C125.41 227.259 123.412 227.675 121.569 227.529C119.69 227.398 118.2 226.932 117.098 226.128C115.997 225.325 115.177 224.332 114.639 223.149C113.749 221.191 113.779 219.159 114.728 217.054C115.641 214.966 117.714 213.187 120.945 211.718C123.637 210.494 127.252 210.106 131.788 210.554C132.085 210.542 132.686 210.576 133.589 210.658C133.996 210.694 135.424 210.833 137.872 211.073C138.957 211.171 140.217 211.275 141.653 211.385C143.053 211.511 143.934 211.591 144.296 211.623C145.696 211.749 146.97 211.835 148.116 211.88L145.474 206.067C145.177 205.415 144.937 204.933 144.753 204.623C144.533 204.33 144.218 204.067 143.809 203.834C143.364 203.618 142.817 203.559 142.169 203.657C141.484 203.771 140.603 204.024 139.525 204.416L137.247 205.267L136.719 204.104ZM118.016 219.14C116.712 220.275 116.296 221.362 116.769 222.402C117.242 223.442 118.334 223.844 120.046 223.607C121.758 223.37 123.624 222.805 125.644 221.911C127.951 220.887 129.684 219.792 130.843 218.625C131.939 217.511 132.265 216.465 131.82 215.486C131.347 214.446 130.26 214.054 128.557 214.311C126.845 214.548 124.984 215.124 122.973 216.038C120.963 216.952 119.31 217.986 118.016 219.14Z" fill="#7A0005"/>
<path d="M160.939 193.094L149.521 199.244L155.821 213.102L158.269 211.989C158.912 211.057 160.883 208.131 164.184 203.209C167.821 197.766 170.14 194.522 171.142 193.476C170.057 195.15 169.895 196.823 170.655 198.496C171.462 200.27 172.979 201.487 175.207 202.148C177.46 202.773 179.997 202.444 182.819 201.161C184.859 200.234 186.39 199.045 187.413 197.596C188.47 196.131 189.041 194.727 189.128 193.383C189.214 192.04 188.989 190.776 188.451 189.594C187.561 187.636 186.053 186.303 183.927 185.596C181.834 184.874 179.259 185.208 176.199 186.599C173.65 187.758 171.148 190.151 168.694 193.776C168.503 193.986 168.16 194.45 167.665 195.167C167.443 195.49 166.668 196.629 165.343 198.585C164.749 199.446 164.052 200.439 163.252 201.566C162.486 202.677 162.003 203.376 161.806 203.663C161.039 204.774 160.321 205.765 159.65 206.636L157.008 200.824C156.711 200.171 156.506 199.674 156.391 199.332C156.311 198.975 156.311 198.569 156.391 198.114C156.506 197.644 156.798 197.203 157.267 196.793C157.771 196.367 158.497 195.889 159.446 195.36L161.467 194.256L160.939 193.094ZM183.44 189.398C185.072 189.198 186.124 189.618 186.597 190.658C187.07 191.698 186.694 192.767 185.47 193.865C184.247 194.962 182.688 195.954 180.793 196.84C178.627 197.85 176.76 198.39 175.193 198.463C173.704 198.525 172.736 198.066 172.291 197.087C171.819 196.047 172.199 194.989 173.432 193.911C174.656 192.813 176.219 191.832 178.123 190.966C180.027 190.101 181.799 189.578 183.44 189.398Z" fill="#7A0005"/>
<path d="M152.24 206.387C155.805 204.836 159.743 204.082 164.055 204.125C168.341 204.11 172.638 205.289 176.944 207.664C181.18 210 184.326 213.53 186.381 218.253C188.41 222.92 188.848 227.627 187.694 232.377C186.515 237.068 184.472 241.006 181.563 244.189C178.61 247.392 175.35 249.769 171.785 251.32C168.22 252.871 164.317 253.644 160.076 253.639C155.764 253.597 151.49 252.407 147.254 250.071C142.993 247.677 139.835 244.118 137.78 239.395C136.226 235.823 135.6 232.225 135.901 228.6C136.133 224.937 137.101 221.673 138.806 218.807C140.466 215.961 142.472 213.479 144.824 211.36C147.15 209.183 149.622 207.526 152.24 206.387ZM140.352 238.276C142.006 242.078 144.62 243.955 148.195 243.907C151.82 243.974 157.829 242.182 166.222 238.531C174.526 234.919 179.898 231.726 182.34 228.951C184.898 226.194 185.387 223.002 183.809 219.372C182.205 215.686 179.545 213.828 175.83 213.8C172.115 213.772 166.106 215.564 157.803 219.176C149.499 222.787 144.114 225.952 141.647 228.669C139.18 231.387 138.748 234.589 140.352 238.276Z" fill="#3D5D8C"/>
<path d="M42.6882 218.384C36.7608 204.322 34.4569 188.628 35.7763 171.302C36.8342 154.086 43.181 136.632 54.8167 118.941C66.266 101.537 82.7118 88.3161 104.154 79.2777C125.335 70.3496 146.283 67.8085 166.997 71.6545C187.45 75.6107 204.338 83.1656 217.662 94.3191C231.061 105.651 240.725 118.347 246.652 132.409C252.579 146.471 254.977 162.021 253.844 179.059C252.524 196.385 246.14 213.75 234.691 231.153C222.98 248.667 206.403 261.943 184.961 270.982C168.749 277.815 152.661 280.928 136.699 280.32C120.55 279.999 106.36 276.653 94.1268 270.28C81.969 264.085 71.5097 256.44 62.749 247.346C53.7268 238.362 47.0399 228.708 42.6882 218.384ZM180.684 260.836C197.943 253.561 206.935 242.748 207.661 228.397C208.91 213.826 202.556 189.987 188.601 156.879C174.795 124.127 162.073 103.077 150.434 93.7291C138.906 83.9147 124.905 82.4795 108.431 89.4236C91.6953 96.4779 82.7782 107.469 81.6794 122.396C80.5807 137.323 86.934 161.163 100.739 193.914C114.545 226.666 127.137 247.771 138.514 257.229C149.892 266.688 163.949 267.89 180.684 260.836Z" fill="#7A0005"/>
<path d="M222.281 255.587L198.21 266.058L218.589 312.907L236.189 305.251C243.091 302.248 249.701 299.989 256.018 298.472C262.508 296.88 269.25 296.103 276.242 296.139C283.333 295.927 289.729 297.66 295.432 301.335C301.06 304.838 305.45 310.213 308.603 317.46C311.755 324.708 312.732 331.67 311.533 338.348C310.333 345.026 307.401 351.021 302.735 356.334C298.166 361.4 293.039 365.887 287.352 369.797C281.763 373.46 275.518 376.792 268.615 379.795L204.166 407.83L200.45 399.288L220.639 390.506L171.55 277.655L151.361 286.437L147.758 278.155L218.678 247.305L222.281 255.587ZM237.204 314.659L222.191 321.19L247.299 378.91L262.57 372.267C283.277 363.259 289.352 348.92 280.795 329.249C276.216 318.723 270.524 312.478 263.719 310.513C256.913 308.548 248.075 309.931 237.204 314.659Z" fill="#7A0005"/>
<path d="M247.516 323.979C250.961 315.522 255.934 310.349 262.435 308.461C268.935 306.573 276.744 308.275 285.86 313.567L428.175 394.03L437.065 372.209L444.025 376.228C438.788 389.084 435.002 399.079 432.668 406.215C430.213 412.709 429.236 416.749 429.737 418.333L426.246 419.869L273.49 333.378C267.539 330.165 263.012 328.616 259.908 328.732C256.709 328.612 254.42 330.244 253.042 333.627C249.321 342.761 257.628 352.851 277.964 363.897L275.173 370.748C270.534 368.069 266.877 365.79 264.203 363.912C261.624 362.27 258.597 359.853 255.121 356.662C251.576 353.64 249.07 350.646 247.603 347.682C246.299 344.784 245.47 341.192 245.115 336.906C244.855 332.855 245.655 328.546 247.516 323.979Z" fill="#3D5D8C"/>
<path d="M219.389 357.906C228.065 354.265 235.141 353.379 240.619 355.248C246.098 357.117 249.605 361.827 251.142 369.379L276.799 485.944L299.182 476.55L300.372 482.303C287.185 487.837 277.109 492.275 270.143 495.615C263.599 498.5 259.869 500.552 258.952 501.77L255.605 501.091L228.164 375.897C226.974 371.117 225.375 368.037 223.367 366.656C221.484 365.085 218.807 365.028 215.336 366.484C205.967 370.416 203.29 380.571 207.305 396.947L200.278 399.896C199.485 396.061 198.989 392.934 198.791 390.517C198.469 388.29 198.469 385.373 198.791 381.764C198.939 378.228 199.708 375.197 201.096 372.669C202.534 370.26 204.802 367.64 207.9 364.812C210.874 362.174 214.704 359.872 219.389 357.906Z" fill="#3D5D8C"/>
</svg>
