<svg width="812" height="293" viewBox="0 0 812 293" fill="none" xmlns="http://www.w3.org/2000/svg">
<path d="M223.77 138.786C220.424 137.54 218.129 135.747 216.884 133.409C215.692 131.09 215.251 128.053 215.561 124.299C216.058 120.856 216.288 118.371 216.252 116.846C216.162 115.301 215.782 114.131 215.11 113.337C214.511 112.509 213.495 111.828 212.061 111.294L211.026 110.908L205.269 126.36L209.809 128.052L208.503 131.556L184.21 122.505L185.515 119.001L190.772 120.959L203.206 87.5853L197.949 85.6267L199.255 82.1221L223.549 91.1731L222.243 94.6778L217.703 92.9863L212.302 107.483L214.771 108.403C215.939 108.838 217.1 108.726 218.252 108.067C219.405 107.408 221 105.644 223.036 102.774C224.524 100.728 225.735 99.1837 226.668 98.1404C230.076 94.5119 233.983 93.5186 238.391 95.1607C240.833 96.0707 242.534 97.4301 243.493 99.2386C244.525 101.014 244.595 103.096 243.705 105.486C242.973 107.451 241.839 108.872 240.302 109.751C238.838 110.597 237.15 110.663 235.239 109.951C233.274 109.219 231.879 108.094 231.053 106.577C230.247 105.007 230.21 103.24 230.942 101.275C231.199 100.585 231.523 100.04 231.914 99.6414C232.251 99.2228 232.658 98.8605 233.135 98.5544C232.286 98.722 231.501 99.1249 230.78 99.7632C229.952 100.362 228.745 101.817 227.158 104.128C225.254 106.805 223.692 108.642 222.474 109.64C221.348 110.551 220.119 111.091 218.787 111.259C222.832 114.036 225.795 116.471 227.676 118.563C228.966 120.132 229.692 121.672 229.855 123.184C230.09 124.662 230.071 126.742 229.798 129.422C229.473 132.082 229.38 133.711 229.52 134.307C229.628 134.831 229.894 135.172 230.318 135.33C231.062 135.607 231.85 135.115 232.683 133.853C233.516 132.591 234.447 130.579 235.476 127.818L238.901 129.094C237.278 133.448 235.342 136.536 233.091 138.359C230.859 140.127 227.752 140.27 223.77 138.786Z" fill="black"/>
<path d="M421.847 161.002L424.638 161.673L427.832 148.402L425.246 147.78C423.023 147.245 420.998 147.381 419.171 148.19C417.39 149.009 416.237 150.508 415.713 152.685C415.189 154.863 415.522 156.671 416.712 158.11C417.912 159.503 419.624 160.467 421.847 161.002ZM416.745 165.75C415.493 167.56 414.344 169.444 413.297 171.4C411.869 173.744 410.389 175.404 408.858 176.379C407.328 177.355 405.36 177.553 402.955 176.974C401.322 176.581 400.037 175.936 399.101 175.039C398.2 174.198 397.664 173.133 397.494 171.844C397.335 170.51 397.319 169.282 397.445 168.16C397.582 166.993 397.852 165.57 398.256 163.892L400.706 164.481C399.494 169.517 399.591 172.205 400.998 172.543C401.361 172.631 401.717 172.548 402.065 172.296C402.369 172.033 403.245 170.684 404.695 168.249C406.033 165.883 407.377 164.287 408.728 163.46C410.012 162.713 412.66 162.079 416.674 161.557C415.199 161.105 413.836 160.585 412.586 159.997C411.346 159.362 410.14 158.592 408.966 157.685C407.792 156.779 406.956 155.666 406.458 154.346C405.959 153.026 405.896 151.595 406.267 150.052C406.693 148.282 407.558 146.883 408.862 145.852C410.211 144.833 411.796 144.231 413.617 144.045C415.448 143.814 417.186 143.776 418.828 143.931C420.482 144.041 422.148 144.298 423.826 144.702L442.746 149.256L442.124 151.842L437.156 150.646L430.129 179.843L435.097 181.038L434.491 183.556L415.367 178.954L415.973 176.436L420.805 177.599L424.064 164.055L422.567 163.695C420.389 163.171 418.449 163.856 416.745 165.75Z" fill="black"/>
<path d="M284.212 204.383C286.707 213.404 289.772 217.412 293.405 216.407C294.491 216.106 295.268 215.419 295.735 214.346C296.203 213.272 296.392 212.006 296.303 210.547C296.244 209.034 296.107 207.724 295.89 206.615C295.715 205.494 295.483 204.412 295.194 203.368L294.258 199.985C293.969 198.941 293.618 197.914 293.203 196.904C292.819 195.842 292.27 194.667 291.554 193.382C290.881 192.084 290.053 191.122 289.07 190.495C288.117 189.814 287.098 189.624 286.012 189.924C282.42 190.918 281.82 195.737 284.212 204.383ZM312.262 211.19C314.058 210.693 315.1 209.258 315.388 206.886C315.622 204.483 315.087 200.922 313.781 196.202C312.568 191.817 311.243 188.654 309.807 186.713C308.352 184.868 306.748 184.188 304.994 184.673C303.866 184.985 303.021 185.668 302.459 186.723C301.938 187.766 301.701 189.023 301.748 190.494C301.784 191.923 301.889 193.198 302.065 194.318C302.27 195.385 302.529 196.483 302.84 197.611L303.776 200.993C304.054 201.996 304.411 203.043 304.848 204.136C305.285 205.229 305.862 206.419 306.577 207.705C307.293 208.99 308.147 209.968 309.142 210.637C310.136 211.306 311.176 211.49 312.262 211.19ZM305.156 208.907C307.766 217.852 311.326 224.87 315.837 229.961L315.446 230.744C314.579 230.534 312.788 229.344 310.074 227.172C307.414 225.03 305.73 223.495 305.024 222.567C304.846 223.875 304.217 226.072 303.138 229.158C302.058 232.245 301.191 234.148 300.536 234.869L299.736 234.416C300.425 230.403 300.609 226.598 300.288 223C299.978 219.444 299.241 215.399 298.077 210.865C298.218 216.087 296.367 219.229 292.525 220.292C289.852 221.032 287.28 220.754 284.808 219.459C282.325 218.123 280.305 216.344 278.746 214.123C277.176 211.859 276.032 209.433 275.316 206.844C274.6 204.254 274.309 201.659 274.444 199.059C274.621 196.448 275.427 193.999 276.863 191.713C278.287 189.386 280.336 187.853 283.009 187.113C287.018 186.004 290.348 187.803 292.999 192.51C291.763 188.041 290.331 184.166 288.704 180.884C287.107 177.549 284.956 174.323 282.25 171.205L282.703 170.405C283.612 170.603 285.37 171.758 287.977 173.869C290.585 175.98 292.301 177.551 293.125 178.582C293.261 177.286 293.875 175.115 294.966 172.071C296.045 168.984 296.928 167.054 297.613 166.28L298.35 166.751C297.305 174.189 297.881 182.122 300.078 190.551C299.891 185.163 301.824 181.908 305.875 180.787C308.548 180.048 311.087 180.29 313.494 181.512C315.9 182.735 317.856 184.442 319.362 186.633C320.856 188.783 321.961 191.152 322.677 193.741C323.393 196.331 323.68 198.994 323.538 201.731C323.427 204.415 322.649 206.968 321.206 209.39C319.793 211.759 317.75 213.314 315.078 214.053C311.152 215.139 307.845 213.424 305.156 208.907Z" fill="black"/>
<path d="M355.528 85.6032C357.595 86.783 359.753 86.5465 362.001 84.8936C364.095 83.283 366.686 79.771 369.776 74.3574C372.859 69.0704 374.646 64.9683 375.137 62.0511C375.571 59.2324 374.755 57.2332 372.688 56.0534C368.701 53.7781 364.166 57.0943 359.082 66.0021L356.132 71.1696C351.891 78.6009 351.689 83.4121 355.528 85.6032ZM349.601 82.6119L339.278 100.698L347.915 105.628L346.019 108.95L319.074 93.5704L320.97 90.2485L325.843 93.0294L353.947 43.7906L349.075 41.0096L350.971 37.6877C358.107 41.7608 362.88 44.0287 365.292 44.4914L367.127 46.4199L360.68 57.7145C363.427 54.3886 366.539 52.2504 370.018 51.2998C373.546 50.3774 377.131 50.9555 380.773 53.0341C384.07 54.9162 386.271 57.5755 387.377 61.0119C388.482 64.4484 388.673 67.8853 387.951 71.3227C387.278 74.7881 386.028 78.1203 384.203 81.3192C382.349 84.5674 379.974 87.3554 377.08 89.6833C374.262 91.99 370.995 93.4852 367.277 94.1688C363.636 94.8313 360.143 94.2075 356.796 92.2973C352.318 89.7411 349.919 86.5126 349.601 82.6119Z" fill="black"/>
<path d="M499.489 114.301L476.838 120.015L475.977 116.602L481.097 115.31L472.897 82.8085L467.778 84.1001L466.917 80.687L489.567 74.9727C491.067 74.5944 492.366 74.2941 493.465 74.0718C494.564 73.8496 495.967 73.6331 497.674 73.4225C499.368 73.1602 500.843 73.1182 502.098 73.2966C503.353 73.475 504.615 73.7892 505.883 74.2392C507.191 74.6245 508.279 75.34 509.148 76.3859C510.055 77.367 510.705 78.6333 511.096 80.1847C512.388 85.3043 509.253 89.2304 501.692 91.963C510.626 90.314 515.824 92.3854 517.285 98.1773C517.781 100.142 517.72 101.973 517.103 103.669C516.486 105.365 515.57 106.751 514.357 107.827C513.195 108.89 511.632 109.889 509.668 110.825C507.704 111.76 505.985 112.469 504.511 112.951C503.076 113.368 501.402 113.818 499.489 114.301ZM497.347 83.9008C496.199 79.35 493.169 77.6943 488.256 78.9337L487.015 79.2469L490.557 93.2869L492.652 92.7586C495.082 92.1454 496.619 91.1525 497.263 89.78C497.945 88.3427 497.974 86.383 497.347 83.9008ZM492.95 96.231L491.399 96.6224L495.215 111.749L496.766 111.357C499.61 110.64 501.594 109.562 502.716 108.123C503.825 106.634 504.027 104.492 503.323 101.7C502.605 98.8556 501.437 97.0601 499.819 96.3133C498.187 95.5148 495.898 95.4874 492.95 96.231Z" fill="black"/>
<path d="M602.991 125.608L616.226 120.435L605.55 93.1175L597.53 96.2516C599.372 101.093 600.934 106.37 602.214 112.083C603.538 117.778 603.797 122.287 602.991 125.608ZM621.914 86.7218L617.416 88.4799L628.092 115.798L633.503 113.683L638.676 126.918L635.807 128.039L635.272 126.67C634.134 123.758 632.477 121.825 630.301 120.872C628.185 119.945 625.671 120.051 622.759 121.189L607.437 127.177C601.743 129.402 600.068 133.514 602.413 139.512L602.948 140.881L600.079 142.003L594.907 128.768L598.101 127.519C599.557 124.194 599.732 119.641 598.625 113.861C597.562 108.064 596.067 102.636 594.14 97.5767L589.511 99.3858L588.39 96.5171L620.793 83.8531L621.914 86.7218Z" fill="black"/>
<path d="M698.689 184.817L697.917 187.064L682.187 181.662L682.958 179.415L686.38 180.59L696.939 149.844L693.517 148.669L694.289 146.422L710.019 151.824L709.247 154.071L706.489 153.124L701.719 167.016L711.065 170.225L715.836 156.334L713.129 155.404L713.9 153.157L729.631 158.559L728.859 160.806L725.386 159.613L714.828 190.359L718.3 191.552L717.529 193.799L701.798 188.397L702.57 186.15L705.277 187.079L710.293 172.472L700.947 169.263L695.931 183.869L698.689 184.817Z" fill="black"/>
<path d="M550.217 199.608L552.552 198.801L548.492 187.068L545.298 188.174L544.49 185.839L559.355 180.696L560.163 183.03L556.907 184.156L560.967 195.889L563.301 195.081C564.325 194.727 565.03 194.047 565.416 193.043C565.802 192.038 565.91 190.097 565.74 187.222C565.668 185.687 565.648 184.502 565.679 183.666C565.738 182.775 565.891 181.759 566.138 180.618C566.412 179.423 566.922 178.444 567.667 177.682C568.412 176.92 569.399 176.326 570.627 175.901C572.306 175.32 573.828 175.344 575.191 175.973C576.582 176.546 577.568 177.672 578.149 179.351C578.602 180.662 578.602 181.854 578.148 182.928C577.736 183.988 576.895 184.738 575.625 185.177C574.438 185.588 573.3 185.614 572.214 185.257C571.113 184.858 570.364 184.085 569.967 182.939C569.656 182.038 569.653 181.236 569.96 180.534C570.186 179.86 570.713 179.265 571.544 178.748C571.159 178.698 570.803 178.729 570.476 178.842C569.575 179.154 568.952 179.805 568.607 180.796C568.248 181.746 568.126 183.714 568.242 186.7C568.354 189.275 568.28 191.181 568.019 192.417C567.785 193.461 567.314 194.289 566.609 194.9C570.664 194.826 573.538 195.047 575.229 195.562C576.921 196.077 578.568 197.525 580.171 199.905C580.185 199.946 580.234 200.021 580.318 200.129C580.387 200.197 580.443 200.292 580.485 200.415C580.555 200.483 580.638 200.592 580.736 200.741C580.833 200.891 580.924 201.02 581.007 201.129C581.439 201.713 581.732 202.162 581.886 202.475C582.845 203.657 583.693 204.12 584.43 203.865C585.126 203.624 585.46 202.867 585.432 201.592C585.335 200.25 584.91 198.494 584.159 196.324L586.309 195.58C586.862 197.177 587.241 198.536 587.445 199.658C587.677 200.724 587.751 201.867 587.669 203.088C587.573 204.268 587.098 205.28 586.244 206.126C585.446 206.998 584.268 207.704 582.712 208.242C580.296 209.078 578.261 209.095 576.608 208.291C574.981 207.433 573.4 205.847 571.867 203.535C571.519 203.059 571.052 202.373 570.466 201.475C569.768 200.386 569.156 199.544 568.628 198.947C568.142 198.336 567.444 197.843 566.535 197.47C565.612 197.056 564.619 197.033 563.554 197.401L561.711 198.039L566.026 210.508L569.65 209.254L570.436 211.527L554.773 216.947L553.986 214.674L557.61 213.42L553.296 200.951L551.514 201.567C550.695 201.851 550.035 202.262 549.534 202.802C549.074 203.328 548.773 203.983 548.632 204.766C548.476 205.507 548.394 206.2 548.388 206.844C548.368 207.448 548.404 208.215 548.496 209.146C548.583 210.721 548.633 211.528 548.647 211.569C548.885 214.376 548.643 216.592 547.921 218.217C547.2 219.843 545.611 221.08 543.153 221.931C541.638 222.455 540.277 222.628 539.069 222.45C537.902 222.258 536.895 221.735 536.05 220.881C535.231 219.972 534.555 219.013 534.023 218.005C533.491 216.997 532.962 215.736 532.438 214.221L534.588 213.477C535.396 215.811 536.175 217.467 536.926 218.445C537.596 219.452 538.319 219.82 539.097 219.551C539.834 219.296 540.215 218.408 540.239 216.886C540.166 216.545 540.119 216.011 540.097 215.285C540.096 215.148 540.087 214.99 540.071 214.812C540.056 214.634 540.033 214.504 540.005 214.422C540.004 214.285 540.009 214.169 540.022 214.073C540.02 213.936 540.012 213.847 539.998 213.806C539.888 212.56 539.93 211.422 540.124 210.392C540.344 209.307 540.615 208.434 540.937 207.772C541.244 207.07 541.811 206.323 542.638 205.533C543.451 204.701 544.142 204.049 544.712 203.577C545.324 203.09 546.254 202.401 547.505 201.51C546.615 201.589 545.748 201.27 544.904 200.553C544.033 199.891 542.742 198.412 541.03 196.116C539.317 193.682 537.991 192.169 537.052 191.577C536.073 190.999 535.174 190.851 534.355 191.135C533.74 191.347 533.325 191.606 533.109 191.91C534.204 191.76 535.137 191.873 535.909 192.248C536.723 192.746 537.279 193.424 537.577 194.284C537.987 195.472 537.91 196.507 537.345 197.391C536.765 198.234 535.861 198.867 534.632 199.292C533.281 199.76 532.082 199.739 531.034 199.231C530.028 198.708 529.291 197.77 528.823 196.419C528.271 194.822 528.357 193.348 529.081 191.996C529.792 190.604 530.966 189.625 532.604 189.058C533.874 188.619 535.037 188.468 536.094 188.607C537.136 188.705 538.107 189.126 539.006 189.869C539.947 190.598 540.702 191.323 541.272 192.043C541.828 192.722 542.551 193.686 543.442 194.937C545.086 197.303 546.371 198.761 547.295 199.313C548.22 199.864 549.194 199.963 550.217 199.608Z" fill="black"/>
<path d="M669.362 258.587L673.923 260.732L669.752 269.6L668.231 268.885L668.851 267.567C670.742 263.547 669.694 260.599 665.708 258.724L644.323 248.666L645.038 247.146L649.092 249.053L659.58 226.756L655.526 224.849L656.241 223.329L668.656 229.168L667.941 230.689L663.887 228.782L653.4 251.079L665.055 256.561L675.542 234.264L671.488 232.357L672.203 230.837L684.618 236.676L683.903 238.197L679.849 236.29L669.362 258.587Z" fill="black"/>
<path d="M790.583 203.454L778.325 201.955L778.507 200.466L782.725 200.982L786.548 169.715L782.329 169.199L782.511 167.71L805.341 170.501L804.067 180.923L802.578 180.741L802.797 178.955C803.136 176.175 802.804 174.221 801.801 173.091C800.83 171.964 798.922 171.227 796.077 170.88L791.015 170.261L789.303 184.257L792.877 184.693C794.928 184.944 796.846 185.464 798.63 186.253C800.447 187.046 801.978 188.258 803.223 189.887C804.468 191.517 804.963 193.374 804.708 195.459C804.486 197.278 803.931 198.789 803.046 199.99C802.16 201.192 801.03 202.061 799.654 202.598C798.312 203.139 796.895 203.47 795.403 203.59C793.91 203.709 792.304 203.664 790.583 203.454ZM799.745 194.852C800.056 192.304 799.547 190.294 798.215 188.822C796.884 187.349 794.945 186.457 792.397 186.146L789.121 185.745L787.192 201.528L790.319 201.91C793.197 202.262 795.392 201.892 796.902 200.801C798.449 199.68 799.397 197.697 799.745 194.852Z" fill="black"/>
<path d="M116.94 185.512L121.318 186.75L128.904 159.916L121.023 157.688C119.467 163.193 118.432 166.773 117.919 168.429C116.998 171.366 116.308 173.49 115.847 174.801C114.176 179.597 112.498 182.748 110.811 184.252C109.083 185.745 106.885 186.115 104.216 185.36C102.382 184.841 101.049 183.902 100.217 182.541C99.4398 181.15 99.3103 179.538 99.8289 177.703C100.218 176.327 100.911 175.307 101.91 174.644C102.961 173.95 104.175 173.798 105.551 174.187C106.719 174.517 107.583 175.122 108.145 176.001C108.707 176.88 108.823 177.904 108.493 179.071C107.798 181.532 106.098 182.447 103.394 181.818C103.628 182.424 104.308 182.887 105.434 183.205C107.03 183.611 108.442 182.997 109.669 181.363C110.897 179.728 112.272 176.537 113.794 171.789C114.862 168.488 116.334 163.523 118.208 156.893L113.016 155.425L113.688 153.048L142.648 161.235L141.976 163.612L137.473 162.339L129.888 189.172L134.391 190.445L133.737 192.759L116.286 187.826L116.94 185.512Z" fill="black"/>
<path d="M29.5587 201.828L30.5541 204.614L35.1966 202.955L35.7822 204.593L22.128 209.473L21.5424 207.835L25.9117 206.273L17.3232 182.242L12.9539 183.803L12.3683 182.165L26.0225 177.285L26.6081 178.923L21.9656 180.583L28.5632 199.043L35.4644 178.715L34.5275 176.093L29.8851 177.752L29.2995 176.114L42.9537 171.234L43.5393 172.872L39.1699 174.434L47.7584 198.465L52.1278 196.904L52.7134 198.542L39.0592 203.422L38.4736 201.784L43.116 200.124L36.4599 181.5L29.5587 201.828ZM28.0161 159.08C28.9992 158.729 29.8562 158.771 30.5872 159.208C31.3052 159.609 31.8398 160.3 32.1912 161.283C33.024 163.614 32.8333 165.838 31.6191 167.955C30.3919 170.036 28.5949 171.5 26.2282 172.346C23.8615 173.191 21.544 173.198 19.2757 172.367C16.9945 171.498 15.4374 169.899 14.6046 167.569C14.2532 166.586 14.2283 165.712 14.5299 164.947C14.8548 164.133 15.4907 163.556 16.4373 163.218C18.2943 162.554 19.5416 163.115 20.1792 164.899C20.4785 165.736 20.4098 166.521 19.973 167.252C19.5726 167.969 18.9537 168.478 18.1162 168.777C17.8977 168.855 17.5206 168.949 16.9848 169.059C19.0243 170.629 21.7736 170.796 25.2327 169.56C28.9466 168.233 31.0517 166.31 31.548 163.792C31.0539 164.133 30.5337 164.401 29.9876 164.596C29.2957 164.844 28.6975 164.893 28.1929 164.745C27.2591 164.545 26.5905 163.88 26.1871 162.752C25.8878 161.914 25.9084 161.168 26.249 160.512C26.5896 159.857 27.1786 159.379 28.0161 159.08Z" fill="black"/>
<path d="M188.508 240.308L200.036 263.076L203.916 261.111L204.702 262.664L192.283 268.952L191.498 267.399L195.637 265.303L184.11 242.535L179.97 244.631L179.184 243.079L207.127 228.931L207.913 230.484L203.773 232.58L215.301 255.348L219.44 253.252L220.226 254.804L207.807 261.092L207.021 259.539L210.902 257.575L199.375 234.806L188.508 240.308Z" fill="black"/>
<path d="M473.001 254.554C472.08 257.344 470.312 259.061 467.697 259.705C465.094 260.312 462.306 260.124 459.332 259.142C457.643 258.585 456.088 257.868 454.667 256.992C453.295 256.091 452.172 254.865 451.3 253.315C450.464 251.777 450.331 250.145 450.9 248.419C451.264 247.317 451.824 246.545 452.581 246.103C453.387 245.636 454.322 245.578 455.387 245.93C456.378 246.257 457.052 246.805 457.409 247.575C457.766 248.344 457.774 249.243 457.435 250.271C456.89 251.923 455.492 252.581 453.241 252.245C453.488 253.345 454.145 254.315 455.212 255.156C456.156 255.997 457.564 256.726 459.437 257.345C463.733 258.763 466.626 257.214 468.117 252.697C468.832 250.531 468.644 248.881 467.552 247.747C466.473 246.576 464.74 245.597 462.353 244.809L460.04 244.045L460.585 242.393L462.954 243.175C465.193 243.914 466.979 243.995 468.31 243.416C469.653 242.801 470.682 241.41 471.397 239.244C472.537 235.792 471.215 233.442 467.434 232.194C465.157 231.442 463.287 231.558 461.822 232.54C460.37 233.486 459.011 235.135 457.746 237.486L456.204 236.977L459.24 227.779L460.728 228.27L461.359 230.799C463.85 229.789 466.583 229.775 469.557 230.757C472.127 231.605 474.087 232.884 475.437 234.592C476.787 236.299 477.062 238.365 476.262 240.788C475.632 242.698 474.505 244.016 472.881 244.742C471.305 245.443 469.447 245.644 467.307 245.345C469.388 246.317 471.018 247.608 472.197 249.219C473.387 250.793 473.656 252.571 473.001 254.554Z" fill="black"/>
</svg>
