<svg width="579" height="313" viewBox="0 0 579 313" fill="none" xmlns="http://www.w3.org/2000/svg">
<circle cx="295.567" cy="13.567" r="13.567" fill="#050505"/>
<path d="M142.555 100.316C142.555 100.316 213.583 17.5354 295.795 14.2463" stroke="#050505" stroke-width="10"/>
<path d="M295.795 14.2459C382.794 10.7653 453.232 81.2505 453.232 81.2505" stroke="#050505" stroke-width="10"/>
<path d="M482.922 180.57C482.922 182.959 485.338 181.132 486.929 180.57C493.579 178.221 501.813 178.055 508.838 177.541C524.202 176.417 540.393 177.067 555.639 179.295C558.339 179.689 573.73 181.442 573.456 186.309C573.307 188.955 566.196 191.68 564.079 192.765C557.085 196.352 548.917 198.257 541.659 201.414C533.017 205.172 524.689 211.891 515.573 214.327C514.732 214.551 520.956 217.228 521.71 217.595C527.489 220.404 532.848 224.25 538.291 227.598C545.501 232.033 551.389 237.142 557.685 242.623C560.779 245.316 566.235 248.215 567.318 252.268C568.32 256.013 565.174 255.894 561.479 255.894C554.546 255.894 547.477 256.738 540.55 257.17C528.906 257.896 516.032 258.17 504.575 255.735C504.015 255.616 498.731 253.324 501.336 255.894C505.172 259.681 509.735 262.687 513.441 266.655C518.535 272.109 522.093 278.7 526.825 284.43C530.998 289.483 533.057 293.602 535.094 299.654C535.45 300.712 537.276 306.046 535.862 306.669C534.697 307.181 530.423 303.514 529.298 302.883C522.279 298.945 513.589 297.438 506.323 293.915C498.93 290.331 490.477 289.197 482.922 285.666C479.089 283.873 475.332 282.746 471.414 281.321C468.947 280.424 467.5 279.5 464.125 278.133C460.75 276.766 450.145 273.706 449.5 272.5" stroke="#EADEC4" stroke-width="11" stroke-linecap="round"/>
<path d="M106 178C105.824 180.358 93.969 177.012 92.4802 176.358C86.2585 173.623 78.3531 172.944 71.6367 171.996C56.9461 169.924 41.3305 169.552 26.5063 170.794C23.8812 171.014 8.95322 171.779 8.8587 176.599C8.80732 179.219 15.4451 182.353 17.4006 183.557C23.862 187.533 31.5758 189.925 38.3226 193.495C46.3553 197.744 53.8693 204.896 62.4557 207.87C63.2472 208.144 57.066 210.395 56.3135 210.71C50.551 213.12 45.1148 216.579 39.6347 219.541C32.3766 223.465 26.339 228.137 19.8816 233.151C16.7089 235.614 11.2496 238.133 9.9097 242.064C8.67134 245.697 11.7048 245.777 15.2579 246.008C21.9246 246.443 28.6589 247.718 35.2877 248.578C46.4309 250.024 58.7899 251.1 69.9845 249.416C70.5321 249.334 75.7811 247.403 73.0876 249.776C69.1206 253.272 64.5117 255.952 60.6565 259.635C55.3577 264.698 51.4517 270.977 46.4801 276.335C42.0962 281.059 39.8138 284.995 37.4093 290.839C36.9893 291.86 34.8417 297.009 36.1557 297.711C37.2382 298.29 41.6171 294.94 42.7459 294.387C49.7836 290.942 58.2507 289.999 65.4962 286.979C72.8688 283.905 81.0799 283.316 88.6037 280.305C92.4218 278.777 96.1168 277.9 99.9891 276.74C102.427 276.009 104 274.795 107.232 274.051C116.5 271.916 117.431 273.066 118.14 271.916" stroke="#EADEC4" stroke-width="11" stroke-linecap="round"/>
<path d="M278.323 218.339C275.396 242.552 264.249 262.448 244.884 278.029C225.744 293.398 203.113 301.083 176.993 301.083C148.395 301.083 126.778 291.714 112.141 272.976C97.7297 254.448 92.6632 228.761 96.9416 195.916C101.895 156.966 113.38 126.542 131.394 104.645C149.408 82.7487 177.781 70.4318 216.511 67.6947C231.373 66.8526 242.52 66.4315 249.951 66.4315C259.858 65.7998 266.839 64.5366 270.892 62.6417C274.72 60.9573 276.972 58.2202 277.648 54.4304H292.172C290.145 69.8002 286.092 81.8012 280.012 90.4336C274.157 98.8553 264.137 104.435 249.951 107.172C242.745 108.646 228.559 110.119 207.392 111.593C189.828 112.857 175.754 114.857 165.171 117.594C154.587 120.12 145.693 124.542 138.487 130.858C131.281 137.174 125.877 144.965 122.274 154.229C118.896 163.282 116.082 175.494 113.83 190.863H117.883C124.413 174.02 134.772 161.177 148.958 152.334C163.144 143.491 180.033 139.069 199.623 139.069C224.618 139.069 244.771 146.544 260.084 161.492C275.396 176.441 281.476 195.39 278.323 218.339ZM157.402 217.392C154.7 241.605 155.15 258.974 158.753 269.502C162.131 280.45 168.774 285.924 178.681 285.924C189.04 285.924 197.034 280.871 202.663 270.765C208.292 260.869 212.458 244.026 215.16 220.234C217.863 196.653 217.525 179.704 214.147 169.388C210.769 159.282 204.127 154.229 194.219 154.229C183.861 154.229 175.867 159.071 170.237 168.756C164.383 178.652 160.104 194.864 157.402 217.392Z" fill="#3D5D8C"/>
<path d="M487.214 192.442C485.413 206.97 482.035 220.55 477.081 233.183C472.127 245.605 465.484 257.08 457.153 267.607C449.046 277.923 438.576 286.135 425.74 292.24C412.905 298.136 398.381 301.083 382.168 301.083C356.273 301.083 335.444 292.767 319.681 276.134C303.919 259.501 297.501 238.762 300.428 213.918C303.356 189.705 313.376 169.704 330.49 153.913C347.829 138.122 369.333 130.226 395.003 130.226C412.342 130.226 425.065 136.438 433.171 148.86C433.171 139.385 432.721 130.963 431.82 123.594C430.919 116.225 429.005 107.803 426.078 98.329C423.376 88.8545 418.647 81.4854 411.892 76.2218C405.362 70.7476 397.143 68.0106 387.235 68.0106C370.572 68.0106 357.061 72.8531 346.703 82.5381L337.921 72.432C352.332 58.9572 371.36 52.2197 395.003 52.2197C430.807 52.2197 456.702 64.5366 472.69 89.1703C488.453 114.015 493.294 148.439 487.214 192.442ZM363.591 213.918C360.213 238.762 360.213 256.974 363.591 268.554C366.969 280.345 373.724 286.24 383.857 286.24C393.54 286.24 401.421 280.661 407.501 269.502C413.356 258.764 417.859 241.289 421.012 217.076C424.164 192.021 424.052 173.809 420.674 162.44C417.296 150.86 410.428 145.07 400.07 145.07C390.612 145.07 382.956 150.333 377.102 160.861C371.022 172.23 366.518 189.916 363.591 213.918Z" fill="#3D5D8C"/>
</svg>
