<svg width="597" height="392" viewBox="0 0 597 392" fill="none" xmlns="http://www.w3.org/2000/svg">
<path d="M311.311 15.6555C311.311 24.3018 304.302 31.3109 295.655 31.3109C287.009 31.3109 280 24.3018 280 15.6555C280 7.00919 287.009 0 295.655 0C304.302 0 311.311 7.00919 311.311 15.6555Z" fill="#050505"/>
<path d="M98.7803 146.365C98.7803 146.365 202.962 19.8838 297.828 16.0884C398.22 12.072 504.76 146.24 504.76 146.24" stroke="#050505" stroke-width="10"/>
<path d="M98.7803 146.365C98.7803 146.365 202.962 19.8838 297.828 16.0884C398.22 12.072 504.76 146.24 504.76 146.24" stroke="#050505" stroke-width="10"/>
<path d="M447.947 203.993C445.455 218.598 443.416 202.364 442.608 200.706C441.256 197.929 442.492 181.384 442.608 178.469C442.922 170.516 446.001 164.636 450.157 157.978C454.451 151.1 460.343 142.739 468.638 140.665C478.485 138.202 499.143 136.678 505.429 146.527C510.958 155.189 509.246 172.971 506.443 182.359C505.619 185.12 501.661 189.571 503.401 184.496C504.359 181.698 507.46 180.056 509.936 178.633C519.026 173.41 528.331 172.081 538.783 172.935C550.789 173.916 561.002 180.151 564.7 191.454C567.695 200.606 563.994 214.166 557.094 220.876C555.381 222.542 542.818 229.753 540.135 227.724C538.657 226.606 549.451 223.32 550.052 223.231C560.312 221.725 570.4 222.956 578.448 229.477C586.019 235.612 588.829 242.672 589.547 252.105C590.101 259.374 591.929 266.452 588.589 273.309C583.035 284.71 571.427 292.923 558.052 292.923C545.545 292.923 537.643 288.403 526.726 284.157" stroke="#3D5D8C" stroke-width="11" stroke-linecap="round"/>
<path d="M74.2475 285.061C74.5104 285.93 79.1835 288.197 77.6455 289.26C75.0703 291.04 68.9413 291.042 65.9695 291.441C57.8623 292.528 51.3702 290.607 43.9031 287.79C36.1896 284.879 26.6944 280.698 23.1458 273.118C18.933 264.119 13.783 244.606 22.6578 236.867C30.4629 230.061 48.7674 228.595 58.7622 229.639C61.7019 229.947 66.8996 232.959 61.457 232.179C58.4571 231.75 56.253 229.068 54.3799 226.945C47.5043 219.154 44.5336 210.476 43.5734 200.319C42.4706 188.653 47 177.785 57.7991 172.27C66.5429 167.805 80.9189 168.98 88.918 174.415C90.9043 175.765 100.4 186.535 98.8136 189.458C97.9397 191.068 92.7272 181.307 92.5331 180.747C89.2165 171.186 88.7009 161.312 93.8992 152.467C98.7894 144.147 105.447 140.224 114.873 137.889C122.136 136.09 128.984 133.103 136.51 135.104C149.024 138.431 159.367 148.111 161.702 160.918C163.886 172.894 160.689 181.249 158.296 192.444" stroke="#3D5D8C" stroke-width="11" stroke-linecap="round"/>
<path d="M181.105 192.963C211.98 192.963 237.791 202.33 258.539 221.065C279.534 239.8 290.031 263.939 290.031 293.482C290.031 322.305 279.41 345.844 258.169 364.098C236.927 382.112 211.239 391.119 181.105 391.119C150.478 391.119 124.666 381.752 103.672 363.017C82.6768 344.282 72.1794 320.143 72.1794 290.6C72.1794 261.777 82.8003 238.359 104.042 220.345C125.284 202.09 150.972 192.963 181.105 192.963ZM199.26 230.793C195.555 218.783 189.503 212.779 181.105 212.779C172.707 212.779 166.656 218.543 162.951 230.072C159.246 241.842 157.394 262.017 157.394 290.6C157.394 320.143 159.246 340.92 162.951 352.929C166.656 365.179 172.707 371.304 181.105 371.304C189.503 371.304 195.555 365.419 199.26 353.65C202.965 342.121 204.817 322.065 204.817 293.482C204.817 263.939 202.965 243.042 199.26 230.793Z" fill="#EADEC4"/>
<path d="M413.751 192.963C444.626 192.963 470.437 202.33 491.185 221.065C512.18 239.8 522.677 263.939 522.677 293.482C522.677 322.305 512.056 345.844 490.814 364.098C469.572 382.112 443.885 391.119 413.751 391.119C383.123 391.119 357.312 381.752 336.317 363.017C315.322 344.282 304.825 320.143 304.825 290.6C304.825 261.777 315.446 238.359 336.688 220.345C357.93 202.09 383.617 192.963 413.751 192.963ZM431.905 230.793C428.2 218.783 422.149 212.779 413.751 212.779C405.353 212.779 399.302 218.543 395.597 230.072C391.892 241.842 390.039 262.017 390.039 290.6C390.039 320.143 391.892 340.92 395.597 352.929C399.302 365.179 405.353 371.304 413.751 371.304C422.149 371.304 428.2 365.419 431.905 353.65C435.61 342.121 437.463 322.065 437.463 293.482C437.463 263.939 435.61 243.042 431.905 230.793Z" fill="#EADEC4"/>
</svg>
