<svg width="414" height="154" viewBox="0 0 414 154" fill="none" xmlns="http://www.w3.org/2000/svg">
<path d="M77.9686 97.9984C77.9686 97.9984 145.096 16.5024 206.222 14.0569C270.907 11.469 341.32 97.9984 341.32 97.9984" stroke="#050505" stroke-width="10"/>
<path d="M77.9686 97.9984C77.9686 97.9984 145.096 16.5024 206.222 14.0569C270.907 11.469 341.32 97.9984 341.32 97.9984" stroke="#3D5D8C" stroke-width="10"/>
<path fill-rule="evenodd" clip-rule="evenodd" d="M3.05176e-05 92.8991L67.7026 120.737L3.05176e-05 150.801V154.005L325.051 154.005V90.3125L3.05176e-05 90.3125V92.8991Z" fill="#050505"/>
<path fill-rule="evenodd" clip-rule="evenodd" d="M414 92.899L346.297 120.737L414 150.801V154.005L88.949 154.005L88.949 90.3125L414 90.3125V92.899Z" fill="#050505"/>
<circle cx="209" cy="14" r="14" fill="#050505"/>
</svg>
